<svg xmlns="http://www.w3.org/2000/svg" width="29.898" height="41.01"><defs><style>.a{fill:#fff}</style></defs><path class="a" d="M26.934 17.124L14.95 0 2.964 17.124a14.882 14.882 0 00-2.965 8.937 14.9 14.9 0 004.474 10.662c.127-.607.283-1.229.476-1.863a20.352 20.352 0 012.833-5.786c-.065-.095-.134-.184-.194-.283a7.067 7.067 0 012.316-9.724 7.034 7.034 0 014.333-1.02l9.865.584-.454 1.05-.7 1.616-2.772 6.4a7.04 7.04 0 01-2.865 3.408 7.064 7.064 0 01-8.094-.489 18.537 18.537 0 00-2.928 7.626 14.878 14.878 0 008.659 2.766 14.949 14.949 0 0014.949-14.949 14.883 14.883 0 00-2.963-8.935z"/><path class="a" d="M14.063 19.843a5.25 5.25 0 00-3.233.761 5.269 5.269 0 00-1.885 6.967A26.561 26.561 0 0119.8 20.183l-5.737-.34zM20.631 22.109a24.373 24.373 0 00-10.352 7.081 5.269 5.269 0 006.078.4 5.245 5.245 0 002.137-2.542z"/></svg>