<svg xmlns="http://www.w3.org/2000/svg" width="41.657" height="41.676"><defs><style>.a{fill:#fff}</style></defs><path class="a" d="M27.177 30.255V25.92h-4.263a9.668 9.668 0 00-1.176-2.914l2.991-2.991-3.065-3.065-2.949 2.949a9.671 9.671 0 00-2.96-1.283v-4.113h-4.334v4.038a9.669 9.669 0 00-3.086 1.231l-2.823-2.826-3.065 3.065 2.794 2.795a9.667 9.667 0 00-1.3 3.115H0v4.335h3.953a9.672 9.672 0 001.313 3.089l-2.819 2.819 3.065 3.065 2.861-2.861a9.665 9.665 0 003.047 1.206v4.1h4.335v-4.178a9.665 9.665 0 002.92-1.257l2.988 2.988 3.065-3.065-3.016-3.017a9.67 9.67 0 001.186-2.892zm-13.749 3.691a5.891 5.891 0 01-5.891-5.891 5.891 5.891 0 015.891-5.891 5.891 5.891 0 015.891 5.891 5.891 5.891 0 01-5.891 5.891zM41.658 8.034l-1.294-3.149-3.1 1.273a7.589 7.589 0 00-1.725-1.768l1.283-3.069L33.681.01 32.42 3.032a7.6 7.6 0 00-2.533-.048L28.659-.003l-3.148 1.294 1.206 2.933a7.585 7.585 0 00-1.874 1.815l-2.892-1.207-1.311 3.141 2.863 1.195a7.588 7.588 0 00-.016 2.653l-2.861 1.176 1.294 3.148 2.871-1.18a7.593 7.593 0 001.876 1.856l-1.206 2.889 3.141 1.311 1.224-2.933a7.59 7.59 0 002.573-.034l1.225 2.98 3.149-1.294-1.247-3.034a7.593 7.593 0 001.746-1.785l3.062 1.278 1.311-3.141-3.092-1.29a7.583 7.583 0 000-2.454zm-8.885 6.786a4.626 4.626 0 01-6.037-2.52 4.626 4.626 0 012.52-6.038 4.626 4.626 0 016.038 2.52 4.626 4.626 0 01-2.521 6.039z"/></svg>