<svg xmlns="http://www.w3.org/2000/svg" width="40.967" height="40.864"><defs><style>.a{fill:#fff}</style></defs><path class="a" d="M13.673 15.67a4.935 4.935 0 006.243.071 4.975 4.975 0 00.909-.949 4.938 4.938 0 10-8.159-.272 4.962 4.962 0 001.007 1.15z"/><path class="a" d="M20.821 17.332a6.769 6.769 0 00-.909-.587 4.935 4.935 0 01-6.243-.071 6.767 6.767 0 00-3.7 6.019v1.322a10.4 10.4 0 0013.5 0v-1.322a6.737 6.737 0 00-2.648-5.361z"/><path class="a" d="M40.971 37.762L30.043 26.834a16.722 16.722 0 10-3.088 3.116L37.87 40.865zM3.294 16.722a13.431 13.431 0 1113.431 13.431A13.431 13.431 0 013.29 16.722z"/></svg>