<svg xmlns="http://www.w3.org/2000/svg" width="41.169" height="41.045"><defs><style>.a{fill:#fff}</style></defs><path class="a" d="M5.419 6.606a20.577 20.577 0 000 27.832c2.118-2.821 3.706-7.735 3.706-13.916S7.538 9.427 5.419 6.606zM35.755 34.438a20.576 20.576 0 000-27.832c-2.119 2.82-3.706 7.734-3.706 13.916s1.582 11.095 3.706 13.916z"/><path class="a" d="M7.646 4.517c2.767 3.526 4.543 9.324 4.543 16.006s-1.776 12.48-4.543 16.006a20.485 20.485 0 0011.407 4.517V0A20.479 20.479 0 007.646 4.517zM33.523 36.528c-2.768-3.526-4.543-9.324-4.543-16.006s1.775-12.48 4.543-16.006A20.483 20.483 0 0022.116-.001v41.044a20.478 20.478 0 0011.407-4.515z"/></svg>