<svg xmlns="http://www.w3.org/2000/svg" width="26.274" height="42"><defs><style>.a{fill:#fff}</style></defs><path class="a" d="M6.821 33.474h12.632v2.274H6.821zM6.821 36.6h12.632v2.274H6.821zM6.821 39.726h12.632V42H6.821zM26.274 12.382C26.274 5.544 20.392 0 13.137 0S0 5.544 0 12.382a11.715 11.715 0 00.51 3.414l.017.045a11.845 11.845 0 00.54 1.427l5.758 15.2h12.632l5.757-15.2a11.868 11.868 0 00.541-1.427l.017-.045a11.727 11.727 0 00.502-3.414zm-2.675 3.487l-.014.037a9.8 9.8 0 01-.448 1.182l-4.769 12.587H10.65c.482-.461.959-.927 1.423-1.4.8-.8 1.569-1.629 2.348-2.448a144.265 144.265 0 004.488-5.064l1.356-1.6-2.14-.045q-2.1-.044-4.2-.045-1.083 0-2.165.016a124.95 124.95 0 002.7-3.721c.632-.92 1.273-1.834 1.88-2.775s1.212-1.883 1.781-2.854q-1.245 1.14-2.418 2.339c-.793.791-1.552 1.608-2.32 2.419-1.524 1.631-3 3.3-4.439 5l-1.341 1.579 2.119.051c1.4.034 2.8.049 4.2.052.72 0 1.44-.015 2.16-.023-.937 1.247-1.863 2.5-2.757 3.785-.638.933-1.289 1.855-1.9 2.808-.42.631-.823 1.276-1.22 1.926h-2.3L3.136 17.088a9.8 9.8 0 01-.448-1.182l-.014-.037a9.712 9.712 0 01-.422-2.827c0-5.665 4.872-10.257 10.882-10.257s10.882 4.592 10.882 10.257a9.7 9.7 0 01-.422 2.827z"/></svg>