<svg xmlns="http://www.w3.org/2000/svg" width="35.211" height="42"><defs><style>.a{fill:#fff}</style></defs><path class="a" d="M17.605 11.752a3.341 3.341 0 00-3.337 3.337v3.434h6.675v-3.434a3.341 3.341 0 00-3.338-3.337z"/><path class="a" d="M35.156 7.943a15.7 15.7 0 01-3.336.359 15.7 15.7 0 01-3.242-.339A17.2 17.2 0 0117.606 0 17.2 17.2 0 016.634 7.963a15.7 15.7 0 01-3.242.339 15.7 15.7 0 01-3.336-.359Q.002 9.074.001 10.227c0 12.17 4.609 22.7 11.307 27.738.714.538 1.448 1.16 2.177 1.628A43.42 43.42 0 0017.607 42a43.379 43.379 0 004.122-2.407c.729-.467 1.463-1.09 2.177-1.628 6.7-5.042 11.307-15.568 11.307-27.738q-.002-1.155-.057-2.284zm-9.067 23.7H9.122V18.518h2.125v-3.434a6.366 6.366 0 016.359-6.359 6.366 6.366 0 016.359 6.359v3.434h2.125z"/></svg>