<svg xmlns="http://www.w3.org/2000/svg" width="42" height="38.789"><path d="M21 0A21 21 0 000 21a20.985 20.985 0 009.836 17.789v-2.671a11.139 11.139 0 014.448-8.913 11.182 11.182 0 011.667-1.042 8.131 8.131 0 005.235 1.9 8.134 8.134 0 005.091-1.783 11.177 11.177 0 011.5.972 11.143 11.143 0 014.382 8.867v2.671a20.984 20.984 0 009.837-17.789A21 21 0 0021 0zm6.78 23.05a8.229 8.229 0 01-1.5 1.569 8.133 8.133 0 01-5.091 1.783 8.131 8.131 0 01-5.235-1.9 8.2 8.2 0 01-1.667-1.9 8.126 8.126 0 01-1.267-4.366 8.152 8.152 0 01.252-2.02 8.171 8.171 0 017.916-6.148 8.173 8.173 0 017.8 5.748 8.158 8.158 0 01.365 2.421 8.123 8.123 0 01-1.573 4.813z" fill="#fff"/></svg>