<svg xmlns="http://www.w3.org/2000/svg" width="38.045" height="40.935"><path d="M36.093 8.802v-8.1a.707.707 0 00-.706-.706H2.638a.686.686 0 00-.686.686v8.126a.336.336 0 01-.336.336h-.89a.727.727 0 00-.727.726v7.568a.7.7 0 00.7.7h.861a.391.391 0 01.391.391v17.013a.738.738 0 00.738.738h2.614v3.914a.737.737 0 00.737.737h3.531a.727.727 0 00.727-.727v-3.923H28.82v3.941a.71.71 0 00.71.71h3.531a.754.754 0 00.754-.754v-3.9h1.542a.735.735 0 00.735-.735V18.53a.394.394 0 01.394-.394h.88a.677.677 0 00.678-.677V9.887a.745.745 0 00-.745-.745h-.861a.346.346 0 01-.345-.34zM9.234 2.412H28.81v2.985H9.232zm1.061 30.471a2.646 2.646 0 01-3.109-3.109 2.632 2.632 0 012.075-2.075 2.645 2.645 0 013.109 3.108 2.632 2.632 0 01-2.075 2.076zm18.62 0a2.646 2.646 0 01-3.109-3.109 2.632 2.632 0 012.075-2.075 2.645 2.645 0 013.109 3.108 2.632 2.632 0 01-2.08 2.076zm2.911-11.7H6.22V7.691h25.606z" fill="#fff"/></svg>