<svg xmlns="http://www.w3.org/2000/svg" xmlns:xlink="http://www.w3.org/1999/xlink" width="1366" height="391"><defs><linearGradient id="b" x1=".375" y1="1.249" x2=".875" y2=".25" gradientUnits="objectBoundingBox"><stop offset=".078" stop-color="#004651"/><stop offset=".593" stop-color="#1b7e8e"/></linearGradient><linearGradient id="c" y1=".5" x2="1" y2=".5" gradientUnits="objectBoundingBox"><stop offset="0" stop-color="#1b7e8e"/><stop offset=".64" stop-color="#212A5C"/></linearGradient><linearGradient id="i" x1="0" y1=".5" x2="1" y2=".5" xlink:href="#b"/><linearGradient id="m" x1="-22.915" y1="-129.235" x2="-21.915" y2="-129.235" xlink:href="#c"/><linearGradient id="t" x1="-26.492" y1="-129.235" x2="-25.492" y2="-129.235" xlink:href="#c"/><linearGradient id="aa" x1="-30.07" y1="-129.235" x2="-29.07" y2="-129.235" xlink:href="#c"/><linearGradient id="ah" x1="-17.5" y1="-131.528" x2="-16.5" y2="-131.528" xlink:href="#c"/><linearGradient id="ao" x1="-21.077" y1="-131.528" x2="-20.077" y2="-131.528" xlink:href="#c"/><linearGradient id="av" x1="-24.655" y1="-131.528" x2="-23.655" y2="-131.528" xlink:href="#c"/><linearGradient id="bc" x1="-28.232" y1="-131.528" x2="-27.232" y2="-131.528" xlink:href="#c"/><clipPath id="a"><path transform="translate(-3422.142 3077.765)" fill="none" d="M0 0h1366v391H0z"/></clipPath><style>.c{fill:#212A5C}.e{fill:url(#c)}.f{fill:#1b7e8e}.g{fill:#104851}.h{fill:url(#i)}</style></defs><g clip-path="url(#a)" transform="translate(3422.142 -3077.765)"><path class="c" d="M-3422.142 3077.765h1366v391h-1366z"/><path d="M-3180.554 3028.578l-128.76 223.59h257.519z" fill="url(#b)"/><path class="e" d="M-3183.173 3193.809c2.359-2.607 4.791-5.178 7.279-7.6v-20.65c-10.28 8.109-21.036 16.47-31.457 26.367-2.139 2.5-7.827 8.214-14.325 16.933a113.513 113.513 0 00-9.6 15.319c-2.968 5.7-5.475 11.636-7.949 17.266-1.235 2.813-2.465 5.547-3.736 8.152-.445.863-.894 1.717-1.343 2.572h24.031l.121-.319a1.069 1.069 0 00-.255-.91 141.777 141.777 0 012.38-4.852c1.83-5.008 3.6-9.794 5.677-14.281a95.588 95.588 0 017.49-13.129c5.822-8.597 13.271-16.783 21.687-24.868zM-3176.7 3222.006a113.354 113.354 0 00-10.11 14.983c-2.82 5-5.274 10.179-7.663 15.178h18.578v-31.155c-.267.329-.533.655-.805.994zM-3381.389 3154a27.7 27.7 0 005.947-2.34l.053-.875c2.072-.778 4.2-1.608 6.357-2.539 2.133-.952 4.243-2.037 6.406-3.1a118.358 118.358 0 0020.015-16.237c-.354-.06-.607-.183-.064-.821 1.243-1.233 2.677-2.674 4.288-4.215s3.4-3.182 5.051-4.938l1.358-1.654a1.126 1.126 0 00.088-.986l4.09-4.228c1.9-2.424 3.755-4.853 5.594-7.28h-27.724c-7.628 8.116-15.639 15.381-23.372 20.262-2.246 1.3-4.348 2.651-6.416 3.765-.564.3-1.114.56-1.671.836zM-3359.858 3185.432a33.7 33.7 0 016.253-3.53 32.712 32.712 0 006.172-3.766l-.138-.845c3.405-2.1 7.08-4.132 10.623-6.6 3.089-2.465 5.994-5.183 8.893-7.872 1.448-1.347 2.8-2.819 4.188-4.225l2.063-2.136c.681-.717 1.312-1.49 1.968-2.232-.346-.044-.6-.153-.143-.8 1.035-1.279 2.386-2.7 3.855-4.246a168.054 168.054 0 004.439-5.011l1.151-1.634a1.075 1.075 0 00-.02-.946c1.286-1.56 2.439-2.9 3.512-4.1 3.02-4.392 5.928-8.582 9.054-12.408a95.53 95.53 0 0110.522-10.839 125.1 125.1 0 0112.266-9.453h-31.089a115.729 115.729 0 00-8.126 8.168c-4.294 4.778-8.2 9.9-12 14.73-1.9 2.415-3.768 4.754-5.648 6.959a289.463 289.463 0 01-5.8 6.346 148.789 148.789 0 01-12.1 11.006c-2.013 1.607-3.909 3.185-5.839 4.535-1.911 1.368-3.648 2.726-5.389 3.833l-4.7 3.112c-1.456.876-2.742 1.649-3.832 2.3l-1.544 1.013c-3.164 1.916-6.618 3.9-10.123 5.884v25.725c7.315-3.547 14.553-7.374 21.624-11.627-.219-.432-1.353-.288-.092-1.341zM-3378.6 3243.679c4.51-5.237 11.293-9.973 18.609-14.459a563.406 563.406 0 0111.387-6.763c3.775-2.171 7.484-4.191 11.163-5.955-.181-.447-1.183-.5-.05-1.289 3.693-2.275 7.38-1.982 11.454-3.914l.051-.841c3.408-.846 7.136-1.6 11.086-2.554 3.5-1.249 7.131-2.635 10.779-4.259.91-.4 1.829-.845 2.739-1.269l2.7-1.386c1.814-.9 3.516-1.947 5.246-2.949-.321-.148-.533-.33.11-.8 1.369-.918 3.061-1.9 4.893-2.99 1.8-1.124 3.793-2.3 5.684-3.643l1.589-1.3a1.075 1.075 0 00.234-.937c1.65-1.255 3.2-2.294 4.548-3.329a203.854 203.854 0 0022.127-24.89c6.78-8.76 13.13-17.824 20.114-26.826a111.508 111.508 0 018.537-11.484 85.908 85.908 0 018.148-7.584c2.983-2.419 6.02-4.714 8.71-6.585-.608-.406-.306-1.368.446-2.607.056-.089.131-.187.192-.279h-22.633c-9.98 9.237-18.62 19.337-27.143 29.119-1.761 2.462-6.257 8.172-12.345 15.149a168.647 168.647 0 01-22.68 21.933 94.276 94.276 0 01-13.661 8.909c-2.346 1.207-4.637 2.329-7.021 3.292s-4.808 1.864-7.221 2.7c-4.828 1.666-9.584 3.154-13.786 4.635-4.192 1.456-7.86 2.924-10.477 4.065-.627.3-1.245.6-1.854.909a137.551 137.551 0 00-16.577 9.311 195.228 195.228 0 00-7.453 5.068c-2.382 1.73-4.608 3.44-6.555 5.149-1.311 1.224-2.6 2.52-3.878 3.851v16.53c.269-.142.465-.172.526-.019a4.239 4.239 0 01-.526.544v10.25a27.963 27.963 0 002.788-2.503zM-3307.631 3249.541c-.222-.427-1.315-.308-.125-1.319a29.843 29.843 0 016.052-3.237 30.539 30.539 0 006.151-3.161l-.076-.854c3.515-1.6 7.195-3.191 10.992-4.853 6.595-3.775 13.14-7.527 19.78-11.486-.32-.147-.532-.328.113-.806 2.8-1.8 6.954-3.92 11.094-6.6l1.722-1.337a1.145 1.145 0 00.3-.957c1.836-1.265 3.483-2.4 5-3.489a91.425 91.425 0 0012.638-13.731 129.92 129.92 0 009.783-15.387c5.784-10.484 10.418-21.167 16.55-31.218a69.643 69.643 0 018.021-12.408c1.229-1.286 2.53-2.68 3.988-4l2.255-1.956 1.148-.98 1.205-.921c1.606-1.228 3.2-2.456 4.831-3.526l2.353-1.621 2.281-1.457c-.6-.425-.213-1.4.664-2.648a42.681 42.681 0 013.67-4.095c.457-.459.911-.911 1.342-1.351v-11.364h-5.252q-5.457 3.079-10.684 6.646a120.545 120.545 0 00-22.744 20.2 132.945 132.945 0 00-9.241 12.129c-2.782 4.125-5.352 8.267-7.824 12.34-1.45 2.9-5.1 9.856-10.143 17.878a98.626 98.626 0 01-9.026 12.145c-.844 1.032-1.8 1.934-2.72 2.913s-1.9 1.89-2.92 2.818a83.884 83.884 0 01-6.6 5.335c-2.344 1.713-4.82 3.353-7.36 4.927a149.238 149.238 0 01-3.869 2.3l-4.016 2.252-15.859 8.729c-9.979 5.481-18.408 10.24-23.309 13.114l-1.742 1.09a178.928 178.928 0 00-16.46 11.127c-2.712 1.988-5.216 4.217-7.61 6.25-1.941 1.788-3.752 3.519-5.372 5.186h36.823c1.395-.871 2.783-1.752 4.196-2.617z"/><path class="f" d="M-2996.155 3114.356a89.985 89.985 0 00-89.869-90.1v90.1z"/><path class="c" d="M-3086.024 3024.256a89.986 89.986 0 00-89.87 90.1 90.008 90.008 0 0032.7 69.526l57.166-69.526z"/><path class="g" d="M-3086.024 3114.356l-57.166 69.526a89.365 89.365 0 0057.166 20.574 89.985 89.985 0 0089.869-90.1z"/><path class="h" d="M-2685.716 3028.578l-128.759 223.59h257.519z"/><path class="e" d="M-2688.335 3193.809c2.359-2.607 4.791-5.178 7.279-7.6v-20.65c-10.28 8.109-21.036 16.47-31.456 26.367-2.14 2.5-7.828 8.214-14.326 16.933a113.514 113.514 0 00-9.6 15.319c-2.968 5.7-5.475 11.636-7.948 17.266-1.236 2.813-2.466 5.547-3.737 8.152-.445.863-.894 1.717-1.343 2.572h24.032c.039-.1.08-.214.12-.319a1.069 1.069 0 00-.255-.91 143.66 143.66 0 012.38-4.852c1.831-5.008 3.6-9.794 5.677-14.281a95.622 95.622 0 017.491-13.129c5.821-8.597 13.27-16.783 21.686-24.868zM-2681.861 3222.006a113.33 113.33 0 00-10.11 14.983c-2.819 5-5.274 10.179-7.663 15.178h18.578v-31.155c-.268.329-.534.655-.805.994zM-2886.55 3154a27.686 27.686 0 005.946-2.34l.053-.875c2.073-.778 4.2-1.608 6.357-2.539 2.134-.952 4.243-2.037 6.407-3.1a118.381 118.381 0 0020.014-16.237c-.354-.06-.607-.183-.064-.821 1.243-1.233 2.677-2.674 4.288-4.215s3.4-3.182 5.051-4.938l1.359-1.654a1.127 1.127 0 00.087-.986l4.09-4.228c1.9-2.424 3.756-4.853 5.594-7.28h-27.724c-7.628 8.116-15.638 15.381-23.371 20.262-2.247 1.3-4.349 2.651-6.417 3.765-.564.3-1.114.56-1.67.836z"/><path d="M-2865.02 3185.432a33.786 33.786 0 016.253-3.53 32.7 32.7 0 006.172-3.765l-.138-.845c3.405-2.1 7.08-4.132 10.623-6.6 3.089-2.464 5.994-5.182 8.893-7.872 1.448-1.347 2.8-2.818 4.188-4.225l2.063-2.135c.681-.717 1.313-1.49 1.968-2.233-.346-.044-.6-.153-.142-.8 1.035-1.279 2.385-2.7 3.854-4.247a169.485 169.485 0 004.44-5.011l1.15-1.634a1.074 1.074 0 00-.02-.946c1.286-1.559 2.44-2.9 3.513-4.1 3.019-4.391 5.928-8.582 9.053-12.407a95.452 95.452 0 0110.522-10.839 124.978 124.978 0 0112.266-9.453h-31.089a115.516 115.516 0 00-8.126 8.168c-4.294 4.777-8.2 9.9-12 14.729-1.9 2.416-3.769 4.755-5.648 6.959a277.669 277.669 0 01-5.806 6.347 148.77 148.77 0 01-12.1 11c-2.013 1.607-3.909 3.185-5.839 4.535-1.911 1.368-3.648 2.726-5.389 3.834l-4.7 3.111-3.832 2.3-1.545 1.012c-3.164 1.917-6.618 3.9-10.122 5.885v25.73c7.314-3.548 14.552-7.375 21.623-11.628-.212-.431-1.346-.286-.085-1.34z" fill="url(#m)"/><path class="e" d="M-2883.758 3243.679c4.509-5.237 11.292-9.973 18.608-14.459a566.191 566.191 0 0111.387-6.763c3.775-2.171 7.484-4.191 11.163-5.955-.181-.447-1.183-.5-.05-1.289 3.694-2.275 7.38-1.982 11.455-3.914l.051-.841c3.408-.846 7.135-1.6 11.085-2.554 3.5-1.249 7.132-2.635 10.779-4.259.91-.4 1.829-.845 2.739-1.269l2.7-1.386c1.814-.9 3.516-1.947 5.247-2.949-.322-.148-.533-.33.11-.8 1.368-.918 3.06-1.9 4.892-2.99 1.8-1.124 3.793-2.3 5.684-3.643.533-.437 1.066-.874 1.589-1.3a1.074 1.074 0 00.234-.937c1.651-1.255 3.2-2.294 4.548-3.329a203.854 203.854 0 0022.127-24.89c6.78-8.76 13.13-17.824 20.114-26.826a111.474 111.474 0 018.537-11.484 86.053 86.053 0 018.148-7.584c2.983-2.419 6.02-4.714 8.71-6.585-.608-.406-.306-1.368.446-2.607.056-.089.131-.187.193-.279h-22.638c-9.979 9.237-18.62 19.337-27.143 29.119-1.761 2.462-6.257 8.172-12.345 15.149a168.635 168.635 0 01-22.68 21.933 94.21 94.21 0 01-13.661 8.909c-2.346 1.207-4.637 2.329-7.021 3.292s-4.808 1.864-7.221 2.7c-4.828 1.666-9.584 3.154-13.786 4.635-4.192 1.456-7.86 2.924-10.477 4.065-.627.3-1.245.6-1.854.909a137.7 137.7 0 00-16.577 9.311 195.228 195.228 0 00-7.453 5.068c-2.382 1.73-4.608 3.44-6.555 5.149a99.676 99.676 0 00-3.877 3.851v16.53c.269-.142.464-.172.526-.019a4.383 4.383 0 01-.526.544v10.25a28.019 28.019 0 002.792-2.503zM-2812.793 3249.541c-.222-.427-1.315-.308-.125-1.319a29.843 29.843 0 016.052-3.237 30.563 30.563 0 006.152-3.161l-.077-.854c3.515-1.6 7.2-3.191 10.992-4.853 6.595-3.775 13.14-7.527 19.78-11.486-.32-.147-.532-.328.113-.806 2.8-1.8 6.954-3.92 11.094-6.6l1.722-1.337a1.145 1.145 0 00.305-.957c1.836-1.265 3.484-2.4 5-3.489a91.438 91.438 0 0012.638-13.731 130.052 130.052 0 009.784-15.387c5.783-10.484 10.418-21.167 16.55-31.218a69.571 69.571 0 018.02-12.408c1.229-1.286 2.531-2.68 3.988-4l2.255-1.956 1.148-.98 1.205-.921c1.607-1.228 3.2-2.456 4.832-3.526l2.352-1.621 2.281-1.457c-.6-.425-.213-1.4.665-2.648a42.627 42.627 0 013.669-4.095c.458-.459.911-.911 1.342-1.351v-11.364h-5.252q-5.457 3.079-10.684 6.646a120.547 120.547 0 00-22.744 20.2 132.99 132.99 0 00-9.241 12.129c-2.782 4.125-5.351 8.267-7.823 12.34-1.451 2.9-5.1 9.856-10.144 17.878a98.649 98.649 0 01-9.026 12.145c-.844 1.032-1.8 1.934-2.72 2.913s-1.9 1.89-2.92 2.818a83.924 83.924 0 01-6.6 5.335c-2.344 1.713-4.82 3.353-7.36 4.927a149.238 149.238 0 01-3.869 2.3l-4.016 2.252-15.859 8.729c-9.979 5.481-18.407 10.24-23.309 13.114l-1.742 1.09a178.928 178.928 0 00-16.46 11.127c-2.712 1.988-5.216 4.217-7.609 6.25-1.942 1.788-3.752 3.519-5.373 5.186h36.823c1.39-.871 2.779-1.752 4.191-2.617z"/><path class="f" d="M-2501.317 3114.356a89.985 89.985 0 00-89.869-90.1v90.1z"/><path class="c" d="M-2591.186 3024.256a89.985 89.985 0 00-89.87 90.1 90.009 90.009 0 0032.7 69.526l57.166-69.526z"/><path class="g" d="M-2591.186 3114.356l-57.165 69.526a89.361 89.361 0 0057.165 20.574 89.985 89.985 0 0089.869-90.1z"/><path class="h" d="M-2190.878 3028.578l-128.759 223.59h257.519z"/><path class="e" d="M-2193.5 3193.809c2.359-2.607 4.791-5.178 7.279-7.6v-20.65c-10.279 8.109-21.035 16.47-31.456 26.367-2.14 2.5-7.828 8.214-14.326 16.933a113.513 113.513 0 00-9.6 15.319c-2.968 5.7-5.475 11.636-7.948 17.266-1.235 2.813-2.466 5.547-3.736 8.152-.446.863-.9 1.717-1.344 2.572h24.032c.04-.1.081-.214.12-.319a1.069 1.069 0 00-.255-.91 145.594 145.594 0 012.38-4.852c1.831-5.008 3.6-9.794 5.677-14.281a95.6 95.6 0 017.491-13.129c5.824-8.597 13.274-16.783 21.686-24.868zM-2187.023 3222.006a113.449 113.449 0 00-10.11 14.983c-2.819 5-5.274 10.179-7.663 15.178h18.578v-31.155c-.267.329-.534.655-.805.994zM-2391.712 3154a27.684 27.684 0 005.946-2.34l.053-.875c2.073-.778 4.2-1.608 6.357-2.539 2.134-.952 4.243-2.037 6.407-3.1a118.35 118.35 0 0020.014-16.237c-.354-.06-.606-.183-.064-.821 1.244-1.233 2.677-2.674 4.288-4.215s3.4-3.182 5.051-4.938l1.359-1.654a1.127 1.127 0 00.087-.986l4.09-4.228c1.9-2.424 3.756-4.853 5.594-7.28h-27.724c-7.628 8.116-15.638 15.381-23.371 20.262-2.247 1.3-4.349 2.651-6.417 3.765-.564.3-1.114.56-1.67.836z"/><path d="M-2370.182 3185.431a33.78 33.78 0 016.253-3.529 32.732 32.732 0 006.172-3.766l-.138-.845c3.406-2.1 7.081-4.132 10.623-6.6 3.09-2.464 5.995-5.182 8.894-7.872 1.448-1.347 2.8-2.818 4.188-4.225l2.062-2.135c.682-.717 1.313-1.49 1.969-2.233-.346-.043-.6-.153-.143-.8 1.035-1.279 2.385-2.7 3.855-4.247a169.644 169.644 0 004.439-5.011l1.151-1.634a1.071 1.071 0 00-.021-.945c1.287-1.56 2.44-2.9 3.513-4.1 3.02-4.391 5.928-8.581 9.054-12.407a95.348 95.348 0 0110.522-10.839 124.987 124.987 0 0112.266-9.453h-31.089a115.737 115.737 0 00-8.127 8.168c-4.293 4.778-8.2 9.9-12 14.73-1.9 2.415-3.769 4.754-5.648 6.958a277.669 277.669 0 01-5.806 6.347 148.764 148.764 0 01-12.1 11c-2.014 1.607-3.909 3.185-5.84 4.535-1.911 1.368-3.647 2.726-5.388 3.834l-4.7 3.112-3.832 2.3-1.545 1.012c-3.163 1.917-6.617 3.9-10.122 5.885v25.729c7.314-3.548 14.552-7.374 21.624-11.627-.213-.432-1.346-.288-.086-1.342z" fill="url(#t)"/><path class="e" d="M-2388.92 3243.679c4.509-5.237 11.292-9.973 18.608-14.459a563.486 563.486 0 0111.388-6.763c3.774-2.171 7.483-4.191 11.162-5.955-.18-.447-1.183-.5-.049-1.289 3.693-2.275 7.38-1.982 11.454-3.914l.051-.841c3.408-.846 7.135-1.6 11.085-2.554 3.5-1.249 7.132-2.635 10.779-4.259.91-.4 1.829-.845 2.739-1.269l2.7-1.386c1.815-.9 3.516-1.947 5.247-2.949-.322-.148-.533-.33.11-.8 1.368-.918 3.06-1.9 4.892-2.99 1.8-1.124 3.793-2.3 5.684-3.643.533-.437 1.066-.874 1.589-1.3a1.075 1.075 0 00.234-.937c1.651-1.255 3.2-2.294 4.548-3.329a203.944 203.944 0 0022.128-24.89c6.78-8.76 13.129-17.824 20.114-26.826a111.608 111.608 0 018.536-11.484 86.053 86.053 0 018.148-7.584c2.983-2.419 6.02-4.714 8.71-6.585-.607-.406-.306-1.368.446-2.607.056-.089.132-.187.193-.279h-22.634c-9.979 9.237-18.62 19.337-27.142 29.119-1.761 2.462-6.258 8.172-12.345 15.149a168.6 168.6 0 01-22.681 21.933 94.159 94.159 0 01-13.661 8.909c-2.346 1.207-4.637 2.329-7.021 3.292s-4.807 1.864-7.221 2.7c-4.828 1.666-9.583 3.154-13.785 4.635-4.192 1.456-7.861 2.924-10.478 4.065-.627.3-1.244.6-1.854.909a137.613 137.613 0 00-16.576 9.311 194.44 194.44 0 00-7.453 5.068c-2.383 1.73-4.609 3.44-6.556 5.149a99.676 99.676 0 00-3.877 3.851v16.53c.269-.142.465-.172.526-.019a4.378 4.378 0 01-.526.544v10.25a28.074 28.074 0 002.788-2.503zM-2317.954 3249.541c-.222-.427-1.316-.308-.126-1.319a29.869 29.869 0 016.052-3.237 30.571 30.571 0 006.152-3.161l-.076-.854c3.515-1.6 7.195-3.191 10.991-4.853 6.595-3.775 13.141-7.527 19.78-11.486-.32-.147-.532-.328.113-.806 2.8-1.8 6.954-3.92 11.094-6.6l1.722-1.337a1.142 1.142 0 00.3-.957c1.836-1.265 3.484-2.4 5-3.489a91.425 91.425 0 0012.638-13.731 129.96 129.96 0 009.784-15.387c5.783-10.484 10.418-21.167 16.55-31.218a69.589 69.589 0 018.021-12.408c1.228-1.286 2.53-2.68 3.988-4l2.254-1.956 1.148-.98 1.205-.921c1.607-1.228 3.2-2.456 4.832-3.526l2.352-1.621 2.282-1.457c-.6-.425-.214-1.4.664-2.648a42.66 42.66 0 013.669-4.095c.458-.459.911-.911 1.342-1.351v-11.364h-5.252q-5.457 3.079-10.683 6.646a120.515 120.515 0 00-22.744 20.2 132.958 132.958 0 00-9.242 12.129c-2.782 4.125-5.351 8.267-7.823 12.34-1.451 2.9-5.1 9.856-10.144 17.878a98.626 98.626 0 01-9.026 12.145c-.843 1.032-1.8 1.934-2.72 2.913s-1.9 1.89-2.92 2.818a83.929 83.929 0 01-6.6 5.335c-2.344 1.713-4.82 3.353-7.36 4.927a149.238 149.238 0 01-3.869 2.3l-4.015 2.252-15.859 8.729c-9.979 5.481-18.408 10.24-23.31 13.114l-1.742 1.09a179.061 179.061 0 00-16.46 11.127c-2.712 1.988-5.216 4.217-7.609 6.25-1.942 1.788-3.752 3.519-5.372 5.186h36.823c1.394-.871 2.783-1.752 4.196-2.617z"/><path class="f" d="M-2006.479 3114.356a89.985 89.985 0 00-89.869-90.1v90.1z"/><path class="c" d="M-2096.348 3024.256a89.986 89.986 0 00-89.87 90.1 90.006 90.006 0 0032.705 69.526l57.165-69.526z"/><path class="g" d="M-2096.348 3114.357l-57.165 69.525a89.361 89.361 0 0057.165 20.575 89.985 89.985 0 0089.87-90.1z"/><path class="h" d="M-1696.039 3028.578l-128.759 223.59h257.519z"/><path class="e" d="M-1698.658 3193.809c2.358-2.607 4.79-5.178 7.279-7.6v-20.65c-10.28 8.109-21.036 16.47-31.457 26.367-2.14 2.5-7.828 8.214-14.326 16.933a113.428 113.428 0 00-9.6 15.319c-2.968 5.7-5.475 11.636-7.949 17.266-1.235 2.813-2.465 5.547-3.736 8.152-.446.863-.9 1.717-1.343 2.572h24.031l.121-.319a1.071 1.071 0 00-.256-.91 145.594 145.594 0 012.38-4.852c1.831-5.008 3.6-9.794 5.678-14.281a95.614 95.614 0 017.49-13.129c5.822-8.597 13.272-16.783 21.688-24.868zM-1692.185 3222.006a113.447 113.447 0 00-10.109 14.983c-2.82 5-5.275 10.179-7.664 15.178h18.579v-31.155c-.268.329-.535.655-.806.994zM-1896.874 3154a27.686 27.686 0 005.946-2.34l.053-.875c2.073-.778 4.2-1.608 6.358-2.539 2.133-.952 4.242-2.037 6.406-3.1a118.312 118.312 0 0020.014-16.237c-.353-.06-.606-.183-.064-.821 1.244-1.233 2.677-2.674 4.288-4.215s3.4-3.182 5.051-4.938l1.359-1.654a1.124 1.124 0 00.087-.986l4.09-4.228c1.9-2.424 3.756-4.853 5.594-7.28h-27.724c-7.627 8.116-15.638 15.381-23.371 20.262-2.247 1.3-4.349 2.651-6.417 3.765-.564.3-1.113.56-1.67.836z"/><path d="M-1875.343 3185.432a33.787 33.787 0 016.253-3.53 32.706 32.706 0 006.172-3.765l-.138-.845c3.405-2.1 7.08-4.132 10.623-6.6 3.089-2.464 5.994-5.182 8.893-7.872 1.448-1.347 2.8-2.818 4.188-4.225l2.063-2.136c.681-.716 1.313-1.489 1.968-2.232-.346-.044-.6-.153-.142-.8 1.035-1.28 2.385-2.7 3.854-4.247a169.485 169.485 0 004.44-5.011l1.15-1.634a1.075 1.075 0 00-.02-.946c1.286-1.56 2.44-2.9 3.513-4.1 3.019-4.392 5.928-8.582 9.053-12.408a95.525 95.525 0 0110.522-10.838 125 125 0 0112.266-9.454h-31.089a115.729 115.729 0 00-8.126 8.168c-4.294 4.778-8.2 9.9-12 14.73-1.9 2.415-3.769 4.754-5.648 6.959a275.514 275.514 0 01-5.806 6.346 148.809 148.809 0 01-12.1 11.006c-2.013 1.607-3.909 3.185-5.839 4.535-1.911 1.368-3.648 2.726-5.389 3.834l-4.7 3.111-3.832 2.3-1.544 1.012c-3.164 1.916-6.618 3.9-10.122 5.885v25.725c7.314-3.547 14.552-7.374 21.623-11.627-.213-.432-1.343-.288-.086-1.341z" fill="url(#aa)"/><path class="e" d="M-1894.082 3243.679c4.509-5.237 11.292-9.973 18.608-14.459a566.272 566.272 0 0111.388-6.763c3.774-2.171 7.483-4.191 11.162-5.955-.18-.447-1.182-.5-.049-1.289 3.693-2.275 7.38-1.982 11.454-3.914l.051-.841c3.408-.846 7.135-1.6 11.085-2.554 3.5-1.249 7.132-2.635 10.779-4.259.91-.4 1.829-.845 2.74-1.269l2.7-1.386c1.815-.9 3.516-1.947 5.247-2.949-.321-.148-.533-.33.11-.8 1.368-.918 3.06-1.9 4.892-2.99 1.8-1.124 3.793-2.3 5.685-3.643l1.588-1.3a1.069 1.069 0 00.234-.937c1.651-1.255 3.2-2.294 4.548-3.329a203.944 203.944 0 0022.128-24.89c6.78-8.76 13.13-17.824 20.114-26.826a111.644 111.644 0 018.536-11.484 85.951 85.951 0 018.149-7.584c2.983-2.419 6.02-4.714 8.71-6.585-.608-.406-.307-1.368.446-2.607.056-.089.131-.187.192-.279h-22.633c-9.98 9.237-18.62 19.337-27.143 29.119-1.761 2.462-6.257 8.172-12.345 15.149a168.585 168.585 0 01-22.681 21.933 94.2 94.2 0 01-13.66 8.909c-2.347 1.207-4.637 2.329-7.022 3.292s-4.807 1.864-7.22 2.7c-4.829 1.666-9.584 3.154-13.786 4.635-4.192 1.456-7.861 2.924-10.477 4.065-.628.3-1.245.6-1.854.909a137.552 137.552 0 00-16.577 9.311 194.44 194.44 0 00-7.453 5.068c-2.383 1.73-4.608 3.44-6.555 5.149a99.695 99.695 0 00-3.878 3.851v16.53c.269-.142.465-.172.526-.019a4.371 4.371 0 01-.526.544v10.25a28.033 28.033 0 002.787-2.503zM-1823.116 3249.541c-.222-.427-1.316-.308-.126-1.319a29.862 29.862 0 016.052-3.237 30.571 30.571 0 006.152-3.161l-.076-.854c3.515-1.6 7.2-3.191 10.991-4.853 6.6-3.775 13.141-7.527 19.78-11.486-.32-.147-.532-.328.113-.806 2.8-1.8 6.954-3.92 11.095-6.6l1.721-1.337a1.138 1.138 0 00.3-.957c1.836-1.265 3.484-2.4 5-3.489a91.375 91.375 0 0012.637-13.731 129.942 129.942 0 009.784-15.387c5.784-10.484 10.418-21.167 16.55-31.218a69.569 69.569 0 018.021-12.408c1.229-1.286 2.53-2.68 3.988-4l2.254-1.956 1.149-.98 1.2-.921c1.606-1.228 3.2-2.456 4.831-3.526l2.352-1.621 2.282-1.457c-.6-.425-.214-1.4.664-2.648a42.643 42.643 0 013.669-4.095c.458-.459.911-.911 1.343-1.351v-11.364h-5.252q-5.459 3.079-10.684 6.646a120.512 120.512 0 00-22.744 20.2 132.959 132.959 0 00-9.242 12.129c-2.781 4.125-5.351 8.267-7.823 12.34-1.451 2.9-5.1 9.856-10.144 17.878a98.55 98.55 0 01-9.026 12.145c-.843 1.032-1.8 1.934-2.719 2.913s-1.9 1.89-2.92 2.818a84.29 84.29 0 01-6.6 5.335 116.513 116.513 0 01-7.361 4.927 147.571 147.571 0 01-3.869 2.3l-4.015 2.252-15.859 8.729c-9.979 5.481-18.408 10.24-23.309 13.114l-1.742 1.09a179.073 179.073 0 00-16.461 11.127c-2.711 1.988-5.216 4.217-7.609 6.25-1.942 1.788-3.752 3.519-5.372 5.186h36.823c1.4-.871 2.789-1.752 4.202-2.617z"/><path class="f" d="M-1511.64 3114.356a89.986 89.986 0 00-89.87-90.1v90.1z"/><path class="c" d="M-1601.51 3024.256a89.985 89.985 0 00-89.869 90.1 90.009 90.009 0 0032.7 69.526l57.165-69.526z"/><path class="g" d="M-1601.51 3114.357l-57.165 69.525a89.364 89.364 0 0057.165 20.575 89.985 89.985 0 0089.87-90.1z"/><path class="h" d="M-3444.963 3300.159l-128.759 223.59h257.522z"/><path class="e" d="M-3447.582 3465.39c2.359-2.606 4.791-5.178 7.279-7.6v-20.65c-10.28 8.109-21.036 16.47-31.456 26.368-2.14 2.5-7.828 8.213-14.326 16.932a113.513 113.513 0 00-9.6 15.319c-2.968 5.7-5.475 11.637-7.948 17.266-1.236 2.813-2.466 5.547-3.737 8.152-.445.863-.894 1.717-1.343 2.573h24.032l.12-.32a1.069 1.069 0 00-.255-.91 143.66 143.66 0 012.38-4.852c1.831-5.008 3.6-9.794 5.677-14.28a95.608 95.608 0 017.491-13.13c5.821-8.597 13.268-16.782 21.686-24.868zM-3441.108 3493.587a113.387 113.387 0 00-10.11 14.984c-2.819 4.995-5.274 10.178-7.663 15.178h18.578v-31.156c-.267.329-.534.655-.805.994zM-3645.8 3425.584a27.726 27.726 0 005.946-2.341l.053-.875c2.073-.778 4.2-1.608 6.357-2.538 2.134-.952 4.243-2.037 6.407-3.106a118.353 118.353 0 0020.014-16.237c-.354-.06-.607-.183-.064-.821 1.243-1.233 2.677-2.674 4.288-4.215s3.4-3.182 5.051-4.938l1.359-1.654a1.125 1.125 0 00.087-.985l4.09-4.229c1.9-2.423 3.756-4.853 5.594-7.279h-27.724c-7.628 8.116-15.638 15.38-23.371 20.262-2.247 1.3-4.349 2.65-6.417 3.765-.564.3-1.114.559-1.67.836z"/><path d="M-3624.268 3457.013a33.811 33.811 0 016.254-3.53 32.691 32.691 0 006.172-3.765l-.138-.845c3.405-2.1 7.08-4.132 10.623-6.6 3.089-2.464 5.994-5.182 8.893-7.872 1.448-1.347 2.8-2.818 4.188-4.225l2.063-2.135c.681-.717 1.312-1.49 1.968-2.233-.346-.044-.6-.153-.143-.8 1.035-1.28 2.386-2.7 3.855-4.247a168.054 168.054 0 004.439-5.011l1.151-1.634a1.074 1.074 0 00-.02-.946c1.286-1.56 2.44-2.9 3.513-4.1 3.019-4.391 5.928-8.582 9.053-12.407a95.348 95.348 0 0110.522-10.839 124.952 124.952 0 0112.266-9.453h-31.091a115.516 115.516 0 00-8.126 8.168c-4.294 4.777-8.2 9.9-12 14.729-1.9 2.416-3.768 4.755-5.647 6.959a279.994 279.994 0 01-5.806 6.347 148.812 148.812 0 01-12.1 11c-2.013 1.607-3.909 3.185-5.839 4.535-1.911 1.368-3.648 2.726-5.389 3.834l-4.7 3.111-3.832 2.3-1.544 1.012c-3.164 1.916-6.618 3.9-10.123 5.885v25.725c7.315-3.548 14.553-7.375 21.624-11.628-.212-.426-1.346-.282-.086-1.335z" fill="url(#ah)"/><path class="e" d="M-3643 3515.26c4.509-5.237 11.292-9.972 18.608-14.459a563.486 563.486 0 0111.388-6.763c3.774-2.171 7.483-4.191 11.162-5.954-.181-.447-1.183-.5-.05-1.29 3.694-2.275 7.38-1.982 11.455-3.914l.051-.841c3.408-.846 7.135-1.6 11.085-2.554 3.5-1.248 7.132-2.635 10.779-4.259.91-.4 1.829-.844 2.739-1.269l2.7-1.385c1.814-.9 3.516-1.948 5.247-2.95-.322-.148-.533-.33.11-.8 1.368-.918 3.06-1.9 4.892-2.99 1.8-1.123 3.793-2.295 5.684-3.643l1.589-1.3a1.073 1.073 0 00.234-.936c1.651-1.256 3.2-2.295 4.548-3.33a203.835 203.835 0 0022.127-24.89c6.78-8.76 13.13-17.824 20.115-26.825a111.209 111.209 0 018.536-11.485 86.211 86.211 0 018.148-7.584c2.983-2.418 6.02-4.714 8.71-6.585-.608-.406-.306-1.368.446-2.607.056-.089.131-.187.193-.278h-22.634c-9.979 9.236-18.62 19.336-27.143 29.118-1.761 2.462-6.257 8.172-12.345 15.149a168.646 168.646 0 01-22.68 21.933 94.214 94.214 0 01-13.661 8.909c-2.346 1.207-4.637 2.329-7.021 3.292s-4.808 1.864-7.221 2.7c-4.828 1.666-9.584 3.154-13.786 4.636-4.192 1.455-7.86 2.923-10.477 4.065-.627.3-1.245.6-1.854.908a137.722 137.722 0 00-16.577 9.311 195.228 195.228 0 00-7.453 5.068c-2.382 1.73-4.608 3.441-6.555 5.15a99.644 99.644 0 00-3.877 3.85v16.53c.269-.141.464-.172.526-.019a4.383 4.383 0 01-.526.544v10.251a28.167 28.167 0 002.788-2.504zM-3572.04 3521.122c-.222-.427-1.315-.308-.125-1.318a29.85 29.85 0 016.052-3.238 30.507 30.507 0 006.152-3.161l-.077-.853c3.515-1.6 7.2-3.192 10.992-4.854 6.595-3.774 13.14-7.526 19.78-11.486-.32-.147-.532-.328.113-.8 2.8-1.8 6.954-3.92 11.094-6.6l1.722-1.337a1.145 1.145 0 00.3-.957c1.836-1.264 3.484-2.4 5-3.489a91.423 91.423 0 0012.638-13.731 129.972 129.972 0 009.784-15.387c5.783-10.484 10.418-21.167 16.55-31.218a69.607 69.607 0 018.02-12.408c1.229-1.286 2.531-2.679 3.988-4l2.255-1.957 1.148-.98 1.2-.921c1.607-1.228 3.2-2.455 4.832-3.526l2.352-1.621 2.281-1.457c-.6-.424-.213-1.4.665-2.648a42.777 42.777 0 013.669-4.095c.458-.458.911-.911 1.342-1.351v-11.363h-5.252q-5.457 3.078-10.684 6.645a120.509 120.509 0 00-22.744 20.2 132.8 132.8 0 00-9.241 12.128c-2.782 4.125-5.351 8.267-7.823 12.34-1.451 2.9-5.1 9.856-10.144 17.878a98.67 98.67 0 01-9.026 12.145c-.844 1.032-1.8 1.934-2.72 2.913s-1.9 1.891-2.92 2.818a83.974 83.974 0 01-6.6 5.335c-2.344 1.713-4.82 3.353-7.36 4.928a155.13 155.13 0 01-3.869 2.3l-4.016 2.252-15.859 8.729c-9.979 5.481-18.407 10.24-23.309 13.114l-1.742 1.09a178.879 178.879 0 00-16.46 11.127c-2.712 1.988-5.216 4.218-7.609 6.251-1.942 1.787-3.752 3.518-5.373 5.186h36.823c1.4-.877 2.789-1.758 4.201-2.623z"/><path class="f" d="M-3260.564 3385.938a89.985 89.985 0 00-89.869-90.1v90.1z"/><path class="c" d="M-3350.433 3295.838a89.985 89.985 0 00-89.87 90.1 90.006 90.006 0 0032.7 69.525l57.166-69.525z"/><path class="g" d="M-3350.433 3385.938l-57.165 69.525a89.361 89.361 0 0057.165 20.575 89.984 89.984 0 0089.869-90.1z"/><path class="h" d="M-2950.125 3300.159l-128.76 223.59h257.519z"/><path class="e" d="M-2952.744 3465.39c2.359-2.606 4.791-5.178 7.279-7.6v-20.65c-10.279 8.109-21.035 16.47-31.456 26.368-2.14 2.5-7.828 8.213-14.326 16.932a113.513 113.513 0 00-9.6 15.319c-2.968 5.7-5.475 11.637-7.948 17.266-1.235 2.813-2.466 5.547-3.736 8.152-.446.863-.9 1.717-1.344 2.573h24.032l.12-.32a1.069 1.069 0 00-.255-.91 145.594 145.594 0 012.38-4.852c1.831-5.008 3.6-9.794 5.678-14.28a95.522 95.522 0 017.49-13.13c5.821-8.597 13.271-16.782 21.686-24.868zM-2946.27 3493.587a113.458 113.458 0 00-10.11 14.984c-2.819 4.995-5.274 10.178-7.663 15.178h18.578v-31.156c-.267.329-.535.655-.805.994zM-3150.959 3425.584a27.731 27.731 0 005.946-2.341l.053-.875c2.073-.778 4.2-1.608 6.357-2.538 2.134-.952 4.243-2.037 6.407-3.106a118.317 118.317 0 0020.014-16.237c-.354-.06-.606-.183-.064-.821 1.244-1.233 2.677-2.674 4.288-4.215s3.4-3.182 5.051-4.938l1.359-1.654a1.124 1.124 0 00.087-.985l4.09-4.229c1.9-2.423 3.756-4.853 5.594-7.279h-27.723c-7.628 8.116-15.638 15.38-23.371 20.262-2.247 1.3-4.349 2.65-6.417 3.765-.564.3-1.114.559-1.67.836z"/><path d="M-3129.429 3457.013a33.8 33.8 0 016.253-3.53 32.662 32.662 0 006.172-3.765l-.138-.845c3.406-2.1 7.081-4.132 10.623-6.6 3.09-2.464 6-5.182 8.894-7.872 1.448-1.347 2.8-2.818 4.188-4.225l2.062-2.135c.682-.717 1.313-1.49 1.969-2.233-.346-.044-.6-.153-.143-.8 1.035-1.279 2.386-2.7 3.855-4.247a168.054 168.054 0 004.439-5.011l1.151-1.634a1.073 1.073 0 00-.021-.946c1.287-1.559 2.44-2.9 3.513-4.1 3.02-4.391 5.928-8.582 9.054-12.407a95.35 95.35 0 0110.522-10.839 124.978 124.978 0 0112.266-9.453h-31.089a115.303 115.303 0 00-8.126 8.168c-4.294 4.777-8.2 9.9-12 14.729-1.9 2.416-3.769 4.755-5.648 6.959a279.965 279.965 0 01-5.805 6.347 148.77 148.77 0 01-12.1 11c-2.014 1.607-3.909 3.185-5.84 4.535-1.911 1.368-3.647 2.726-5.388 3.834l-4.7 3.111-3.832 2.3-1.545 1.012c-3.163 1.917-6.617 3.9-10.122 5.885v25.725c7.314-3.548 14.552-7.375 21.624-11.628-.215-.426-1.348-.281-.088-1.335z" fill="url(#ao)"/><path class="e" d="M-3148.167 3515.26c4.509-5.237 11.292-9.972 18.608-14.459a563.486 563.486 0 0111.388-6.763c3.774-2.171 7.483-4.191 11.162-5.954-.18-.447-1.183-.5-.049-1.29 3.693-2.275 7.38-1.982 11.454-3.914l.051-.841c3.408-.846 7.135-1.6 11.085-2.554 3.5-1.248 7.132-2.635 10.779-4.259.91-.4 1.829-.844 2.739-1.269l2.7-1.385c1.815-.9 3.516-1.948 5.247-2.95-.321-.148-.533-.33.11-.8 1.368-.918 3.06-1.9 4.892-2.99 1.8-1.123 3.793-2.295 5.684-3.643l1.589-1.3a1.074 1.074 0 00.234-.936c1.651-1.256 3.2-2.295 4.548-3.33a203.944 203.944 0 0022.128-24.89c6.78-8.76 13.129-17.824 20.114-26.825a111.528 111.528 0 018.536-11.485 86.215 86.215 0 018.148-7.584c2.983-2.418 6.02-4.714 8.71-6.585-.607-.406-.306-1.368.446-2.607.056-.089.132-.187.193-.278h-22.634c-9.979 9.236-18.62 19.336-27.142 29.118-1.761 2.462-6.258 8.172-12.345 15.149a168.587 168.587 0 01-22.681 21.933 94.159 94.159 0 01-13.661 8.909c-2.346 1.207-4.637 2.329-7.021 3.292s-4.807 1.864-7.221 2.7c-4.828 1.666-9.583 3.154-13.785 4.636-4.192 1.455-7.861 2.923-10.478 4.065-.627.3-1.244.6-1.854.908a137.613 137.613 0 00-16.576 9.311 194.44 194.44 0 00-7.453 5.068c-2.383 1.73-4.609 3.441-6.556 5.15a99.644 99.644 0 00-3.877 3.85v16.53c.269-.141.465-.172.526-.019a4.36 4.36 0 01-.526.544v10.251a28.16 28.16 0 002.788-2.504zM-3077.2 3521.122c-.222-.427-1.316-.308-.126-1.318a29.863 29.863 0 016.052-3.238 30.505 30.505 0 006.152-3.161l-.076-.853c3.515-1.6 7.2-3.192 10.991-4.854 6.595-3.774 13.141-7.526 19.78-11.486-.32-.147-.532-.328.113-.8 2.8-1.8 6.954-3.92 11.094-6.6l1.722-1.337a1.138 1.138 0 00.3-.957c1.836-1.264 3.484-2.4 5-3.489a91.438 91.438 0 0012.638-13.731 129.879 129.879 0 009.784-15.387c5.783-10.484 10.418-21.167 16.55-31.218a69.6 69.6 0 018.021-12.408c1.228-1.286 2.53-2.679 3.988-4l2.254-1.957 1.148-.98 1.205-.921c1.607-1.228 3.2-2.455 4.832-3.526l2.352-1.621 2.282-1.457c-.6-.424-.214-1.4.664-2.648a42.749 42.749 0 013.669-4.095c.458-.458.911-.911 1.342-1.351v-11.363h-5.252q-5.457 3.078-10.683 6.645a120.488 120.488 0 00-22.744 20.2 132.811 132.811 0 00-9.242 12.128c-2.782 4.125-5.351 8.267-7.823 12.34-1.451 2.9-5.1 9.856-10.144 17.878a98.667 98.667 0 01-9.026 12.145c-.843 1.032-1.8 1.934-2.72 2.913s-1.9 1.891-2.92 2.818a83.884 83.884 0 01-6.6 5.335c-2.344 1.713-4.82 3.353-7.36 4.928a155.13 155.13 0 01-3.869 2.3l-4.015 2.252-15.859 8.729c-9.979 5.481-18.408 10.24-23.31 13.114l-1.742 1.09a179.014 179.014 0 00-16.46 11.127c-2.712 1.988-5.216 4.218-7.609 6.251-1.942 1.787-3.752 3.518-5.372 5.186h36.823c1.396-.877 2.782-1.758 4.196-2.623z"/><path class="f" d="M-2765.726 3385.938a89.984 89.984 0 00-89.869-90.1v90.1z"/><path class="c" d="M-2855.595 3295.838a89.985 89.985 0 00-89.87 90.1 90 90 0 0032.705 69.525l57.165-69.525z"/><path class="g" d="M-2855.595 3385.938l-57.165 69.525a89.356 89.356 0 0057.165 20.575 89.985 89.985 0 0089.87-90.1z"/><path class="h" d="M-2455.286 3300.159l-128.76 223.59h257.519z"/><path class="e" d="M-2457.905 3465.39c2.358-2.606 4.79-5.178 7.279-7.6v-20.65c-10.28 8.109-21.036 16.47-31.457 26.368-2.14 2.5-7.828 8.213-14.326 16.932a113.415 113.415 0 00-9.6 15.319c-2.968 5.7-5.475 11.637-7.949 17.266-1.235 2.813-2.465 5.547-3.736 8.152-.446.863-.9 1.717-1.343 2.573H-2495l.121-.32a1.072 1.072 0 00-.256-.91 145.594 145.594 0 012.38-4.852c1.831-5.008 3.6-9.794 5.678-14.28a95.623 95.623 0 017.49-13.13c5.816-8.597 13.266-16.782 21.682-24.868zM-2451.432 3493.587a113.481 113.481 0 00-10.109 14.984c-2.82 4.995-5.275 10.178-7.664 15.178h18.579v-31.156c-.268.329-.535.655-.806.994zM-2656.121 3425.584a27.731 27.731 0 005.946-2.341l.053-.875c2.073-.778 4.2-1.608 6.358-2.538 2.133-.952 4.242-2.037 6.406-3.106a118.276 118.276 0 0020.014-16.237c-.353-.06-.606-.183-.064-.821 1.244-1.233 2.677-2.674 4.288-4.215s3.4-3.182 5.051-4.938l1.359-1.654a1.121 1.121 0 00.087-.985l4.09-4.229c1.9-2.423 3.756-4.853 5.594-7.279h-27.724c-7.627 8.116-15.638 15.38-23.371 20.262-2.247 1.3-4.349 2.65-6.417 3.765-.564.3-1.113.559-1.67.836z"/><path d="M-2634.591 3457.013a33.748 33.748 0 016.253-3.53 32.748 32.748 0 006.172-3.766l-.138-.845c3.406-2.1 7.081-4.132 10.623-6.6 3.09-2.465 5.994-5.183 8.893-7.872 1.448-1.347 2.8-2.818 4.189-4.225l2.062-2.136c.682-.717 1.313-1.49 1.969-2.232-.346-.044-.6-.153-.143-.8 1.035-1.279 2.385-2.7 3.854-4.246a169.485 169.485 0 004.44-5.011l1.15-1.634a1.069 1.069 0 00-.02-.946c1.287-1.56 2.44-2.9 3.513-4.1 3.02-4.392 5.928-8.582 9.053-12.408a95.515 95.515 0 0110.523-10.838 124.843 124.843 0 0112.266-9.454h-31.089a115.737 115.737 0 00-8.127 8.168c-4.293 4.778-8.2 9.9-12 14.73-1.9 2.415-3.769 4.754-5.648 6.959a277.608 277.608 0 01-5.806 6.346 148.625 148.625 0 01-12.1 11c-2.014 1.608-3.91 3.186-5.84 4.536-1.911 1.368-3.647 2.725-5.388 3.833l-4.7 3.112-3.832 2.3-1.545 1.012c-3.163 1.917-6.618 3.9-10.122 5.885v25.725c7.314-3.548 14.552-7.374 21.623-11.627-.212-.427-1.345-.283-.085-1.336z" fill="url(#av)"/><path class="e" d="M-2653.329 3515.26c4.509-5.237 11.292-9.972 18.608-14.459a566.272 566.272 0 0111.388-6.763c3.774-2.171 7.483-4.191 11.162-5.954-.18-.447-1.182-.5-.049-1.29 3.693-2.275 7.38-1.982 11.454-3.914l.051-.841c3.408-.846 7.135-1.6 11.085-2.554 3.5-1.248 7.132-2.635 10.779-4.259.91-.4 1.829-.844 2.74-1.269l2.7-1.385c1.815-.9 3.516-1.948 5.247-2.95-.321-.148-.533-.33.11-.8 1.368-.918 3.06-1.9 4.892-2.99 1.8-1.123 3.793-2.295 5.685-3.643l1.588-1.3a1.067 1.067 0 00.234-.936c1.651-1.256 3.2-2.295 4.548-3.33a203.946 203.946 0 0022.128-24.89c6.78-8.76 13.13-17.824 20.114-26.825a111.53 111.53 0 018.536-11.485 86.107 86.107 0 018.149-7.584c2.983-2.418 6.02-4.714 8.71-6.585-.608-.406-.307-1.368.446-2.607.056-.089.131-.187.192-.278h-22.633c-9.98 9.236-18.62 19.336-27.143 29.118-1.761 2.462-6.257 8.172-12.345 15.149a168.6 168.6 0 01-22.681 21.933 94.205 94.205 0 01-13.66 8.909c-2.347 1.207-4.637 2.329-7.022 3.292s-4.807 1.864-7.22 2.7c-4.828 1.666-9.584 3.154-13.786 4.636-4.192 1.455-7.861 2.923-10.477 4.065-.628.3-1.245.6-1.854.908a137.554 137.554 0 00-16.577 9.311 194.44 194.44 0 00-7.453 5.068c-2.383 1.73-4.608 3.441-6.555 5.15a99.663 99.663 0 00-3.878 3.85v16.53c.269-.141.465-.172.526-.019a4.383 4.383 0 01-.526.544v10.251a28.132 28.132 0 002.787-2.504zM-2582.363 3521.122c-.222-.427-1.316-.308-.126-1.318a29.876 29.876 0 016.052-3.238 30.481 30.481 0 006.152-3.161l-.076-.853c3.515-1.6 7.2-3.192 10.991-4.854 6.6-3.774 13.141-7.526 19.78-11.486-.32-.147-.532-.328.113-.8 2.8-1.8 6.954-3.92 11.095-6.6l1.721-1.337a1.144 1.144 0 00.306-.957c1.835-1.264 3.483-2.4 5-3.489a91.366 91.366 0 0012.637-13.731 129.847 129.847 0 009.784-15.387c5.784-10.484 10.418-21.167 16.55-31.218a69.611 69.611 0 018.021-12.408c1.229-1.286 2.53-2.679 3.988-4l2.254-1.957 1.149-.98 1.2-.921c1.606-1.228 3.2-2.455 4.831-3.526l2.352-1.621 2.282-1.457c-.6-.424-.214-1.4.664-2.648a42.777 42.777 0 013.669-4.095c.458-.458.911-.911 1.343-1.351v-11.363h-5.252q-5.459 3.078-10.684 6.645a120.479 120.479 0 00-22.744 20.2 132.814 132.814 0 00-9.242 12.128c-2.781 4.125-5.351 8.267-7.823 12.34-1.451 2.9-5.1 9.856-10.144 17.878a98.659 98.659 0 01-9.025 12.145c-.844 1.032-1.8 1.934-2.72 2.913s-1.9 1.891-2.92 2.818a84.336 84.336 0 01-6.6 5.335 116.956 116.956 0 01-7.361 4.928c-1.278.78-2.561 1.554-3.869 2.3l-4.015 2.252-15.859 8.729c-9.979 5.481-18.408 10.24-23.309 13.114l-1.742 1.09a179.022 179.022 0 00-16.461 11.127c-2.711 1.988-5.216 4.218-7.609 6.251-1.942 1.787-3.752 3.518-5.372 5.186h36.823c1.394-.877 2.783-1.758 4.196-2.623z"/><path class="f" d="M-2270.887 3385.938a89.985 89.985 0 00-89.87-90.1v90.1z"/><path class="c" d="M-2360.757 3295.838a89.985 89.985 0 00-89.869 90.1 90.006 90.006 0 0032.7 69.525l57.165-69.525z"/><path class="g" d="M-2360.757 3385.938l-57.165 69.525a89.357 89.357 0 0057.165 20.575 89.985 89.985 0 0089.87-90.1z"/><path class="h" d="M-1960.448 3300.159l-128.759 223.59h257.519z"/><path class="e" d="M-1963.067 3465.39c2.358-2.606 4.79-5.178 7.279-7.6v-20.65c-10.28 8.109-21.036 16.47-31.457 26.368-2.139 2.5-7.828 8.213-14.325 16.932a113.4 113.4 0 00-9.6 15.319c-2.968 5.7-5.475 11.637-7.949 17.266-1.235 2.813-2.465 5.547-3.736 8.152-.445.863-.895 1.717-1.343 2.573h24.031l.121-.32a1.072 1.072 0 00-.255-.91 141.777 141.777 0 012.38-4.852c1.83-5.008 3.6-9.794 5.677-14.28a95.611 95.611 0 017.49-13.13c5.821-8.597 13.271-16.782 21.687-24.868zM-1956.593 3493.587a113.375 113.375 0 00-10.11 14.984c-2.82 4.995-5.274 10.178-7.664 15.178h18.579v-31.156c-.268.329-.535.655-.805.994zM-2161.283 3425.584a27.738 27.738 0 005.947-2.341l.052-.875c2.073-.778 4.2-1.608 6.358-2.538 2.133-.952 4.243-2.037 6.406-3.106a118.334 118.334 0 0020.015-16.237c-.354-.06-.607-.183-.065-.821 1.244-1.233 2.678-2.674 4.288-4.215s3.4-3.182 5.052-4.938l1.358-1.654a1.117 1.117 0 00.087-.985l4.09-4.229c1.9-2.423 3.756-4.853 5.595-7.279h-27.724c-7.628 8.116-15.639 15.38-23.372 20.262-2.246 1.3-4.348 2.65-6.416 3.765-.564.3-1.114.559-1.671.836z"/><path d="M-2139.752 3457.013a33.714 33.714 0 016.253-3.53 32.7 32.7 0 006.172-3.766l-.138-.845c3.405-2.1 7.08-4.132 10.623-6.6 3.089-2.464 5.994-5.182 8.893-7.872 1.448-1.347 2.8-2.818 4.188-4.225l2.062-2.136c.682-.716 1.313-1.49 1.969-2.232-.346-.044-.6-.153-.143-.8 1.035-1.279 2.386-2.7 3.855-4.246a168.054 168.054 0 004.439-5.011l1.151-1.634a1.074 1.074 0 00-.02-.946c1.286-1.56 2.439-2.9 3.512-4.1 3.02-4.392 5.928-8.582 9.054-12.408a95.421 95.421 0 0110.522-10.838 125.017 125.017 0 0112.266-9.454h-31.089a115.729 115.729 0 00-8.126 8.168c-4.294 4.778-8.2 9.9-12 14.73-1.9 2.415-3.768 4.754-5.648 6.959a287.187 287.187 0 01-5.8 6.346 148.787 148.787 0 01-12.1 11.006c-2.013 1.607-3.909 3.185-5.839 4.535-1.911 1.368-3.648 2.726-5.389 3.833l-4.7 3.112c-1.456.876-2.742 1.649-3.832 2.3l-1.544 1.013c-3.164 1.916-6.618 3.9-10.123 5.884v25.725c7.315-3.548 14.553-7.374 21.624-11.627-.219-.432-1.353-.288-.092-1.341z" fill="url(#bc)"/><path class="e" d="M-2158.491 3515.26c4.509-5.237 11.292-9.972 18.609-14.459a563.406 563.406 0 0111.387-6.763c3.774-2.171 7.484-4.191 11.162-5.954-.18-.447-1.182-.5-.049-1.29 3.693-2.275 7.38-1.982 11.454-3.914l.051-.841c3.408-.846 7.135-1.6 11.085-2.554 3.5-1.248 7.132-2.635 10.78-4.259.91-.4 1.829-.844 2.739-1.269l2.7-1.385c1.814-.9 3.516-1.948 5.246-2.95-.321-.148-.533-.33.11-.8 1.369-.918 3.061-1.9 4.893-2.99 1.8-1.123 3.792-2.295 5.684-3.643l1.589-1.3a1.069 1.069 0 00.233-.936c1.651-1.256 3.2-2.295 4.549-3.33a204.017 204.017 0 0022.127-24.89c6.78-8.76 13.13-17.824 20.114-26.825a111.358 111.358 0 018.537-11.485 85.972 85.972 0 018.148-7.584c2.983-2.418 6.02-4.714 8.71-6.585-.608-.406-.306-1.368.446-2.607.056-.089.131-.187.192-.278h-22.633c-9.98 9.236-18.62 19.336-27.143 29.118-1.761 2.462-6.257 8.172-12.345 15.149a168.584 168.584 0 01-22.681 21.933 94.2 94.2 0 01-13.66 8.909c-2.347 1.207-4.637 2.329-7.022 3.292s-4.807 1.864-7.22 2.7c-4.828 1.666-9.584 3.154-13.786 4.636-4.192 1.455-7.861 2.923-10.477 4.065-.628.3-1.245.6-1.854.908a137.551 137.551 0 00-16.577 9.311 194.44 194.44 0 00-7.453 5.068c-2.382 1.73-4.608 3.441-6.555 5.15a99.663 99.663 0 00-3.878 3.85v16.53c.269-.141.465-.172.526-.019a4.29 4.29 0 01-.526.544v10.251a28.048 28.048 0 002.788-2.504zM-2087.525 3521.122c-.222-.427-1.315-.308-.126-1.318a29.894 29.894 0 016.052-3.238 30.449 30.449 0 006.152-3.161l-.076-.853c3.515-1.6 7.2-3.192 10.992-4.854 6.595-3.774 13.14-7.526 19.779-11.486-.32-.147-.532-.328.113-.8 2.8-1.8 6.955-3.92 11.1-6.6l1.721-1.337a1.144 1.144 0 00.306-.957c1.836-1.264 3.483-2.4 5-3.489a91.436 91.436 0 0012.638-13.731 129.98 129.98 0 009.783-15.387c5.784-10.484 10.418-21.167 16.55-31.218a69.672 69.672 0 018.021-12.408c1.229-1.286 2.53-2.679 3.988-4l2.254-1.957 1.149-.98 1.205-.921c1.606-1.228 3.2-2.455 4.831-3.526l2.352-1.621 2.282-1.457c-.6-.424-.213-1.4.664-2.648a42.913 42.913 0 013.669-4.095c.458-.458.911-.911 1.343-1.351v-11.363h-5.252q-5.458 3.078-10.684 6.645a120.517 120.517 0 00-22.744 20.2 132.623 132.623 0 00-9.241 12.128c-2.782 4.125-5.352 8.267-7.824 12.34-1.451 2.9-5.1 9.856-10.143 17.878a98.656 98.656 0 01-9.026 12.145c-.844 1.032-1.8 1.934-2.72 2.913s-1.9 1.891-2.92 2.818a83.927 83.927 0 01-6.6 5.335 116.956 116.956 0 01-7.361 4.928 153.27 153.27 0 01-3.868 2.3l-4.016 2.252-15.859 8.729c-9.979 5.481-18.408 10.24-23.309 13.114l-1.742 1.09a179.022 179.022 0 00-16.461 11.127c-2.711 1.988-5.215 4.218-7.609 6.251-1.941 1.787-3.752 3.518-5.372 5.186h36.823c1.384-.877 2.773-1.758 4.186-2.623z"/><path class="f" d="M-1776.049 3385.938a89.985 89.985 0 00-89.87-90.1v90.1z"/><path class="c" d="M-1865.919 3295.838a89.985 89.985 0 00-89.869 90.1 90.006 90.006 0 0032.7 69.525l57.165-69.525z"/><path class="g" d="M-1865.919 3385.938l-57.165 69.525a89.358 89.358 0 0057.165 20.575 89.985 89.985 0 0089.87-90.1z"/><path opacity=".85" fill="#212A5C" d="M-3422.142 3077.765h1366v391h-1366z"/></g></svg>