<svg xmlns="http://www.w3.org/2000/svg" xmlns:xlink="http://www.w3.org/1999/xlink" width="375" height="523"><defs><linearGradient id="b" x1=".375" y1="1.249" x2=".875" y2=".25" gradientUnits="objectBoundingBox"><stop offset=".078" stop-color="#004651"/><stop offset=".593" stop-color="#1b7e8e"/></linearGradient><linearGradient id="c" y1=".5" x2="1" y2=".5" gradientUnits="objectBoundingBox"><stop offset="0" stop-color="#1b7e8e"/><stop offset=".64" stop-color="#0f5a6b"/></linearGradient><linearGradient id="i" x1="0" y1=".5" x2="1" y2=".5" xlink:href="#b"/><linearGradient id="m" x1="-18.398" y1="-103.663" x2="-17.398" y2="-103.663" xlink:href="#c"/><linearGradient id="t" x1="-21.27" y1="-103.663" x2="-20.27" y2="-103.663" xlink:href="#c"/><linearGradient id="aa" x1="-24.143" y1="-103.664" x2="-23.143" y2="-103.664" xlink:href="#c"/><linearGradient id="ah" x1="-14.05" y1="-105.504" x2="-13.05" y2="-105.504" xlink:href="#c"/><linearGradient id="ao" x1="-16.923" y1="-105.504" x2="-15.923" y2="-105.504" xlink:href="#c"/><linearGradient id="av" x1="-19.795" y1="-105.503" x2="-18.795" y2="-105.503" xlink:href="#c"/><linearGradient id="bc" x1="-22.667" y1="-105.504" x2="-21.667" y2="-105.504" xlink:href="#c"/><clipPath id="a"><path class="a" transform="translate(3592.439 4125.537)" d="M0 0h375v523H0z"/></clipPath><style>.a{fill:none}.c{fill:#0f5a6b}.e{fill:url(#c)}.f{fill:#1b7e8e}.g{fill:#104851}.h{fill:url(#i)}</style></defs><g clip-path="url(#a)" transform="translate(-3592.439 -4125.537)"><path class="c" d="M2729.995 4027.071h2325.138v665.541H2729.995z"/><path d="M3332.569 4054.164L3172.2 4332.646h320.74z" fill="url(#b)"/><path class="e" d="M3329.307 4259.96c2.938-3.246 5.967-6.449 9.066-9.467v-25.719c-12.8 10.1-26.2 20.512-39.179 32.84-2.665 3.119-9.75 10.23-17.843 21.089a141.463 141.463 0 00-11.953 19.08c-3.7 7.1-6.819 14.494-9.9 21.5-1.539 3.5-3.071 6.909-4.654 10.153-.555 1.076-1.114 2.139-1.673 3.205h29.929l.15-.4a1.335 1.335 0 00-.318-1.134 179.56 179.56 0 012.965-6.043c2.28-6.238 4.488-12.2 7.071-17.786a119.026 119.026 0 019.329-16.353c7.25-10.7 16.528-20.894 27.01-30.965zM3337.37 4295.079a141.178 141.178 0 00-12.591 18.663c-3.512 6.221-6.57 12.677-9.545 18.9h23.139v-38.805c-.333.414-.665.82-1.003 1.242zM3082.429 4210.381a34.484 34.484 0 007.407-2.915l.065-1.09c2.582-.969 5.232-2 7.918-3.162 2.658-1.185 5.285-2.537 7.98-3.867a147.5 147.5 0 0024.928-20.223c-.441-.076-.756-.229-.08-1.024 1.549-1.535 3.334-3.33 5.34-5.249s4.239-3.964 6.292-6.15l1.692-2.06a1.4 1.4 0 00.108-1.228l5.094-5.266a695.209 695.209 0 006.968-9.067h-34.53c-9.5 10.108-19.478 19.156-29.109 25.236-2.8 1.621-5.417 3.3-7.992 4.69-.7.371-1.388.7-2.081 1.041zM3109.245 4249.526a42.1 42.1 0 017.788-4.4 40.717 40.717 0 007.688-4.69l-.172-1.052c4.241-2.617 8.818-5.147 13.231-8.223 3.848-3.069 7.465-6.454 11.076-9.8 1.8-1.678 3.484-3.511 5.217-5.263l2.568-2.659c.849-.893 1.636-1.856 2.452-2.781-.431-.054-.748-.191-.178-1 1.29-1.593 2.972-3.358 4.8-5.289 1.8-1.967 3.7-4.076 5.53-6.241l1.433-2.036a1.336 1.336 0 00-.026-1.178c1.6-1.942 3.039-3.606 4.376-5.109 3.76-5.47 7.383-10.689 11.276-15.453a118.885 118.885 0 0113.1-13.5 155.608 155.608 0 0115.278-11.774h-38.722a144.579 144.579 0 00-10.121 10.173c-5.348 5.951-10.213 12.328-14.942 18.346-2.362 3.008-4.694 5.921-7.034 8.667-2.4 2.69-4.8 5.341-7.231 7.9a185.274 185.274 0 01-15.069 13.707c-2.508 2-4.869 3.967-7.273 5.648-2.381 1.7-4.543 3.4-6.712 4.775l-5.851 3.876-4.773 2.869-1.923 1.26c-3.941 2.387-8.243 4.86-12.608 7.33v32.04c9.11-4.419 18.125-9.185 26.932-14.482-.268-.528-1.68-.348-.11-1.661zM3085.907 4322.073c5.616-6.522 14.064-12.42 23.176-18.008a700.715 700.715 0 0114.184-8.424c4.7-2.7 9.32-5.22 13.9-7.416-.224-.557-1.473-.623-.061-1.606 4.6-2.834 9.191-2.469 14.266-4.875l.064-1.047c4.244-1.055 8.886-1.989 13.806-3.182 4.362-1.555 8.883-3.281 13.426-5.305 1.133-.5 2.278-1.051 3.411-1.579l3.358-1.726c2.26-1.117 4.379-2.426 6.535-3.674-.4-.184-.664-.411.137-1 1.7-1.144 3.811-2.37 6.093-3.724 2.241-1.4 4.724-2.859 7.08-4.537l1.979-1.624a1.335 1.335 0 00.291-1.167c2.056-1.564 3.986-2.858 5.665-4.147 10.29-9.57 19.127-20.115 27.559-31 8.445-10.911 16.353-22.2 25.052-33.412a138.918 138.918 0 0110.633-14.3 107.025 107.025 0 0110.148-9.446c3.716-3.012 7.5-5.871 10.849-8.2-.757-.5-.382-1.7.555-3.247.07-.111.164-.233.24-.347h-28.19c-12.43 11.5-23.191 24.083-33.807 36.267-2.193 3.067-7.793 10.178-15.375 18.868-7.6 8.662-17.319 18.848-28.249 27.318a117.42 117.42 0 01-17.014 11.1c-2.923 1.5-5.776 2.9-8.746 4.1-2.961 1.218-5.987 2.322-8.993 3.362-6.013 2.074-11.936 3.928-17.17 5.773-5.221 1.813-9.79 3.642-13.049 5.063a90.08 90.08 0 00-2.31 1.132 171.178 171.178 0 00-20.646 11.6 238.8 238.8 0 00-9.283 6.312c-2.967 2.155-5.739 4.285-8.164 6.414a121.792 121.792 0 00-4.83 4.795v20.589c.335-.177.579-.215.655-.025a5.285 5.285 0 01-.655.678v12.767a34.8 34.8 0 003.48-3.12zM3174.295 4329.375c-.277-.533-1.639-.384-.157-1.643a37.213 37.213 0 017.538-4.032 37.947 37.947 0 007.662-3.938l-.095-1.062c4.378-2 8.962-3.975 13.69-6.045 8.215-4.7 16.367-9.375 24.636-14.306-.4-.183-.663-.409.141-1 3.489-2.247 8.661-4.883 13.818-8.218l2.144-1.666a1.423 1.423 0 00.38-1.192c2.287-1.575 4.339-2.983 6.228-4.345a113.8 113.8 0 0015.74-17.1 161.806 161.806 0 0012.186-19.164c7.2-13.058 12.975-26.364 20.613-38.882a86.678 86.678 0 019.99-15.454c1.53-1.6 3.151-3.338 4.967-4.978l2.808-2.437 1.43-1.22 1.5-1.147c2-1.53 3.987-3.059 6.017-4.392l2.93-2.019 2.842-1.814c-.749-.529-.266-1.744.827-3.3a53.333 53.333 0 014.57-5.1c.57-.571 1.135-1.135 1.672-1.682v-14.159h-6.541q-6.8 3.836-13.307 8.277a150.1 150.1 0 00-28.328 25.162 165.545 165.545 0 00-11.51 15.106c-3.465 5.138-6.665 10.3-9.744 15.37-1.807 3.612-6.349 12.275-12.634 22.267a122.849 122.849 0 01-11.242 15.127c-1.05 1.285-2.241 2.408-3.387 3.628s-2.371 2.354-3.637 3.51a104.377 104.377 0 01-8.223 6.644c-2.92 2.134-6 4.176-9.167 6.137a194.134 194.134 0 01-4.819 2.867l-5 2.805-19.753 10.872c-12.429 6.826-22.927 12.754-29.031 16.333l-2.17 1.357a223.154 223.154 0 00-20.5 13.859c-3.378 2.477-6.5 5.253-9.478 7.786-2.418 2.226-4.673 4.382-6.691 6.459h45.863a367.2 367.2 0 015.222-3.271z"/><path class="f" d="M3562.238 4161c0-61.977-50.113-112.22-111.932-112.22V4161z"/><path class="c" d="M3450.306 4048.782c-61.819 0-111.933 50.243-111.933 112.22a112.107 112.107 0 0040.733 86.594l71.2-86.594z"/><path class="g" d="M3450.306 4161l-71.2 86.594a111.3 111.3 0 0071.2 25.626c61.819 0 111.932-50.243 111.932-112.22z"/><path class="h" d="M3948.891 4054.164l-160.37 278.481h320.74z"/><path class="e" d="M3945.629 4259.96c2.938-3.246 5.966-6.449 9.066-9.467v-25.719c-12.8 10.1-26.2 20.512-39.179 32.84-2.665 3.119-9.75 10.23-17.843 21.089a141.365 141.365 0 00-11.953 19.08c-3.7 7.1-6.819 14.494-9.9 21.5-1.538 3.5-3.07 6.909-4.653 10.153-.555 1.076-1.115 2.139-1.673 3.205h29.931l.15-.4a1.335 1.335 0 00-.318-1.134 179.56 179.56 0 012.965-6.043c2.28-6.238 4.488-12.2 7.071-17.786a119 119 0 019.329-16.353c7.246-10.7 16.525-20.894 27.007-30.965zM3953.692 4295.079a141.2 141.2 0 00-12.592 18.663c-3.512 6.221-6.569 12.677-9.545 18.9h23.14v-38.805c-.334.414-.666.82-1.003 1.242zM3698.751 4210.381a34.457 34.457 0 007.406-2.915l.066-1.09c2.582-.969 5.232-2 7.918-3.162 2.657-1.185 5.285-2.537 7.979-3.867a147.419 147.419 0 0024.928-20.223c-.44-.076-.755-.229-.08-1.024 1.549-1.535 3.335-3.33 5.341-5.249s4.239-3.964 6.291-6.15l1.692-2.06a1.4 1.4 0 00.109-1.228l5.094-5.266a695.209 695.209 0 006.968-9.067h-34.53c-9.5 10.108-19.478 19.156-29.11 25.236-2.8 1.621-5.416 3.3-7.991 4.69-.7.371-1.388.7-2.081 1.041z"/><path d="M3725.567 4249.527a42.055 42.055 0 017.788-4.4 40.673 40.673 0 007.687-4.689l-.172-1.053c4.242-2.617 8.819-5.146 13.231-8.222 3.848-3.07 7.466-6.455 11.077-9.805 1.8-1.678 3.484-3.51 5.216-5.262l2.569-2.66c.849-.893 1.635-1.855 2.452-2.781-.431-.054-.748-.19-.178-1 1.289-1.593 2.971-3.358 4.8-5.289 1.8-1.966 3.7-4.075 5.529-6.241l1.434-2.025a1.336 1.336 0 00-.025-1.178c1.6-1.943 3.039-3.607 4.375-5.11 3.761-5.469 7.384-10.688 11.276-15.453a118.958 118.958 0 0113.106-13.5 155.71 155.71 0 0115.277-11.774h-38.721a145.039 145.039 0 00-10.122 10.174c-5.347 5.95-10.212 12.327-14.941 18.345-2.363 3.009-4.694 5.922-7.035 8.667-2.4 2.691-4.8 5.341-7.231 7.9a185.266 185.266 0 01-15.068 13.707c-2.508 2-4.869 3.968-7.274 5.649-2.38 1.7-4.542 3.4-6.711 4.775l-5.851 3.875-4.773 2.869-1.924 1.261c-3.94 2.387-8.242 4.86-12.607 7.329v32.041c9.11-4.419 18.125-9.185 26.932-14.482-.274-.536-1.683-.356-.116-1.668z" fill="url(#m)"/><path class="e" d="M3702.229 4322.073c5.616-6.522 14.064-12.42 23.176-18.008a703.41 703.41 0 0114.183-8.424c4.7-2.7 9.321-5.22 13.9-7.416-.225-.557-1.473-.623-.062-1.606 4.6-2.834 9.192-2.469 14.267-4.875l.063-1.047c4.245-1.055 8.887-1.989 13.807-3.182 4.362-1.555 8.883-3.281 13.425-5.305 1.134-.5 2.279-1.051 3.412-1.579l3.358-1.726c2.26-1.117 4.379-2.426 6.534-3.674-.4-.184-.664-.411.137-1 1.705-1.144 3.812-2.37 6.094-3.724 2.24-1.4 4.724-2.859 7.08-4.537l1.978-1.624a1.336 1.336 0 00.291-1.167c2.057-1.564 3.987-2.858 5.665-4.147 10.29-9.57 19.127-20.115 27.56-31 8.445-10.911 16.353-22.2 25.052-33.412a138.918 138.918 0 0110.633-14.3 107.025 107.025 0 0110.148-9.446c3.715-3.012 7.5-5.871 10.848-8.2-.757-.5-.381-1.7.556-3.247.07-.111.163-.233.24-.347h-28.19c-12.43 11.5-23.192 24.083-33.807 36.267-2.193 3.067-7.793 10.178-15.375 18.868-7.6 8.662-17.319 18.848-28.249 27.318a117.364 117.364 0 01-17.015 11.1c-2.922 1.5-5.775 2.9-8.745 4.1-2.962 1.218-5.987 2.322-8.993 3.362-6.013 2.074-11.937 3.928-17.17 5.773-5.222 1.813-9.791 3.642-13.05 5.063-.781.371-1.55.745-2.309 1.132a171.1 171.1 0 00-20.646 11.6 238.039 238.039 0 00-9.283 6.312c-2.967 2.155-5.739 4.285-8.164 6.414a121.792 121.792 0 00-4.83 4.795v20.589c.335-.177.579-.215.655-.025a5.371 5.371 0 01-.655.678v12.767a35.049 35.049 0 003.481-3.12zM3790.616 4329.375c-.276-.533-1.638-.384-.156-1.643a37.213 37.213 0 017.54-4.032 37.947 37.947 0 007.662-3.938l-.095-1.062c4.378-2 8.961-3.975 13.69-6.045 8.214-4.7 16.366-9.375 24.636-14.306-.4-.183-.663-.409.141-1 3.489-2.247 8.661-4.883 13.818-8.218l2.144-1.666a1.422 1.422 0 00.38-1.192c2.287-1.575 4.339-2.983 6.228-4.345a113.853 113.853 0 0015.74-17.1 161.838 161.838 0 0012.186-19.164c7.2-13.058 12.975-26.364 20.613-38.882a86.624 86.624 0 019.99-15.454c1.53-1.6 3.151-3.338 4.967-4.978l2.807-2.437 1.431-1.22 1.5-1.147c2-1.53 3.987-3.059 6.017-4.392l2.93-2.019 2.842-1.814c-.75-.529-.266-1.744.827-3.3a53.239 53.239 0 014.57-5.1c.57-.571 1.135-1.135 1.672-1.682v-14.159h-6.541q-6.8 3.836-13.307 8.277a150.1 150.1 0 00-28.328 25.162 165.545 165.545 0 00-11.51 15.106c-3.465 5.138-6.665 10.3-9.744 15.37-1.807 3.612-6.349 12.275-12.634 22.267a122.974 122.974 0 01-11.242 15.127c-1.051 1.285-2.241 2.408-3.387 3.628s-2.372 2.354-3.637 3.51a104.377 104.377 0 01-8.223 6.644c-2.92 2.134-6 4.176-9.167 6.137a194.134 194.134 0 01-4.819 2.867l-5 2.805-19.752 10.872c-12.429 6.826-22.927 12.754-29.032 16.333l-2.169 1.357a223.3 223.3 0 00-20.5 13.859c-3.377 2.477-6.5 5.253-9.477 7.786-2.418 2.226-4.673 4.382-6.691 6.459h45.863a378.274 378.274 0 015.217-3.271z"/><path class="f" d="M4178.56 4161c0-61.977-50.114-112.22-111.932-112.22V4161z"/><path class="c" d="M4066.628 4048.782c-61.819 0-111.933 50.243-111.933 112.22a112.1 112.1 0 0040.733 86.594l71.2-86.594z"/><path class="g" d="M4066.628 4161l-71.2 86.594a111.3 111.3 0 0071.2 25.626c61.818 0 111.932-50.243 111.932-112.22z"/><path class="h" d="M4565.212 4054.164l-160.37 278.481h320.74z"/><path class="e" d="M4561.951 4259.96c2.937-3.246 5.966-6.449 9.066-9.467v-25.719c-12.8 10.1-26.2 20.512-39.18 32.84-2.664 3.119-9.749 10.23-17.842 21.089a141.268 141.268 0 00-11.953 19.08c-3.7 7.1-6.819 14.494-9.9 21.5-1.539 3.5-3.071 6.909-4.654 10.153-.554 1.076-1.114 2.139-1.672 3.205h29.931l.15-.4a1.336 1.336 0 00-.318-1.134 181.626 181.626 0 012.964-6.043c2.28-6.238 4.488-12.2 7.071-17.786a119.085 119.085 0 019.33-16.353c7.246-10.7 16.525-20.894 27.007-30.965zM4570.014 4295.079a141.2 141.2 0 00-12.592 18.663c-3.512 6.221-6.569 12.677-9.545 18.9h23.14v-38.805c-.334.414-.666.82-1.003 1.242zM4315.073 4210.381a34.47 34.47 0 007.406-2.915l.066-1.09c2.581-.969 5.232-2 7.918-3.162 2.657-1.185 5.284-2.537 7.979-3.867a147.459 147.459 0 0024.928-20.223c-.441-.076-.755-.229-.08-1.024 1.549-1.535 3.335-3.33 5.341-5.249s4.239-3.964 6.291-6.15l1.692-2.06a1.4 1.4 0 00.109-1.228l5.094-5.266a686.42 686.42 0 006.967-9.067h-34.53c-9.5 10.108-19.477 19.156-29.109 25.236-2.8 1.621-5.416 3.3-7.992 4.69-.7.371-1.387.7-2.08 1.041z"/><path d="M4341.889 4249.526a42.052 42.052 0 017.788-4.4 40.658 40.658 0 007.687-4.689l-.171-1.053c4.241-2.617 8.818-5.146 13.231-8.222 3.847-3.069 7.465-6.455 11.076-9.805 1.8-1.678 3.484-3.51 5.216-5.262l2.569-2.66c.849-.893 1.635-1.855 2.452-2.781-.431-.054-.748-.19-.178-1 1.29-1.593 2.971-3.358 4.8-5.289 1.8-1.966 3.7-4.075 5.53-6.241l1.432-2.035a1.331 1.331 0 00-.025-1.178c1.6-1.943 3.039-3.607 4.375-5.11 3.761-5.469 7.384-10.688 11.276-15.453a118.9 118.9 0 0113.106-13.5 155.677 155.677 0 0115.277-11.774h-38.72a145.039 145.039 0 00-10.122 10.174c-5.347 5.95-10.212 12.327-14.941 18.345-2.363 3.009-4.694 5.922-7.034 8.667-2.4 2.691-4.8 5.341-7.232 7.9a185.193 185.193 0 01-15.068 13.707c-2.508 2-4.869 3.968-7.273 5.649-2.381 1.7-4.543 3.4-6.712 4.775-2.135 1.414-4.1 2.713-5.851 3.875l-4.773 2.869-1.924 1.261c-3.94 2.387-8.242 4.86-12.607 7.329v32.041c9.11-4.419 18.125-9.185 26.932-14.482-.274-.526-1.686-.346-.116-1.658z" fill="url(#t)"/><path class="e" d="M4318.55 4322.073c5.616-6.522 14.065-12.42 23.177-18.008a700.635 700.635 0 0114.183-8.424c4.7-2.7 9.321-5.22 13.9-7.416-.225-.557-1.473-.623-.062-1.606 4.6-2.834 9.192-2.469 14.266-4.875l.064-1.047c4.245-1.055 8.887-1.989 13.807-3.182 4.362-1.555 8.882-3.281 13.425-5.305 1.133-.5 2.278-1.051 3.412-1.579l3.357-1.726c2.26-1.117 4.38-2.426 6.535-3.674-.4-.184-.664-.411.137-1 1.7-1.144 3.812-2.37 6.093-3.724 2.241-1.4 4.724-2.859 7.08-4.537l1.979-1.624a1.335 1.335 0 00.291-1.167c2.056-1.564 3.987-2.858 5.665-4.147 10.29-9.57 19.127-20.115 27.56-31 8.444-10.911 16.353-22.2 25.052-33.412a138.911 138.911 0 0110.632-14.3 107.036 107.036 0 0110.149-9.446c3.715-3.012 7.5-5.871 10.848-8.2-.757-.5-.381-1.7.556-3.247.069-.111.163-.233.239-.347h-28.19c-12.429 11.5-23.191 24.083-33.806 36.267-2.194 3.067-7.794 10.178-15.376 18.868-7.6 8.662-17.319 18.848-28.249 27.318a117.325 117.325 0 01-17.014 11.1c-2.922 1.5-5.775 2.9-8.745 4.1-2.962 1.218-5.988 2.322-8.993 3.362-6.014 2.074-11.937 3.928-17.171 5.773-5.221 1.813-9.79 3.642-13.049 5.063-.781.371-1.55.745-2.309 1.132a171.19 171.19 0 00-20.647 11.6 237.991 237.991 0 00-9.282 6.312c-2.967 2.155-5.74 4.285-8.165 6.414a121.773 121.773 0 00-4.829 4.795v20.589c.335-.177.579-.215.655-.025a5.4 5.4 0 01-.655.678v12.767a34.9 34.9 0 003.48-3.12zM4406.938 4329.375c-.276-.533-1.638-.384-.156-1.643a37.184 37.184 0 017.538-4.032 37.961 37.961 0 007.662-3.938l-.095-1.062c4.378-2 8.961-3.975 13.69-6.045 8.214-4.7 16.366-9.375 24.636-14.306-.4-.183-.663-.409.14-1 3.489-2.247 8.662-4.883 13.818-8.218l2.145-1.666a1.421 1.421 0 00.38-1.192c2.287-1.575 4.339-2.983 6.227-4.345a113.861 113.861 0 0015.741-17.1 161.7 161.7 0 0012.185-19.164c7.2-13.058 12.976-26.364 20.613-38.882a86.747 86.747 0 019.99-15.454c1.531-1.6 3.152-3.338 4.968-4.978l2.807-2.437 1.431-1.22 1.5-1.147c2-1.53 3.987-3.059 6.018-4.392l2.93-2.019 2.841-1.814c-.749-.529-.265-1.744.828-3.3a53.211 53.211 0 014.57-5.1c.57-.571 1.134-1.135 1.672-1.682v-14.159h-6.542q-6.8 3.836-13.307 8.277a150.113 150.113 0 00-28.327 25.162 165.365 165.365 0 00-11.51 15.106c-3.465 5.138-6.665 10.3-9.744 15.37-1.807 3.612-6.349 12.275-12.634 22.267a122.974 122.974 0 01-11.242 15.127c-1.051 1.285-2.242 2.408-3.388 3.628s-2.371 2.354-3.637 3.51a104.543 104.543 0 01-8.222 6.644c-2.92 2.134-6 4.176-9.168 6.137a192.25 192.25 0 01-4.818 2.867l-5 2.805-19.752 10.872c-12.429 6.826-22.927 12.754-29.032 16.333l-2.169 1.357a223.165 223.165 0 00-20.5 13.859c-3.377 2.477-6.5 5.253-9.477 7.786-2.418 2.226-4.673 4.382-6.691 6.459h45.863a384.506 384.506 0 015.218-3.271z"/><path class="f" d="M4794.882 4161c0-61.977-50.114-112.22-111.933-112.22V4161z"/><path class="c" d="M4682.949 4048.782c-61.818 0-111.932 50.243-111.932 112.22a112.1 112.1 0 0040.733 86.594l71.2-86.594z"/><path class="g" d="M4682.949 4161l-71.2 86.594a111.3 111.3 0 0071.2 25.626c61.819 0 111.933-50.242 111.933-112.22z"/><path class="h" d="M5181.534 4054.164l-160.37 278.481H5341.9z"/><path class="e" d="M5178.272 4259.96c2.938-3.246 5.967-6.449 9.066-9.467v-25.719c-12.8 10.1-26.2 20.512-39.179 32.84-2.665 3.119-9.749 10.23-17.842 21.089a141.268 141.268 0 00-11.953 19.08c-3.7 7.1-6.819 14.494-9.9 21.5-1.539 3.5-3.071 6.909-4.654 10.153-.554 1.076-1.114 2.139-1.673 3.205h29.931l.151-.4a1.339 1.339 0 00-.318-1.134 179.68 179.68 0 012.964-6.043c2.28-6.238 4.488-12.2 7.071-17.786a118.976 118.976 0 019.329-16.353c7.247-10.7 16.525-20.894 27.007-30.965zM5186.335 4295.079a141.3 141.3 0 00-12.591 18.663c-3.512 6.221-6.569 12.677-9.545 18.9h23.139v-38.805c-.338.414-.665.82-1.003 1.242zM4931.394 4210.381a34.457 34.457 0 007.407-2.915l.065-1.09c2.582-.969 5.233-2 7.919-3.162 2.657-1.185 5.284-2.537 7.979-3.867a147.455 147.455 0 0024.928-20.223c-.441-.076-.756-.229-.08-1.024 1.549-1.535 3.334-3.33 5.34-5.249s4.239-3.964 6.292-6.15l1.692-2.06a1.4 1.4 0 00.109-1.228l5.094-5.266a686.42 686.42 0 006.967-9.067h-34.53c-9.5 10.108-19.478 19.156-29.109 25.236-2.8 1.621-5.416 3.3-7.992 4.69-.7.371-1.387.7-2.081 1.041z"/><path d="M4958.211 4249.527a42.04 42.04 0 017.788-4.4 40.681 40.681 0 007.688-4.69l-.172-1.052c4.241-2.617 8.818-5.147 13.231-8.223 3.847-3.069 7.465-6.454 11.076-9.8 1.8-1.678 3.484-3.51 5.216-5.263l2.569-2.659c.849-.893 1.636-1.856 2.452-2.781-.431-.054-.748-.19-.178-1 1.29-1.593 2.972-3.358 4.8-5.289 1.8-1.966 3.7-4.075 5.53-6.241l1.433-2.035a1.336 1.336 0 00-.026-1.178 174.01 174.01 0 014.376-5.11c3.76-5.469 7.383-10.688 11.276-15.453a118.843 118.843 0 0113.1-13.5 155.634 155.634 0 0115.278-11.774h-38.722a144.579 144.579 0 00-10.121 10.173c-5.348 5.951-10.213 12.328-14.942 18.346-2.362 3.008-4.694 5.922-7.034 8.667-2.4 2.69-4.8 5.341-7.231 7.9a185.436 185.436 0 01-15.069 13.707c-2.508 2-4.869 3.967-7.273 5.648-2.381 1.705-4.543 3.4-6.712 4.775l-5.851 3.876-4.773 2.869-1.923 1.26c-3.941 2.388-8.243 4.86-12.608 7.33v32.04c9.11-4.418 18.125-9.184 26.932-14.481-.268-.53-1.68-.35-.11-1.662z" fill="url(#aa)"/><path class="e" d="M4934.872 4322.073c5.616-6.522 14.064-12.42 23.177-18.008a700.635 700.635 0 0114.183-8.424c4.7-2.7 9.32-5.22 13.9-7.416-.224-.557-1.472-.623-.061-1.606 4.6-2.834 9.192-2.469 14.266-4.875l.064-1.047c4.244-1.055 8.887-1.989 13.806-3.182 4.362-1.555 8.883-3.281 13.426-5.305 1.133-.5 2.278-1.051 3.412-1.579l3.357-1.726c2.26-1.117 4.379-2.426 6.535-3.674-.4-.184-.664-.411.137-1 1.7-1.144 3.812-2.37 6.093-3.724 2.241-1.4 4.724-2.859 7.08-4.537l1.979-1.624a1.335 1.335 0 00.291-1.167c2.056-1.564 3.987-2.858 5.665-4.147 10.29-9.57 19.127-20.115 27.56-31 8.444-10.911 16.353-22.2 25.052-33.412a138.915 138.915 0 0110.632-14.3 106.977 106.977 0 0110.149-9.446c3.715-3.012 7.5-5.871 10.848-8.2-.757-.5-.382-1.7.555-3.247.07-.111.164-.233.24-.347h-28.19c-12.43 11.5-23.191 24.083-33.806 36.267-2.194 3.067-7.794 10.178-15.376 18.868-7.6 8.662-17.319 18.848-28.249 27.318a117.409 117.409 0 01-17.014 11.1c-2.923 1.5-5.775 2.9-8.745 4.1-2.962 1.218-5.988 2.322-8.994 3.362-6.013 2.074-11.936 3.928-17.17 5.773-5.221 1.813-9.79 3.642-13.049 5.063-.782.371-1.55.745-2.309 1.132a171.19 171.19 0 00-20.647 11.6 238.8 238.8 0 00-9.283 6.312c-2.967 2.155-5.739 4.285-8.164 6.414a122.472 122.472 0 00-4.83 4.795v20.589c.336-.177.579-.215.656-.025a5.282 5.282 0 01-.656.678v12.767a34.826 34.826 0 003.48-3.12zM5023.26 4329.375c-.277-.533-1.638-.384-.157-1.643a37.226 37.226 0 017.538-4.032 37.961 37.961 0 007.662-3.938l-.1-1.062c4.378-2 8.962-3.975 13.69-6.045 8.215-4.7 16.367-9.375 24.636-14.306-.4-.183-.662-.409.141-1 3.489-2.247 8.662-4.883 13.818-8.218l2.144-1.666a1.426 1.426 0 00.381-1.192c2.286-1.575 4.338-2.983 6.227-4.345a113.858 113.858 0 0015.741-17.1 161.766 161.766 0 0012.185-19.164c7.2-13.058 12.976-26.364 20.613-38.882a86.718 86.718 0 019.99-15.454c1.531-1.6 3.152-3.338 4.967-4.978l2.808-2.437 1.43-1.22 1.5-1.147c2-1.53 3.987-3.059 6.018-4.392l2.929-2.019 2.842-1.814c-.749-.529-.266-1.744.827-3.3a53.333 53.333 0 014.57-5.1c.571-.571 1.135-1.135 1.672-1.682v-14.159h-6.532q-6.8 3.836-13.307 8.277a150.088 150.088 0 00-28.328 25.162 165.548 165.548 0 00-11.51 15.106c-3.464 5.138-6.665 10.3-9.744 15.37-1.807 3.612-6.348 12.275-12.633 22.267a123.068 123.068 0 01-11.242 15.127c-1.051 1.285-2.242 2.408-3.388 3.628s-2.371 2.354-3.637 3.51a104.373 104.373 0 01-8.223 6.644c-2.92 2.134-6 4.176-9.167 6.137a192.313 192.313 0 01-4.819 2.867l-5 2.805-19.753 10.872c-12.428 6.826-22.926 12.754-29.031 16.333l-2.17 1.357a223.093 223.093 0 00-20.5 13.859c-3.378 2.477-6.5 5.253-9.478 7.786-2.418 2.226-4.673 4.382-6.691 6.459h45.864a366.617 366.617 0 015.217-3.271z"/><path class="f" d="M5411.2 4161c0-61.977-50.114-112.22-111.933-112.22V4161z"/><path class="c" d="M5299.271 4048.782c-61.819 0-111.933 50.243-111.933 112.22a112.107 112.107 0 0040.733 86.594l71.2-86.594z"/><path class="g" d="M5299.271 4161l-71.2 86.594a111.3 111.3 0 0071.2 25.626c61.819 0 111.933-50.242 111.933-112.22z"/><path class="h" d="M3003.248 4392.419L2842.877 4670.9h320.74z"/><path class="e" d="M2999.985 4598.215c2.938-3.246 5.967-6.449 9.067-9.467v-25.72c-12.8 10.1-26.2 20.513-39.18 32.841-2.665 3.119-9.749 10.23-17.842 21.089a141.3 141.3 0 00-11.953 19.08c-3.7 7.1-6.819 14.494-9.9 21.5-1.539 3.5-3.071 6.909-4.654 10.153-.554 1.076-1.114 2.139-1.672 3.205h29.931l.15-.4a1.332 1.332 0 00-.318-1.134 180.664 180.664 0 012.964-6.043c2.28-6.238 4.488-12.2 7.071-17.786a119.005 119.005 0 019.33-16.353c7.246-10.7 16.521-20.895 27.006-30.965zM3008.049 4633.334a141.254 141.254 0 00-12.592 18.666c-3.512 6.222-6.569 12.678-9.545 18.9h23.14v-38.8c-.334.406-.666.812-1.003 1.234zM2753.108 4548.636a34.513 34.513 0 007.406-2.916l.066-1.089c2.581-.969 5.232-2 7.918-3.162 2.657-1.185 5.284-2.537 7.979-3.867a147.415 147.415 0 0024.928-20.224c-.441-.075-.755-.228-.08-1.023 1.549-1.535 3.335-3.33 5.341-5.249s4.239-3.964 6.291-6.15l1.692-2.06a1.4 1.4 0 00.109-1.228l5.094-5.266a693.071 693.071 0 006.967-9.067h-34.53c-9.5 10.108-19.477 19.156-29.109 25.236-2.8 1.621-5.416 3.3-7.992 4.69-.7.37-1.387.7-2.08 1.041z"/><path d="M2779.923 4587.781a42.1 42.1 0 017.789-4.4 40.741 40.741 0 007.687-4.69l-.172-1.052c4.241-2.617 8.818-5.147 13.231-8.223 3.848-3.069 7.466-6.454 11.076-9.8 1.8-1.677 3.484-3.51 5.217-5.262l2.569-2.659c.849-.893 1.635-1.856 2.451-2.781-.431-.055-.748-.191-.177-1 1.289-1.593 2.971-3.358 4.8-5.289 1.8-1.967 3.7-4.076 5.529-6.241l1.433-2.036a1.34 1.34 0 00-.025-1.178c1.6-1.942 3.038-3.606 4.375-5.109 3.761-5.47 7.383-10.689 11.276-15.453a118.793 118.793 0 0113.106-13.5 155.636 155.636 0 0115.277-11.774h-38.722a144.794 144.794 0 00-10.121 10.173c-5.348 5.951-10.212 12.328-14.942 18.346-2.362 3.008-4.694 5.921-7.034 8.667-2.4 2.69-4.8 5.341-7.231 7.9a185.233 185.233 0 01-15.069 13.707c-2.508 2-4.869 3.967-7.273 5.648-2.38 1.7-4.543 3.4-6.711 4.775l-5.852 3.876-4.773 2.869-1.923 1.26c-3.941 2.387-8.243 4.86-12.608 7.33v32.04c9.11-4.419 18.125-9.185 26.933-14.482-.274-.529-1.686-.35-.116-1.662z" fill="url(#ah)"/><path class="e" d="M2756.585 4660.328c5.616-6.522 14.065-12.421 23.177-18.008a700.635 700.635 0 0114.183-8.424c4.7-2.7 9.321-5.22 13.9-7.416-.225-.557-1.473-.624-.062-1.606 4.6-2.834 9.192-2.469 14.266-4.875l.064-1.047c4.245-1.055 8.887-1.989 13.807-3.182 4.361-1.555 8.882-3.281 13.425-5.305 1.133-.495 2.278-1.051 3.412-1.579l3.357-1.726c2.26-1.117 4.379-2.426 6.535-3.674-.4-.184-.664-.411.137-.995 1.7-1.144 3.812-2.37 6.093-3.724 2.241-1.4 4.724-2.859 7.08-4.537l1.979-1.624a1.335 1.335 0 00.291-1.167c2.056-1.564 3.987-2.858 5.665-4.147 10.29-9.57 19.127-20.115 27.56-31 8.444-10.912 16.353-22.2 25.052-33.412a138.906 138.906 0 0110.632-14.3 107.009 107.009 0 0110.149-9.446c3.715-3.012 7.5-5.871 10.848-8.2-.757-.506-.381-1.7.555-3.247.07-.111.164-.233.24-.347h-28.19c-12.429 11.5-23.191 24.083-33.806 36.267-2.194 3.067-7.794 10.178-15.376 18.868-7.6 8.662-17.319 18.848-28.249 27.318a117.314 117.314 0 01-17.014 11.1c-2.922 1.5-5.775 2.9-8.745 4.1-2.962 1.218-5.988 2.322-8.993 3.362-6.014 2.074-11.937 3.928-17.171 5.773-5.221 1.813-9.79 3.642-13.049 5.063-.781.371-1.55.745-2.309 1.132a171.127 171.127 0 00-20.647 11.6 237.991 237.991 0 00-9.282 6.312c-2.967 2.154-5.74 4.285-8.165 6.413a119.917 119.917 0 00-4.829 4.8v20.589c.335-.177.579-.215.655-.025a5.353 5.353 0 01-.655.678v12.767a34.82 34.82 0 003.48-3.129zM2844.973 4667.63c-.276-.533-1.638-.384-.156-1.643a37.187 37.187 0 017.538-4.032 38.056 38.056 0 007.662-3.938l-.095-1.062c4.378-2 8.961-3.975 13.69-6.046 8.214-4.7 16.366-9.374 24.636-14.305-.4-.183-.663-.409.14-1 3.489-2.248 8.662-4.883 13.818-8.218l2.145-1.667a1.424 1.424 0 00.38-1.191c2.287-1.575 4.339-2.983 6.227-4.345a113.906 113.906 0 0015.741-17.1 161.689 161.689 0 0012.185-19.165c7.2-13.057 12.976-26.363 20.613-38.881a86.728 86.728 0 019.99-15.454c1.531-1.6 3.152-3.338 4.967-4.978l2.808-2.437 1.431-1.22 1.5-1.147c2-1.53 3.987-3.059 6.018-4.392l2.93-2.019 2.841-1.814c-.749-.529-.266-1.744.828-3.3a53.312 53.312 0 014.569-5.1c.571-.571 1.135-1.135 1.673-1.682v-14.154h-6.542q-6.8 3.836-13.307 8.277a150.066 150.066 0 00-28.327 25.162 165.436 165.436 0 00-11.51 15.106c-3.465 5.138-6.665 10.3-9.744 15.37-1.807 3.612-6.349 12.275-12.634 22.267a122.853 122.853 0 01-11.242 15.126c-1.051 1.286-2.242 2.409-3.388 3.628s-2.371 2.355-3.637 3.51a104.214 104.214 0 01-8.222 6.645c-2.92 2.134-6 4.176-9.168 6.137-1.592.973-3.19 1.936-4.818 2.866l-5 2.806-19.752 10.871c-12.429 6.827-22.927 12.755-29.032 16.334l-2.169 1.357a223.233 223.233 0 00-20.5 13.859c-3.377 2.477-6.5 5.253-9.477 7.785-2.418 2.227-4.673 4.383-6.691 6.46h45.863a312.338 312.338 0 015.218-3.276z"/><path class="f" d="M3232.917 4499.257c0-61.977-50.114-112.22-111.933-112.22v112.22z"/><path class="c" d="M3120.984 4387.037c-61.818 0-111.932 50.243-111.932 112.22a112.1 112.1 0 0040.733 86.594l71.2-86.594z"/><path class="g" d="M3120.984 4499.257l-71.2 86.594a111.3 111.3 0 0071.2 25.625c61.819 0 111.933-50.242 111.933-112.219z"/><path class="h" d="M3619.569 4392.419L3459.2 4670.9h320.74z"/><path class="e" d="M3616.307 4598.215c2.938-3.246 5.967-6.449 9.066-9.467v-25.72c-12.8 10.1-26.2 20.513-39.179 32.841-2.665 3.119-9.75 10.23-17.842 21.089a141.3 141.3 0 00-11.953 19.08c-3.7 7.1-6.82 14.494-9.9 21.5-1.539 3.5-3.071 6.909-4.654 10.153-.554 1.076-1.114 2.139-1.673 3.205h29.928l.151-.4a1.335 1.335 0 00-.318-1.134 178.74 178.74 0 012.964-6.043c2.28-6.238 4.488-12.2 7.071-17.786a119 119 0 019.329-16.353c7.25-10.7 16.528-20.895 27.01-30.965zM3624.37 4633.334a141.347 141.347 0 00-12.591 18.666c-3.512 6.222-6.569 12.678-9.545 18.9h23.139v-38.8c-.333.406-.665.812-1.003 1.234zM3369.429 4548.636a34.52 34.52 0 007.407-2.916l.065-1.089c2.582-.969 5.233-2 7.919-3.162 2.657-1.185 5.284-2.537 7.979-3.867a147.415 147.415 0 0024.928-20.224c-.441-.075-.756-.228-.08-1.023 1.549-1.535 3.334-3.33 5.34-5.249s4.239-3.964 6.292-6.15l1.692-2.06a1.4 1.4 0 00.108-1.228l5.095-5.266a693.071 693.071 0 006.967-9.067h-34.53c-9.5 10.108-19.478 19.156-29.109 25.236-2.8 1.621-5.416 3.3-7.992 4.69-.7.37-1.387.7-2.081 1.041z"/><path d="M3396.246 4587.781a42.092 42.092 0 017.788-4.4 40.741 40.741 0 007.687-4.69l-.172-1.052c4.242-2.617 8.819-5.147 13.231-8.223 3.848-3.069 7.466-6.454 11.077-9.8 1.8-1.678 3.484-3.51 5.216-5.263l2.569-2.659c.849-.893 1.635-1.856 2.452-2.781-.431-.054-.748-.19-.178-1 1.289-1.593 2.971-3.358 4.8-5.289 1.8-1.967 3.7-4.075 5.529-6.241l1.433-2.035a1.336 1.336 0 00-.025-1.178c1.6-1.943 3.039-3.607 4.375-5.11 3.761-5.469 7.384-10.688 11.276-15.453a118.979 118.979 0 0113.106-13.5 155.785 155.785 0 0115.277-11.774h-38.721a144.803 144.803 0 00-10.122 10.173c-5.347 5.951-10.212 12.328-14.941 18.346-2.363 3.008-4.694 5.921-7.035 8.667-2.4 2.69-4.8 5.341-7.231 7.9a185.428 185.428 0 01-15.068 13.707c-2.508 2-4.87 3.967-7.274 5.648-2.38 1.7-4.543 3.4-6.711 4.775l-5.851 3.876-4.773 2.869-1.924 1.26c-3.94 2.387-8.242 4.86-12.607 7.33v32.04c9.11-4.418 18.125-9.185 26.932-14.482-.273-.528-1.685-.348-.115-1.661z" fill="url(#ao)"/><path class="e" d="M3372.907 4660.328c5.616-6.522 14.064-12.421 23.177-18.008a700.635 700.635 0 0114.183-8.424c4.7-2.7 9.32-5.22 13.9-7.416-.224-.557-1.472-.624-.061-1.606 4.6-2.834 9.192-2.469 14.266-4.875l.064-1.047c4.244-1.055 8.887-1.989 13.806-3.182 4.362-1.555 8.883-3.281 13.426-5.305 1.133-.495 2.278-1.051 3.412-1.579l3.357-1.726c2.26-1.117 4.379-2.426 6.535-3.674-.4-.184-.664-.411.137-.995 1.7-1.144 3.812-2.37 6.093-3.724 2.241-1.4 4.724-2.859 7.08-4.537l1.979-1.624a1.335 1.335 0 00.291-1.167c2.056-1.564 3.986-2.858 5.665-4.147 10.29-9.57 19.127-20.115 27.559-31 8.445-10.912 16.354-22.2 25.053-33.412a138.9 138.9 0 0110.632-14.3 107.043 107.043 0 0110.149-9.446c3.715-3.012 7.5-5.871 10.848-8.2-.757-.506-.382-1.7.555-3.247.07-.111.164-.233.24-.347h-28.19c-12.43 11.5-23.191 24.083-33.806 36.267-2.194 3.067-7.794 10.178-15.376 18.868-7.6 8.662-17.319 18.848-28.249 27.318a117.42 117.42 0 01-17.014 11.1c-2.923 1.5-5.776 2.9-8.745 4.1-2.962 1.218-5.988 2.322-8.994 3.362-6.013 2.074-11.936 3.928-17.17 5.773-5.221 1.813-9.79 3.642-13.049 5.063-.782.371-1.551.745-2.309 1.132a171.053 171.053 0 00-20.647 11.6 238.8 238.8 0 00-9.283 6.312c-2.967 2.154-5.739 4.285-8.164 6.413a120.595 120.595 0 00-4.83 4.8v20.589c.336-.177.579-.215.656-.025a5.3 5.3 0 01-.656.678v12.767a34.738 34.738 0 003.48-3.129zM3461.295 4667.63c-.277-.533-1.639-.384-.157-1.643a37.239 37.239 0 017.538-4.032 38.022 38.022 0 007.662-3.938l-.095-1.062c4.378-2 8.962-3.975 13.69-6.046 8.215-4.7 16.367-9.374 24.636-14.305-.4-.183-.662-.409.141-1 3.489-2.248 8.662-4.883 13.818-8.218l2.144-1.667a1.422 1.422 0 00.381-1.191c2.286-1.575 4.338-2.983 6.227-4.345a113.906 113.906 0 0015.741-17.1 161.814 161.814 0 0012.185-19.165c7.2-13.057 12.976-26.363 20.613-38.881a86.728 86.728 0 019.99-15.454c1.531-1.6 3.151-3.338 4.967-4.978l2.808-2.437 1.43-1.22 1.5-1.147c2-1.53 3.987-3.059 6.018-4.392l2.929-2.019 2.842-1.814c-.749-.529-.266-1.744.827-3.3a53.333 53.333 0 014.57-5.1c.571-.571 1.135-1.135 1.672-1.682v-14.154h-6.541q-6.8 3.836-13.307 8.277a150.1 150.1 0 00-28.328 25.162 165.612 165.612 0 00-11.51 15.106c-3.464 5.138-6.665 10.3-9.744 15.37-1.807 3.612-6.349 12.275-12.634 22.267a122.842 122.842 0 01-11.241 15.126c-1.051 1.286-2.242 2.409-3.388 3.628s-2.371 2.355-3.637 3.51a104.054 104.054 0 01-8.223 6.645c-2.92 2.134-6 4.176-9.167 6.137a189.298 189.298 0 01-4.819 2.866l-5 2.806-19.753 10.871c-12.428 6.827-22.926 12.755-29.031 16.334l-2.17 1.357a223.253 223.253 0 00-20.5 13.859c-3.378 2.477-6.5 5.253-9.478 7.785-2.418 2.227-4.673 4.383-6.691 6.46h45.864a297.028 297.028 0 015.221-3.276z"/><path class="f" d="M3849.239 4499.257c0-61.977-50.114-112.22-111.933-112.22v112.22z"/><path class="c" d="M3737.306 4387.037c-61.819 0-111.933 50.243-111.933 112.22a112.106 112.106 0 0040.733 86.594l71.2-86.594z"/><path class="g" d="M3737.306 4499.257l-71.2 86.594a111.3 111.3 0 0071.2 25.626c61.819 0 111.933-50.242 111.933-112.22z"/><path class="h" d="M4235.891 4392.419l-160.37 278.481h320.74z"/><path class="e" d="M4232.629 4598.215c2.938-3.246 5.967-6.449 9.066-9.467v-25.72c-12.8 10.1-26.2 20.513-39.179 32.841-2.665 3.119-9.75 10.23-17.843 21.089a141.4 141.4 0 00-11.953 19.08c-3.7 7.1-6.819 14.494-9.9 21.5-1.538 3.5-3.07 6.909-4.653 10.153-.555 1.076-1.114 2.139-1.673 3.205h29.931l.15-.4a1.333 1.333 0 00-.318-1.134 178.62 178.62 0 012.965-6.043c2.28-6.238 4.488-12.2 7.071-17.786a118.947 118.947 0 019.329-16.353c7.247-10.7 16.525-20.895 27.007-30.965zM4240.692 4633.334A141.253 141.253 0 004228.1 4652c-3.511 6.222-6.569 12.678-9.544 18.9h23.139v-38.8c-.333.406-.665.812-1.003 1.234zM3985.751 4548.636a34.513 34.513 0 007.406-2.916l.066-1.089c2.582-.969 5.232-2 7.918-3.162 2.657-1.185 5.285-2.537 7.979-3.867a147.376 147.376 0 0024.928-20.224c-.44-.075-.755-.228-.079-1.023 1.549-1.535 3.334-3.33 5.34-5.249s4.239-3.964 6.291-6.15l1.693-2.06a1.4 1.4 0 00.108-1.228l5.094-5.266a702.031 702.031 0 006.968-9.067h-34.53c-9.5 10.108-19.478 19.156-29.11 25.236-2.8 1.621-5.416 3.3-7.991 4.69-.7.37-1.388.7-2.081 1.041z"/><path d="M4012.567 4587.781a42.083 42.083 0 017.788-4.4 40.673 40.673 0 007.687-4.689l-.172-1.053c4.242-2.617 8.819-5.146 13.231-8.222 3.848-3.069 7.466-6.455 11.077-9.8 1.8-1.678 3.484-3.51 5.216-5.262l2.569-2.66c.849-.893 1.635-1.855 2.452-2.781-.431-.054-.748-.19-.178-1 1.29-1.593 2.971-3.358 4.8-5.289 1.8-1.966 3.7-4.075 5.53-6.241l1.432-2.035a1.333 1.333 0 00-.025-1.178 174.01 174.01 0 014.376-5.11c3.76-5.469 7.383-10.688 11.276-15.453a118.945 118.945 0 0113.1-13.5 155.552 155.552 0 0115.278-11.773h-38.722a144.814 144.814 0 00-10.121 10.174c-5.348 5.95-10.213 12.327-14.942 18.345-2.362 3.009-4.694 5.922-7.034 8.667-2.4 2.691-4.8 5.341-7.232 7.9a185.266 185.266 0 01-15.068 13.707c-2.508 2-4.869 3.968-7.273 5.649-2.381 1.7-4.543 3.4-6.712 4.775l-5.851 3.875-4.773 2.869-1.924 1.261c-3.94 2.387-8.242 4.86-12.607 7.329v32.041c9.11-4.419 18.125-9.185 26.932-14.482-.268-.532-1.677-.352-.11-1.664z" fill="url(#av)"/><path class="e" d="M3989.229 4660.328c5.616-6.522 14.064-12.421 23.176-18.008a700.715 700.715 0 0114.184-8.424c4.7-2.7 9.32-5.22 13.9-7.416-.225-.557-1.473-.624-.061-1.606 4.6-2.834 9.191-2.469 14.266-4.875l.063-1.047c4.245-1.055 8.887-1.989 13.807-3.182 4.362-1.555 8.883-3.281 13.426-5.305 1.133-.495 2.278-1.051 3.411-1.579l3.358-1.726c2.26-1.117 4.379-2.426 6.534-3.674-.4-.184-.663-.411.138-.995 1.7-1.144 3.811-2.37 6.093-3.724 2.241-1.4 4.724-2.859 7.08-4.537l1.979-1.624a1.338 1.338 0 00.291-1.167c2.056-1.564 3.986-2.858 5.664-4.147 10.291-9.57 19.127-20.115 27.56-31 8.445-10.912 16.353-22.2 25.052-33.412a138.914 138.914 0 0110.633-14.3 106.964 106.964 0 0110.148-9.446c3.716-3.012 7.5-5.871 10.848-8.2-.756-.506-.381-1.7.556-3.247.07-.111.163-.233.24-.347h-28.19c-12.43 11.5-23.191 24.083-33.807 36.267-2.193 3.067-7.793 10.178-15.375 18.868-7.6 8.662-17.319 18.848-28.249 27.318a117.409 117.409 0 01-17.014 11.1c-2.923 1.5-5.776 2.9-8.746 4.1-2.962 1.218-5.987 2.322-8.993 3.362-6.013 2.074-11.936 3.928-17.17 5.773-5.221 1.813-9.791 3.642-13.049 5.063a90.08 90.08 0 00-2.31 1.132 171.041 171.041 0 00-20.646 11.6 238.8 238.8 0 00-9.283 6.312c-2.967 2.154-5.739 4.285-8.164 6.413a119.936 119.936 0 00-4.83 4.8v20.589c.335-.177.579-.215.655-.025a5.285 5.285 0 01-.655.678v12.767a34.876 34.876 0 003.48-3.129zM4077.617 4667.63c-.277-.533-1.639-.384-.157-1.643a37.213 37.213 0 017.538-4.032 38.022 38.022 0 007.662-3.938l-.095-1.062c4.378-2 8.961-3.975 13.69-6.046 8.214-4.7 16.366-9.374 24.636-14.305-.4-.183-.663-.409.141-1 3.489-2.248 8.661-4.883 13.818-8.218l2.144-1.667a1.42 1.42 0 00.38-1.191c2.287-1.575 4.339-2.983 6.228-4.345a113.9 113.9 0 0015.74-17.1 161.729 161.729 0 0012.186-19.165c7.2-13.057 12.975-26.363 20.613-38.881a86.687 86.687 0 019.99-15.454c1.53-1.6 3.151-3.338 4.967-4.978l2.808-2.437 1.43-1.22 1.5-1.147c2-1.53 3.987-3.059 6.017-4.392l2.93-2.019 2.842-1.814c-.749-.529-.266-1.744.827-3.3a53.333 53.333 0 014.57-5.1c.57-.571 1.135-1.135 1.672-1.682v-14.154h-6.541q-6.8 3.836-13.307 8.277a150.088 150.088 0 00-28.328 25.162 165.615 165.615 0 00-11.51 15.106c-3.465 5.138-6.665 10.3-9.744 15.37-1.807 3.612-6.349 12.275-12.634 22.267a122.7 122.7 0 01-11.242 15.126c-1.05 1.286-2.241 2.409-3.387 3.628s-2.371 2.355-3.637 3.51a104.059 104.059 0 01-8.223 6.645c-2.92 2.134-6 4.176-9.167 6.137a191.062 191.062 0 01-4.819 2.866l-5 2.806-19.753 10.871c-12.429 6.827-22.927 12.755-29.031 16.334l-2.17 1.357a223.253 223.253 0 00-20.5 13.859c-3.378 2.477-6.5 5.253-9.478 7.785-2.418 2.227-4.673 4.383-6.691 6.46h45.863a321.134 321.134 0 015.222-3.276z"/><path class="f" d="M4465.56 4499.257c0-61.977-50.113-112.22-111.932-112.22v112.22z"/><path class="c" d="M4353.628 4387.037c-61.819 0-111.933 50.243-111.933 112.22a112.1 112.1 0 0040.733 86.594l71.2-86.594z"/><path class="g" d="M4353.628 4499.257l-71.2 86.594a111.3 111.3 0 0071.2 25.626c61.819 0 111.933-50.243 111.933-112.22z"/><path class="h" d="M4852.213 4392.419l-160.37 278.481h320.74z"/><path class="e" d="M4848.951 4598.215c2.937-3.246 5.966-6.449 9.066-9.467v-25.72c-12.8 10.1-26.2 20.513-39.18 32.841-2.664 3.119-9.749 10.23-17.842 21.089a141.3 141.3 0 00-11.953 19.08c-3.7 7.1-6.819 14.494-9.9 21.5-1.538 3.5-3.071 6.909-4.653 10.153-.555 1.076-1.115 2.139-1.673 3.205h29.931l.15-.4a1.333 1.333 0 00-.318-1.134 178.62 178.62 0 012.965-6.043c2.28-6.238 4.488-12.2 7.071-17.786a118.993 118.993 0 019.329-16.353c7.246-10.7 16.525-20.895 27.007-30.965zM4857.014 4633.334a141.254 141.254 0 00-12.592 18.666c-3.512 6.222-6.569 12.678-9.545 18.9h23.14v-38.8c-.334.406-.666.812-1.003 1.234zM4602.073 4548.636a34.526 34.526 0 007.406-2.916l.066-1.089c2.582-.969 5.232-2 7.918-3.162 2.657-1.185 5.285-2.537 7.979-3.867a147.378 147.378 0 0024.928-20.224c-.44-.075-.755-.228-.08-1.023 1.549-1.535 3.335-3.33 5.341-5.249s4.239-3.964 6.291-6.15l1.692-2.06a1.4 1.4 0 00.109-1.228l5.094-5.266a702.031 702.031 0 006.968-9.067h-34.531c-9.5 10.108-19.477 19.156-29.109 25.236-2.8 1.621-5.416 3.3-7.992 4.69-.7.37-1.387.7-2.08 1.041z"/><path d="M4628.889 4587.781a42.08 42.08 0 017.788-4.4 40.714 40.714 0 007.688-4.689l-.172-1.053c4.241-2.617 8.818-5.146 13.231-8.222 3.847-3.069 7.465-6.455 11.076-9.8 1.8-1.678 3.484-3.51 5.216-5.262l2.569-2.66c.849-.893 1.635-1.855 2.452-2.781-.431-.054-.748-.19-.178-1 1.29-1.594 2.971-3.359 4.8-5.29 1.8-1.966 3.7-4.075 5.53-6.241l1.432-2.035a1.331 1.331 0 00-.025-1.178 174.01 174.01 0 014.376-5.11c3.76-5.469 7.383-10.688 11.276-15.453a118.836 118.836 0 0113.1-13.5 155.35 155.35 0 0115.278-11.774h-38.716a144.579 144.579 0 00-10.121 10.173c-5.348 5.95-10.213 12.327-14.942 18.346-2.362 3.008-4.694 5.921-7.034 8.666-2.4 2.691-4.8 5.342-7.231 7.9a185.359 185.359 0 01-15.069 13.707c-2.508 2-4.869 3.968-7.273 5.649-2.381 1.7-4.543 3.4-6.712 4.775l-5.851 3.875-4.773 2.869-1.923 1.261c-3.941 2.387-8.243 4.86-12.608 7.329v32.041c9.11-4.419 18.125-9.185 26.932-14.482-.274-.529-1.686-.349-.116-1.661z" fill="url(#bc)"/><path class="e" d="M4605.55 4660.328c5.616-6.522 14.065-12.421 23.177-18.008a703.41 703.41 0 0114.183-8.424c4.7-2.7 9.321-5.22 13.9-7.416-.225-.557-1.473-.624-.062-1.606 4.6-2.834 9.192-2.469 14.267-4.875l.063-1.047c4.245-1.055 8.887-1.989 13.807-3.182 4.362-1.555 8.882-3.281 13.425-5.305 1.134-.495 2.278-1.051 3.412-1.579l3.358-1.726c2.259-1.117 4.379-2.426 6.534-3.674-.4-.184-.664-.411.137-.995 1.705-1.144 3.812-2.37 6.094-3.724 2.24-1.4 4.724-2.859 7.079-4.537l1.979-1.624a1.335 1.335 0 00.291-1.167c2.057-1.564 3.987-2.858 5.665-4.147 10.29-9.57 19.127-20.115 27.56-31 8.444-10.912 16.353-22.2 25.052-33.412a139.047 139.047 0 0110.632-14.3 107.158 107.158 0 0110.149-9.446c3.715-3.012 7.5-5.871 10.848-8.2-.757-.506-.381-1.7.556-3.247.07-.111.163-.233.239-.347h-28.189c-12.43 11.5-23.192 24.083-33.807 36.267-2.193 3.067-7.793 10.178-15.376 18.868-7.6 8.662-17.318 18.848-28.249 27.318a117.325 117.325 0 01-17.014 11.1c-2.922 1.5-5.775 2.9-8.745 4.1-2.962 1.218-5.987 2.322-8.993 3.362-6.014 2.074-11.937 3.928-17.17 5.773-5.222 1.813-9.791 3.642-13.05 5.063-.781.371-1.55.745-2.309 1.132a171.041 171.041 0 00-20.646 11.6c-3.249 2.1-6.29 4.172-9.283 6.312-2.967 2.154-5.74 4.285-8.165 6.413a120.576 120.576 0 00-4.829 4.8v20.589c.335-.177.579-.215.655-.025a5.4 5.4 0 01-.655.678v12.767a34.833 34.833 0 003.48-3.129zM4693.938 4667.63c-.276-.533-1.638-.384-.156-1.643a37.184 37.184 0 017.538-4.032 38.011 38.011 0 007.662-3.938l-.095-1.062c4.378-2 8.961-3.975 13.69-6.046 8.214-4.7 16.366-9.374 24.636-14.305-.4-.183-.663-.409.141-1 3.489-2.248 8.661-4.883 13.817-8.218l2.145-1.667a1.419 1.419 0 00.38-1.191c2.287-1.575 4.339-2.983 6.228-4.345a113.9 113.9 0 0015.74-17.1 161.854 161.854 0 0012.186-19.165c7.2-13.057 12.975-26.363 20.613-38.881a86.635 86.635 0 019.99-15.454c1.53-1.6 3.151-3.338 4.967-4.978l2.807-2.437 1.431-1.22 1.5-1.147c2-1.53 3.987-3.059 6.017-4.392l2.93-2.019 2.842-1.814c-.75-.529-.266-1.744.827-3.3a53.211 53.211 0 014.57-5.1c.57-.571 1.135-1.135 1.672-1.682v-14.154h-6.542q-6.8 3.836-13.306 8.277a150.118 150.118 0 00-28.328 25.162 165.609 165.609 0 00-11.51 15.106c-3.465 5.138-6.665 10.3-9.744 15.37-1.807 3.612-6.349 12.275-12.634 22.267a122.855 122.855 0 01-11.242 15.126c-1.051 1.286-2.242 2.409-3.387 3.628s-2.372 2.355-3.637 3.51a104.059 104.059 0 01-8.223 6.645c-2.92 2.134-6 4.176-9.168 6.137-1.592.973-3.19 1.936-4.818 2.866l-5 2.806-19.752 10.871c-12.429 6.827-22.927 12.755-29.032 16.334l-2.169 1.357a223.4 223.4 0 00-20.5 13.859c-3.377 2.477-6.5 5.253-9.477 7.785-2.418 2.227-4.673 4.383-6.691 6.46h45.863c1.73-1.106 3.46-2.199 5.219-3.276z"/><path class="f" d="M5081.882 4499.257c0-61.977-50.114-112.22-111.933-112.22v112.22z"/><path class="c" d="M4969.949 4387.037c-61.818 0-111.932 50.243-111.932 112.22a112.1 112.1 0 0040.733 86.594l71.2-86.594z"/><path class="g" d="M4969.949 4499.257l-71.2 86.594a111.3 111.3 0 0071.2 25.626c61.819 0 111.933-50.243 111.933-112.22z"/><path class="a" d="M2729.995 4741.311h2325.138v665.541H2729.995z"/><path opacity=".85" fill="#0f5a6b" d="M3592.439 4125.537h375v523h-375z"/></g></svg>