<svg xmlns="http://www.w3.org/2000/svg" xmlns:xlink="http://www.w3.org/1999/xlink" width="141.348" height="63.13" viewBox="0 0 141.348 63.13"><defs><style>.a{fill:#fff;}.b{clip-path:url(#a);}</style><clipPath id="a"><rect class="a" width="141.348" height="63.13"/></clipPath></defs><g transform="translate(0 0)"><g class="b" transform="translate(0 0)"><path class="a" d="M14.746,70.416a.772.772,0,0,1,.755.842c0,.812-.783.9-1.161.9A2.379,2.379,0,0,1,11.7,70.1c-.029-.175-.059-.29-.145-.29-.029,0-.058.029-.117.087a6.039,6.039,0,0,1-4.845,2.439C2.817,72.334,0,69.607,0,65.4a6.5,6.5,0,0,1,6.587-6.88,5.832,5.832,0,0,1,4.586,2.089c.146.2.233.348.291.348s.087-.146.087-.521c0-1.481.029-3.542.029-5.225,0-1.974,0-2.468-1.163-2.468a3.613,3.613,0,0,0-.464.029H9.895a.746.746,0,0,1-.813-.754.862.862,0,0,1,.9-.872c.29,0,.7-.029.958-.029a2.111,2.111,0,0,1,2.322,2.408v.117c-.028,2.437-.056,7.14-.055,11.116V68.7c0,1.393.494,1.741,1.133,1.74.145,0,.261-.029.377-.029ZM11.553,65.4c0-3.251-2.149-5.37-4.907-5.368-2.932,0-4.934,2.032-4.933,5.37,0,3.309,2.032,5.341,4.935,5.34,2.729,0,4.906-2.119,4.905-5.341" transform="translate(0 -9.278)"/><path class="a" d="M31.332,71.844c-.029-.088-.058-.146-.115-.146a.155.155,0,0,0-.117.088,5.361,5.361,0,0,1-4.412,2.237c-2.931,0-4.7-2-4.7-4.006,0-1.451.957-2.932,3.105-3.6a46.435,46.435,0,0,1,5.369-1.19c.349-.058.464-.147.464-.35,0-.146.029-.319.029-.464,0-1.6-.667-2.843-3.018-2.843a4.571,4.571,0,0,0-3.4,1.394.808.808,0,0,1-.61.291.787.787,0,0,1-.813-.784c0-1.1,2.438-2.351,4.933-2.352,2.7,0,4.53,1.189,4.531,4.439a7.792,7.792,0,0,1-.029.814c-.088.958-.145,2.465-.144,3.569,0,2.119.2,2.815,1.364,3.222a.737.737,0,0,1,.494.725.785.785,0,0,1-.783.812,2.471,2.471,0,0,1-2.149-1.856M30.9,67.4v-.377c0-.232-.087-.32-.29-.32h-.088c-4.557.728-6.966,1.308-6.965,3.34,0,1.219,1.161,2.437,3.105,2.437,1.481,0,4.238-.611,4.237-5.08" transform="translate(-3.991 -10.912)"/><path class="a" d="M44.118,61.071c-.464,0-.464.058-.464.406,0,1.1-.087,4.092-.087,6.241,0,2.265.059,3.8,2.323,3.8.26,0,.523-.029.812-.058h.117a.719.719,0,0,1,.7.754c0,.755-.7.9-1.857.9-3.715,0-3.716-3.163-3.716-4.44,0-1.858.055-5.4.055-6.821v-.464c0-.29-.086-.319-.29-.319H40a.771.771,0,1,1,0-1.539h1.684c.262,0,.318-.029.318-.289,0-.117.029-1.51.029-2.526v-.725a.843.843,0,1,1,1.684.056c0,.842-.058,3.163-.058,3.163,0,.319.059.319.436.319h2.583a.747.747,0,0,1,.813.755.754.754,0,0,1-.813.784Z" transform="translate(-7.112 -10.01)"/><path class="a" d="M62.111,71.837c-.029-.088-.058-.146-.115-.146a.154.154,0,0,0-.115.088,5.365,5.365,0,0,1-4.412,2.237c-2.93,0-4.7-2-4.7-4.006,0-1.451.957-2.932,3.105-3.6a46.474,46.474,0,0,1,5.369-1.19c.349-.058.465-.146.465-.349,0-.145.029-.319.029-.464,0-1.6-.668-2.844-3.018-2.844a4.577,4.577,0,0,0-3.4,1.395.809.809,0,0,1-.61.29.787.787,0,0,1-.813-.783c0-1.1,2.438-2.351,4.934-2.352,2.7,0,4.53,1.19,4.53,4.44a8,8,0,0,1-.029.813c-.088.958-.146,2.466-.145,3.57,0,2.119.2,2.815,1.364,3.221a.738.738,0,0,1,.494.726.785.785,0,0,1-.783.812,2.472,2.472,0,0,1-2.149-1.856m-.435-4.44v-.377c0-.232-.088-.32-.29-.32H61.3c-4.556.727-6.965,1.308-6.965,3.34,0,1.219,1.161,2.437,3.1,2.437,1.481,0,4.239-.611,4.238-5.08" transform="translate(-9.577 -10.91)"/><path class="a" d="M79.792,60.861c-.029.61-.029,1.017-.029,1.451,0,.407,0,.843.029,1.51v.058a.713.713,0,0,1-.725.7.745.745,0,0,1-.814-.754c0-2.322-2.582-2.321-2.757-2.321-1.51,0-2.352.9-2.352,1.859a2.237,2.237,0,0,0,1.423,1.915c.812.377,2.205.957,3.105,1.421a4.156,4.156,0,0,1,2.585,3.6c0,1.6-1.277,3.745-4.584,3.745a4.552,4.552,0,0,1-2.9-.957.367.367,0,0,0-.2-.117c-.057,0-.088.058-.088.146,0,.725-.347.813-.7.813a.7.7,0,0,1-.754-.7V73.17c.028-.638.056-1.074.056-1.509s-.028-.871-.057-1.567v-.057a.762.762,0,0,1,.813-.755.745.745,0,0,1,.783.783c0,.2-.058.348-.058.552,0,.958,1.451,1.915,3.106,1.915,1.479,0,2.9-.842,2.9-2.236,0-1.539-1.278-2.234-4.645-3.627a3.509,3.509,0,0,1-2.352-3.222c0-1.683,1.363-3.337,3.947-3.338a4.671,4.671,0,0,1,2.555.782.217.217,0,0,0,.174.057c.146,0,.117-.26.146-.347a.654.654,0,0,1,.666-.465.678.678,0,0,1,.727.7Z" transform="translate(-12.892 -10.91)"/><path class="a" d="M98.618,71.993c-.754-.029-1.45-.057-2.089-.057s-1.277.029-1.946.058h-.057a.738.738,0,0,1-.784-.755.68.68,0,0,1,.782-.755c.755,0,.755-.175.755-.2a.217.217,0,0,0-.058-.116c-1.539-1.508-3.92-3.714-4.819-4.642a1.036,1.036,0,0,0-.871-.349c-.435,0-.464.26-.464,1.77,0,.7,0,1.625.029,3.019a.444.444,0,0,0,.494.493,7.424,7.424,0,0,0,.812-.029h.029a.786.786,0,1,1,0,1.567H90.4c-.755-.029-1.509-.057-2.264-.056-.725,0-1.423.029-2.09.058a.751.751,0,0,1-.872-.755.8.8,0,0,1,.841-.814h.03c.347,0,.406.029.87.029a.458.458,0,0,0,.494-.494c.056-3.048.085-6.966.084-10.507,0-2.032-.03-3.977-.031-5.545,0-.812-.232-1.131-.958-1.161h-.667a.792.792,0,0,1-.813-.812c0-.755.522-.841,1.537-.841,2.381,0,2.585,1.538,2.585,2.176,0,3.744-.056,9.9-.056,9.9a.435.435,0,0,0,.494.464c.318,0,.435-.029,5.021-3.193.087-.059.116-.117.116-.146,0-.058-.058-.088-.2-.088-.523,0-1.219,0-1.219-.7a.738.738,0,0,1,.783-.755h.058c.725.029,1.364.029,2.032.029.638,0,1.335,0,2.089-.03a.708.708,0,0,1,.842.755.764.764,0,0,1-.813.755h-.029c-.406,0-.174-.029-.58-.029a1.38,1.38,0,0,0-.724.261c-1.713,1.161-3.948,2.672-5.369,3.6-.174.115-.232.2-.232.291,0,.2.755.9,6.009,5.716a1.073,1.073,0,0,0,.841.348c.117,0,.262-.029.435-.029a.717.717,0,0,1,.813.754.774.774,0,0,1-.812.814Z" transform="translate(-15.434 -9.274)"/><path class="a" d="M111.913,74.009a6.484,6.484,0,0,1-6.562-6.848c0-4.238,3.046-7.025,6.471-7.025a5.408,5.408,0,0,1,5.72,4.758c0,1.074-.638,1.887-2.118,1.946-.668.029-1.655.029-2.729.029-2.177,0-4.644-.028-5.283-.028-.29,0-.348.115-.348.522a4.74,4.74,0,0,0,4.877,5.107,5.2,5.2,0,0,0,4.209-1.917.825.825,0,0,1,.581-.26.887.887,0,0,1,.87.841c0,.666-2.031,2.874-5.688,2.875m-.061-12.424c-2.786,0-4.557,2.5-4.556,3.572,0,.291.262.291,3.628.291,1.51,0,3.136,0,3.948-.03.7-.029.958-.349.958-.814,0-.842-1.017-3.019-3.978-3.019" transform="translate(-19.122 -10.915)"/><path class="a" d="M127.909,61.053c-.464,0-.464.058-.464.406,0,1.1-.087,4.092-.087,6.24,0,2.264.059,3.8,2.323,3.8a8.084,8.084,0,0,0,.812-.059h.117a.719.719,0,0,1,.7.755c0,.755-.7.9-1.857.9-3.715,0-3.716-3.163-3.716-4.44,0-1.858.056-5.4.056-6.821v-.464c0-.291-.086-.319-.29-.319h-1.712a.771.771,0,1,1,0-1.539h1.684c.26,0,.318-.029.318-.29,0-.116.029-1.51.029-2.526v-.725a.843.843,0,1,1,1.684.057c0,.843-.058,3.164-.058,3.164,0,.319.059.319.436.319h2.583a.771.771,0,1,1,0,1.539Z" transform="translate(-22.321 -10.007)"/><path class="a" d="M143.344,73.947A6.6,6.6,0,0,1,136.52,67.1c0-4.063,2.872-7.112,6.53-7.113a6.688,6.688,0,0,1,3.28.87c.059.029.088.058.146.058.088,0,.117-.175.146-.318.029-.349.377-.494.7-.494a.75.75,0,0,1,.842.726v.057c-.028.61-.028,1.045-.028,1.51,0,.435,0,.9.028,1.567v.058a.748.748,0,0,1-.841.726.768.768,0,0,1-.813-.7c-.029-.609.058-.958-.29-1.364a3.817,3.817,0,0,0-2.961-1.189c-2.844,0-5.05,2.266-5.049,5.487,0,2.641,1.713,5.4,5.052,5.4a4.567,4.567,0,0,0,3.715-1.684.912.912,0,0,1,.755-.435.929.929,0,0,1,.928.9c0,.841-2.176,2.786-5.31,2.788" transform="translate(-24.78 -10.888)"/><path class="a" d="M168.341,71.972c-.755-.029-1.51-.058-2.266-.058-.724,0-1.421.029-2.089.059a.75.75,0,0,1-.871-.755.8.8,0,0,1,.841-.812h.029c.377,0,.406.029.87.028a.449.449,0,0,0,.465-.493c0-.958.029-2.061.029-3.135,0-1.509-.029-2.874-.059-3.425a3.257,3.257,0,0,0-3.339-3.424,4.239,4.239,0,0,0-4.322,3.8c0,.551-.029,1.423-.029,2.466,0,1.075.03,2.352.03,3.716a.444.444,0,0,0,.494.494,7.225,7.225,0,0,0,.813-.029.787.787,0,1,1,.029,1.568h-.029c-.755-.029-1.539-.058-2.264-.058s-1.451.029-2.12.059a.751.751,0,0,1-.87-.755.8.8,0,0,1,.841-.814h.029c.377,0,.465.029.929.029a.436.436,0,0,0,.464-.494c.029-2.352.058-6.009.056-9.492,0-2.468-.029-4.818-.03-6.56,0-.754-.232-1.16-.987-1.189a5.537,5.537,0,0,0-.638.029h-.029a.792.792,0,0,1-.812-.813c0-.494.232-.87,1.48-.87a6.361,6.361,0,0,1,.725.056,2.025,2.025,0,0,1,1.974,2.206v1.655c0,2.352-.027,4.963-.027,5.369,0,.088.028.146.057.146s.058-.029.116-.087a5.436,5.436,0,0,1,4.3-1.976,4.6,4.6,0,0,1,4.849,4.643c.029,1.219.059,4.557.059,6.849,0,.319.146.523.494.523.435,0,.406-.029.814-.029h.029a.786.786,0,1,1,0,1.567Z" transform="translate(-27.862 -9.265)"/><path class="a" d="M109.809,23.794l-9.179-6.228V2.9a2.906,2.906,0,0,0-2.9-2.9H71.189a2.906,2.906,0,0,0-2.9,2.9v19.3a2.906,2.906,0,0,0,2.9,2.9H83.722l-4.728,4.758a.72.72,0,1,0,1.021,1.015l4.443-4.471L88.9,30.883a.72.72,0,1,0,1.021-1.015L85.2,25.111H97.727a2.906,2.906,0,0,0,2.9-2.9v-2.9l8.37,5.68a.72.72,0,0,0,.809-1.192M99.19,16.59l-4.924-3.34a.72.72,0,0,0-.809,1.192L99.19,18.33v3.877a1.464,1.464,0,0,1-1.463,1.463H71.189a1.464,1.464,0,0,1-1.463-1.463V2.9A1.465,1.465,0,0,1,71.189,1.44H97.727A1.465,1.465,0,0,1,99.19,2.9Z" transform="translate(-12.395 0)"/></g></g></svg>