<svg xmlns="http://www.w3.org/2000/svg" width="254.937" height="60.611" viewBox="0 0 254.937 60.611"><defs><style>.a{fill:#fff;}</style></defs><g transform="translate(-64.879 -4414.432)"><g transform="translate(65.244 4462.853)"><g transform="translate(0 0)"><path class="a" d="M68.44,4484.336a3.914,3.914,0,0,1-1.834-.532,2.832,2.832,0,0,1-1.3-1.485l1.428-.525a1.436,1.436,0,0,0,.721.75,2.586,2.586,0,0,0,1.05.272,2.094,2.094,0,0,0,1.449-.427,1.234,1.234,0,0,0,.512-.9q.042-.959-2.01-1.534-3.214-.9-3.116-3.06a2.61,2.61,0,0,1,1.3-2.262,3.867,3.867,0,0,1,2.254-.511,3.554,3.554,0,0,1,2.563,1.113l-1.114,1.037a2.1,2.1,0,0,0-1.519-.63,2.731,2.731,0,0,0-1.17.174,1.216,1.216,0,0,0-.791,1.148q-.042.946,2.01,1.52a4.828,4.828,0,0,1,2.619,1.527,2.334,2.334,0,0,1,.5,1.548,2.681,2.681,0,0,1-1.079,2.016,3.535,3.535,0,0,1-2.283.764C68.565,4484.343,68.5,4484.341,68.44,4484.336Z" transform="translate(-65.311 -4472.152)"/><path class="a" d="M79.77,4474.244v1.519H76.178v2.717h2.773V4480H76.178v2.744H79.77v1.52H74.658v-10.02Z" transform="translate(-66.767 -4472.171)"/><path class="a" d="M86.746,4482.816a3.515,3.515,0,0,0,1.7-.427v1.66a5.04,5.04,0,0,1-1.7.294,5.111,5.111,0,0,1,0-10.222,5.144,5.144,0,0,1,1.7.287v1.667a3.479,3.479,0,0,0-1.7-.434,3.588,3.588,0,0,0,0,7.177Z" transform="translate(-67.854 -4472.152)"/><path class="a" d="M98.248,4484.264H96.533l-2.192-4.222H92.626v4.222h-1.52v-10.02h3.7a2.9,2.9,0,0,1,2.4,4.517,2.867,2.867,0,0,1-1.268,1.05Zm-3.444-5.741a1.331,1.331,0,0,0,.973-.406,1.315,1.315,0,0,0,.4-.966,1.349,1.349,0,0,0-.4-.981,1.327,1.327,0,0,0-.973-.406H92.626v2.759Z" transform="translate(-69.33 -4472.171)"/><path class="a" d="M105.7,4474.244v1.519h-3.592v2.717h2.772V4480h-2.772v2.744H105.7v1.52h-5.112v-10.02Z" transform="translate(-70.807 -4472.171)"/><path class="a" d="M113.439,4474.244v1.519h-2.121v8.5h-1.526v-8.5H107.67v-1.519Z" transform="translate(-71.911 -4472.171)"/><path class="a" d="M123.706,4474.244v10.02H122.18v-2.339h-3.4l-1.477,2.339h-1.8l6.337-10.02Zm-3.97,6.162h2.444v-3.858Z" transform="translate(-73.13 -4472.171)"/><path class="a" d="M134.295,4484.264h-1.715l-2.192-4.222h-1.715v4.222h-1.52v-10.02h3.7a2.894,2.894,0,0,1,2.4,4.517,2.86,2.86,0,0,1-1.267,1.05Zm-3.444-5.741a1.332,1.332,0,0,0,.973-.406,1.319,1.319,0,0,0,.4-.966,1.352,1.352,0,0,0-.4-.981,1.329,1.329,0,0,0-.973-.406h-2.178v2.759Z" transform="translate(-74.946 -4472.171)"/><path class="a" d="M138.253,4471.789l-.692,1.47h-.911v-1.47Zm-.084,2.087h-1.52v10h1.52Z" transform="translate(-76.426 -4471.789)"/><path class="a" d="M148,4474.244v10.02h-1.526v-2.339h-3.4l-1.477,2.339h-1.8l6.337-10.02Zm-3.97,6.162h2.444v-3.858Z" transform="translate(-76.915 -4472.171)"/><path class="a" d="M161.106,4474.244v1.519h-2.121v8.5h-1.526v-8.5h-2.121v-1.519Z" transform="translate(-79.337 -4472.171)"/><path class="a" d="M168.9,4473.861v1.52h-3.592v2.717h2.772v1.521h-2.772v2.743H168.9v1.52h-5.112v-10.02Zm-3.362-2.072v1.47h.91l.694-1.47Z" transform="translate(-80.654 -4471.789)"/><path class="a" d="M175.876,4482.816a3.515,3.515,0,0,0,1.7-.427v1.66a5.04,5.04,0,0,1-1.7.294,5.111,5.111,0,0,1,0-10.222,5.144,5.144,0,0,1,1.7.287v1.667a3.479,3.479,0,0,0-1.7-.434,3.588,3.588,0,0,0,0,7.177Z" transform="translate(-81.741 -4472.152)"/><path class="a" d="M187.605,4474.244v10.02h-1.59l-4.285-7.163v7.163h-1.52v-10.02h1.59l4.278,7.163v-7.163Z" transform="translate(-83.212 -4472.171)"/><path class="a" d="M192.381,4484.266h-1.52v-10h1.52Z" transform="translate(-84.872 -4472.174)"/><path class="a" d="M199.216,4482.816a3.515,3.515,0,0,0,1.7-.427v1.66a5.04,5.04,0,0,1-1.7.294,5.111,5.111,0,0,1,0-10.222,5.144,5.144,0,0,1,1.7.287v1.667a3.479,3.479,0,0,0-1.7-.434,3.588,3.588,0,0,0,0,7.177Z" transform="translate(-85.377 -4472.152)"/><path class="a" d="M211.251,4474.244v10.02h-1.526v-2.339h-3.4l-1.477,2.339h-1.8l6.337-10.02Zm-3.97,6.162h2.444v-3.858Z" transform="translate(-86.77 -4472.171)"/><path class="a" d="M220.548,4484.264h-1.52v-10.02h3.7a2.9,2.9,0,0,1,0,5.8h-2.177Zm0-5.741h2.177a1.333,1.333,0,0,0,.974-.406,1.319,1.319,0,0,0,.4-.966,1.352,1.352,0,0,0-.4-.981,1.329,1.329,0,0,0-.974-.406h-2.177Z" transform="translate(-89.26 -4472.171)"/><path class="a" d="M229.812,4474.244v8.5H233.4v1.52h-5.112v-10.02Z" transform="translate(-90.703 -4472.171)"/><path class="a" d="M243.375,4474.244v10.02h-1.526v-2.339h-3.4l-1.477,2.339h-1.8l6.337-10.02Zm-3.97,6.162h2.444v-3.858Z" transform="translate(-91.775 -4472.171)"/><path class="a" d="M254.191,4474.244v10.02H252.6l-4.285-7.163v7.163H246.8v-10.02h1.59l4.278,7.163v-7.163Z" transform="translate(-93.587 -4472.171)"/><path class="a" d="M258.967,4484.266h-1.52v-10h1.52Z" transform="translate(-95.246 -4472.174)"/><path class="a" d="M266.324,4474.244v1.519h-3.592v2.717H265.5V4480h-2.772v4.263h-1.52v-10.02Z" transform="translate(-95.832 -4472.171)"/><path class="a" d="M270.247,4484.266h-1.52v-10h1.52Z" transform="translate(-97.003 -4472.174)"/><path class="a" d="M277.082,4482.816a3.519,3.519,0,0,0,1.7-.427v1.66a5.048,5.048,0,0,1-1.7.294,5.111,5.111,0,0,1,0-10.222,5.152,5.152,0,0,1,1.7.287v1.667a3.482,3.482,0,0,0-1.7-.434,3.588,3.588,0,0,0,0,7.177Z" transform="translate(-97.508 -4472.152)"/><path class="a" d="M289.117,4474.244v10.02h-1.526v-2.339h-3.4l-1.477,2.339h-1.8l6.337-10.02Zm-3.97,6.162h2.444v-3.858Z" transform="translate(-98.901 -4472.171)"/><path class="a" d="M301.981,4474.244v1.519h-3.592v2.717h2.773V4480h-2.773v2.744h3.592v1.52h-5.112v-10.02Z" transform="translate(-101.388 -4472.171)"/><path class="a" d="M308.957,4482.816a3.515,3.515,0,0,0,1.7-.427v1.66a5.04,5.04,0,0,1-1.7.294,5.111,5.111,0,0,1,0-10.222,5.144,5.144,0,0,1,1.7.287v1.667a3.479,3.479,0,0,0-1.7-.434,3.588,3.588,0,0,0,0,7.177Z" transform="translate(-102.475 -4472.152)"/><path class="a" d="M314.543,4483.31a3.436,3.436,0,0,1-1.043-2.521v-6.554h1.526v6.554a2.041,2.041,0,0,0,4.083,0v-6.554h1.526v6.554a3.57,3.57,0,0,1-6.093,2.521Z" transform="translate(-103.979 -4472.17)"/><path class="a" d="M331.568,4474.244v10.02h-1.527v-2.339h-3.4l-1.477,2.339h-1.8l6.337-10.02Zm-3.971,6.162h2.444v-3.858Z" transform="translate(-105.515 -4472.171)"/><path class="a" d="M335.073,4484.264v-10.02h2.632a5.01,5.01,0,0,1,0,10.02Zm1.513-1.513h1.119a3.5,3.5,0,0,0,0-6.994h-1.119Z" transform="translate(-107.34 -4472.171)"/><path class="a" d="M346.491,4482.844a5.105,5.105,0,1,1,3.613,1.5A4.919,4.919,0,0,1,346.491,4482.844Zm1.078-6.147a3.585,3.585,0,1,0,2.535-1.05A3.455,3.455,0,0,0,347.569,4476.7Z" transform="translate(-108.885 -4472.152)"/><path class="a" d="M365.547,4484.264h-1.715l-2.192-4.222h-1.715v4.222H358.4v-10.02h3.7a2.894,2.894,0,0,1,2.4,4.517,2.863,2.863,0,0,1-1.268,1.05Zm-3.445-5.741a1.331,1.331,0,0,0,.973-.406,1.316,1.316,0,0,0,.4-.966,1.349,1.349,0,0,0-.4-.981,1.327,1.327,0,0,0-.973-.406h-2.177v2.759Z" transform="translate(-110.975 -4472.171)"/></g></g><g transform="translate(64.879 4429.26)"><g transform="translate(0 0)"><path class="a" d="M72.652,4434.451l-3.123,5.307v4.712H68v-4.712l-3.124-5.307h1.765l2.121,3.6,2.121-3.6Z" transform="translate(-64.879 -4432.378)"/><path class="a" d="M79.253,4444.471v-10.02h2.633a5.01,5.01,0,0,1,0,10.02Zm1.513-1.513h1.12a3.5,3.5,0,0,0,0-6.994h-1.12Z" transform="translate(-67.118 -4432.378)"/><path class="a" d="M94.915,4434.451v1.519H91.323v2.717H94.1v1.52H91.323v2.745h3.591v1.519H89.8v-10.02Z" transform="translate(-68.762 -4432.378)"/><path class="a" d="M103.035,4434.451v8.5h3.592v1.519h-5.112v-10.02Z" transform="translate(-70.587 -4432.378)"/><path class="a" d="M116.6,4434.451v10.02h-1.526v-2.338h-3.4l-1.477,2.338h-1.8l6.337-10.02Zm-3.97,6.162h2.444v-3.858Z" transform="translate(-71.658 -4432.378)"/><path class="a" d="M126.931,4444.543a3.92,3.92,0,0,1-1.834-.532,2.835,2.835,0,0,1-1.3-1.485l1.429-.525a1.435,1.435,0,0,0,.721.75,2.582,2.582,0,0,0,1.05.272,2.1,2.1,0,0,0,1.449-.427,1.235,1.235,0,0,0,.512-.9q.041-.959-2.01-1.534-3.214-.9-3.116-3.061a2.611,2.611,0,0,1,1.295-2.262,3.873,3.873,0,0,1,2.255-.511,3.556,3.556,0,0,1,2.563,1.113l-1.114,1.037a2.1,2.1,0,0,0-1.52-.631,2.732,2.732,0,0,0-1.169.175,1.215,1.215,0,0,0-.791,1.148q-.043.946,2.009,1.52a4.822,4.822,0,0,1,2.619,1.527,2.33,2.33,0,0,1,.5,1.548,2.677,2.677,0,0,1-1.078,2.016,3.539,3.539,0,0,1-2.283.764C127.055,4444.55,126.992,4444.548,126.931,4444.543Z" transform="translate(-74.059 -4432.359)"/><path class="a" d="M134.017,4443.051a5.1,5.1,0,1,1,3.613,1.5A4.918,4.918,0,0,1,134.017,4443.051Zm1.078-6.147a3.584,3.584,0,1,0,2.535-1.05A3.455,3.455,0,0,0,135.1,4436.9Z" transform="translate(-75.417 -4432.359)"/><path class="a" d="M150.611,4443.023a3.515,3.515,0,0,0,1.7-.427v1.66a5.041,5.041,0,0,1-1.7.295,5.112,5.112,0,0,1,0-10.223,5.143,5.143,0,0,1,1.7.287v1.667a3.478,3.478,0,0,0-1.7-.434,3.588,3.588,0,0,0,0,7.176Z" transform="translate(-77.44 -4432.359)"/><path class="a" d="M156.6,4444.473h-1.52v-10.005h1.52Z" transform="translate(-78.932 -4432.381)"/><path class="a" d="M163.957,4434.451v1.519h-3.592v2.717h2.772v1.52h-2.772v2.745h3.592v1.519h-5.112v-10.02Z" transform="translate(-79.519 -4432.378)"/><path class="a" d="M166.31,4444.471v-10.02h2.632a5.01,5.01,0,0,1,0,10.02Zm1.513-1.513h1.119a3.5,3.5,0,0,0,0-6.994h-1.119Z" transform="translate(-80.682 -4432.378)"/><path class="a" d="M184.444,4434.451v10.02h-1.526v-2.338h-3.4l-1.477,2.338h-1.8l6.337-10.02Zm-3.97,6.162h2.444v-3.858Z" transform="translate(-82.229 -4432.378)"/><path class="a" d="M187.949,4444.471v-10.02h2.633a5.01,5.01,0,0,1,0,10.02Zm1.513-1.513h1.12a3.5,3.5,0,0,0,0-6.994h-1.12Z" transform="translate(-84.053 -4432.378)"/><path class="a" d="M202.68,4444.471v-10.02h2.632a5.01,5.01,0,0,1,0,10.02Zm1.513-1.513h1.119a3.5,3.5,0,0,0,0-6.994h-1.119Z" transform="translate(-86.348 -4432.378)"/><path class="a" d="M218.342,4434.451v1.519H214.75v2.717h2.772v1.52H214.75v2.745h3.592v1.519H213.23v-10.02Z" transform="translate(-87.992 -4432.378)"/><path class="a" d="M226.461,4434.451v8.5h3.592v1.519h-5.112v-10.02Z" transform="translate(-89.817 -4432.378)"/><path class="a" d="M240.024,4434.451v10.02H238.5v-2.338h-3.4l-1.477,2.338h-1.8l6.337-10.02Zm-3.971,6.162H238.5v-3.858Z" transform="translate(-90.888 -4432.378)"/><path class="a" d="M249.312,4444.473h-1.52v-10.005h1.52Z" transform="translate(-93.377 -4432.381)"/><path class="a" d="M258.836,4434.451v10.02h-1.59l-4.285-7.163v7.163h-1.52v-10.02h1.59l4.278,7.164v-7.164Z" transform="translate(-93.946 -4432.378)"/><path class="a" d="M267.187,4434.451v1.519h-3.592v2.717h2.772v1.52h-2.772v4.263h-1.52v-10.02Z" transform="translate(-95.602 -4432.378)"/><path class="a" d="M270.441,4443.051a5.1,5.1,0,1,1,3.613,1.5A4.919,4.919,0,0,1,270.441,4443.051Zm1.078-6.147a3.584,3.584,0,1,0,2.535-1.05A3.454,3.454,0,0,0,271.519,4436.9Z" transform="translate(-96.672 -4432.359)"/><path class="a" d="M289.5,4444.471h-1.715l-2.192-4.222h-1.715v4.222h-1.52v-10.02h3.7a2.9,2.9,0,0,1,2.4,4.516,2.865,2.865,0,0,1-1.268,1.05Zm-3.444-5.741a1.331,1.331,0,0,0,.973-.406,1.315,1.315,0,0,0,.4-.966,1.349,1.349,0,0,0-.4-.981,1.327,1.327,0,0,0-.973-.406h-2.178v2.759Z" transform="translate(-98.762 -4432.378)"/><path class="a" d="M302.222,4434.451v10.02H300.7v-6.365l-2.787,6.365H296.2l-2.738-6.323v6.323h-1.52v-10.02h1.59l3.53,8.178,3.571-8.178Z" transform="translate(-100.255 -4432.378)"/><path class="a" d="M313.71,4434.451v10.02h-1.526v-2.338h-3.4l-1.477,2.338h-1.8l6.337-10.02Zm-3.971,6.162h2.445v-3.858Z" transform="translate(-102.368 -4432.378)"/><path class="a" d="M321.838,4443.023a3.515,3.515,0,0,0,1.7-.427v1.66a5.041,5.041,0,0,1-1.7.295,5.112,5.112,0,0,1,0-10.223,5.144,5.144,0,0,1,1.7.287v1.667a3.478,3.478,0,0,0-1.7-.434,3.588,3.588,0,0,0,0,7.176Z" transform="translate(-104.117 -4432.359)"/><path class="a" d="M327.826,4444.473h-1.52v-10.005h1.52Z" transform="translate(-105.609 -4432.381)"/><path class="a" d="M330.939,4442.688a5.1,5.1,0,1,1,3.613,1.5A4.921,4.921,0,0,1,330.939,4442.688Zm1.079-6.147a3.585,3.585,0,1,0,2.534-1.05A3.452,3.452,0,0,0,332.018,4436.54Zm3.34-4.544-.7,1.47h-.911V4432Z" transform="translate(-106.098 -4431.996)"/><path class="a" d="M350.222,4434.451v10.02h-1.59l-4.285-7.163v7.163h-1.52v-10.02h1.59l4.278,7.164v-7.164Z" transform="translate(-108.183 -4432.378)"/></g></g><g transform="translate(65.797 4414.432)"><g transform="translate(0)"><path class="a" d="M76.245,4414.556v10.02h-1.52v-6.364l-2.787,6.364H70.223l-2.738-6.323v6.323h-1.52v-10.02h1.59l3.529,8.178,3.571-8.178Z" transform="translate(-65.966 -4414.451)"/><path class="a" d="M81.686,4424.578h-1.52v-10.006h1.52Z" transform="translate(-68.178 -4414.454)"/><path class="a" d="M91.209,4414.556v10.02H89.62l-4.285-7.164v7.164h-1.52v-10.02H85.4l4.278,7.163v-7.163Z" transform="translate(-68.747 -4414.451)"/><path class="a" d="M95.985,4424.578h-1.52v-10.006h1.52Z" transform="translate(-70.406 -4414.454)"/><path class="a" d="M100.813,4424.646a3.9,3.9,0,0,1-1.834-.532,2.83,2.83,0,0,1-1.3-1.484l1.428-.526a1.43,1.43,0,0,0,.721.75,2.551,2.551,0,0,0,1.051.272,2.089,2.089,0,0,0,1.449-.426,1.235,1.235,0,0,0,.512-.9q.042-.959-2.009-1.533-3.215-.9-3.116-3.061a2.609,2.609,0,0,1,1.3-2.262,3.877,3.877,0,0,1,2.255-.512,3.56,3.56,0,0,1,2.563,1.114l-1.114,1.036a2.1,2.1,0,0,0-1.52-.631,2.747,2.747,0,0,0-1.169.175,1.218,1.218,0,0,0-.792,1.149q-.042.946,2.01,1.519a4.825,4.825,0,0,1,2.619,1.527,2.329,2.329,0,0,1,.5,1.547,2.683,2.683,0,0,1-1.078,2.018,3.545,3.545,0,0,1-2.283.763C100.937,4424.654,100.873,4424.652,100.813,4424.646Z" transform="translate(-70.908 -4414.432)"/><path class="a" d="M112.386,4414.556v1.519h-2.121v8.5h-1.527v-8.5h-2.121v-1.519Z" transform="translate(-72.299 -4414.451)"/><path class="a" d="M120.18,4414.556v1.519h-3.592v2.717h2.772v1.52h-2.772v2.745h3.592v1.52h-5.112v-10.02Z" transform="translate(-73.616 -4414.451)"/><path class="a" d="M129.617,4424.576H127.9l-2.192-4.222h-1.715v4.222h-1.52v-10.02h3.7a2.893,2.893,0,0,1,2.4,4.515,2.85,2.85,0,0,1-1.267,1.05Zm-3.445-5.742a1.373,1.373,0,0,0,1.373-1.372,1.348,1.348,0,0,0-.4-.98,1.326,1.326,0,0,0-.973-.407h-2.177v2.759Z" transform="translate(-74.77 -4414.451)"/><path class="a" d="M133.492,4424.578h-1.52v-10.006h1.52Z" transform="translate(-76.25 -4414.454)"/><path class="a" d="M136.605,4423.156a5.106,5.106,0,1,1,3.613,1.5A4.927,4.927,0,0,1,136.605,4423.156Zm1.079-6.149a3.584,3.584,0,1,0,2.534-1.05A3.454,3.454,0,0,0,137.684,4417.007Z" transform="translate(-76.738 -4414.432)"/><path class="a" d="M152.79,4424.576v-10.02h2.633a5.01,5.01,0,0,1,0,10.02Zm1.513-1.513h1.12a3.5,3.5,0,0,0,0-6.994H154.3Z" transform="translate(-79.493 -4414.451)"/><path class="a" d="M168.452,4414.556v1.519H164.86v2.717h2.772v1.52H164.86v2.745h3.592v1.52H163.34v-10.02Z" transform="translate(-81.137 -4414.451)"/><path class="a" d="M180.407,4414.556v1.519h-2.122v8.5h-1.526v-8.5h-2.121v-1.519Z" transform="translate(-82.897 -4414.451)"/><path class="a" d="M188.2,4414.556v1.519h-3.592v2.717h2.772v1.52h-2.772v2.745H188.2v1.52h-5.112v-10.02Z" transform="translate(-84.214 -4414.451)"/><path class="a" d="M192.107,4414.556v8.5H195.7v1.52h-5.112v-10.02Z" transform="translate(-85.382 -4414.451)"/><path class="a" d="M203.2,4414.556v1.519H199.6v2.717h2.772v1.52H199.6v2.745H203.2v1.52h-5.112v-10.02Z" transform="translate(-86.55 -4414.451)"/><path class="a" d="M210.173,4423.127a3.533,3.533,0,0,0,1.7-.426v1.659a5.029,5.029,0,0,1-1.7.294,5.111,5.111,0,0,1,0-10.222,5.156,5.156,0,0,1,1.7.286v1.667a3.586,3.586,0,1,0-1.7,6.742Z" transform="translate(-87.637 -4414.432)"/><path class="a" d="M215.492,4423.156a5.106,5.106,0,1,1,3.613,1.5A4.924,4.924,0,0,1,215.492,4423.156Zm1.078-6.149a3.584,3.584,0,1,0,2.535-1.05A3.457,3.457,0,0,0,216.57,4417.007Z" transform="translate(-89.029 -4414.432)"/><path class="a" d="M237.884,4414.556v10.02h-1.52v-6.364l-2.787,6.364h-1.716l-2.738-6.323v6.323H227.6v-10.02h1.59l3.53,8.178,3.571-8.178Z" transform="translate(-91.149 -4414.451)"/><path class="a" d="M242.922,4423.622a3.433,3.433,0,0,1-1.043-2.521v-6.554h1.526v6.554a2.041,2.041,0,0,0,4.083,0v-6.554h1.526v6.554a3.57,3.57,0,0,1-6.092,2.521Z" transform="translate(-93.373 -4414.45)"/><path class="a" d="M259.641,4414.556v10.02h-1.59l-4.285-7.164v7.164h-1.52v-10.02h1.59l4.278,7.163v-7.163Z" transform="translate(-94.989 -4414.451)"/><path class="a" d="M264.416,4424.578H262.9v-10.006h1.52Z" transform="translate(-96.648 -4414.454)"/><path class="a" d="M271.252,4423.127a3.53,3.53,0,0,0,1.7-.426v1.659a5.029,5.029,0,0,1-1.7.294,5.111,5.111,0,0,1,0-10.222,5.156,5.156,0,0,1,1.7.286v1.667a3.586,3.586,0,1,0-1.7,6.742Z" transform="translate(-97.153 -4414.432)"/><path class="a" d="M283.287,4414.556v10.02h-1.526v-2.339h-3.4l-1.477,2.339h-1.8l6.337-10.02Zm-3.97,6.161h2.444v-3.858Z" transform="translate(-98.546 -4414.451)"/><path class="a" d="M291.415,4423.127a3.534,3.534,0,0,0,1.7-.426v1.659a5.037,5.037,0,0,1-1.7.294,5.111,5.111,0,0,1,0-10.222,5.164,5.164,0,0,1,1.7.286v1.667a3.586,3.586,0,1,0-1.7,6.742Z" transform="translate(-100.295 -4414.432)"/><path class="a" d="M297.4,4424.578h-1.52v-10.006h1.52Z" transform="translate(-101.787 -4414.454)"/><path class="a" d="M300.516,4423.156a5.106,5.106,0,1,1,3.613,1.5A4.927,4.927,0,0,1,300.516,4423.156Zm1.079-6.149a3.584,3.584,0,1,0,2.534-1.05A3.454,3.454,0,0,0,301.6,4417.007Z" transform="translate(-102.276 -4414.432)"/><path class="a" d="M319.8,4414.556v10.02h-1.59l-4.285-7.164v7.164H312.4v-10.02h1.59l4.278,7.163v-7.163Z" transform="translate(-104.361 -4414.451)"/><path class="a" d="M328.15,4414.556v1.519h-3.592v2.717h2.773v1.52h-2.773v2.745h3.592v1.52h-5.112v-10.02Z" transform="translate(-106.018 -4414.451)"/><path class="a" d="M333.118,4424.646a3.908,3.908,0,0,1-1.834-.532,2.828,2.828,0,0,1-1.3-1.484l1.428-.526a1.427,1.427,0,0,0,.721.75,2.551,2.551,0,0,0,1.05.272,2.09,2.09,0,0,0,1.449-.426,1.235,1.235,0,0,0,.512-.9q.042-.959-2.01-1.533-3.214-.9-3.116-3.061a2.61,2.61,0,0,1,1.3-2.262,3.876,3.876,0,0,1,2.254-.512,3.559,3.559,0,0,1,2.563,1.114l-1.113,1.036a2.1,2.1,0,0,0-1.52-.631,2.747,2.747,0,0,0-1.169.175,1.217,1.217,0,0,0-.792,1.149q-.042.946,2.01,1.519a4.828,4.828,0,0,1,2.619,1.527,2.333,2.333,0,0,1,.5,1.547,2.685,2.685,0,0,1-1.078,2.018,3.545,3.545,0,0,1-2.284.763C333.243,4424.654,333.179,4424.652,333.118,4424.646Z" transform="translate(-107.101 -4414.432)"/></g></g></g></svg>