<?xml version="1.0" encoding="utf-8"?>
<!-- Generator: Adobe Illustrator 25.3.1, SVG Export Plug-In . SVG Version: 6.00 Build 0)  -->
<svg version="1.1" id="Capa_1" xmlns="http://www.w3.org/2000/svg" xmlns:xlink="http://www.w3.org/1999/xlink" x="0px" y="0px"
	 viewBox="0 0 1200 239" style="enable-background:new 0 0 1200 239;" xml:space="preserve">
<style type="text/css">
	.st0{fill:#FFFFFF;}
</style>
<g>
	<path class="st0" d="M55.6,217l4.3-5.1c3.9,3.3,7.7,5.3,12.8,5.3c4.4,0,7.2-2,7.2-5.1V212c0-2.9-1.6-4.4-9.1-6.2
		c-8.6-2.1-13.4-4.6-13.4-12.1v-0.1c0-6.9,5.8-11.7,13.8-11.7c5.9,0,10.6,1.8,14.7,5.1l-3.8,5.4c-3.6-2.7-7.3-4.2-11-4.2
		c-4.2,0-6.6,2.1-6.6,4.8v0.1c0,3.1,1.8,4.5,9.6,6.4c8.5,2.1,13,5.1,13,11.8v0.1c0,7.6-5.9,12.1-14.4,12.1
		C66.3,223.5,60.4,221.3,55.6,217z"/>
	<path class="st0" d="M94.5,207.8v-0.1c0-8.7,6.2-15.9,14.9-15.9c9.7,0,14.6,7.6,14.6,16.4c0,0.6-0.1,1.3-0.1,2h-22.4
		c0.8,5,4.3,7.7,8.8,7.7c3.4,0,5.8-1.3,8.3-3.6l4.1,3.6c-2.9,3.5-6.9,5.7-12.5,5.7C101.3,223.6,94.5,217.2,94.5,207.8z M117,205.5
		c-0.5-4.5-3.1-8-7.7-8c-4.3,0-7.3,3.3-7.9,8H117z"/>
	<path class="st0" d="M131,207.8v-0.1c0-8.7,6.7-15.9,15.8-15.9c5.8,0,9.3,2.1,12.2,5.2l-4.3,4.7c-2.1-2.2-4.4-3.8-7.9-3.8
		c-5.1,0-8.8,4.4-8.8,9.7v0.1c0,5.4,3.7,9.8,9.1,9.8c3.3,0,5.7-1.6,7.9-3.8l4.2,4.2c-3,3.3-6.5,5.7-12.5,5.7
		C137.7,223.6,131,216.5,131,207.8z"/>
	<path class="st0" d="M167.4,192.4h7v6.9c1.9-4.6,5.4-7.7,10.8-7.4v7.4h-0.4c-6.1,0-10.4,4-10.4,12.1v11.6h-7V192.4z"/>
	<path class="st0" d="M190.2,207.8v-0.1c0-8.7,6.2-15.9,14.9-15.9c9.7,0,14.6,7.6,14.6,16.4c0,0.6-0.1,1.3-0.1,2h-22.4
		c0.7,5,4.3,7.7,8.8,7.7c3.4,0,5.8-1.3,8.3-3.6l4.1,3.6c-2.9,3.5-6.9,5.7-12.5,5.7C197,223.6,190.2,217.2,190.2,207.8z M212.8,205.5
		c-0.5-4.5-3.1-8-7.7-8c-4.3,0-7.3,3.3-7.9,8H212.8z"/>
	<path class="st0" d="M229.9,214.5v-16H226v-6h3.9v-8.4h7v8.4h8.2v6h-8.2v14.9c0,2.7,1.4,3.8,3.8,3.8c1.6,0,2.9-0.3,4.3-1v5.7
		c-1.7,1-3.7,1.6-6.3,1.6C233.5,223.4,229.9,221.2,229.9,214.5z"/>
	<path class="st0" d="M272.5,222.9v-3.7c-2.1,2.5-5.3,4.4-9.9,4.4c-5.8,0-10.8-3.3-10.8-9.4V214c0-6.7,5.3-10,12.3-10
		c3.7,0,6.1,0.5,8.4,1.3v-0.6c0-4.2-2.7-6.5-7.5-6.5c-3.4,0-5.9,0.7-8.7,1.9l-1.9-5.6c3.3-1.5,6.6-2.5,11.6-2.5
		c9,0,13.4,4.7,13.4,12.9v18.1H272.5z M272.6,210.1c-1.8-0.7-4.3-1.2-7-1.2c-4.4,0-7,1.8-7,4.7v0.1c0,2.9,2.6,4.5,5.9,4.5
		c4.6,0,8.1-2.6,8.1-6.4V210.1z"/>
	<path class="st0" d="M289.4,192.4h7v6.9c1.9-4.6,5.4-7.7,10.8-7.4v7.4h-0.4c-6.1,0-10.4,4-10.4,12.1v11.6h-7V192.4z"/>
	<path class="st0" d="M315.4,192.4h7v30.5h-7V192.4z M322,179.1l6.3,2.8l-7.1,6.6H316L322,179.1z"/>
	<path class="st0" d="M351.8,222.9v-3.7c-2.1,2.5-5.3,4.4-9.9,4.4c-5.8,0-10.8-3.3-10.8-9.4V214c0-6.7,5.2-10,12.3-10
		c3.7,0,6.1,0.5,8.4,1.3v-0.6c0-4.2-2.7-6.5-7.5-6.5c-3.4,0-5.9,0.7-8.7,1.9l-1.9-5.6c3.3-1.5,6.6-2.5,11.6-2.5
		c9,0,13.4,4.7,13.4,12.9v18.1H351.8z M352,210.1c-1.8-0.7-4.3-1.2-7-1.2c-4.4,0-7,1.8-7,4.7v0.1c0,2.9,2.6,4.5,5.9,4.5
		c4.6,0,8.1-2.6,8.1-6.4V210.1z"/>
	<path class="st0" d="M388.6,182.5h6.6l21.6,27.9v-27.9h7v40.4h-5.9l-22.3-28.7v28.7h-7V182.5z"/>
	<path class="st0" d="M453.7,222.9v-3.7c-2.1,2.5-5.3,4.4-9.9,4.4c-5.8,0-10.8-3.3-10.8-9.4V214c0-6.7,5.2-10,12.3-10
		c3.7,0,6.1,0.5,8.4,1.3v-0.6c0-4.2-2.7-6.5-7.5-6.5c-3.4,0-5.9,0.7-8.7,1.9l-1.9-5.6c3.3-1.5,6.6-2.5,11.6-2.5
		c9,0,13.4,4.7,13.4,12.9v18.1H453.7z M453.9,210.1c-1.8-0.7-4.3-1.2-7-1.2c-4.4,0-7,1.8-7,4.7v0.1c0,2.9,2.6,4.5,5.9,4.5
		c4.6,0,8.1-2.6,8.1-6.4V210.1z"/>
	<path class="st0" d="M469,207.8v-0.1c0-8.7,6.7-15.9,15.8-15.9c5.8,0,9.3,2.1,12.2,5.2l-4.3,4.7c-2.1-2.2-4.4-3.8-7.9-3.8
		c-5.1,0-8.8,4.4-8.8,9.7v0.1c0,5.4,3.7,9.8,9.1,9.8c3.3,0,5.7-1.6,7.9-3.8l4.2,4.2c-3,3.3-6.5,5.7-12.5,5.7
		C475.7,223.6,469,216.5,469,207.8z"/>
	<path class="st0" d="M505.4,181.1h7.5v6.6h-7.5V181.1z M505.7,192.4h7v30.5h-7V192.4z"/>
	<path class="st0" d="M521.9,207.8v-0.1c0-8.7,6.9-15.9,16.3-15.9c9.3,0,16.2,7.1,16.2,15.8v0.1c0,8.7-6.9,15.9-16.3,15.9
		C528.7,223.6,521.9,216.5,521.9,207.8z M547.4,207.8v-0.1c0-5.4-3.9-9.8-9.3-9.8c-5.6,0-9.2,4.4-9.2,9.7v0.1c0,5.3,3.9,9.8,9.3,9.8
		C543.8,217.5,547.4,213.1,547.4,207.8z"/>
	<path class="st0" d="M563.2,192.4h7v4.7c2-2.9,4.8-5.4,9.5-5.4c6.9,0,10.8,4.6,10.8,11.7v19.4h-7v-17.3c0-4.7-2.4-7.4-6.5-7.4
		c-4,0-6.9,2.8-6.9,7.6v17.2h-7V192.4z"/>
	<path class="st0" d="M619.3,222.9v-3.7c-2.1,2.5-5.3,4.4-9.9,4.4c-5.8,0-10.8-3.3-10.8-9.4V214c0-6.7,5.2-10,12.3-10
		c3.7,0,6.1,0.5,8.4,1.3v-0.6c0-4.2-2.7-6.5-7.5-6.5c-3.4,0-5.9,0.7-8.7,1.9l-1.9-5.6c3.3-1.5,6.6-2.5,11.6-2.5
		c9,0,13.4,4.7,13.4,12.9v18.1H619.3z M619.5,210.1c-1.8-0.7-4.3-1.2-7-1.2c-4.4,0-7,1.8-7,4.7v0.1c0,2.9,2.6,4.5,5.9,4.5
		c4.6,0,8.1-2.6,8.1-6.4V210.1z"/>
	<path class="st0" d="M636.7,180.8h7v42.1h-7V180.8z"/>
	<path class="st0" d="M671.9,207.7v-0.1c0-10.1,6.9-15.8,14.1-15.8c5,0,8.2,2.5,10.4,5.4v-16.4h7v42.1h-7v-5.1
		c-2.2,3.2-5.4,5.7-10.4,5.7C678.9,223.5,671.9,217.8,671.9,207.7z M696.6,207.7v-0.1c0-5.9-4.2-9.8-8.8-9.8c-4.8,0-8.8,3.7-8.8,9.8
		v0.1c0,5.9,4,9.7,8.8,9.7C692.4,217.5,696.6,213.6,696.6,207.7z"/>
	<path class="st0" d="M712.2,207.8v-0.1c0-8.7,6.2-15.9,14.9-15.9c9.7,0,14.6,7.6,14.6,16.4c0,0.6-0.1,1.3-0.1,2h-22.4
		c0.8,5,4.3,7.7,8.8,7.7c3.4,0,5.8-1.3,8.3-3.6l4.1,3.6c-2.9,3.5-6.9,5.7-12.5,5.7C719,223.6,712.2,217.2,712.2,207.8z M734.8,205.5
		c-0.5-4.5-3.1-8-7.7-8c-4.3,0-7.3,3.3-7.9,8H734.8z"/>
	<path class="st0" d="M770.3,182.5h15.9c9.4,0,15.3,5.4,15.3,13.5v0.1c0,9.1-7.3,13.8-16.2,13.8h-8v13h-7.1V182.5z M785.6,203.5
		c5.4,0,8.7-3,8.7-7.2v-0.1c0-4.7-3.4-7.2-8.7-7.2h-8.2v14.5H785.6z"/>
	<path class="st0" d="M810.1,180.8h7v42.1h-7V180.8z"/>
	<path class="st0" d="M846.6,222.9v-3.7c-2.1,2.5-5.3,4.4-9.9,4.4c-5.8,0-10.8-3.3-10.8-9.4V214c0-6.7,5.3-10,12.3-10
		c3.7,0,6.1,0.5,8.4,1.3v-0.6c0-4.2-2.7-6.5-7.5-6.5c-3.4,0-5.9,0.7-8.7,1.9l-1.9-5.6c3.3-1.5,6.6-2.5,11.6-2.5
		c9,0,13.4,4.7,13.4,12.9v18.1H846.6z M846.8,210.1c-1.8-0.7-4.3-1.2-7-1.2c-4.4,0-7,1.8-7,4.7v0.1c0,2.9,2.6,4.5,5.9,4.5
		c4.6,0,8.1-2.6,8.1-6.4V210.1z"/>
	<path class="st0" d="M863.5,192.4h7v4.7c2-2.9,4.8-5.4,9.5-5.4c6.9,0,10.8,4.6,10.8,11.7v19.4h-7v-17.3c0-4.7-2.4-7.4-6.5-7.4
		c-4,0-6.9,2.8-6.9,7.6v17.2h-7V192.4z"/>
	<path class="st0" d="M901.1,181.1h7.5v6.6h-7.5V181.1z M901.4,192.4h7v30.5h-7V192.4z"/>
	<path class="st0" d="M920.8,198.4h-3.9v-5.8h3.9v-2.2c0-3.4,0.9-5.9,2.5-7.6c1.6-1.6,3.9-2.4,6.9-2.4c2.4,0,4.1,0.3,5.7,0.8v5.9
		c-1.4-0.5-2.6-0.7-4.1-0.7c-2.7,0-4,1.4-4,4.6v1.7h8.1v5.8h-8v24.5h-7V198.4z"/>
	<path class="st0" d="M942.8,181.1h7.5v6.6h-7.5V181.1z M943.1,192.4h7v30.5h-7V192.4z"/>
	<path class="st0" d="M959.2,207.8v-0.1c0-8.7,6.7-15.9,15.8-15.9c5.8,0,9.3,2.1,12.2,5.2l-4.3,4.7c-2.1-2.2-4.4-3.8-7.9-3.8
		c-5.1,0-8.8,4.4-8.8,9.7v0.1c0,5.4,3.7,9.8,9.1,9.8c3.3,0,5.7-1.6,7.9-3.8l4.2,4.2c-3,3.3-6.5,5.7-12.5,5.7
		C965.9,223.6,959.2,216.5,959.2,207.8z"/>
	<path class="st0" d="M1014.2,222.9v-3.7c-2.1,2.5-5.3,4.4-9.9,4.4c-5.8,0-10.8-3.3-10.8-9.4V214c0-6.7,5.3-10,12.3-10
		c3.7,0,6.1,0.5,8.4,1.3v-0.6c0-4.2-2.7-6.5-7.5-6.5c-3.4,0-5.9,0.7-8.7,1.9l-1.9-5.6c3.3-1.5,6.6-2.5,11.6-2.5
		c9,0,13.4,4.7,13.4,12.9v18.1H1014.2z M1014.4,210.1c-1.8-0.7-4.3-1.2-7-1.2c-4.4,0-7,1.8-7,4.7v0.1c0,2.9,2.6,4.5,5.9,4.5
		c4.6,0,8.1-2.6,8.1-6.4V210.1z"/>
	<path class="st0" d="M1029.5,207.8v-0.1c0-8.7,6.7-15.9,15.8-15.9c5.8,0,9.3,2.1,12.2,5.2l-4.3,4.7c-2.1-2.2-4.4-3.8-7.9-3.8
		c-5.1,0-8.8,4.4-8.8,9.7v0.1c0,5.4,3.8,9.8,9.1,9.8c3.3,0,5.7-1.6,7.9-3.8l4.2,4.2c-3,3.3-6.5,5.7-12.5,5.7
		C1036.2,223.6,1029.5,216.5,1029.5,207.8z"/>
	<path class="st0" d="M1065.9,181.1h7.5v6.6h-7.5V181.1z M1066.2,192.4h7v30.5h-7V192.4z"/>
	<path class="st0" d="M1082.4,207.8v-0.1c0-8.7,6.9-15.9,16.3-15.9c9.3,0,16.2,7.1,16.2,15.8v0.1c0,8.7-6.9,15.9-16.3,15.9
		C1089.2,223.6,1082.4,216.5,1082.4,207.8z M1107.9,207.8v-0.1c0-5.4-3.9-9.8-9.3-9.8c-5.6,0-9.2,4.4-9.2,9.7v0.1
		c0,5.3,3.9,9.8,9.3,9.8C1104.3,217.5,1107.9,213.1,1107.9,207.8z M1101.8,179.1l6.3,2.8l-7.1,6.6h-5.3L1101.8,179.1z"/>
	<path class="st0" d="M1123.6,192.4h7v4.7c2-2.9,4.8-5.4,9.5-5.4c6.9,0,10.8,4.6,10.8,11.7v19.4h-7v-17.3c0-4.7-2.4-7.4-6.5-7.4
		c-4,0-6.9,2.8-6.9,7.6v17.2h-7V192.4z"/>
</g>
<g>
	<path class="st0" d="M83,52.8h-0.2L70.1,33.9v28.8h-7V22.4h7.6l12.3,19.1l12.3-19.1h7.6v40.4h-7v-29L83,52.8z"/>
	<path class="st0" d="M114.2,27.6V21h7.6v6.6H114.2z M114.5,62.7V32.3h7v30.5H114.5z"/>
	<path class="st0" d="M139.3,62.7h-7V32.3h7v4.8c0.5-0.7,1-1.4,1.6-2.1c0.6-0.6,1.3-1.2,2.1-1.7c0.8-0.5,1.6-0.9,2.6-1.2
		c0.9-0.3,2-0.4,3.2-0.4c3.4,0,6.1,1.1,8,3.2s2.8,5,2.8,8.5v19.4h-7V45.5c0-2.4-0.6-4.2-1.7-5.5c-1.1-1.3-2.7-1.9-4.8-1.9
		c-2,0-3.7,0.7-4.9,2c-1.3,1.3-1.9,3.2-1.9,5.6V62.7z"/>
	<path class="st0" d="M169.9,27.6V21h7.6v6.6H169.9z M170.2,62.7V32.3h7v30.5H170.2z"/>
	<path class="st0" d="M208.9,58c-0.6,1.2-1.4,2.2-2.4,3c-1,0.8-2.2,1.4-3.6,1.8c-1.4,0.4-2.9,0.6-4.4,0.6c-2.2,0-4.4-0.4-6.7-1.2
		c-2.2-0.8-4.3-1.9-6.3-3.4l3.1-4.7c1.7,1.2,3.3,2.2,5,2.8c1.7,0.6,3.4,1,4.9,1c1.5,0,2.7-0.3,3.5-0.9c0.8-0.6,1.2-1.4,1.2-2.4v-0.1
		c0-0.6-0.2-1.1-0.5-1.5s-0.9-0.8-1.5-1.1c-0.6-0.3-1.4-0.6-2.2-0.9c-0.8-0.3-1.7-0.5-2.6-0.8c-1.1-0.3-2.2-0.7-3.4-1.2
		c-1.1-0.4-2.2-1-3.1-1.6c-0.9-0.7-1.6-1.5-2.2-2.5c-0.6-1-0.9-2.2-0.9-3.7v-0.1c0-1.4,0.3-2.7,0.8-3.9c0.6-1.2,1.3-2.1,2.3-2.9
		c1-0.8,2.1-1.4,3.5-1.8c1.3-0.4,2.7-0.6,4.2-0.6c1.9,0,3.9,0.3,5.8,0.9c2,0.6,3.7,1.5,5.4,2.5l-2.8,5c-1.5-0.9-2.9-1.6-4.4-2.1
		c-1.5-0.5-2.9-0.8-4.2-0.8c-1.3,0-2.4,0.3-3.1,0.9c-0.7,0.6-1.1,1.3-1.1,2.2v0.1c0,0.5,0.2,1,0.6,1.4c0.4,0.4,0.9,0.8,1.5,1.1
		c0.6,0.3,1.4,0.6,2.2,0.9c0.8,0.3,1.7,0.6,2.6,0.8c1.1,0.3,2.2,0.7,3.3,1.2c1.1,0.5,2.1,1,3,1.7c0.9,0.7,1.6,1.5,2.2,2.5
		c0.6,1,0.9,2.1,0.9,3.5v0.1C209.8,55.4,209.5,56.8,208.9,58z"/>
	<path class="st0" d="M226.5,53.2c0,1.3,0.3,2.3,1,2.9c0.7,0.6,1.6,0.9,2.8,0.9c1.5,0,2.9-0.3,4.3-1v5.7c-0.9,0.5-1.8,0.9-2.8,1.2
		c-1,0.3-2.2,0.4-3.5,0.4c-1.3,0-2.4-0.1-3.5-0.5c-1.1-0.3-2-0.8-2.8-1.5c-0.8-0.7-1.4-1.6-1.8-2.7c-0.4-1.1-0.6-2.5-0.6-4.2V38.2
		h-3.9v-5.9h3.9v-8.4h7v8.4h8.2v5.9h-8.2V53.2z"/>
	<path class="st0" d="M250.8,55.7c1.6,1.3,3.5,2,5.8,2c1.7,0,3.2-0.3,4.5-0.9c1.3-0.6,2.5-1.5,3.7-2.7l4.1,3.6
		c-1.5,1.7-3.2,3.1-5.2,4.2c-2,1-4.4,1.6-7.2,1.6c-2.2,0-4.2-0.4-6.1-1.2c-1.9-0.8-3.6-1.8-5-3.2c-1.4-1.4-2.5-3-3.3-5
		c-0.8-1.9-1.2-4.1-1.2-6.5c0-2.2,0.4-4.2,1.1-6.2c0.7-1.9,1.8-3.6,3.1-5c1.3-1.4,2.9-2.6,4.7-3.4c1.8-0.8,3.8-1.3,6-1.3
		c2.4,0,4.5,0.4,6.4,1.3c1.8,0.9,3.3,2.1,4.6,3.6c1.2,1.5,2.1,3.2,2.7,5.2c0.6,2,0.9,4.1,0.9,6.3c0,0.3,0,0.6,0,0.9
		c0,0.3,0,0.6-0.1,1h-22.4C248.2,52.5,249.2,54.4,250.8,55.7z M263.4,45.4c-0.1-1.1-0.4-2.2-0.7-3.1c-0.4-1-0.9-1.8-1.6-2.5
		c-0.7-0.7-1.4-1.3-2.3-1.7c-0.9-0.4-1.9-0.6-3.1-0.6c-2.2,0-3.9,0.7-5.3,2.2c-1.4,1.5-2.3,3.4-2.6,5.8H263.4z"/>
	<path class="st0" d="M286.1,62.7h-7V32.3h7v6.9c1-2.3,2.3-4.2,4.1-5.5c1.8-1.4,4-2,6.7-1.9v7.4h-0.4c-1.5,0-2.9,0.3-4.2,0.7
		c-1.3,0.5-2.4,1.3-3.3,2.2s-1.6,2.3-2.1,3.8c-0.5,1.5-0.7,3.3-0.7,5.3V62.7z"/>
	<path class="st0" d="M304.7,27.6V21h7.6v6.6H304.7z M305,62.7V32.3h7v30.5H305z"/>
	<path class="st0" d="M352.4,53.7c-0.8,1.9-2,3.6-3.4,5c-1.4,1.4-3.2,2.6-5.2,3.4c-2,0.8-4.2,1.3-6.5,1.3c-2.3,0-4.5-0.4-6.4-1.2
		s-3.7-2-5.1-3.4c-1.4-1.4-2.6-3.1-3.4-5c-0.8-1.9-1.2-4-1.2-6.1c0-2.2,0.4-4.3,1.2-6.2c0.8-1.9,2-3.6,3.4-5.1
		c1.4-1.4,3.2-2.6,5.1-3.4c2-0.8,4.1-1.3,6.5-1.3c2.3,0,4.5,0.4,6.5,1.2c2,0.8,3.7,2,5.1,3.4c1.4,1.4,2.6,3.1,3.4,5
		c0.8,1.9,1.2,4,1.2,6.2S353.2,51.8,352.4,53.7z M345.9,43.8c-0.5-1.2-1.1-2.2-1.9-3.1c-0.8-0.9-1.8-1.6-2.9-2.1
		c-1.1-0.5-2.4-0.8-3.8-0.8c-1.4,0-2.6,0.3-3.8,0.8c-1.1,0.5-2.1,1.2-2.9,2.1c-0.8,0.9-1.4,1.9-1.8,3.1c-0.4,1.2-0.6,2.4-0.6,3.8
		s0.2,2.6,0.7,3.8c0.5,1.2,1.1,2.3,1.9,3.1c0.8,0.9,1.8,1.6,2.9,2.1c1.1,0.5,2.4,0.8,3.7,0.8c1.4,0,2.7-0.3,3.8-0.8
		c1.1-0.5,2.1-1.2,2.9-2.1c0.8-0.9,1.4-1.9,1.8-3.1c0.4-1.2,0.6-2.4,0.6-3.8C346.6,46.3,346.4,45,345.9,43.8z"/>
	<path class="st0" d="M404.4,62.7v-5.1c-1.1,1.6-2.5,2.9-4.2,4c-1.7,1.1-3.7,1.7-6.2,1.7c-1.8,0-3.5-0.3-5.2-1s-3.2-1.7-4.5-3.1
		c-1.3-1.4-2.4-3-3.2-5c-0.8-2-1.2-4.2-1.2-6.7c0-2.5,0.4-4.8,1.2-6.7c0.8-2,1.8-3.6,3.1-5c1.3-1.4,2.8-2.4,4.5-3.1
		c1.7-0.7,3.5-1,5.3-1c2.5,0,4.6,0.5,6.2,1.6c1.6,1.1,3,2.3,4.1,3.7V20.6h7v42.1H404.4z M403.8,43.5c-0.5-1.2-1.1-2.2-1.9-3.1
		c-0.8-0.9-1.7-1.5-2.8-2c-1.1-0.5-2.2-0.7-3.3-0.7c-1.2,0-2.3,0.2-3.4,0.7c-1.1,0.4-2,1.1-2.8,1.9c-0.8,0.8-1.4,1.9-1.9,3.1
		c-0.5,1.2-0.7,2.6-0.7,4.1c0,1.5,0.2,2.9,0.7,4.1c0.5,1.2,1.1,2.2,1.9,3.1c0.8,0.8,1.7,1.5,2.8,2c1.1,0.5,2.2,0.7,3.4,0.7
		c1.2,0,2.3-0.2,3.3-0.7c1.1-0.5,2-1.1,2.8-2c0.8-0.9,1.4-1.9,1.9-3.1c0.5-1.2,0.7-2.5,0.7-4S404.3,44.7,403.8,43.5z"/>
	<path class="st0" d="M430.2,55.7c1.6,1.3,3.5,2,5.8,2c1.7,0,3.2-0.3,4.5-0.9c1.3-0.6,2.5-1.5,3.7-2.7l4.1,3.6
		c-1.5,1.7-3.2,3.1-5.2,4.2c-2,1-4.4,1.6-7.2,1.6c-2.2,0-4.2-0.4-6.1-1.2c-1.9-0.8-3.6-1.8-5-3.2c-1.4-1.4-2.5-3-3.3-5
		c-0.8-1.9-1.2-4.1-1.2-6.5c0-2.2,0.4-4.2,1.1-6.2c0.7-1.9,1.8-3.6,3.1-5c1.3-1.4,2.9-2.6,4.7-3.4c1.8-0.8,3.8-1.3,6-1.3
		c2.4,0,4.5,0.4,6.4,1.3c1.8,0.9,3.3,2.1,4.6,3.6c1.2,1.5,2.1,3.2,2.7,5.2c0.6,2,0.9,4.1,0.9,6.3c0,0.3,0,0.6,0,0.9
		c0,0.3,0,0.6-0.1,1h-22.4C427.6,52.5,428.6,54.4,430.2,55.7z M442.8,45.4c-0.1-1.1-0.4-2.2-0.7-3.1c-0.4-1-0.9-1.8-1.6-2.5
		c-0.7-0.7-1.4-1.3-2.3-1.7c-0.9-0.4-1.9-0.6-3.1-0.6c-2.2,0-3.9,0.7-5.3,2.2c-1.4,1.5-2.3,3.4-2.6,5.8H442.8z"/>
	<path class="st0" d="M495.4,62.7h-7.2V28.9h-12.8v-6.6h32.8v6.6h-12.8V62.7z"/>
	<path class="st0" d="M518.3,55.7c1.6,1.3,3.5,2,5.8,2c1.7,0,3.2-0.3,4.5-0.9c1.3-0.6,2.5-1.5,3.7-2.7l4.1,3.6
		c-1.5,1.7-3.2,3.1-5.2,4.2c-2,1-4.4,1.6-7.2,1.6c-2.2,0-4.2-0.4-6.1-1.2c-1.9-0.8-3.6-1.8-5-3.2c-1.4-1.4-2.5-3-3.3-5
		c-0.8-1.9-1.2-4.1-1.2-6.5c0-2.2,0.4-4.2,1.1-6.2c0.7-1.9,1.8-3.6,3.1-5c1.3-1.4,2.9-2.6,4.7-3.4c1.8-0.8,3.8-1.3,6-1.3
		c2.4,0,4.5,0.4,6.4,1.3c1.8,0.9,3.3,2.1,4.6,3.6c1.2,1.5,2.1,3.2,2.7,5.2c0.6,2,0.9,4.1,0.9,6.3c0,0.3,0,0.6,0,0.9
		c0,0.3,0,0.6-0.1,1h-22.4C515.7,52.5,516.7,54.4,518.3,55.7z M530.9,45.4c-0.1-1.1-0.4-2.2-0.8-3.1c-0.4-1-0.9-1.8-1.6-2.5
		c-0.7-0.7-1.4-1.3-2.3-1.7c-0.9-0.4-1.9-0.6-3.1-0.6c-2.2,0-3.9,0.7-5.3,2.2c-1.4,1.5-2.3,3.4-2.6,5.8H530.9z"/>
	<path class="st0" d="M547,62.7V20.6h7v42.1H547z"/>
	<path class="st0" d="M573.1,55.7c1.6,1.3,3.5,2,5.8,2c1.7,0,3.2-0.3,4.5-0.9c1.3-0.6,2.5-1.5,3.7-2.7l4.1,3.6
		c-1.5,1.7-3.2,3.1-5.2,4.2c-2,1-4.4,1.6-7.2,1.6c-2.2,0-4.2-0.4-6.1-1.2c-1.9-0.8-3.6-1.8-5-3.2c-1.4-1.4-2.5-3-3.3-5
		c-0.8-1.9-1.2-4.1-1.2-6.5c0-2.2,0.4-4.2,1.1-6.2c0.7-1.9,1.8-3.6,3.1-5c1.3-1.4,2.9-2.6,4.7-3.4c1.8-0.8,3.8-1.3,6-1.3
		c2.4,0,4.5,0.4,6.4,1.3c1.8,0.9,3.3,2.1,4.6,3.6c1.2,1.5,2.1,3.2,2.7,5.2c0.6,2,0.9,4.1,0.9,6.3c0,0.3,0,0.6,0,0.9
		c0,0.3,0,0.6-0.1,1h-22.4C570.5,52.5,571.5,54.4,573.1,55.7z M585.7,45.4c-0.1-1.1-0.4-2.2-0.7-3.1c-0.4-1-0.9-1.8-1.6-2.5
		c-0.7-0.7-1.4-1.3-2.3-1.7c-0.9-0.4-1.9-0.6-3.1-0.6c-2.2,0-3.9,0.7-5.3,2.2c-1.4,1.5-2.3,3.4-2.6,5.8H585.7z"/>
	<path class="st0" d="M622.8,61.8c-1.9,1.1-4.4,1.6-7.3,1.6c-2.3,0-4.4-0.4-6.3-1.2c-1.9-0.8-3.6-2-5-3.4s-2.5-3.1-3.3-5
		c-0.8-1.9-1.2-4-1.2-6.1c0-2.2,0.4-4.2,1.2-6.2c0.8-1.9,1.9-3.6,3.3-5.1c1.4-1.5,3.1-2.6,5-3.5c1.9-0.8,4-1.3,6.3-1.3
		c2.9,0,5.3,0.5,7.2,1.4c1.9,1,3.6,2.2,5,3.8l-4.3,4.7c-1.1-1.1-2.2-2-3.4-2.7c-1.2-0.7-2.7-1.1-4.5-1.1c-1.3,0-2.4,0.3-3.5,0.8
		c-1.1,0.5-2,1.2-2.8,2.1c-0.8,0.9-1.4,1.9-1.8,3.1c-0.4,1.2-0.7,2.4-0.7,3.8c0,1.4,0.2,2.7,0.7,3.9c0.4,1.2,1.1,2.2,1.9,3.1
		c0.8,0.9,1.8,1.6,2.9,2.1c1.1,0.5,2.3,0.8,3.7,0.8c1.7,0,3.1-0.4,4.4-1.1c1.2-0.7,2.4-1.6,3.5-2.7l4.2,4.2
		C626.4,59.4,624.7,60.8,622.8,61.8z"/>
	<path class="st0" d="M664.7,53.7c-0.8,1.9-2,3.6-3.4,5c-1.4,1.4-3.2,2.6-5.2,3.4c-2,0.8-4.2,1.3-6.5,1.3c-2.3,0-4.5-0.4-6.4-1.2
		s-3.7-2-5.1-3.4c-1.4-1.4-2.6-3.1-3.4-5c-0.8-1.9-1.2-4-1.2-6.1c0-2.2,0.4-4.3,1.2-6.2c0.8-1.9,2-3.6,3.4-5.1
		c1.4-1.4,3.2-2.6,5.1-3.4c2-0.8,4.1-1.3,6.5-1.3s4.5,0.4,6.5,1.2c2,0.8,3.7,2,5.1,3.4c1.4,1.4,2.6,3.1,3.4,5c0.8,1.9,1.2,4,1.2,6.2
		S665.5,51.8,664.7,53.7z M658.2,43.8c-0.5-1.2-1.1-2.2-1.9-3.1c-0.8-0.9-1.8-1.6-2.9-2.1c-1.1-0.5-2.4-0.8-3.8-0.8
		s-2.6,0.3-3.8,0.8c-1.1,0.5-2.1,1.2-2.9,2.1c-0.8,0.9-1.4,1.9-1.8,3.1c-0.4,1.2-0.6,2.4-0.6,3.8s0.2,2.6,0.7,3.8
		c0.5,1.2,1.1,2.3,1.9,3.1c0.8,0.9,1.8,1.6,2.9,2.1c1.1,0.5,2.4,0.8,3.7,0.8c1.4,0,2.7-0.3,3.8-0.8c1.1-0.5,2.1-1.2,2.9-2.1
		c0.8-0.9,1.4-1.9,1.8-3.1c0.4-1.2,0.6-2.4,0.6-3.8C658.9,46.3,658.7,45,658.2,43.8z"/>
	<path class="st0" d="M704.5,33.1c1.7-1,3.7-1.5,6-1.5c3.3,0,6,1,7.8,3c1.9,2,2.8,4.9,2.8,8.6v19.4h-7V45.5c0-2.4-0.5-4.3-1.6-5.5
		c-1.1-1.3-2.6-1.9-4.5-1.9c-1.9,0-3.5,0.6-4.7,1.9c-1.2,1.3-1.8,3.2-1.8,5.6v17.1h-7V45.4c0-2.4-0.5-4.2-1.6-5.5
		c-1.1-1.3-2.6-1.9-4.5-1.9c-1.9,0-3.5,0.7-4.7,2c-1.2,1.3-1.8,3.2-1.8,5.6v17.1h-7V32.3h7V37c0.5-0.7,1-1.4,1.6-2
		c0.6-0.6,1.2-1.2,2-1.7c0.7-0.5,1.6-0.9,2.5-1.2c0.9-0.3,2-0.4,3.1-0.4c2.2,0,4,0.5,5.6,1.5c1.5,1,2.7,2.3,3.5,3.9
		C701.4,35.4,702.8,34.1,704.5,33.1z"/>
	<path class="st0" d="M751.2,32.3h7v30.5h-7V58c-1,1.5-2.2,2.7-3.7,3.8c-1.5,1.1-3.4,1.6-5.8,1.6c-3.5,0-6.1-1.1-8-3.2
		c-1.9-2.1-2.8-5-2.8-8.5V32.3h7v17.3c0,2.4,0.6,4.2,1.7,5.5c1.1,1.3,2.7,1.9,4.8,1.9c2,0,3.7-0.7,4.9-2c1.3-1.3,1.9-3.2,1.9-5.5
		V32.3z"/>
	<path class="st0" d="M775.8,62.7h-7V32.3h7v4.8c0.5-0.7,1-1.4,1.6-2.1c0.6-0.6,1.3-1.2,2.1-1.7c0.8-0.5,1.6-0.9,2.6-1.2
		c0.9-0.3,2-0.4,3.2-0.4c3.4,0,6.1,1.1,8,3.2s2.8,5,2.8,8.5v19.4h-7V45.5c0-2.4-0.6-4.2-1.7-5.5c-1.1-1.3-2.7-1.9-4.8-1.9
		c-2,0-3.7,0.7-4.9,2c-1.3,1.3-1.9,3.2-1.9,5.6V62.7z"/>
	<path class="st0" d="M806.4,27.6V21h7.6v6.6H806.4z M806.7,62.7V32.3h7v30.5H806.7z"/>
	<path class="st0" d="M845.9,61.8c-1.9,1.1-4.4,1.6-7.3,1.6c-2.3,0-4.4-0.4-6.3-1.2s-3.6-2-5-3.4s-2.5-3.1-3.3-5
		c-0.8-1.9-1.2-4-1.2-6.1c0-2.2,0.4-4.2,1.2-6.2c0.8-1.9,1.9-3.6,3.3-5.1c1.4-1.5,3.1-2.6,5-3.5c1.9-0.8,4-1.3,6.3-1.3
		c2.9,0,5.3,0.5,7.2,1.4c1.9,1,3.6,2.2,5,3.8l-4.3,4.7c-1.1-1.1-2.2-2-3.4-2.7c-1.2-0.7-2.7-1.1-4.5-1.1c-1.3,0-2.4,0.3-3.5,0.8
		c-1.1,0.5-2,1.2-2.8,2.1c-0.8,0.9-1.4,1.9-1.8,3.1c-0.4,1.2-0.7,2.4-0.7,3.8c0,1.4,0.2,2.7,0.7,3.9c0.4,1.2,1.1,2.2,1.9,3.1
		c0.8,0.9,1.8,1.6,2.9,2.1c1.1,0.5,2.3,0.8,3.7,0.8c1.7,0,3.1-0.4,4.4-1.1c1.2-0.7,2.4-1.6,3.5-2.7l4.2,4.2
		C849.6,59.4,847.9,60.8,845.9,61.8z"/>
	<path class="st0" d="M877.8,62.7V59c-1,1.2-2.4,2.3-4,3.1c-1.6,0.8-3.6,1.3-5.9,1.3c-1.5,0-2.8-0.2-4.2-0.6c-1.3-0.4-2.5-1-3.4-1.8
		c-1-0.8-1.8-1.8-2.4-2.9c-0.6-1.2-0.9-2.5-0.9-4.1v-0.1c0-1.7,0.3-3.1,0.9-4.3c0.6-1.2,1.5-2.2,2.6-3.1c1.1-0.8,2.4-1.4,3.9-1.8
		c1.5-0.4,3.2-0.6,4.9-0.6c1.8,0,3.4,0.1,4.7,0.3s2.5,0.5,3.7,0.9v-0.7c0-2.1-0.6-3.7-1.9-4.8c-1.3-1.1-3.1-1.7-5.6-1.7
		c-1.7,0-3.3,0.2-4.6,0.5c-1.3,0.3-2.7,0.8-4.1,1.4l-1.9-5.6c1.7-0.8,3.4-1.4,5.2-1.8c1.8-0.5,3.9-0.7,6.4-0.7
		c4.5,0,7.9,1.1,10.1,3.4c2.2,2.2,3.3,5.4,3.3,9.5v18.1H877.8z M878,49.8c-0.9-0.3-1.9-0.6-3.1-0.9c-1.2-0.2-2.5-0.3-3.8-0.3
		c-2.2,0-3.9,0.4-5.1,1.3c-1.2,0.8-1.8,2.1-1.8,3.6v0.1c0,1.5,0.6,2.6,1.7,3.3s2.5,1.2,4.2,1.2c1.2,0,2.2-0.2,3.2-0.5
		c1-0.3,1.8-0.7,2.6-1.3s1.3-1.2,1.7-2c0.4-0.8,0.6-1.7,0.6-2.6V49.8z"/>
	<path class="st0" d="M916.2,61.8c-1.9,1.1-4.4,1.6-7.3,1.6c-2.3,0-4.4-0.4-6.3-1.2s-3.6-2-5-3.4c-1.4-1.4-2.5-3.1-3.3-5
		c-0.8-1.9-1.2-4-1.2-6.1c0-2.2,0.4-4.2,1.2-6.2c0.8-1.9,1.9-3.6,3.3-5.1c1.4-1.5,3.1-2.6,5-3.5c1.9-0.8,4-1.3,6.3-1.3
		c2.9,0,5.3,0.5,7.2,1.4c1.9,1,3.6,2.2,5,3.8l-4.3,4.7c-1.1-1.1-2.2-2-3.4-2.7c-1.2-0.7-2.7-1.1-4.5-1.1c-1.3,0-2.4,0.3-3.5,0.8
		c-1.1,0.5-2,1.2-2.8,2.1c-0.8,0.9-1.4,1.9-1.8,3.1c-0.4,1.2-0.7,2.4-0.7,3.8c0,1.4,0.2,2.7,0.7,3.9c0.4,1.2,1.1,2.2,1.9,3.1
		c0.8,0.9,1.8,1.6,2.9,2.1c1.1,0.5,2.3,0.8,3.7,0.8c1.7,0,3.1-0.4,4.4-1.1c1.2-0.7,2.4-1.6,3.5-2.7l4.2,4.2
		C919.8,59.4,918.1,60.8,916.2,61.8z"/>
	<path class="st0" d="M929.5,27.6V21h7.6v6.6H929.5z M929.8,62.7V32.3h7v30.5H929.8z"/>
	<path class="st0" d="M977.2,53.7c-0.8,1.9-2,3.6-3.4,5c-1.4,1.4-3.2,2.6-5.2,3.4c-2,0.8-4.2,1.3-6.5,1.3c-2.3,0-4.5-0.4-6.4-1.2
		s-3.7-2-5.1-3.4c-1.4-1.4-2.6-3.1-3.4-5c-0.8-1.9-1.2-4-1.2-6.1c0-2.2,0.4-4.3,1.2-6.2c0.8-1.9,2-3.6,3.4-5.1
		c1.4-1.4,3.2-2.6,5.1-3.4c2-0.8,4.1-1.3,6.5-1.3c2.3,0,4.5,0.4,6.5,1.2c2,0.8,3.7,2,5.1,3.4c1.4,1.4,2.6,3.1,3.4,5
		c0.8,1.9,1.2,4,1.2,6.2S978,51.8,977.2,53.7z M970.7,43.8c-0.5-1.2-1.1-2.2-1.9-3.1c-0.8-0.9-1.8-1.6-2.9-2.1
		c-1.1-0.5-2.4-0.8-3.8-0.8s-2.6,0.3-3.8,0.8c-1.1,0.5-2.1,1.2-2.9,2.1c-0.8,0.9-1.4,1.9-1.8,3.1c-0.4,1.2-0.6,2.4-0.6,3.8
		s0.2,2.6,0.7,3.8c0.5,1.2,1.1,2.3,1.9,3.1c0.8,0.9,1.8,1.6,2.9,2.1c1.1,0.5,2.4,0.8,3.7,0.8c1.4,0,2.7-0.3,3.8-0.8
		c1.1-0.5,2.1-1.2,2.9-2.1c0.8-0.9,1.4-1.9,1.8-3.1c0.4-1.2,0.6-2.4,0.6-3.8C971.4,46.3,971.2,45,970.7,43.8z"/>
	<path class="st0" d="M994.3,62.7h-7V32.3h7v4.8c0.5-0.7,1-1.4,1.6-2.1c0.6-0.6,1.3-1.2,2.1-1.7c0.8-0.5,1.6-0.9,2.6-1.2
		c0.9-0.3,2-0.4,3.2-0.4c3.4,0,6.1,1.1,8,3.2s2.8,5,2.8,8.5v19.4h-7V45.5c0-2.4-0.6-4.2-1.7-5.5c-1.1-1.3-2.7-1.9-4.8-1.9
		c-2,0-3.7,0.7-4.9,2c-1.3,1.3-1.9,3.2-1.9,5.6V62.7z"/>
	<path class="st0" d="M1033,55.7c1.6,1.3,3.5,2,5.8,2c1.7,0,3.2-0.3,4.5-0.9c1.3-0.6,2.5-1.5,3.7-2.7l4.1,3.6
		c-1.5,1.7-3.2,3.1-5.2,4.2c-2,1-4.4,1.6-7.2,1.6c-2.2,0-4.2-0.4-6.1-1.2c-1.9-0.8-3.6-1.8-5-3.2c-1.4-1.4-2.5-3-3.3-5
		c-0.8-1.9-1.2-4.1-1.2-6.5c0-2.2,0.4-4.2,1.1-6.2c0.7-1.9,1.8-3.6,3.1-5c1.3-1.4,2.9-2.6,4.7-3.4c1.8-0.8,3.8-1.3,6-1.3
		c2.4,0,4.5,0.4,6.4,1.3c1.8,0.9,3.3,2.1,4.6,3.6c1.2,1.5,2.1,3.2,2.7,5.2c0.6,2,0.9,4.1,0.9,6.3c0,0.3,0,0.6,0,0.9
		c0,0.3,0,0.6-0.1,1H1030C1030.5,52.5,1031.5,54.4,1033,55.7z M1045.6,45.4c-0.1-1.1-0.4-2.2-0.8-3.1c-0.4-1-0.9-1.8-1.6-2.5
		c-0.7-0.7-1.4-1.3-2.3-1.7c-0.9-0.4-1.9-0.6-3.1-0.6c-2.2,0-3.9,0.7-5.3,2.2c-1.4,1.5-2.3,3.4-2.6,5.8H1045.6z"/>
	<path class="st0" d="M1082.2,58c-0.6,1.2-1.4,2.2-2.4,3c-1,0.8-2.2,1.4-3.6,1.8c-1.4,0.4-2.9,0.6-4.4,0.6c-2.2,0-4.4-0.4-6.7-1.2
		c-2.2-0.8-4.3-1.9-6.3-3.4l3.1-4.7c1.7,1.2,3.3,2.2,5,2.8c1.7,0.6,3.4,1,4.9,1c1.5,0,2.7-0.3,3.5-0.9c0.8-0.6,1.2-1.4,1.2-2.4v-0.1
		c0-0.6-0.2-1.1-0.5-1.5s-0.9-0.8-1.5-1.1c-0.6-0.3-1.4-0.6-2.2-0.9c-0.8-0.3-1.7-0.5-2.6-0.8c-1.1-0.3-2.2-0.7-3.4-1.2
		c-1.1-0.4-2.2-1-3.1-1.6c-0.9-0.7-1.6-1.5-2.2-2.5c-0.6-1-0.9-2.2-0.9-3.7v-0.1c0-1.4,0.3-2.7,0.8-3.9s1.3-2.1,2.3-2.9
		c1-0.8,2.1-1.4,3.5-1.8c1.3-0.4,2.7-0.6,4.2-0.6c1.9,0,3.9,0.3,5.8,0.9c2,0.6,3.7,1.5,5.4,2.5l-2.8,5c-1.5-0.9-2.9-1.6-4.4-2.1
		c-1.5-0.5-2.9-0.8-4.2-0.8c-1.3,0-2.4,0.3-3.1,0.9c-0.8,0.6-1.1,1.3-1.1,2.2v0.1c0,0.5,0.2,1,0.6,1.4c0.4,0.4,0.9,0.8,1.5,1.1
		c0.6,0.3,1.4,0.6,2.2,0.9c0.8,0.3,1.7,0.6,2.6,0.8c1.1,0.3,2.2,0.7,3.3,1.2c1.1,0.5,2.1,1,3,1.7c0.9,0.7,1.6,1.5,2.2,2.5
		c0.6,1,0.9,2.1,0.9,3.5v0.1C1083,55.4,1082.8,56.8,1082.2,58z"/>
	<path class="st0" d="M78.5,124.2c-0.6,1.6-1.2,2.9-1.9,4c-0.7,1.1-1.4,1.9-2.2,2.6c-0.8,0.7-1.7,1.2-2.7,1.5
		c-1,0.3-2.1,0.5-3.3,0.5c-1.5,0-2.8-0.2-3.9-0.5c-1.1-0.3-2.2-0.8-3.3-1.4l2.4-5.2c0.7,0.3,1.3,0.6,2,0.8c0.7,0.2,1.4,0.3,2.1,0.3
		c1,0,1.8-0.2,2.5-0.7c0.7-0.5,1.3-1.4,1.8-2.8L59.4,92.9h7.4l8.7,22.6l7.9-22.6h7.3L78.5,124.2z"/>
	<path class="st0" d="M140.3,123.3v-5.1c-1.1,1.6-2.5,2.9-4.2,4c-1.7,1.1-3.7,1.7-6.2,1.7c-1.8,0-3.5-0.3-5.2-1
		c-1.7-0.7-3.2-1.7-4.5-3.1c-1.3-1.4-2.4-3-3.2-5c-0.8-2-1.2-4.2-1.2-6.7c0-2.5,0.4-4.8,1.2-6.7c0.8-2,1.8-3.6,3.1-5
		c1.3-1.4,2.8-2.4,4.5-3.1c1.7-0.7,3.5-1,5.3-1c2.5,0,4.6,0.5,6.2,1.6c1.6,1.1,3,2.3,4.1,3.7V81.2h7v42.1H140.3z M139.7,104.1
		c-0.5-1.2-1.1-2.2-1.9-3.1c-0.8-0.9-1.7-1.5-2.8-2c-1.1-0.5-2.2-0.7-3.3-0.7c-1.2,0-2.3,0.2-3.4,0.7c-1.1,0.4-2,1.1-2.8,1.9
		c-0.8,0.8-1.4,1.9-1.9,3.1c-0.5,1.2-0.7,2.6-0.7,4.1c0,1.5,0.2,2.9,0.7,4.1c0.5,1.2,1.1,2.2,1.9,3.1c0.8,0.8,1.7,1.5,2.8,2
		c1.1,0.5,2.2,0.7,3.4,0.7c1.2,0,2.3-0.2,3.3-0.7c1.1-0.5,2-1.1,2.8-2c0.8-0.9,1.4-1.9,1.9-3.1c0.5-1.2,0.7-2.5,0.7-4
		S140.2,105.2,139.7,104.1z"/>
	<path class="st0" d="M166.1,116.3c1.6,1.3,3.5,2,5.8,2c1.7,0,3.2-0.3,4.5-0.9c1.3-0.6,2.5-1.5,3.7-2.7l4.1,3.6
		c-1.5,1.7-3.2,3.1-5.2,4.2c-2,1-4.4,1.6-7.2,1.6c-2.2,0-4.2-0.4-6.1-1.2c-1.9-0.8-3.6-1.8-5-3.2c-1.4-1.4-2.5-3-3.3-5
		c-0.8-1.9-1.2-4.1-1.2-6.5c0-2.2,0.4-4.2,1.1-6.2c0.7-1.9,1.8-3.6,3.1-5c1.3-1.4,2.9-2.6,4.7-3.4c1.8-0.8,3.8-1.3,6-1.3
		c2.4,0,4.5,0.4,6.4,1.3c1.8,0.9,3.3,2.1,4.6,3.6c1.2,1.5,2.1,3.2,2.7,5.2c0.6,2,0.9,4.1,0.9,6.3c0,0.3,0,0.6,0,0.9
		c0,0.3,0,0.6-0.1,1h-22.4C163.5,113.1,164.5,115,166.1,116.3z M178.7,106c-0.1-1.1-0.4-2.2-0.7-3.1c-0.4-1-0.9-1.8-1.6-2.5
		c-0.7-0.7-1.4-1.3-2.3-1.7c-0.9-0.4-1.9-0.6-3.1-0.6c-2.2,0-3.9,0.7-5.3,2.2c-1.4,1.5-2.3,3.4-2.6,5.8H178.7z"/>
	<path class="st0" d="M213.8,123.3V81.2h7v42.1H213.8z"/>
	<path class="st0" d="M250.2,123.3v-3.7c-1,1.2-2.4,2.3-4,3.1c-1.6,0.8-3.6,1.3-5.9,1.3c-1.5,0-2.8-0.2-4.2-0.6
		c-1.3-0.4-2.5-1-3.4-1.8s-1.8-1.8-2.4-2.9c-0.6-1.2-0.9-2.5-0.9-4.1v-0.1c0-1.7,0.3-3.1,0.9-4.3c0.6-1.2,1.5-2.2,2.6-3.1
		c1.1-0.8,2.4-1.4,3.9-1.8c1.5-0.4,3.2-0.6,4.9-0.6c1.8,0,3.4,0.1,4.7,0.3c1.3,0.2,2.5,0.5,3.7,0.9v-0.7c0-2.1-0.6-3.7-1.9-4.8
		c-1.3-1.1-3.1-1.7-5.6-1.7c-1.7,0-3.3,0.2-4.6,0.5c-1.3,0.3-2.7,0.8-4.1,1.4l-1.9-5.6c1.7-0.8,3.4-1.4,5.2-1.8
		c1.8-0.5,3.9-0.7,6.4-0.7c4.5,0,7.9,1.1,10.1,3.4c2.2,2.2,3.3,5.4,3.3,9.5v18.1H250.2z M250.4,110.4c-0.9-0.3-1.9-0.6-3.1-0.9
		c-1.2-0.2-2.5-0.3-3.8-0.3c-2.2,0-3.9,0.4-5.1,1.3c-1.2,0.8-1.8,2.1-1.8,3.6v0.1c0,1.5,0.6,2.6,1.7,3.3c1.1,0.8,2.5,1.2,4.2,1.2
		c1.2,0,2.2-0.2,3.2-0.5c1-0.3,1.8-0.7,2.6-1.3c0.7-0.6,1.3-1.2,1.7-2c0.4-0.8,0.6-1.7,0.6-2.6V110.4z"/>
	<path class="st0" d="M293.4,95.6c0.3,0.6,0.8,1.1,1.5,1.6c0.7,0.5,1.7,1,2.9,1.4c1.3,0.4,2.8,0.9,4.8,1.3c2.1,0.5,4,1.1,5.6,1.8
		c1.6,0.7,3,1.5,4.1,2.4c1.1,0.9,1.9,2,2.5,3.3c0.6,1.2,0.8,2.7,0.8,4.4c0,1.9-0.4,3.6-1.1,5.1c-0.7,1.5-1.7,2.8-2.9,3.8
		c-1.3,1-2.8,1.8-4.5,2.4c-1.8,0.5-3.7,0.8-5.8,0.8c-3.1,0-6.1-0.5-8.9-1.6c-2.8-1.1-5.5-2.7-7.9-4.9l4.3-5.1c2,1.7,3.9,3,5.9,3.9
		c2,0.9,4.3,1.4,6.8,1.4c2.2,0,3.9-0.5,5.2-1.4c1.3-0.9,1.9-2.2,1.9-3.7c0-0.7-0.1-1.4-0.4-2c-0.3-0.6-0.7-1.1-1.4-1.6
		c-0.7-0.5-1.6-0.9-2.8-1.4c-1.2-0.4-2.7-0.9-4.6-1.3c-2.2-0.5-4.1-1.1-5.8-1.7c-1.7-0.6-3.1-1.4-4.2-2.3c-1.1-0.9-2-2-2.6-3.3
		c-0.6-1.3-0.9-2.9-0.9-4.8c0-1.8,0.3-3.4,1-4.8c0.7-1.4,1.6-2.7,2.8-3.7c1.2-1,2.6-1.8,4.3-2.4c1.7-0.6,3.5-0.8,5.5-0.8
		c3,0,5.6,0.4,8,1.3c2.4,0.9,4.6,2.1,6.7,3.8l-3.8,5.4c-1.8-1.3-3.7-2.4-5.5-3.1c-1.8-0.7-3.6-1.1-5.5-1.1c-2.1,0-3.7,0.5-4.8,1.4
		c-1.2,0.9-1.7,2.1-1.7,3.4C293,94.3,293.1,95,293.4,95.6z"/>
	<path class="st0" d="M354.4,114.3c-0.8,1.9-2,3.6-3.4,5c-1.4,1.4-3.2,2.6-5.2,3.4c-2,0.8-4.2,1.3-6.5,1.3c-2.3,0-4.5-0.4-6.4-1.2
		c-2-0.8-3.7-2-5.1-3.4c-1.4-1.4-2.6-3.1-3.4-5c-0.8-1.9-1.2-4-1.2-6.1c0-2.2,0.4-4.3,1.2-6.2c0.8-1.9,2-3.6,3.4-5.1
		c1.4-1.4,3.2-2.6,5.1-3.4c2-0.8,4.1-1.3,6.5-1.3c2.3,0,4.5,0.4,6.5,1.2c2,0.8,3.7,2,5.1,3.4c1.4,1.4,2.6,3.1,3.4,5
		c0.8,1.9,1.2,4,1.2,6.2C355.7,110.3,355.3,112.3,354.4,114.3z M347.9,104.4c-0.5-1.2-1.1-2.2-1.9-3.1s-1.8-1.6-2.9-2.1
		c-1.1-0.5-2.4-0.8-3.8-0.8s-2.6,0.3-3.8,0.8c-1.1,0.5-2.1,1.2-2.9,2.1s-1.4,1.9-1.8,3.1c-0.4,1.2-0.6,2.4-0.6,3.8s0.2,2.6,0.7,3.8
		c0.5,1.2,1.1,2.3,1.9,3.1c0.8,0.9,1.8,1.6,2.9,2.1c1.1,0.5,2.4,0.8,3.7,0.8c1.4,0,2.7-0.3,3.8-0.8c1.1-0.5,2.1-1.2,2.9-2.1
		c0.8-0.9,1.4-1.9,1.8-3.1c0.4-1.2,0.6-2.4,0.6-3.8C348.6,106.9,348.4,105.6,347.9,104.4z"/>
	<path class="st0" d="M385.9,122.4c-1.9,1.1-4.4,1.6-7.3,1.6c-2.3,0-4.4-0.4-6.3-1.2c-1.9-0.8-3.6-2-5-3.4c-1.4-1.4-2.5-3.1-3.3-5
		c-0.8-1.9-1.2-4-1.2-6.1c0-2.2,0.4-4.2,1.2-6.2c0.8-1.9,1.9-3.6,3.3-5.1c1.4-1.5,3.1-2.6,5-3.5c1.9-0.8,4-1.3,6.3-1.3
		c2.9,0,5.3,0.5,7.2,1.4c1.9,1,3.6,2.2,5,3.8l-4.3,4.7c-1.1-1.1-2.2-2-3.4-2.7c-1.2-0.7-2.7-1.1-4.5-1.1c-1.3,0-2.4,0.3-3.5,0.8
		c-1.1,0.5-2,1.2-2.8,2.1c-0.8,0.9-1.4,1.9-1.8,3.1c-0.4,1.2-0.7,2.4-0.7,3.8c0,1.4,0.2,2.7,0.7,3.9c0.4,1.2,1.1,2.2,1.9,3.1
		c0.8,0.9,1.8,1.6,2.9,2.1c1.1,0.5,2.3,0.8,3.7,0.8c1.7,0,3.1-0.4,4.4-1.1c1.2-0.7,2.4-1.6,3.5-2.7l4.2,4.2
		C389.6,120,387.9,121.4,385.9,122.4z"/>
	<path class="st0" d="M399.3,88.2v-6.6h7.6v6.6H399.3z M399.6,123.3V92.9h7v30.5H399.6z"/>
	<path class="st0" d="M425.7,116.3c1.6,1.3,3.5,2,5.8,2c1.7,0,3.2-0.3,4.5-0.9c1.3-0.6,2.5-1.5,3.7-2.7l4.1,3.6
		c-1.5,1.7-3.2,3.1-5.2,4.2c-2,1-4.4,1.6-7.2,1.6c-2.2,0-4.2-0.4-6.1-1.2c-1.9-0.8-3.6-1.8-5-3.2c-1.4-1.4-2.5-3-3.3-5
		c-0.8-1.9-1.2-4.1-1.2-6.5c0-2.2,0.4-4.2,1.1-6.2c0.7-1.9,1.8-3.6,3.1-5c1.3-1.4,2.9-2.6,4.7-3.4c1.8-0.8,3.8-1.3,6-1.3
		c2.4,0,4.5,0.4,6.4,1.3s3.3,2.1,4.6,3.6c1.2,1.5,2.1,3.2,2.7,5.2c0.6,2,0.9,4.1,0.9,6.3c0,0.3,0,0.6,0,0.9c0,0.3,0,0.6-0.1,1h-22.4
		C423.1,113.1,424.1,115,425.7,116.3z M438.3,106c-0.1-1.1-0.4-2.2-0.7-3.1c-0.4-1-0.9-1.8-1.6-2.5c-0.7-0.7-1.4-1.3-2.3-1.7
		c-0.9-0.4-1.9-0.6-3.1-0.6c-2.2,0-3.9,0.7-5.3,2.2c-1.4,1.5-2.3,3.4-2.6,5.8H438.3z"/>
	<path class="st0" d="M476.8,123.3v-5.1c-1.1,1.6-2.5,2.9-4.2,4c-1.7,1.1-3.7,1.7-6.2,1.7c-1.8,0-3.5-0.3-5.2-1
		c-1.7-0.7-3.2-1.7-4.5-3.1c-1.3-1.4-2.4-3-3.2-5c-0.8-2-1.2-4.2-1.2-6.7c0-2.5,0.4-4.8,1.2-6.7c0.8-2,1.8-3.6,3.1-5
		c1.3-1.4,2.8-2.4,4.5-3.1c1.7-0.7,3.5-1,5.3-1c2.5,0,4.6,0.5,6.2,1.6c1.6,1.1,3,2.3,4.1,3.7V81.2h7v42.1H476.8z M476.2,104.1
		c-0.5-1.2-1.1-2.2-1.9-3.1c-0.8-0.9-1.7-1.5-2.8-2c-1.1-0.5-2.2-0.7-3.3-0.7c-1.2,0-2.3,0.2-3.4,0.7c-1.1,0.4-2,1.1-2.8,1.9
		c-0.8,0.8-1.4,1.9-1.9,3.1c-0.5,1.2-0.7,2.6-0.7,4.1c0,1.5,0.2,2.9,0.7,4.1c0.5,1.2,1.1,2.2,1.9,3.1c0.8,0.8,1.7,1.5,2.8,2
		c1.1,0.5,2.2,0.7,3.4,0.7c1.2,0,2.3-0.2,3.3-0.7c1.1-0.5,2-1.1,2.8-2c0.8-0.9,1.4-1.9,1.9-3.1c0.5-1.2,0.7-2.5,0.7-4
		S476.7,105.2,476.2,104.1z"/>
	<path class="st0" d="M512.9,123.3v-3.7c-1,1.2-2.4,2.3-4,3.1c-1.6,0.8-3.6,1.3-5.9,1.3c-1.5,0-2.8-0.2-4.2-0.6
		c-1.3-0.4-2.5-1-3.4-1.8s-1.8-1.8-2.4-2.9c-0.6-1.2-0.9-2.5-0.9-4.1v-0.1c0-1.7,0.3-3.1,0.9-4.3c0.6-1.2,1.5-2.2,2.6-3.1
		c1.1-0.8,2.4-1.4,3.9-1.8c1.5-0.4,3.2-0.6,4.9-0.6c1.8,0,3.4,0.1,4.7,0.3c1.3,0.2,2.5,0.5,3.7,0.9v-0.7c0-2.1-0.6-3.7-1.9-4.8
		c-1.3-1.1-3.1-1.7-5.6-1.7c-1.7,0-3.3,0.2-4.6,0.5c-1.3,0.3-2.7,0.8-4.1,1.4l-1.9-5.6c1.7-0.8,3.4-1.4,5.2-1.8
		c1.8-0.5,3.9-0.7,6.4-0.7c4.5,0,7.9,1.1,10.1,3.4c2.2,2.2,3.3,5.4,3.3,9.5v18.1H512.9z M513.1,110.4c-0.9-0.3-1.9-0.6-3.1-0.9
		c-1.2-0.2-2.5-0.3-3.8-0.3c-2.2,0-3.9,0.4-5.1,1.3c-1.2,0.8-1.8,2.1-1.8,3.6v0.1c0,1.5,0.6,2.6,1.7,3.3c1.1,0.8,2.5,1.2,4.2,1.2
		c1.2,0,2.2-0.2,3.2-0.5c1-0.3,1.8-0.7,2.6-1.3c0.7-0.6,1.3-1.2,1.7-2c0.4-0.8,0.6-1.7,0.6-2.6V110.4z"/>
	<path class="st0" d="M552.8,123.3v-5.1c-1.1,1.6-2.5,2.9-4.2,4c-1.7,1.1-3.7,1.7-6.2,1.7c-1.8,0-3.5-0.3-5.2-1
		c-1.7-0.7-3.2-1.7-4.5-3.1c-1.3-1.4-2.4-3-3.2-5c-0.8-2-1.2-4.2-1.2-6.7c0-2.5,0.4-4.8,1.2-6.7c0.8-2,1.8-3.6,3.1-5
		c1.3-1.4,2.8-2.4,4.5-3.1c1.7-0.7,3.5-1,5.3-1c2.5,0,4.6,0.5,6.2,1.6c1.6,1.1,3,2.3,4.1,3.7V81.2h7v42.1H552.8z M552.2,104.1
		c-0.5-1.2-1.1-2.2-1.9-3.1c-0.8-0.9-1.7-1.5-2.8-2c-1.1-0.5-2.2-0.7-3.3-0.7c-1.2,0-2.3,0.2-3.4,0.7c-1.1,0.4-2,1.1-2.8,1.9
		c-0.8,0.8-1.4,1.9-1.9,3.1c-0.5,1.2-0.7,2.6-0.7,4.1c0,1.5,0.2,2.9,0.7,4.1c0.5,1.2,1.1,2.2,1.9,3.1c0.8,0.8,1.7,1.5,2.8,2
		c1.1,0.5,2.2,0.7,3.4,0.7c1.2,0,2.3-0.2,3.3-0.7c1.1-0.5,2-1.1,2.8-2c0.8-0.9,1.4-1.9,1.9-3.1c0.5-1.2,0.7-2.5,0.7-4
		S552.7,105.2,552.2,104.1z"/>
	<path class="st0" d="M612.2,123.3v-5.1c-1.1,1.6-2.5,2.9-4.2,4c-1.7,1.1-3.7,1.7-6.2,1.7c-1.8,0-3.5-0.3-5.2-1
		c-1.7-0.7-3.2-1.7-4.5-3.1c-1.3-1.4-2.4-3-3.2-5c-0.8-2-1.2-4.2-1.2-6.7c0-2.5,0.4-4.8,1.2-6.7c0.8-2,1.8-3.6,3.1-5
		c1.3-1.4,2.8-2.4,4.5-3.1c1.7-0.7,3.5-1,5.3-1c2.5,0,4.6,0.5,6.2,1.6c1.6,1.1,3,2.3,4.1,3.7V81.2h7v42.1H612.2z M611.6,104.1
		c-0.5-1.2-1.1-2.2-1.9-3.1c-0.8-0.9-1.7-1.5-2.8-2c-1.1-0.5-2.2-0.7-3.3-0.7c-1.2,0-2.3,0.2-3.4,0.7c-1.1,0.4-2,1.1-2.8,1.9
		c-0.8,0.8-1.4,1.9-1.9,3.1c-0.5,1.2-0.7,2.6-0.7,4.1c0,1.5,0.2,2.9,0.7,4.1c0.5,1.2,1.1,2.2,1.9,3.1c0.8,0.8,1.7,1.5,2.8,2
		c1.1,0.5,2.2,0.7,3.4,0.7c1.2,0,2.3-0.2,3.3-0.7c1.1-0.5,2-1.1,2.8-2c0.8-0.9,1.4-1.9,1.9-3.1c0.5-1.2,0.7-2.5,0.7-4
		S612.1,105.2,611.6,104.1z"/>
	<path class="st0" d="M638,116.3c1.6,1.3,3.5,2,5.8,2c1.7,0,3.2-0.3,4.5-0.9c1.3-0.6,2.5-1.5,3.7-2.7l4.1,3.6
		c-1.5,1.7-3.2,3.1-5.2,4.2c-2,1-4.4,1.6-7.2,1.6c-2.2,0-4.2-0.4-6.1-1.2c-1.9-0.8-3.6-1.8-5-3.2c-1.4-1.4-2.5-3-3.3-5
		c-0.8-1.9-1.2-4.1-1.2-6.5c0-2.2,0.4-4.2,1.1-6.2c0.7-1.9,1.8-3.6,3.1-5c1.3-1.4,2.9-2.6,4.7-3.4c1.8-0.8,3.8-1.3,6-1.3
		c2.4,0,4.5,0.4,6.4,1.3s3.3,2.1,4.6,3.6c1.2,1.5,2.1,3.2,2.7,5.2c0.6,2,0.9,4.1,0.9,6.3c0,0.3,0,0.6,0,0.9c0,0.3,0,0.6-0.1,1H635
		C635.4,113.1,636.4,115,638,116.3z M650.6,106c-0.1-1.1-0.4-2.2-0.7-3.1c-0.4-1-0.9-1.8-1.6-2.5c-0.7-0.7-1.4-1.3-2.3-1.7
		c-0.9-0.4-1.9-0.6-3.1-0.6c-2.2,0-3.9,0.7-5.3,2.2c-1.4,1.5-2.3,3.4-2.6,5.8H650.6z"/>
	<path class="st0" d="M685.7,123.3V81.2h7v42.1H685.7z"/>
	<path class="st0" d="M722.1,123.3v-3.7c-1,1.2-2.4,2.3-4,3.1c-1.6,0.8-3.6,1.3-5.9,1.3c-1.5,0-2.8-0.2-4.2-0.6
		c-1.3-0.4-2.5-1-3.4-1.8c-1-0.8-1.8-1.8-2.4-2.9c-0.6-1.2-0.9-2.5-0.9-4.1v-0.1c0-1.7,0.3-3.1,0.9-4.3c0.6-1.2,1.5-2.2,2.6-3.1
		c1.1-0.8,2.4-1.4,3.9-1.8c1.5-0.4,3.2-0.6,4.9-0.6c1.8,0,3.4,0.1,4.7,0.3c1.3,0.2,2.5,0.5,3.7,0.9v-0.7c0-2.1-0.6-3.7-1.9-4.8
		c-1.3-1.1-3.1-1.7-5.6-1.7c-1.7,0-3.3,0.2-4.6,0.5c-1.3,0.3-2.7,0.8-4.1,1.4l-1.9-5.6c1.7-0.8,3.4-1.4,5.2-1.8
		c1.8-0.5,3.9-0.7,6.4-0.7c4.5,0,7.9,1.1,10.1,3.4c2.2,2.2,3.3,5.4,3.3,9.5v18.1H722.1z M722.3,110.4c-0.9-0.3-1.9-0.6-3.1-0.9
		c-1.2-0.2-2.5-0.3-3.8-0.3c-2.2,0-3.9,0.4-5.1,1.3c-1.2,0.8-1.8,2.1-1.8,3.6v0.1c0,1.5,0.6,2.6,1.7,3.3c1.1,0.8,2.5,1.2,4.2,1.2
		c1.2,0,2.2-0.2,3.2-0.5c1-0.3,1.8-0.7,2.6-1.3c0.7-0.6,1.3-1.2,1.7-2c0.4-0.8,0.6-1.7,0.6-2.6V110.4z"/>
	<path class="st0" d="M766.4,82.9v40.4h-7V82.9H766.4z"/>
	<path class="st0" d="M785.2,123.3h-7V92.9h7v4.8c0.5-0.7,1-1.4,1.6-2.1c0.6-0.6,1.3-1.2,2.1-1.7c0.8-0.5,1.6-0.9,2.6-1.2
		c0.9-0.3,2-0.4,3.2-0.4c3.4,0,6.1,1.1,8,3.2c1.9,2.1,2.8,5,2.8,8.5v19.4h-7v-17.3c0-2.4-0.6-4.2-1.7-5.5c-1.1-1.3-2.7-1.9-4.8-1.9
		c-2,0-3.7,0.7-4.9,2c-1.3,1.3-1.9,3.2-1.9,5.6V123.3z"/>
	<path class="st0" d="M832.2,93.1v5.8h-8v24.5h-7V98.9h-3.9V93h3.9v-2.2c0-3.4,0.8-5.9,2.4-7.5c1.6-1.6,3.9-2.5,7-2.5
		c1.2,0,2.3,0.1,3.2,0.2c0.9,0.1,1.7,0.3,2.5,0.6v5.9c-0.7-0.2-1.4-0.4-2-0.5c-0.6-0.1-1.3-0.2-2.1-0.2c-2.7,0-4,1.5-4,4.6v1.7
		H832.2z"/>
	<path class="st0" d="M868,114.3c-0.8,1.9-2,3.6-3.4,5c-1.4,1.4-3.2,2.6-5.2,3.4c-2,0.8-4.2,1.3-6.5,1.3c-2.3,0-4.5-0.4-6.4-1.2
		s-3.7-2-5.1-3.4c-1.4-1.4-2.6-3.1-3.4-5c-0.8-1.9-1.2-4-1.2-6.1c0-2.2,0.4-4.3,1.2-6.2c0.8-1.9,2-3.6,3.4-5.1
		c1.4-1.4,3.2-2.6,5.1-3.4c2-0.8,4.1-1.3,6.5-1.3s4.5,0.4,6.5,1.2c2,0.8,3.7,2,5.1,3.4c1.4,1.4,2.6,3.1,3.4,5c0.8,1.9,1.2,4,1.2,6.2
		C869.2,110.3,868.8,112.3,868,114.3z M861.5,104.4c-0.5-1.2-1.1-2.2-1.9-3.1s-1.8-1.6-2.9-2.1c-1.1-0.5-2.4-0.8-3.8-0.8
		c-1.4,0-2.6,0.3-3.8,0.8c-1.1,0.5-2.1,1.2-2.9,2.1s-1.4,1.9-1.8,3.1c-0.4,1.2-0.6,2.4-0.6,3.8s0.2,2.6,0.7,3.8
		c0.5,1.2,1.1,2.3,1.9,3.1c0.8,0.9,1.8,1.6,2.9,2.1c1.1,0.5,2.4,0.8,3.7,0.8c1.4,0,2.7-0.3,3.8-0.8c1.1-0.5,2.1-1.2,2.9-2.1
		c0.8-0.9,1.4-1.9,1.8-3.1c0.4-1.2,0.6-2.4,0.6-3.8C862.2,106.9,862,105.6,861.5,104.4z"/>
	<path class="st0" d="M885.1,123.3h-7V92.9h7v6.9c1-2.3,2.3-4.2,4.1-5.5c1.8-1.4,4-2,6.7-1.9v7.4h-0.4c-1.5,0-2.9,0.3-4.2,0.7
		c-1.3,0.5-2.4,1.3-3.3,2.2c-0.9,1-1.6,2.3-2.1,3.8c-0.5,1.5-0.8,3.3-0.8,5.3V123.3z"/>
	<path class="st0" d="M933.3,93.7c1.7-1,3.7-1.5,6-1.5c3.3,0,6,1,7.8,3s2.8,4.9,2.8,8.6v19.4h-7v-17.3c0-2.4-0.5-4.3-1.6-5.5
		c-1.1-1.3-2.6-1.9-4.5-1.9c-1.9,0-3.5,0.6-4.7,1.9c-1.2,1.3-1.8,3.2-1.8,5.6v17.1h-7V106c0-2.4-0.5-4.2-1.6-5.5
		c-1.1-1.3-2.6-1.9-4.5-1.9c-1.9,0-3.5,0.7-4.7,2c-1.2,1.3-1.8,3.2-1.8,5.6v17.1h-7V92.9h7v4.7c0.5-0.7,1-1.4,1.6-2
		c0.6-0.6,1.2-1.2,2-1.7c0.7-0.5,1.6-0.9,2.5-1.2s2-0.4,3.1-0.4c2.2,0,4,0.5,5.6,1.5c1.5,1,2.7,2.3,3.5,3.9
		C930.2,96,931.7,94.7,933.3,93.7z"/>
	<path class="st0" d="M978.8,123.3v-3.7c-1,1.2-2.4,2.3-4,3.1c-1.6,0.8-3.6,1.3-5.9,1.3c-1.5,0-2.8-0.2-4.2-0.6
		c-1.3-0.4-2.5-1-3.4-1.8c-1-0.8-1.8-1.8-2.4-2.9c-0.6-1.2-0.9-2.5-0.9-4.1v-0.1c0-1.7,0.3-3.1,0.9-4.3c0.6-1.2,1.5-2.2,2.6-3.1
		c1.1-0.8,2.4-1.4,3.9-1.8c1.5-0.4,3.2-0.6,4.9-0.6c1.8,0,3.4,0.1,4.7,0.3c1.3,0.2,2.5,0.5,3.7,0.9v-0.7c0-2.1-0.6-3.7-1.9-4.8
		c-1.3-1.1-3.1-1.7-5.6-1.7c-1.7,0-3.3,0.2-4.6,0.5c-1.3,0.3-2.7,0.8-4.1,1.4l-1.9-5.6c1.7-0.8,3.4-1.4,5.2-1.8
		c1.8-0.5,3.9-0.7,6.4-0.7c4.5,0,7.9,1.1,10.1,3.4c2.2,2.2,3.3,5.4,3.3,9.5v18.1H978.8z M978.9,110.4c-0.9-0.3-1.9-0.6-3.1-0.9
		c-1.2-0.2-2.5-0.3-3.8-0.3c-2.2,0-3.9,0.4-5.1,1.3c-1.2,0.8-1.8,2.1-1.8,3.6v0.1c0,1.5,0.6,2.6,1.7,3.3c1.1,0.8,2.5,1.2,4.2,1.2
		c1.2,0,2.2-0.2,3.2-0.5c1-0.3,1.8-0.7,2.6-1.3c0.7-0.6,1.3-1.2,1.7-2c0.4-0.8,0.6-1.7,0.6-2.6V110.4z"/>
	<path class="st0" d="M1017.2,122.4c-1.9,1.1-4.4,1.6-7.3,1.6c-2.3,0-4.4-0.4-6.3-1.2s-3.6-2-5-3.4c-1.4-1.4-2.5-3.1-3.3-5
		c-0.8-1.9-1.2-4-1.2-6.1c0-2.2,0.4-4.2,1.2-6.2c0.8-1.9,1.9-3.6,3.3-5.1c1.4-1.5,3.1-2.6,5-3.5c1.9-0.8,4-1.3,6.3-1.3
		c2.9,0,5.3,0.5,7.2,1.4c1.9,1,3.6,2.2,5,3.8l-4.3,4.7c-1.1-1.1-2.2-2-3.4-2.7c-1.2-0.7-2.7-1.1-4.5-1.1c-1.3,0-2.4,0.3-3.5,0.8
		c-1.1,0.5-2,1.2-2.8,2.1c-0.8,0.9-1.4,1.9-1.8,3.1c-0.4,1.2-0.7,2.4-0.7,3.8c0,1.4,0.2,2.7,0.7,3.9c0.4,1.2,1.1,2.2,1.9,3.1
		c0.8,0.9,1.8,1.6,2.9,2.1c1.1,0.5,2.3,0.8,3.7,0.8c1.7,0,3.1-0.4,4.4-1.1c1.2-0.7,2.4-1.6,3.5-2.7l4.2,4.2
		C1020.8,120,1019.1,121.4,1017.2,122.4z"/>
	<path class="st0" d="M1030.5,88.2v-6.6h7.6v6.6H1030.5z M1030.8,123.3V92.9h7v30.5H1030.8z"/>
	<path class="st0" d="M1078.2,114.3c-0.8,1.9-2,3.6-3.4,5c-1.4,1.4-3.2,2.6-5.2,3.4c-2,0.8-4.2,1.3-6.5,1.3c-2.3,0-4.5-0.4-6.4-1.2
		s-3.7-2-5.1-3.4c-1.4-1.4-2.6-3.1-3.4-5c-0.8-1.9-1.2-4-1.2-6.1c0-2.2,0.4-4.3,1.2-6.2c0.8-1.9,2-3.6,3.4-5.1
		c1.4-1.4,3.2-2.6,5.1-3.4c2-0.8,4.1-1.3,6.5-1.3s4.5,0.4,6.5,1.2c2,0.8,3.7,2,5.1,3.4c1.4,1.4,2.6,3.1,3.4,5c0.8,1.9,1.2,4,1.2,6.2
		C1079.4,110.3,1079,112.3,1078.2,114.3z M1071.7,104.4c-0.5-1.2-1.1-2.2-1.9-3.1c-0.8-0.9-1.8-1.6-2.9-2.1
		c-1.1-0.5-2.4-0.8-3.8-0.8s-2.6,0.3-3.8,0.8c-1.1,0.5-2.1,1.2-2.9,2.1c-0.8,0.9-1.4,1.9-1.8,3.1c-0.4,1.2-0.6,2.4-0.6,3.8
		s0.2,2.6,0.7,3.8c0.5,1.2,1.1,2.3,1.9,3.1c0.8,0.9,1.8,1.6,2.9,2.1c1.1,0.5,2.4,0.8,3.7,0.8c1.4,0,2.7-0.3,3.8-0.8
		c1.1-0.5,2.1-1.2,2.9-2.1c0.8-0.9,1.4-1.9,1.8-3.1c0.4-1.2,0.6-2.4,0.6-3.8C1072.4,106.9,1072.1,105.6,1071.7,104.4z M1060.4,89
		l6.1-9.5l6.3,2.8l-7,6.6H1060.4z"/>
	<path class="st0" d="M1095.3,123.3h-7V92.9h7v4.8c0.5-0.7,1-1.4,1.6-2.1c0.6-0.6,1.3-1.2,2.1-1.7c0.8-0.5,1.6-0.9,2.6-1.2
		c0.9-0.3,2-0.4,3.2-0.4c3.4,0,6.1,1.1,8,3.2c1.9,2.1,2.8,5,2.8,8.5v19.4h-7v-17.3c0-2.4-0.6-4.2-1.7-5.5c-1.1-1.3-2.7-1.9-4.8-1.9
		c-2,0-3.7,0.7-4.9,2c-1.3,1.3-1.9,3.2-1.9,5.6V123.3z"/>
</g>
</svg>
