<?xml version="1.0" encoding="utf-8"?>
<!-- Generator: Adobe Illustrator 20.1.0, SVG Export Plug-In . SVG Version: 6.00 Build 0)  -->
<svg version="1.1" id="Capa_1" xmlns="http://www.w3.org/2000/svg" xmlns:xlink="http://www.w3.org/1999/xlink" x="0px" y="0px"
	 viewBox="0 0 1366 412" style="enable-background:new 0 0 1366 412;" xml:space="preserve">
<style type="text/css">
	.st0{clip-path:url(#SVGID_2_);}
	.st1{fill:#CE370F;}
	.st2{fill:url(#SVGID_3_);}
	.st3{fill:url(#SVGID_4_);}
	.st4{fill:url(#SVGID_5_);}
	.st5{fill:url(#SVGID_6_);}
	.st6{fill:url(#SVGID_7_);}
	.st7{fill:url(#SVGID_8_);}
	.st8{fill:url(#SVGID_9_);}
	.st9{fill:#FF9A22;}
	.st10{fill:#FC6327;}
	.st11{fill:#C42C0E;}
	.st12{fill:url(#SVGID_10_);}
	.st13{fill:url(#SVGID_11_);}
	.st14{fill:url(#SVGID_12_);}
	.st15{fill:url(#SVGID_13_);}
	.st16{fill:url(#SVGID_14_);}
	.st17{fill:url(#SVGID_15_);}
	.st18{fill:url(#SVGID_16_);}
	.st19{fill:url(#SVGID_17_);}
	.st20{fill:url(#SVGID_18_);}
	.st21{fill:url(#SVGID_19_);}
	.st22{fill:url(#SVGID_20_);}
	.st23{fill:url(#SVGID_21_);}
	.st24{fill:url(#SVGID_22_);}
	.st25{fill:url(#SVGID_23_);}
	.st26{fill:url(#SVGID_24_);}
	.st27{fill:url(#SVGID_25_);}
	.st28{fill:url(#SVGID_26_);}
	.st29{fill:url(#SVGID_27_);}
	.st30{fill:url(#SVGID_28_);}
	.st31{fill:url(#SVGID_29_);}
	.st32{fill:url(#SVGID_30_);}
	.st33{fill:url(#SVGID_31_);}
	.st34{fill:url(#SVGID_32_);}
	.st35{fill:url(#SVGID_33_);}
	.st36{fill:url(#SVGID_34_);}
	.st37{fill:url(#SVGID_35_);}
	.st38{fill:url(#SVGID_36_);}
	.st39{fill:url(#SVGID_37_);}
	.st40{fill:url(#SVGID_38_);}
	.st41{fill:url(#SVGID_39_);}
	.st42{fill:url(#SVGID_40_);}
	.st43{fill:url(#SVGID_41_);}
	.st44{fill:url(#SVGID_42_);}
	.st45{fill:url(#SVGID_43_);}
	.st46{fill:url(#SVGID_44_);}
	.st47{fill:url(#SVGID_45_);}
	.st48{fill:url(#SVGID_46_);}
	.st49{fill:url(#SVGID_47_);}
	.st50{fill:url(#SVGID_48_);}
	.st51{fill:url(#SVGID_49_);}
	.st52{fill:url(#SVGID_50_);}
	.st53{fill:url(#SVGID_51_);}
	.st54{fill:url(#SVGID_52_);}
	.st55{fill:url(#SVGID_53_);}
	.st56{fill:url(#SVGID_54_);}
	.st57{fill:url(#SVGID_55_);}
	.st58{fill:url(#SVGID_56_);}
	.st59{fill:url(#SVGID_57_);}
	.st60{fill:url(#SVGID_58_);}
	.st61{fill:url(#SVGID_59_);}
	.st62{fill:url(#SVGID_60_);}
	.st63{fill:url(#SVGID_61_);}
	.st64{fill:url(#SVGID_62_);}
	.st65{fill:url(#SVGID_63_);}
	.st66{fill:url(#SVGID_64_);}
	.st67{fill:url(#SVGID_65_);}
	.st68{fill:url(#SVGID_66_);}
	.st69{fill:url(#SVGID_67_);}
	.st70{fill:url(#SVGID_68_);}
	.st71{fill:url(#SVGID_69_);}
	.st72{fill:url(#SVGID_70_);}
	.st73{fill:url(#SVGID_71_);}
	.st74{fill:url(#SVGID_72_);}
	.st75{fill:url(#SVGID_73_);}
	.st76{fill:url(#SVGID_74_);}
	.st77{fill:url(#SVGID_75_);}
	.st78{fill:url(#SVGID_76_);}
	.st79{fill:url(#SVGID_77_);}
	.st80{fill:url(#SVGID_78_);}
	.st81{fill:url(#SVGID_79_);}
	.st82{fill:url(#SVGID_80_);}
	.st83{fill:url(#SVGID_81_);}
	.st84{fill:url(#SVGID_82_);}
	.st85{fill:url(#SVGID_83_);}
	.st86{fill:url(#SVGID_84_);}
	.st87{fill:url(#SVGID_85_);}
	.st88{fill:url(#SVGID_86_);}
	.st89{opacity:0.88;fill:#E77E37;enable-background:new    ;}
</style>
<g transform="translate(3422.142 -3468.883)">
	<g>
		<defs>
			<rect id="SVGID_1_" x="-3422.1" y="3468.9" width="1366" height="412"/>
		</defs>
		<clipPath id="SVGID_2_">
			<use xlink:href="#SVGID_1_"  style="overflow:visible;"/>
		</clipPath>
		<g class="st0">
			<rect x="-3422.1" y="3468.8" class="st1" width="1366" height="412"/>
			
				<linearGradient id="SVGID_3_" gradientUnits="userSpaceOnUse" x1="-3038.6658" y1="4094.2905" x2="-3037.6658" y2="4094.2905" gradientTransform="matrix(252.6851 0 0 -218.832 764022.25 899629.4375)">
				<stop  offset="0.179" style="stop-color:#CE370F"/>
				<stop  offset="0.593" style="stop-color:#FF7C22"/>
			</linearGradient>
			<path class="st2" d="M-3676.8,3558.1l-126.3,218.8h252.7L-3676.8,3558.1z"/>
			
				<linearGradient id="SVGID_4_" gradientUnits="userSpaceOnUse" x1="-3042.8777" y1="4092.7366" x2="-3041.8777" y2="4092.7366" gradientTransform="matrix(67.124 0 0 -84.7668 200510.8281 350662.9062)">
				<stop  offset="0" style="stop-color:#FC6327"/>
				<stop  offset="0.64" style="stop-color:#CE370F"/>
			</linearGradient>
			<path class="st3" d="M-3679.4,3719.8c2.3-2.6,4.7-5.1,7.1-7.4v-20.2c-10.1,7.9-20.6,16.1-30.9,25.8c-2.1,2.5-7.7,8-14.1,16.6
				c-3.5,4.7-6.7,9.8-9.4,15c-2.9,5.6-5.4,11.4-7.8,16.9c-1.2,2.8-2.4,5.4-3.7,8c-0.4,0.8-0.9,1.7-1.3,2.5h23.6l0.1-0.3
				c0.1-0.3,0-0.6-0.2-0.9c0.8-1.8,1.6-3.3,2.3-4.7c1.8-4.9,3.5-9.6,5.6-14c2.1-4.5,4.6-8.8,7.4-12.9
				C-3695,3735.7-3687.7,3727.7-3679.4,3719.8z"/>
			
				<linearGradient id="SVGID_5_" gradientUnits="userSpaceOnUse" x1="-3058.2612" y1="4088.2222" x2="-3057.2612" y2="4088.2222" gradientTransform="matrix(18.23 0 0 -30.4929 52061.5625 128423.5078)">
				<stop  offset="0" style="stop-color:#FC6327"/>
				<stop  offset="0.64" style="stop-color:#CE370F"/>
			</linearGradient>
			<path class="st4" d="M-3673,3747.4c-3.7,4.6-7,9.5-9.9,14.7c-2.8,4.9-5.2,10-7.5,14.9h18.2v-30.5
				C-3672.5,3746.7-3672.8,3747.1-3673,3747.4z"/>
			
				<linearGradient id="SVGID_6_" gradientUnits="userSpaceOnUse" x1="-3043.7717" y1="4090.8093" x2="-3042.7717" y2="4090.8093" gradientTransform="matrix(58.0718 0 0 -48.166 172883.3438 200694.75)">
				<stop  offset="0" style="stop-color:#FC6327"/>
				<stop  offset="0.64" style="stop-color:#CE370F"/>
			</linearGradient>
			<path class="st5" d="M-3873.9,3680.8c2-0.5,4-1.3,5.8-2.3c0-0.3,0-0.6,0.1-0.9c2-0.8,4.1-1.6,6.2-2.5c2.1-0.9,4.2-2,6.3-3
				c7.1-4.6,13.7-9.9,19.6-15.9c-0.3-0.1-0.6-0.2-0.1-0.8c1.2-1.2,2.6-2.6,4.2-4.1s3.3-3.1,5-4.8l1.3-1.6c0.2-0.3,0.2-0.6,0.1-1
				l4-4.1c1.9-2.4,3.7-4.8,5.5-7.1h-27.2c-7.5,7.9-15.3,15.1-22.9,19.8c-2.2,1.3-4.3,2.6-6.3,3.7c-0.6,0.3-1.1,0.5-1.6,0.8V3680.8z"
				/>
			
				<linearGradient id="SVGID_7_" gradientUnits="userSpaceOnUse" x1="-3058.6709" y1="4092.9265" x2="-3057.6709" y2="4092.9265" gradientTransform="matrix(104.2019 0 0 -91.6206 312987.0938 378674.875)">
				<stop  offset="0" style="stop-color:#FC6327"/>
				<stop  offset="0.64" style="stop-color:#CE370F"/>
			</linearGradient>
			<path class="st6" d="M-3852.8,3711.6c1.9-1.4,4-2.5,6.1-3.5c2.1-1,4.2-2.2,6.1-3.7l-0.1-0.8c3.3-2.1,6.9-4,10.4-6.5
				c3-2.4,5.9-5.1,8.7-7.7c1.4-1.3,2.7-2.8,4.1-4.1l2-2.1c0.7-0.7,1.3-1.5,1.9-2.2c-0.3,0-0.6-0.1-0.1-0.8c1-1.3,2.3-2.6,3.8-4.2
				c1.4-1.5,2.9-3.2,4.4-4.9l1.1-1.6c0.1-0.3,0.1-0.6,0-0.9c1.3-1.5,2.4-2.8,3.4-4c3-4.3,5.8-8.4,8.9-12.1
				c3.2-3.8,6.6-7.4,10.3-10.6c3.8-3.3,7.8-6.4,12-9.3h-30.5c-2.7,2.4-5.4,5.1-8,8c-4.2,4.7-8,9.7-11.8,14.4
				c-1.9,2.4-3.7,4.7-5.5,6.8c-1.9,2.1-3.8,4.2-5.7,6.2c-3.8,3.8-7.7,7.4-11.9,10.8c-2,1.6-3.8,3.1-5.7,4.4
				c-1.9,1.3-3.6,2.7-5.3,3.8l-4.6,3l-3.8,2.3l-1.5,1c-3.1,1.9-6.5,3.8-9.9,5.8v25.2c7.2-3.5,14.3-7.2,21.2-11.4
				C-3852.9,3712.5-3854,3712.6-3852.8,3711.6z"/>
			
				<linearGradient id="SVGID_8_" gradientUnits="userSpaceOnUse" x1="-3039.4065" y1="4093.7195" x2="-3038.4065" y2="4093.7195" gradientTransform="matrix(170.0229 0 0 -138.387 512894.9688 570219.25)">
				<stop  offset="0" style="stop-color:#FC6327"/>
				<stop  offset="0.64" style="stop-color:#CE370F"/>
			</linearGradient>
			<path class="st7" d="M-3871.1,3768.6c4.4-5.1,11.1-9.8,18.3-14.2c3.6-2.2,7.5-4.5,11.2-6.6c3.7-2.1,7.3-4.1,11-5.8
				c-0.2-0.4-1.2-0.5,0-1.3c3.6-2.2,7.2-1.9,11.2-3.8l0.1-0.8c3.3-0.8,7-1.6,10.9-2.5c3.4-1.2,7-2.6,10.6-4.2
				c0.9-0.4,1.8-0.8,2.7-1.2l2.6-1.4c1.8-0.9,3.4-1.9,5.1-2.9c-0.3-0.1-0.5-0.3,0.1-0.8c1.3-0.9,3-1.9,4.8-2.9
				c1.8-1.1,3.7-2.2,5.6-3.6l1.6-1.3c0.2-0.3,0.3-0.6,0.2-0.9c1.6-1.2,3.1-2.2,4.5-3.3c7.9-7.5,15.2-15.7,21.7-24.4
				c6.7-8.6,12.9-17.4,19.7-26.3c2.5-3.9,5.3-7.7,8.4-11.2c2.5-2.6,5.2-5.1,8-7.4c2.9-2.4,5.9-4.6,8.5-6.4c-0.6-0.4-0.3-1.3,0.4-2.6
				c0.1-0.1,0.1-0.2,0.2-0.3h-22.2c-9.8,9-18.3,18.9-26.6,28.5c-1.7,2.4-6.1,8-12.1,14.8c-6.7,7.8-14.2,15-22.3,21.5
				c-4.2,3.3-8.7,6.2-13.4,8.7c-2.3,1.2-4.6,2.3-6.9,3.2c-2.3,1-4.7,1.8-7.1,2.6c-4.7,1.6-9.4,3.1-13.5,4.5c-4.1,1.4-7.7,2.9-10.3,4
				c-0.6,0.3-1.2,0.6-1.8,0.9c-5.6,2.7-11.1,5.7-16.3,9.1c-2.6,1.7-5,3.3-7.3,5c-2.3,1.7-4.5,3.4-6.4,5c-1.3,1.2-2.6,2.5-3.8,3.8
				v16.2c0.3-0.1,0.5-0.2,0.5,0c-0.2,0.2-0.3,0.4-0.5,0.5v10C-3872.9,3770.3-3872,3769.5-3871.1,3768.6z"/>
			
				<linearGradient id="SVGID_9_" gradientUnits="userSpaceOnUse" x1="-3039.4133" y1="4093.7825" x2="-3038.4133" y2="4093.7825" gradientTransform="matrix(169.5139 0 0 -144.2395 511381.0938 594189.9375)">
				<stop  offset="0" style="stop-color:#FC6327"/>
				<stop  offset="0.64" style="stop-color:#CE370F"/>
			</linearGradient>
			<path class="st8" d="M-3801.5,3774.3c-0.2-0.4-1.3-0.3-0.1-1.3c1.9-1.3,3.8-2.3,5.9-3.2c2.1-0.8,4.1-1.8,6-3.1l-0.1-0.8
				c3.4-1.6,7.1-3.1,10.8-4.8c6.5-3.7,12.9-7.4,19.4-11.2c-0.3-0.1-0.5-0.3,0.1-0.8c2.7-1.8,6.8-3.8,10.9-6.5l1.7-1.3
				c0.2-0.2,0.4-0.6,0.3-0.9c1.8-1.2,3.4-2.3,4.9-3.4c4.6-4,8.7-8.5,12.4-13.4c3.5-4.8,6.8-9.8,9.6-15.1
				c5.7-10.3,10.2-20.7,16.2-30.6c2.2-4.3,4.8-8.4,7.9-12.1c1.2-1.3,2.5-2.6,3.9-3.9l2.2-1.9l1.1-1l1.2-0.9c1.6-1.2,3.1-2.4,4.7-3.5
				l2.3-1.6l2.2-1.4c-0.6-0.4-0.2-1.4,0.7-2.6c1.1-1.4,2.3-2.8,3.6-4c0.4-0.4,0.9-0.9,1.3-1.3v-11.1h-5.2c-3.6,2-7.1,4.2-10.5,6.5
				c-8.2,5.6-15.7,12.3-22.3,19.8c-3.2,3.8-6.3,7.7-9.1,11.9c-2.7,4-5.3,8.1-7.7,12.1c-1.4,2.8-5,9.6-10,17.5
				c-2.6,4.2-5.6,8.2-8.9,11.9c-0.8,1-1.8,1.9-2.7,2.9s-1.9,1.9-2.9,2.8c-2.1,1.8-4.2,3.6-6.5,5.2c-2.3,1.7-4.7,3.3-7.2,4.8
				c-1.3,0.8-2.5,1.5-3.8,2.3l-3.9,2.2l-15.6,8.5c-9.8,5.4-18.1,10-22.9,12.8l-1.7,1.1c-5.6,3.3-11,7-16.2,10.9
				c-2.7,1.9-5.1,4.1-7.5,6.1c-1.9,1.7-3.7,3.4-5.3,5.1h36.1C-3804.3,3776.1-3802.9,3775.2-3801.5,3774.3z"/>
			<path class="st9" d="M-3495.9,3642c0-48.7-39.5-88.2-88.2-88.2c0,0,0,0,0,0v88.2H-3495.9z"/>
			<path class="st10" d="M-3584.1,3553.9c-48.7,0-88.2,39.5-88.2,88.2c0,0,0,0,0,0c0,26.3,11.7,51.3,32.1,68l56.1-68L-3584.1,3553.9
				z"/>
			<path class="st11" d="M-3584.1,3642l-56.1,68c15.8,13,35.6,20.2,56.1,20.1c48.7,0,88.2-39.5,88.2-88.2v0L-3584.1,3642z"/>
			
				<linearGradient id="SVGID_10_" gradientUnits="userSpaceOnUse" x1="-3038.6658" y1="4094.2905" x2="-3037.6658" y2="4094.2905" gradientTransform="matrix(252.6851 0 0 -218.832 764490.4375 899629.4375)">
				<stop  offset="0.179" style="stop-color:#CE370F"/>
				<stop  offset="0.593" style="stop-color:#FF7C22"/>
			</linearGradient>
			<path class="st12" d="M-3208.6,3558.1l-126.3,218.8h252.7L-3208.6,3558.1z"/>
			
				<linearGradient id="SVGID_11_" gradientUnits="userSpaceOnUse" x1="-3042.8777" y1="4092.7366" x2="-3041.8777" y2="4092.7366" gradientTransform="matrix(67.124 0 0 -84.7668 200979.0312 350662.9062)">
				<stop  offset="0" style="stop-color:#FC6327"/>
				<stop  offset="0.64" style="stop-color:#CE370F"/>
			</linearGradient>
			<path class="st13" d="M-3211.2,3719.8c2.3-2.6,4.7-5.1,7.1-7.4v-20.2c-10.1,7.9-20.6,16.1-30.9,25.8c-2.1,2.5-7.7,8-14.1,16.6
				c-3.5,4.7-6.7,9.8-9.4,15c-2.9,5.6-5.4,11.4-7.8,16.9c-1.2,2.8-2.4,5.4-3.7,8c-0.4,0.8-0.9,1.7-1.3,2.5h23.6l0.1-0.3
				c0.1-0.3,0-0.6-0.2-0.9c0.8-1.8,1.6-3.3,2.3-4.7c1.8-4.9,3.5-9.6,5.6-14c2.1-4.5,4.6-8.8,7.4-12.9
				C-3226.8,3735.7-3219.4,3727.7-3211.2,3719.8z"/>
			
				<linearGradient id="SVGID_12_" gradientUnits="userSpaceOnUse" x1="-3058.2612" y1="4088.2222" x2="-3057.2612" y2="4088.2222" gradientTransform="matrix(18.23 0 0 -30.4929 52529.7617 128423.5078)">
				<stop  offset="0" style="stop-color:#FC6327"/>
				<stop  offset="0.64" style="stop-color:#CE370F"/>
			</linearGradient>
			<path class="st14" d="M-3204.8,3747.4c-3.7,4.6-7,9.5-9.9,14.7c-2.8,4.9-5.2,10-7.5,14.9h18.2v-30.5
				C-3204.3,3746.7-3204.6,3747.1-3204.8,3747.4z"/>
			
				<linearGradient id="SVGID_13_" gradientUnits="userSpaceOnUse" x1="-3043.7717" y1="4090.8093" x2="-3042.7717" y2="4090.8093" gradientTransform="matrix(58.0718 0 0 -48.166 173351.5469 200694.75)">
				<stop  offset="0" style="stop-color:#FC6327"/>
				<stop  offset="0.64" style="stop-color:#CE370F"/>
			</linearGradient>
			<path class="st15" d="M-3405.7,3680.8c2-0.5,4-1.3,5.8-2.3c0-0.3,0-0.6,0.1-0.9c2-0.8,4.1-1.6,6.2-2.5c2.1-0.9,4.2-2,6.3-3
				c7.1-4.6,13.7-9.9,19.6-15.9c-0.3-0.1-0.6-0.2-0.1-0.8c1.2-1.2,2.6-2.6,4.2-4.1s3.3-3.1,5-4.8l1.3-1.6c0.2-0.3,0.2-0.6,0.1-1
				l4-4.1c1.9-2.4,3.7-4.8,5.5-7.1h-27.2c-7.5,7.9-15.3,15.1-22.9,19.8c-2.2,1.3-4.3,2.6-6.3,3.7c-0.6,0.3-1.1,0.5-1.6,0.8
				L-3405.7,3680.8z"/>
			
				<linearGradient id="SVGID_14_" gradientUnits="userSpaceOnUse" x1="-3058.6707" y1="4092.9265" x2="-3057.6707" y2="4092.9265" gradientTransform="matrix(104.2039 0 0 -91.6206 313461.2188 378674.875)">
				<stop  offset="0" style="stop-color:#FC6327"/>
				<stop  offset="0.64" style="stop-color:#CE370F"/>
			</linearGradient>
			<path class="st16" d="M-3384.6,3711.6c1.9-1.4,4-2.5,6.1-3.5c2.1-1,4.2-2.2,6.1-3.7l-0.1-0.8c3.3-2.1,6.9-4,10.4-6.5
				c3-2.4,5.9-5.1,8.7-7.7c1.4-1.3,2.7-2.8,4.1-4.1l2-2.1c0.7-0.7,1.3-1.5,1.9-2.2c-0.3,0-0.6-0.1-0.1-0.8c1-1.3,2.3-2.6,3.8-4.2
				c1.4-1.5,2.9-3.2,4.4-4.9l1.1-1.6c0.1-0.3,0.1-0.6,0-0.9c1.3-1.5,2.4-2.8,3.4-4c3-4.3,5.8-8.4,8.9-12.1
				c3.2-3.8,6.6-7.4,10.3-10.6c3.8-3.3,7.8-6.4,12-9.3h-30.5c-2.7,2.4-5.4,5.1-8,8c-4.2,4.7-8,9.7-11.8,14.4
				c-1.9,2.4-3.7,4.7-5.5,6.8c-1.9,2.1-3.8,4.2-5.7,6.2c-3.8,3.8-7.7,7.4-11.9,10.8c-2,1.6-3.8,3.1-5.7,4.4
				c-1.9,1.3-3.6,2.7-5.3,3.8l-4.6,3l-3.8,2.3l-1.5,1c-3.1,1.9-6.5,3.8-9.9,5.8v25.2c7.2-3.5,14.3-7.2,21.2-11.4
				C-3384.7,3712.5-3385.8,3712.6-3384.6,3711.6z"/>
			
				<linearGradient id="SVGID_15_" gradientUnits="userSpaceOnUse" x1="-3039.4065" y1="4093.7195" x2="-3038.4065" y2="4093.7195" gradientTransform="matrix(170.0229 0 0 -138.387 513363.1875 570219.25)">
				<stop  offset="0" style="stop-color:#FC6327"/>
				<stop  offset="0.64" style="stop-color:#CE370F"/>
			</linearGradient>
			<path class="st17" d="M-3402.9,3768.6c4.4-5.1,11.1-9.8,18.3-14.2c3.6-2.2,7.5-4.5,11.2-6.6c3.7-2.1,7.3-4.1,11-5.8
				c-0.2-0.4-1.2-0.5,0-1.3c3.6-2.2,7.2-1.9,11.2-3.8l0.1-0.8c3.3-0.8,7-1.6,10.9-2.5c3.4-1.2,7-2.6,10.6-4.2
				c0.9-0.4,1.8-0.8,2.7-1.2l2.6-1.4c1.8-0.9,3.4-1.9,5.1-2.9c-0.3-0.1-0.5-0.3,0.1-0.8c1.3-0.9,3-1.9,4.8-2.9
				c1.8-1.1,3.7-2.2,5.6-3.6l1.6-1.3c0.2-0.3,0.3-0.6,0.2-0.9c1.6-1.2,3.1-2.2,4.5-3.3c7.9-7.5,15.2-15.7,21.7-24.4
				c6.7-8.6,12.9-17.4,19.7-26.3c2.5-3.9,5.3-7.7,8.4-11.2c2.5-2.6,5.2-5.1,8-7.4c2.9-2.4,5.9-4.6,8.5-6.4c-0.6-0.4-0.3-1.3,0.4-2.6
				c0.1-0.1,0.1-0.2,0.2-0.3h-22.2c-9.8,9-18.3,18.9-26.6,28.5c-1.7,2.4-6.1,8-12.1,14.8c-6.7,7.8-14.2,15-22.3,21.5
				c-4.2,3.3-8.7,6.2-13.4,8.7c-2.3,1.2-4.6,2.3-6.9,3.2c-2.3,1-4.7,1.8-7.1,2.6c-4.7,1.6-9.4,3.1-13.5,4.5c-4.1,1.4-7.7,2.9-10.3,4
				c-0.6,0.3-1.2,0.6-1.8,0.9c-5.6,2.7-11.1,5.7-16.3,9.1c-2.6,1.7-5,3.3-7.3,5c-2.3,1.7-4.5,3.4-6.4,5c-1.3,1.2-2.6,2.5-3.8,3.8
				v16.2c0.3-0.1,0.5-0.2,0.5,0c-0.2,0.2-0.3,0.4-0.5,0.5v10C-3404.7,3770.3-3403.8,3769.5-3402.9,3768.6z"/>
			
				<linearGradient id="SVGID_16_" gradientUnits="userSpaceOnUse" x1="-3039.4133" y1="4093.7825" x2="-3038.4133" y2="4093.7825" gradientTransform="matrix(169.5115 0 0 -144.2429 511841.875 594203.9375)">
				<stop  offset="0" style="stop-color:#FC6327"/>
				<stop  offset="0.64" style="stop-color:#CE370F"/>
			</linearGradient>
			<path class="st18" d="M-3333.3,3774.3c-0.2-0.4-1.3-0.3-0.1-1.3c1.9-1.3,3.8-2.3,5.9-3.2c2.1-0.8,4.1-1.8,6-3.1l-0.1-0.8
				c3.4-1.6,7.1-3.1,10.8-4.8c6.5-3.7,12.9-7.4,19.4-11.2c-0.3-0.1-0.5-0.3,0.1-0.8c2.7-1.8,6.8-3.8,10.9-6.5l1.7-1.3
				c0.2-0.2,0.4-0.6,0.3-0.9c1.8-1.2,3.4-2.3,4.9-3.4c4.6-4,8.7-8.5,12.4-13.4c3.5-4.8,6.8-9.8,9.6-15.1
				c5.7-10.3,10.2-20.7,16.2-30.6c2.2-4.3,4.8-8.4,7.9-12.1c1.2-1.3,2.5-2.6,3.9-3.9l2.2-1.9l1.1-1l1.2-0.9c1.6-1.2,3.1-2.4,4.7-3.5
				l2.3-1.6l2.2-1.4c-0.6-0.4-0.2-1.4,0.7-2.6c1.1-1.4,2.3-2.8,3.6-4c0.4-0.4,0.9-0.9,1.3-1.3v-11.1h-5.2c-3.6,2-7.1,4.2-10.5,6.5
				c-8.2,5.6-15.7,12.3-22.3,19.8c-3.2,3.8-6.3,7.7-9.1,11.9c-2.7,4-5.3,8.1-7.7,12.1c-1.4,2.8-5,9.6-10,17.5
				c-2.6,4.2-5.6,8.2-8.9,11.9c-0.8,1-1.8,1.9-2.7,2.9s-1.9,1.9-2.9,2.8c-2.1,1.8-4.2,3.6-6.5,5.2c-2.3,1.7-4.7,3.3-7.2,4.8
				c-1.3,0.8-2.5,1.5-3.8,2.3l-3.9,2.2l-15.6,8.5c-9.8,5.4-18.1,10-22.9,12.8l-1.7,1.1c-5.6,3.3-11,7-16.2,10.9
				c-2.7,1.9-5.1,4.1-7.5,6.1c-1.9,1.7-3.7,3.4-5.3,5.1h36.1C-3336.1,3776.1-3334.7,3775.2-3333.3,3774.3z"/>
			<path class="st9" d="M-3027.7,3642c0-48.7-39.5-88.2-88.2-88.2c0,0,0,0,0,0v88.2H-3027.7z"/>
			<path class="st10" d="M-3115.9,3553.9c-48.7,0-88.2,39.5-88.2,88.2c0,0,0,0,0,0c0,26.3,11.7,51.3,32.1,68l56.1-68L-3115.9,3553.9
				z"/>
			<path class="st11" d="M-3115.9,3642l-56.1,68c15.8,13,35.6,20.2,56.1,20.1c48.7,0,88.2-39.5,88.2-88.2v0L-3115.9,3642z"/>
			
				<linearGradient id="SVGID_17_" gradientUnits="userSpaceOnUse" x1="-3038.6658" y1="4094.2905" x2="-3037.6658" y2="4094.2905" gradientTransform="matrix(252.6851 0 0 -218.832 764958.6875 899629.4375)">
				<stop  offset="0.179" style="stop-color:#CE370F"/>
				<stop  offset="0.593" style="stop-color:#FF7C22"/>
			</linearGradient>
			<path class="st19" d="M-2740.4,3558.1l-126.3,218.8h252.7L-2740.4,3558.1z"/>
			
				<linearGradient id="SVGID_18_" gradientUnits="userSpaceOnUse" x1="-3042.8777" y1="4092.7366" x2="-3041.8777" y2="4092.7366" gradientTransform="matrix(67.124 0 0 -84.7668 201447.2344 350662.9062)">
				<stop  offset="0" style="stop-color:#FC6327"/>
				<stop  offset="0.64" style="stop-color:#CE370F"/>
			</linearGradient>
			<path class="st20" d="M-2743,3719.8c2.3-2.6,4.7-5.1,7.1-7.4v-20.2c-10.1,7.9-20.6,16.1-30.9,25.8c-2.1,2.5-7.7,8-14.1,16.6
				c-3.5,4.7-6.7,9.8-9.4,15c-2.9,5.6-5.4,11.4-7.8,16.9c-1.2,2.8-2.4,5.4-3.7,8c-0.4,0.8-0.9,1.7-1.3,2.5h23.6l0.1-0.3
				c0.1-0.3,0-0.6-0.2-0.9c0.8-1.8,1.6-3.3,2.3-4.7c1.8-4.9,3.5-9.6,5.6-14c2.1-4.5,4.6-8.8,7.4-12.9
				C-2758.6,3735.7-2751.2,3727.7-2743,3719.8z"/>
			
				<linearGradient id="SVGID_19_" gradientUnits="userSpaceOnUse" x1="-3058.2612" y1="4088.2222" x2="-3057.2612" y2="4088.2222" gradientTransform="matrix(18.23 0 0 -30.4929 52997.9648 128423.5078)">
				<stop  offset="0" style="stop-color:#FC6327"/>
				<stop  offset="0.64" style="stop-color:#CE370F"/>
			</linearGradient>
			<path class="st21" d="M-2736.6,3747.4c-3.7,4.6-7,9.5-9.9,14.7c-2.8,4.9-5.2,10-7.5,14.9h18.2v-30.5
				C-2736.1,3746.7-2736.4,3747.1-2736.6,3747.4z"/>
			
				<linearGradient id="SVGID_20_" gradientUnits="userSpaceOnUse" x1="-3043.7717" y1="4090.8093" x2="-3042.7717" y2="4090.8093" gradientTransform="matrix(58.0718 0 0 -48.166 173819.75 200694.75)">
				<stop  offset="0" style="stop-color:#FC6327"/>
				<stop  offset="0.64" style="stop-color:#CE370F"/>
			</linearGradient>
			<path class="st22" d="M-2937.5,3680.8c2-0.5,4-1.3,5.8-2.3c0-0.3,0-0.6,0.1-0.9c2-0.8,4.1-1.6,6.2-2.5c2.1-0.9,4.2-2,6.3-3
				c7.1-4.6,13.7-9.9,19.6-15.9c-0.3-0.1-0.6-0.2-0.1-0.8c1.2-1.2,2.6-2.6,4.2-4.1s3.3-3.1,5-4.8l1.3-1.6c0.2-0.3,0.2-0.6,0.1-1
				c1.5-1.5,2.8-2.9,4-4.1c1.9-2.4,3.7-4.8,5.5-7.1h-27.2c-7.5,7.9-15.3,15.1-22.9,19.8c-2.2,1.3-4.3,2.6-6.3,3.7
				c-0.6,0.3-1.1,0.5-1.6,0.8L-2937.5,3680.8z"/>
			
				<linearGradient id="SVGID_21_" gradientUnits="userSpaceOnUse" x1="-3058.6709" y1="4092.9265" x2="-3057.6709" y2="4092.9265" gradientTransform="matrix(104.2004 0 0 -91.6206 313919.0625 378674.875)">
				<stop  offset="0" style="stop-color:#FC6327"/>
				<stop  offset="0.64" style="stop-color:#CE370F"/>
			</linearGradient>
			<path class="st23" d="M-2916.4,3711.6c1.9-1.4,4-2.5,6.1-3.5c2.1-1,4.2-2.2,6.1-3.7l-0.1-0.8c3.3-2.1,6.9-4,10.4-6.5
				c3-2.4,5.9-5.1,8.7-7.7c1.4-1.3,2.7-2.8,4.1-4.1l2-2.1c0.7-0.7,1.3-1.5,1.9-2.2c-0.3,0-0.6-0.1-0.1-0.8c1-1.3,2.3-2.6,3.8-4.2
				c1.4-1.5,2.9-3.2,4.4-4.9l1.1-1.6c0.1-0.3,0.1-0.6,0-0.9c1.3-1.5,2.4-2.8,3.4-4c3-4.3,5.8-8.4,8.9-12.1
				c3.2-3.8,6.6-7.4,10.3-10.6c3.8-3.3,7.8-6.4,12-9.3h-30.5c-2.7,2.4-5.4,5.1-8,8c-4.2,4.7-8,9.7-11.8,14.4
				c-1.9,2.4-3.7,4.7-5.5,6.8c-1.9,2.1-3.8,4.2-5.7,6.2c-3.8,3.8-7.7,7.4-11.9,10.8c-2,1.6-3.8,3.1-5.7,4.4
				c-1.9,1.3-3.6,2.7-5.3,3.8l-4.6,3l-3.8,2.3l-1.5,1c-3.1,1.9-6.5,3.8-9.9,5.8v25.2c7.2-3.5,14.3-7.2,21.2-11.4
				C-2916.5,3712.5-2917.6,3712.6-2916.4,3711.6z"/>
			
				<linearGradient id="SVGID_22_" gradientUnits="userSpaceOnUse" x1="-3039.4065" y1="4093.7195" x2="-3038.4065" y2="4093.7195" gradientTransform="matrix(170.022 0 0 -138.387 513828.4062 570219.25)">
				<stop  offset="0" style="stop-color:#FC6327"/>
				<stop  offset="0.64" style="stop-color:#CE370F"/>
			</linearGradient>
			<path class="st24" d="M-2934.7,3768.6c4.4-5.1,11.1-9.8,18.3-14.2c3.6-2.2,7.5-4.5,11.2-6.6c3.7-2.1,7.3-4.1,11-5.8
				c-0.2-0.4-1.2-0.5,0-1.3c3.6-2.2,7.2-1.9,11.2-3.8l0.1-0.8c3.3-0.8,7-1.6,10.9-2.5c3.4-1.2,7-2.6,10.6-4.2
				c0.9-0.4,1.8-0.8,2.7-1.2l2.6-1.4c1.8-0.9,3.4-1.9,5.1-2.9c-0.3-0.1-0.5-0.3,0.1-0.8c1.3-0.9,3-1.9,4.8-2.9
				c1.8-1.1,3.7-2.2,5.6-3.6l1.6-1.3c0.2-0.3,0.3-0.6,0.2-0.9c1.6-1.2,3.1-2.2,4.5-3.3c7.9-7.5,15.2-15.7,21.7-24.4
				c6.7-8.6,12.9-17.4,19.7-26.3c2.5-3.9,5.3-7.7,8.4-11.2c2.5-2.6,5.2-5.1,8-7.4c2.9-2.4,5.9-4.6,8.5-6.4c-0.6-0.4-0.3-1.3,0.4-2.6
				c0.1-0.1,0.1-0.2,0.2-0.3h-22.2c-9.8,9-18.3,18.9-26.6,28.5c-1.7,2.4-6.1,8-12.1,14.8c-6.7,7.8-14.2,15-22.3,21.5
				c-4.2,3.3-8.7,6.2-13.4,8.7c-2.3,1.2-4.5,2.3-6.9,3.2c-2.3,1-4.7,1.8-7.1,2.6c-4.7,1.6-9.4,3.1-13.5,4.5c-4.1,1.4-7.7,2.9-10.3,4
				c-0.6,0.3-1.2,0.6-1.8,0.9c-5.6,2.7-11.1,5.7-16.3,9.1c-2.6,1.7-5,3.3-7.3,5c-2.3,1.7-4.5,3.4-6.4,5c-1.3,1.2-2.6,2.5-3.8,3.8
				v16.2c0.3-0.1,0.5-0.2,0.5,0c-0.2,0.2-0.3,0.4-0.5,0.5v10C-2936.5,3770.3-2935.6,3769.5-2934.7,3768.6z"/>
			
				<linearGradient id="SVGID_23_" gradientUnits="userSpaceOnUse" x1="-3039.4133" y1="4093.7825" x2="-3038.4133" y2="4093.7825" gradientTransform="matrix(169.5132 0 0 -144.2395 512315.25 594189.9375)">
				<stop  offset="0" style="stop-color:#FC6327"/>
				<stop  offset="0.64" style="stop-color:#CE370F"/>
			</linearGradient>
			<path class="st25" d="M-2865.1,3774.3c-0.2-0.4-1.3-0.3-0.1-1.3c1.9-1.3,3.8-2.3,5.9-3.2c2.1-0.8,4.1-1.8,6-3.1l-0.1-0.8
				c3.4-1.6,7.1-3.1,10.8-4.8c6.5-3.7,12.9-7.4,19.4-11.2c-0.3-0.1-0.5-0.3,0.1-0.8c2.7-1.8,6.8-3.8,10.9-6.5l1.7-1.3
				c0.2-0.2,0.4-0.6,0.3-0.9c1.8-1.2,3.4-2.3,4.9-3.4c4.6-4,8.7-8.5,12.4-13.4c3.5-4.8,6.8-9.8,9.6-15.1
				c5.7-10.3,10.2-20.7,16.2-30.6c2.2-4.3,4.8-8.4,7.9-12.1c1.2-1.3,2.5-2.6,3.9-3.9l2.2-1.9l1.1-1l1.2-0.9c1.6-1.2,3.1-2.4,4.7-3.5
				l2.3-1.6l2.2-1.4c-0.6-0.4-0.2-1.4,0.7-2.6c1.1-1.4,2.3-2.8,3.6-4c0.4-0.4,0.9-0.9,1.3-1.3v-11.1h-5.2c-3.6,2-7.1,4.2-10.5,6.5
				c-8.2,5.6-15.7,12.3-22.3,19.8c-3.2,3.8-6.3,7.7-9.1,11.9c-2.7,4-5.3,8.1-7.7,12.1c-1.4,2.8-5,9.6-10,17.5
				c-2.6,4.2-5.6,8.2-8.9,11.9c-0.8,1-1.8,1.9-2.7,2.9s-1.9,1.9-2.9,2.8c-2.1,1.8-4.2,3.6-6.5,5.2c-2.3,1.7-4.7,3.3-7.2,4.8
				c-1.3,0.8-2.5,1.5-3.8,2.3l-3.9,2.2l-15.6,8.5c-9.8,5.4-18.1,10-22.9,12.8l-1.7,1.1c-5.6,3.3-11,7-16.2,10.9
				c-2.7,1.9-5.1,4.1-7.5,6.1c-1.9,1.7-3.7,3.4-5.3,5.1h36.1C-2867.9,3776.1-2866.5,3775.2-2865.1,3774.3z"/>
			<path class="st9" d="M-2559.5,3642c0-48.7-39.5-88.2-88.2-88.2c0,0,0,0,0,0v88.2H-2559.5z"/>
			<path class="st10" d="M-2647.7,3553.9c-48.7,0-88.2,39.5-88.2,88.2c0,0,0,0,0,0c0,26.3,11.7,51.3,32.1,68l56.1-68L-2647.7,3553.9
				z"/>
			<path class="st11" d="M-2647.7,3642l-56.1,68c15.8,13,35.6,20.2,56.1,20.1c48.7,0,88.2-39.5,88.2-88.2v0L-2647.7,3642z"/>
			
				<linearGradient id="SVGID_24_" gradientUnits="userSpaceOnUse" x1="-3038.6658" y1="4094.2905" x2="-3037.6658" y2="4094.2905" gradientTransform="matrix(252.6851 0 0 -218.832 765426.875 899629.4375)">
				<stop  offset="0.179" style="stop-color:#CE370F"/>
				<stop  offset="0.593" style="stop-color:#FF7C22"/>
			</linearGradient>
			<path class="st26" d="M-2272.2,3558.1l-126.3,218.8h252.7L-2272.2,3558.1z"/>
			
				<linearGradient id="SVGID_25_" gradientUnits="userSpaceOnUse" x1="-3042.8777" y1="4092.7366" x2="-3041.8777" y2="4092.7366" gradientTransform="matrix(67.124 0 0 -84.7668 201915.4219 350662.9062)">
				<stop  offset="0" style="stop-color:#FC6327"/>
				<stop  offset="0.64" style="stop-color:#CE370F"/>
			</linearGradient>
			<path class="st27" d="M-2274.8,3719.8c2.3-2.6,4.7-5.1,7.1-7.4v-20.2c-10.1,7.9-20.6,16.1-30.9,25.8c-2.1,2.5-7.7,8-14.1,16.6
				c-3.5,4.7-6.7,9.8-9.4,15c-2.9,5.6-5.4,11.4-7.8,16.9c-1.2,2.8-2.4,5.4-3.7,8c-0.4,0.8-0.9,1.7-1.3,2.5h23.6l0.1-0.3
				c0.1-0.3,0-0.6-0.2-0.9c0.8-1.8,1.6-3.3,2.3-4.7c1.8-4.9,3.5-9.6,5.6-14c2.1-4.5,4.6-8.8,7.4-12.9
				C-2290.4,3735.7-2283,3727.7-2274.8,3719.8z"/>
			
				<linearGradient id="SVGID_26_" gradientUnits="userSpaceOnUse" x1="-3058.2612" y1="4088.2222" x2="-3057.2612" y2="4088.2222" gradientTransform="matrix(18.23 0 0 -30.4929 53466.168 128423.5078)">
				<stop  offset="0" style="stop-color:#FC6327"/>
				<stop  offset="0.64" style="stop-color:#CE370F"/>
			</linearGradient>
			<path class="st28" d="M-2268.4,3747.4c-3.7,4.6-7,9.5-9.9,14.7c-2.8,4.9-5.2,10-7.5,14.9h18.2v-30.5
				C-2267.9,3746.7-2268.2,3747.1-2268.4,3747.4z"/>
			
				<linearGradient id="SVGID_27_" gradientUnits="userSpaceOnUse" x1="-3043.7717" y1="4090.8093" x2="-3042.7717" y2="4090.8093" gradientTransform="matrix(58.0718 0 0 -48.166 174287.9531 200694.75)">
				<stop  offset="0" style="stop-color:#FC6327"/>
				<stop  offset="0.64" style="stop-color:#CE370F"/>
			</linearGradient>
			<path class="st29" d="M-2469.3,3680.8c2-0.5,4-1.3,5.8-2.3c0-0.3,0-0.6,0.1-0.9c2-0.8,4.1-1.6,6.2-2.5c2.1-0.9,4.2-2,6.3-3
				c7.1-4.6,13.7-9.9,19.6-15.9c-0.3-0.1-0.6-0.2-0.1-0.8c1.2-1.2,2.6-2.6,4.2-4.1s3.3-3.1,5-4.8l1.3-1.6c0.2-0.3,0.2-0.6,0.1-1
				l4-4.1c1.9-2.4,3.7-4.8,5.5-7.1h-27.2c-7.5,7.9-15.3,15.1-22.9,19.8c-2.2,1.3-4.3,2.6-6.3,3.7c-0.6,0.3-1.1,0.5-1.6,0.8
				L-2469.3,3680.8z"/>
			
				<linearGradient id="SVGID_28_" gradientUnits="userSpaceOnUse" x1="-3058.6719" y1="4092.9265" x2="-3057.6719" y2="4092.9265" gradientTransform="matrix(104.2004 0 0 -91.6206 314387.25 378674.875)">
				<stop  offset="0" style="stop-color:#FC6327"/>
				<stop  offset="0.64" style="stop-color:#CE370F"/>
			</linearGradient>
			<path class="st30" d="M-2448.2,3711.6c1.9-1.4,4-2.5,6.1-3.5c2.1-1,4.2-2.2,6.1-3.7l-0.1-0.8c3.3-2.1,6.9-4,10.4-6.5
				c3-2.4,5.9-5.1,8.7-7.7c1.4-1.3,2.7-2.8,4.1-4.1l2-2.1c0.7-0.7,1.3-1.5,1.9-2.2c-0.3,0-0.6-0.1-0.1-0.8c1-1.3,2.3-2.6,3.8-4.2
				c1.4-1.5,2.9-3.2,4.4-4.9l1.1-1.6c0.1-0.3,0.1-0.6,0-0.9c1.3-1.5,2.4-2.8,3.4-4c3-4.3,5.8-8.4,8.9-12.1
				c3.2-3.8,6.6-7.4,10.3-10.6c3.8-3.3,7.8-6.4,12-9.3h-30.5c-2.7,2.4-5.4,5.1-8,8c-4.2,4.7-8,9.7-11.8,14.4
				c-1.9,2.4-3.7,4.7-5.5,6.8c-1.9,2.1-3.8,4.2-5.7,6.2c-3.8,3.8-7.7,7.4-11.9,10.8c-2,1.6-3.8,3.1-5.7,4.4
				c-1.9,1.3-3.6,2.7-5.3,3.8l-4.6,3l-3.8,2.3l-1.5,1c-3.1,1.9-6.5,3.8-9.9,5.8v25.2c7.2-3.5,14.3-7.2,21.2-11.4
				C-2448.3,3712.5-2449.4,3712.6-2448.2,3711.6z"/>
			
				<linearGradient id="SVGID_29_" gradientUnits="userSpaceOnUse" x1="-3039.4065" y1="4093.7195" x2="-3038.4065" y2="4093.7195" gradientTransform="matrix(170.0271 0 0 -138.387 514312.1875 570219.25)">
				<stop  offset="0" style="stop-color:#FC6327"/>
				<stop  offset="0.64" style="stop-color:#CE370F"/>
			</linearGradient>
			<path class="st31" d="M-2466.5,3768.6c4.4-5.1,11.1-9.8,18.3-14.2c3.6-2.2,7.5-4.5,11.2-6.6c3.7-2.1,7.3-4.1,11-5.8
				c-0.2-0.4-1.2-0.5,0-1.3c3.6-2.2,7.2-1.9,11.2-3.8l0.1-0.8c3.3-0.8,7-1.6,10.9-2.5c3.4-1.2,7-2.6,10.6-4.2
				c0.9-0.4,1.8-0.8,2.7-1.2l2.6-1.4c1.8-0.9,3.4-1.9,5.1-2.9c-0.3-0.1-0.5-0.3,0.1-0.8c1.3-0.9,3-1.9,4.8-2.9
				c1.8-1.1,3.7-2.2,5.6-3.6l1.6-1.3c0.2-0.3,0.3-0.6,0.2-0.9c1.6-1.2,3.1-2.2,4.5-3.3c7.9-7.5,15.2-15.7,21.7-24.4
				c6.7-8.6,12.9-17.4,19.7-26.3c2.5-3.9,5.3-7.7,8.4-11.2c2.5-2.6,5.2-5.1,8-7.4c2.9-2.4,5.9-4.6,8.5-6.4c-0.6-0.4-0.3-1.3,0.4-2.6
				c0.1-0.1,0.1-0.2,0.2-0.3h-22.2c-9.8,9-18.3,18.9-26.6,28.5c-1.7,2.4-6.1,8-12.1,14.8c-6.7,7.8-14.2,15-22.3,21.5
				c-4.2,3.3-8.7,6.2-13.4,8.7c-2.3,1.2-4.5,2.3-6.9,3.2c-2.3,1-4.7,1.8-7.1,2.6c-4.7,1.6-9.4,3.1-13.5,4.5c-4.1,1.4-7.7,2.9-10.3,4
				c-0.6,0.3-1.2,0.6-1.8,0.9c-5.6,2.7-11.1,5.7-16.3,9.1c-2.6,1.7-5,3.3-7.3,5c-2.3,1.7-4.5,3.4-6.4,5c-1.3,1.2-2.6,2.5-3.8,3.8
				v16.2c0.3-0.1,0.5-0.2,0.5,0c-0.2,0.2-0.3,0.4-0.5,0.5v10C-2468.3,3770.3-2467.4,3769.5-2466.5,3768.6z"/>
			
				<linearGradient id="SVGID_30_" gradientUnits="userSpaceOnUse" x1="-3039.4133" y1="4093.7825" x2="-3038.4133" y2="4093.7825" gradientTransform="matrix(169.5139 0 0 -144.2395 512785.6875 594189.9375)">
				<stop  offset="0" style="stop-color:#FC6327"/>
				<stop  offset="0.64" style="stop-color:#CE370F"/>
			</linearGradient>
			<path class="st32" d="M-2396.9,3774.3c-0.2-0.4-1.3-0.3-0.1-1.3c1.9-1.3,3.8-2.3,5.9-3.2c2.1-0.8,4.1-1.8,6-3.1l-0.1-0.8
				c3.4-1.6,7.1-3.1,10.8-4.8c6.5-3.7,12.9-7.4,19.4-11.2c-0.3-0.1-0.5-0.3,0.1-0.8c2.7-1.8,6.8-3.8,10.9-6.5l1.7-1.3
				c0.2-0.2,0.4-0.6,0.3-0.9c1.8-1.2,3.4-2.3,4.9-3.4c4.6-4,8.7-8.5,12.4-13.4c3.5-4.8,6.8-9.8,9.6-15.1
				c5.7-10.3,10.2-20.7,16.2-30.6c2.2-4.3,4.8-8.4,7.9-12.1c1.2-1.3,2.5-2.6,3.9-3.9l2.2-1.9l1.1-1l1.2-0.9c1.6-1.2,3.1-2.4,4.7-3.5
				l2.3-1.6l2.2-1.4c-0.6-0.4-0.2-1.4,0.7-2.6c1.1-1.4,2.3-2.8,3.6-4c0.4-0.4,0.9-0.9,1.3-1.3v-11.1h-5.2c-3.6,2-7.1,4.2-10.5,6.5
				c-8.2,5.6-15.7,12.3-22.3,19.8c-3.2,3.8-6.3,7.7-9.1,11.9c-2.7,4-5.3,8.1-7.7,12.1c-1.4,2.8-5,9.6-10,17.5
				c-2.6,4.2-5.6,8.2-8.9,11.9c-0.8,1-1.8,1.9-2.7,2.9s-1.9,1.9-2.9,2.8c-2.1,1.8-4.2,3.6-6.5,5.2c-2.3,1.7-4.7,3.3-7.2,4.8
				c-1.3,0.8-2.5,1.5-3.8,2.3l-3.9,2.2l-15.6,8.5c-9.8,5.4-18.1,10-22.9,12.8l-1.7,1.1c-5.6,3.3-11,7-16.2,10.9
				c-2.7,1.9-5.1,4.1-7.5,6.1c-1.9,1.7-3.7,3.4-5.3,5.1h36.1C-2399.7,3776.1-2398.3,3775.2-2396.9,3774.3z"/>
			<path class="st9" d="M-2091.3,3642c0-48.7-39.5-88.2-88.2-88.2c0,0,0,0,0,0v88.2H-2091.3z"/>
			<path class="st10" d="M-2179.5,3553.9c-48.7,0-88.2,39.5-88.2,88.2c0,0,0,0,0,0c0,26.3,11.7,51.3,32.1,68l56.1-68L-2179.5,3553.9
				z"/>
			<path class="st11" d="M-2179.5,3642l-56.1,68c15.8,13,35.6,20.2,56.1,20.1c48.7,0,88.2-39.5,88.2-88.2v0L-2179.5,3642z"/>
			
				<linearGradient id="SVGID_31_" gradientUnits="userSpaceOnUse" x1="-3038.6658" y1="4094.2905" x2="-3037.6658" y2="4094.2905" gradientTransform="matrix(252.6851 0 0 -218.8269 764254.3125 899350.9375)">
				<stop  offset="0.179" style="stop-color:#CE370F"/>
				<stop  offset="0.593" style="stop-color:#FF7C22"/>
			</linearGradient>
			<path class="st33" d="M-3444.8,3300.6l-126.3,218.8h252.7L-3444.8,3300.6z"/>
			
				<linearGradient id="SVGID_32_" gradientUnits="userSpaceOnUse" x1="-3042.8777" y1="4092.7368" x2="-3041.8777" y2="4092.7368" gradientTransform="matrix(67.124 0 0 -84.7688 200742.8906 350413.4062)">
				<stop  offset="0" style="stop-color:#FC6327"/>
				<stop  offset="0.64" style="stop-color:#CE370F"/>
			</linearGradient>
			<path class="st34" d="M-3447.3,3462.3c2.3-2.6,4.7-5.1,7.1-7.4v-20.2c-10.1,7.9-20.6,16.1-30.9,25.8c-2.1,2.5-7.7,8-14.1,16.6
				c-3.5,4.7-6.7,9.8-9.4,15c-2.9,5.6-5.4,11.4-7.8,16.9c-1.2,2.8-2.4,5.4-3.7,8c-0.4,0.8-0.9,1.7-1.3,2.5h23.6l0.1-0.3
				c0.1-0.3,0-0.6-0.2-0.9c0.8-1.8,1.6-3.3,2.3-4.7c1.8-4.9,3.5-9.6,5.6-14c2.1-4.5,4.6-8.8,7.4-12.9
				C-3462.9,3478.2-3455.6,3470.2-3447.3,3462.3z"/>
			
				<linearGradient id="SVGID_33_" gradientUnits="userSpaceOnUse" x1="-3058.2612" y1="4088.2222" x2="-3057.2612" y2="4088.2222" gradientTransform="matrix(18.23 0 0 -30.4929 52293.625 128165.9922)">
				<stop  offset="0" style="stop-color:#FC6327"/>
				<stop  offset="0.64" style="stop-color:#CE370F"/>
			</linearGradient>
			<path class="st35" d="M-3441,3489.9c-3.7,4.6-7,9.5-9.9,14.7c-2.8,4.9-5.2,10-7.5,14.9h18.2v-30.5
				C-3440.4,3489.2-3440.7,3489.6-3441,3489.9z"/>
			
				<linearGradient id="SVGID_34_" gradientUnits="userSpaceOnUse" x1="-3043.7717" y1="4090.8093" x2="-3042.7717" y2="4090.8093" gradientTransform="matrix(58.0718 0 0 -48.167 173115.4219 200441.2344)">
				<stop  offset="0" style="stop-color:#FC6327"/>
				<stop  offset="0.64" style="stop-color:#CE370F"/>
			</linearGradient>
			<path class="st36" d="M-3641.8,3423.3c2-0.5,4-1.3,5.8-2.3c0-0.3,0-0.6,0.1-0.9c2-0.8,4.1-1.6,6.2-2.5c2.1-0.9,4.2-2,6.3-3
				c7.1-4.6,13.7-9.9,19.6-15.9c-0.3-0.1-0.6-0.2-0.1-0.8c1.2-1.2,2.6-2.6,4.2-4.1s3.3-3.1,5-4.8l1.3-1.6c0.2-0.3,0.2-0.6,0.1-1
				l4-4.1c1.9-2.4,3.7-4.8,5.5-7.1h-27.2c-7.5,7.9-15.3,15.1-22.9,19.8c-2.2,1.3-4.3,2.6-6.3,3.7c-0.6,0.3-1.1,0.5-1.6,0.8V3423.3z"
				/>
			
				<linearGradient id="SVGID_35_" gradientUnits="userSpaceOnUse" x1="-3058.6709" y1="4092.9265" x2="-3057.6709" y2="4092.9265" gradientTransform="matrix(104.2004 0 0 -91.6216 313214.7188 378421.375)">
				<stop  offset="0" style="stop-color:#FC6327"/>
				<stop  offset="0.64" style="stop-color:#CE370F"/>
			</linearGradient>
			<path class="st37" d="M-3620.7,3454.1c1.9-1.4,4-2.5,6.1-3.5c2.1-1,4.2-2.2,6.1-3.7l-0.1-0.8c3.3-2.1,6.9-4,10.4-6.5
				c3-2.4,5.9-5.1,8.7-7.7c1.4-1.3,2.7-2.8,4.1-4.1l2-2.1c0.7-0.7,1.3-1.5,1.9-2.2c-0.3,0-0.6-0.1-0.1-0.8c1-1.3,2.3-2.6,3.8-4.2
				c1.4-1.5,2.9-3.2,4.4-4.9l1.1-1.6c0.1-0.3,0.1-0.6,0-0.9c1.3-1.5,2.4-2.8,3.4-4c3-4.3,5.8-8.4,8.9-12.1
				c3.2-3.8,6.6-7.4,10.3-10.6c3.8-3.3,7.8-6.4,12-9.3h-30.5c-2.7,2.4-5.4,5.1-8,8c-4.2,4.7-8,9.7-11.8,14.4
				c-1.9,2.4-3.7,4.7-5.5,6.8c-1.9,2.1-3.8,4.2-5.7,6.2c-3.8,3.8-7.7,7.4-11.9,10.8c-2,1.6-3.8,3.1-5.7,4.4
				c-1.9,1.3-3.6,2.7-5.3,3.8l-4.6,3l-3.8,2.3l-1.5,1c-3.1,1.9-6.5,3.8-9.9,5.8v25.2c7.2-3.5,14.3-7.2,21.2-11.4
				C-3620.8,3455-3621.9,3455.1-3620.7,3454.1z"/>
			
				<linearGradient id="SVGID_36_" gradientUnits="userSpaceOnUse" x1="-3039.4065" y1="4093.7195" x2="-3038.4065" y2="4093.7195" gradientTransform="matrix(170.0186 0 0 -138.3845 513113.6875 569951.75)">
				<stop  offset="0" style="stop-color:#FC6327"/>
				<stop  offset="0.64" style="stop-color:#CE370F"/>
			</linearGradient>
			<path class="st38" d="M-3639.1,3511.1c4.4-5.1,11.1-9.8,18.3-14.2c3.6-2.2,7.5-4.5,11.2-6.6c3.7-2.1,7.3-4.1,11-5.8
				c-0.2-0.4-1.2-0.5,0-1.3c3.6-2.2,7.2-1.9,11.2-3.8l0.1-0.8c3.3-0.8,7-1.6,10.9-2.5c3.4-1.2,7-2.6,10.6-4.2
				c0.9-0.4,1.8-0.8,2.7-1.2l2.6-1.4c1.8-0.9,3.4-1.9,5.1-2.9c-0.3-0.1-0.5-0.3,0.1-0.8c1.3-0.9,3-1.9,4.8-2.9
				c1.8-1.1,3.7-2.2,5.6-3.6c0.5-0.4,1-0.9,1.6-1.3c0.2-0.3,0.3-0.6,0.2-0.9c1.6-1.2,3.1-2.2,4.5-3.3c7.9-7.5,15.2-15.7,21.7-24.4
				c6.7-8.6,12.9-17.4,19.7-26.3c2.5-3.9,5.3-7.7,8.4-11.2c2.5-2.6,5.2-5.1,8-7.4c2.9-2.4,5.9-4.6,8.5-6.4c-0.6-0.4-0.3-1.3,0.4-2.6
				c0.1-0.1,0.1-0.2,0.2-0.3h-22.2c-9.8,9-18.3,18.9-26.6,28.5c-1.7,2.4-6.1,8-12.1,14.8c-6.7,7.8-14.2,15-22.3,21.5
				c-4.2,3.3-8.7,6.2-13.4,8.7c-2.3,1.2-4.6,2.3-6.9,3.2s-4.7,1.8-7.1,2.6c-4.7,1.6-9.4,3.1-13.5,4.5c-4.1,1.4-7.7,2.9-10.3,4
				c-0.6,0.3-1.2,0.6-1.8,0.9c-5.6,2.7-11.1,5.7-16.3,9.1c-2.6,1.7-5,3.3-7.3,5c-2.3,1.7-4.5,3.4-6.4,5c-1.3,1.2-2.6,2.5-3.8,3.8
				v16.2c0.3-0.1,0.5-0.2,0.5,0c-0.2,0.2-0.3,0.4-0.5,0.5v10C-3640.9,3512.8-3639.9,3512-3639.1,3511.1z"/>
			
				<linearGradient id="SVGID_37_" gradientUnits="userSpaceOnUse" x1="-3039.4133" y1="4093.7825" x2="-3038.4133" y2="4093.7825" gradientTransform="matrix(169.5139 0 0 -144.2415 511613.1562 593940.4375)">
				<stop  offset="0" style="stop-color:#FC6327"/>
				<stop  offset="0.64" style="stop-color:#CE370F"/>
			</linearGradient>
			<path class="st39" d="M-3569.5,3516.8c-0.2-0.4-1.3-0.3-0.1-1.3c1.9-1.3,3.8-2.3,5.9-3.2c2.1-0.8,4.1-1.8,6-3.1l-0.1-0.8
				c3.4-1.6,7.1-3.1,10.8-4.8c6.5-3.7,12.9-7.4,19.4-11.2c-0.3-0.1-0.5-0.3,0.1-0.8c2.7-1.8,6.8-3.8,10.9-6.5l1.7-1.3
				c0.2-0.2,0.4-0.6,0.3-0.9c1.8-1.2,3.4-2.3,4.9-3.4c4.6-4,8.7-8.5,12.4-13.4c3.5-4.8,6.8-9.8,9.6-15.1
				c5.7-10.3,10.2-20.7,16.2-30.6c2.2-4.3,4.8-8.4,7.9-12.1c1.2-1.3,2.5-2.6,3.9-3.9l2.2-1.9l1.1-1l1.2-0.9c1.6-1.2,3.1-2.4,4.7-3.5
				l2.3-1.6l2.2-1.4c-0.6-0.4-0.2-1.4,0.7-2.6c1.1-1.4,2.3-2.8,3.6-4c0.4-0.4,0.9-0.9,1.3-1.3v-11.1h-5.2c-3.6,2-7.1,4.2-10.5,6.5
				c-8.2,5.6-15.7,12.3-22.3,19.8c-3.2,3.8-6.3,7.7-9.1,11.9c-2.7,4-5.3,8.1-7.7,12.1c-1.4,2.8-5,9.6-10,17.5
				c-2.6,4.2-5.6,8.2-8.9,11.9c-0.8,1-1.8,1.9-2.7,2.9s-1.9,1.9-2.9,2.8c-2.1,1.8-4.2,3.6-6.5,5.2c-2.3,1.7-4.7,3.3-7.2,4.8
				c-1.3,0.8-2.5,1.5-3.8,2.3l-3.9,2.2l-15.6,8.5c-9.8,5.4-18.1,10-22.9,12.8l-1.7,1.1c-5.6,3.3-11,7-16.2,10.9
				c-2.7,1.9-5.1,4.1-7.5,6.1c-1.9,1.7-3.7,3.4-5.3,5.1h36.1C-3572.2,3518.5-3570.8,3517.7-3569.5,3516.8z"/>
			<path class="st9" d="M-3263.8,3384.5c0-48.7-39.5-88.2-88.2-88.2v88.2H-3263.8z"/>
			<path class="st10" d="M-3352,3296.3c-48.7,0-88.2,39.5-88.2,88.2c0,0,0,0,0,0c0,26.3,11.7,51.3,32.1,68l56.1-68L-3352,3296.3z"/>
			<path class="st11" d="M-3352,3384.5l-56.1,68c15.8,13,35.6,20.2,56.1,20.1c48.7,0,88.2-39.5,88.2-88.2v0H-3352z"/>
			
				<linearGradient id="SVGID_38_" gradientUnits="userSpaceOnUse" x1="-3038.6658" y1="4094.2905" x2="-3037.6658" y2="4094.2905" gradientTransform="matrix(252.6851 0 0 -218.8269 764748 899350.9375)">
				<stop  offset="0.179" style="stop-color:#CE370F"/>
				<stop  offset="0.593" style="stop-color:#FF7C22"/>
			</linearGradient>
			<path class="st40" d="M-2951.1,3300.6l-126.3,218.8h252.7L-2951.1,3300.6z"/>
			
				<linearGradient id="SVGID_39_" gradientUnits="userSpaceOnUse" x1="-3042.8779" y1="4092.7368" x2="-3041.8779" y2="4092.7368" gradientTransform="matrix(67.123 0 0 -84.7688 201233.5781 350413.4062)">
				<stop  offset="0" style="stop-color:#FC6327"/>
				<stop  offset="0.64" style="stop-color:#CE370F"/>
			</linearGradient>
			<path class="st41" d="M-2953.7,3462.3c2.3-2.6,4.7-5.1,7.1-7.4v-20.2c-10.1,7.9-20.6,16.1-30.9,25.8c-2.1,2.5-7.7,8-14.1,16.6
				c-3.5,4.7-6.7,9.8-9.4,15c-2.9,5.6-5.4,11.4-7.8,16.9c-1.2,2.8-2.4,5.4-3.7,8c-0.4,0.8-0.9,1.7-1.3,2.5h23.6l0.1-0.3
				c0.1-0.3,0-0.6-0.2-0.9c0.8-1.8,1.6-3.3,2.3-4.7c1.8-4.9,3.5-9.6,5.6-14c2.1-4.5,4.6-8.8,7.3-12.9
				C-2969.2,3478.2-2961.9,3470.2-2953.7,3462.3z"/>
			
				<linearGradient id="SVGID_40_" gradientUnits="userSpaceOnUse" x1="-3058.2622" y1="4088.2222" x2="-3057.2622" y2="4088.2222" gradientTransform="matrix(18.229 0 0 -30.4929 52784.3125 128165.9922)">
				<stop  offset="0" style="stop-color:#FC6327"/>
				<stop  offset="0.64" style="stop-color:#CE370F"/>
			</linearGradient>
			<path class="st42" d="M-2947.3,3489.9c-3.7,4.6-7,9.5-9.9,14.7c-2.8,4.9-5.2,10-7.5,14.9h18.2v-30.5
				C-2946.8,3489.2-2947.1,3489.6-2947.3,3489.9z"/>
			
				<linearGradient id="SVGID_41_" gradientUnits="userSpaceOnUse" x1="-3043.7717" y1="4090.8093" x2="-3042.7717" y2="4090.8093" gradientTransform="matrix(58.072 0 0 -48.167 173609.8125 200441.2344)">
				<stop  offset="0" style="stop-color:#FC6327"/>
				<stop  offset="0.64" style="stop-color:#CE370F"/>
			</linearGradient>
			<path class="st43" d="M-3148.2,3423.3c2-0.5,4-1.3,5.8-2.3c0-0.3,0-0.6,0.1-0.9c2-0.8,4.1-1.6,6.2-2.5c2.1-0.9,4.2-2,6.3-3
				c7.1-4.6,13.7-9.9,19.6-15.9c-0.3-0.1-0.6-0.2-0.1-0.8c1.2-1.2,2.6-2.6,4.2-4.1s3.3-3.1,5-4.8l1.3-1.6c0.2-0.3,0.2-0.6,0.1-1
				c1.5-1.5,2.8-2.9,4-4.1c1.9-2.4,3.7-4.8,5.5-7.1h-27.2c-7.5,7.9-15.3,15.1-22.9,19.8c-2.2,1.3-4.3,2.6-6.3,3.7
				c-0.6,0.3-1.1,0.5-1.6,0.8L-3148.2,3423.3z"/>
			
				<linearGradient id="SVGID_42_" gradientUnits="userSpaceOnUse" x1="-3058.6709" y1="4092.9265" x2="-3057.6709" y2="4092.9265" gradientTransform="matrix(104.1995 0 0 -91.6216 313705.4062 378421.375)">
				<stop  offset="0" style="stop-color:#FC6327"/>
				<stop  offset="0.64" style="stop-color:#CE370F"/>
			</linearGradient>
			<path class="st44" d="M-3127,3454.1c1.9-1.4,4-2.5,6.1-3.5c2.1-1,4.2-2.2,6.1-3.7l-0.1-0.8c3.3-2.1,6.9-4,10.4-6.5
				c3-2.4,5.9-5.1,8.7-7.7c1.4-1.3,2.7-2.8,4.1-4.1l2-2.1c0.7-0.7,1.3-1.5,1.9-2.2c-0.3,0-0.6-0.1-0.1-0.8c1-1.3,2.3-2.6,3.8-4.2
				c1.4-1.5,2.9-3.2,4.4-4.9l1.1-1.6c0.1-0.3,0.1-0.6,0-0.9c1.3-1.5,2.4-2.8,3.4-4c3-4.3,5.8-8.4,8.9-12.1
				c3.2-3.8,6.6-7.4,10.3-10.6c3.8-3.3,7.8-6.4,12-9.3h-30.5c-2.7,2.4-5.4,5.1-8,8c-4.2,4.7-8,9.7-11.8,14.4
				c-1.9,2.4-3.7,4.7-5.5,6.8c-1.9,2.1-3.8,4.2-5.7,6.2c-3.8,3.8-7.7,7.4-11.9,10.8c-2,1.6-3.8,3.1-5.7,4.4
				c-1.9,1.3-3.6,2.7-5.3,3.8l-4.6,3l-3.8,2.3l-1.5,1c-3.1,1.9-6.5,3.8-9.9,5.8v25.2c7.2-3.5,14.3-7.2,21.2-11.4
				C-3127.2,3455-3128.3,3455.1-3127,3454.1z"/>
			
				<linearGradient id="SVGID_43_" gradientUnits="userSpaceOnUse" x1="-3039.4065" y1="4093.7195" x2="-3038.4065" y2="4093.7195" gradientTransform="matrix(170.0269 0 0 -138.3845 513632.5625 569951.75)">
				<stop  offset="0" style="stop-color:#FC6327"/>
				<stop  offset="0.64" style="stop-color:#CE370F"/>
			</linearGradient>
			<path class="st45" d="M-3145.4,3511.1c4.4-5.1,11.1-9.8,18.3-14.2c3.6-2.2,7.5-4.5,11.2-6.6c3.7-2.1,7.3-4.1,11-5.8
				c-0.2-0.4-1.2-0.5,0-1.3c3.6-2.2,7.2-1.9,11.2-3.8l0.1-0.8c3.3-0.8,7-1.6,10.9-2.5c3.4-1.2,7-2.6,10.6-4.2
				c0.9-0.4,1.8-0.8,2.7-1.2l2.6-1.4c1.8-0.9,3.4-1.9,5.1-2.9c-0.3-0.1-0.5-0.3,0.1-0.8c1.3-0.9,3-1.9,4.8-2.9
				c1.8-1.1,3.7-2.2,5.6-3.6l1.6-1.3c0.2-0.3,0.3-0.6,0.2-0.9c1.6-1.2,3.1-2.2,4.5-3.3c7.9-7.5,15.2-15.7,21.7-24.4
				c6.7-8.6,12.9-17.4,19.7-26.3c2.5-3.9,5.3-7.7,8.4-11.2c2.5-2.6,5.2-5.1,8-7.4c2.9-2.4,5.9-4.6,8.5-6.4c-0.6-0.4-0.3-1.3,0.4-2.6
				c0.1-0.1,0.1-0.2,0.2-0.3h-22.2c-9.8,9-18.3,18.9-26.6,28.5c-1.7,2.4-6.1,8-12.1,14.8c-6.7,7.8-14.2,15-22.3,21.5
				c-4.2,3.3-8.7,6.2-13.4,8.7c-2.3,1.2-4.6,2.3-6.9,3.2s-4.7,1.8-7.1,2.6c-4.7,1.6-9.4,3.1-13.5,4.5c-4.1,1.4-7.7,2.9-10.3,4
				c-0.6,0.3-1.2,0.6-1.8,0.9c-5.6,2.7-11.1,5.7-16.3,9.1c-2.6,1.7-5,3.3-7.3,5c-2.3,1.7-4.5,3.4-6.4,5c-1.3,1.2-2.6,2.5-3.8,3.8
				v16.2c0.3-0.1,0.5-0.2,0.5,0c-0.2,0.2-0.3,0.4-0.5,0.5v10C-3147.2,3512.8-3146.3,3512-3145.4,3511.1z"/>
			
				<linearGradient id="SVGID_44_" gradientUnits="userSpaceOnUse" x1="-3039.4133" y1="4093.7825" x2="-3038.4133" y2="4093.7825" gradientTransform="matrix(169.5137 0 0 -144.2415 512106.0625 593940.4375)">
				<stop  offset="0" style="stop-color:#FC6327"/>
				<stop  offset="0.64" style="stop-color:#CE370F"/>
			</linearGradient>
			<path class="st46" d="M-3075.8,3516.8c-0.2-0.4-1.3-0.3-0.1-1.3c1.9-1.3,3.8-2.3,5.9-3.2c2.1-0.8,4.1-1.8,6-3.1l-0.1-0.8
				c3.4-1.6,7.1-3.1,10.8-4.8c6.5-3.7,12.9-7.4,19.4-11.2c-0.3-0.1-0.5-0.3,0.1-0.8c2.7-1.8,6.8-3.8,10.9-6.5l1.7-1.3
				c0.2-0.2,0.4-0.6,0.3-0.9c1.8-1.2,3.4-2.3,4.9-3.4c4.6-4,8.7-8.5,12.4-13.4c3.5-4.8,6.8-9.8,9.6-15.1
				c5.7-10.3,10.2-20.7,16.2-30.6c2.2-4.3,4.8-8.4,7.9-12.1c1.2-1.3,2.5-2.6,3.9-3.9c0.7-0.6,1.5-1.3,2.2-1.9l1.1-1l1.2-0.9
				c1.6-1.2,3.1-2.4,4.7-3.5l2.3-1.6l2.2-1.4c-0.6-0.4-0.2-1.4,0.7-2.6c1.1-1.4,2.3-2.8,3.6-4c0.4-0.4,0.9-0.9,1.3-1.3v-11.1h-5.2
				c-3.6,2-7.1,4.2-10.5,6.5c-8.2,5.6-15.7,12.3-22.3,19.8c-3.2,3.8-6.3,7.7-9.1,11.9c-2.7,4-5.3,8.1-7.7,12.1
				c-1.4,2.8-5,9.6-10,17.5c-2.6,4.2-5.6,8.2-8.9,11.9c-0.8,1-1.8,1.9-2.7,2.9s-1.9,1.9-2.9,2.8c-2.1,1.8-4.2,3.6-6.5,5.2
				c-2.3,1.7-4.7,3.3-7.2,4.8c-1.3,0.8-2.5,1.5-3.8,2.3l-3.9,2.2l-15.6,8.5c-9.8,5.4-18.1,10-22.9,12.8l-1.7,1.1
				c-5.6,3.3-11,7-16.2,10.9c-2.7,1.9-5.1,4.1-7.5,6.1c-1.9,1.7-3.7,3.4-5.3,5.1h36.1C-3078.5,3518.5-3077.2,3517.7-3075.8,3516.8z"
				/>
			<path class="st9" d="M-2770.2,3384.5c0-48.7-39.5-88.2-88.2-88.2c0,0,0,0,0,0v88.2H-2770.2z"/>
			<path class="st10" d="M-2858.4,3296.3c-48.7,0-88.2,39.5-88.2,88.2c0,0,0,0,0,0c0,26.3,11.7,51.3,32.1,68l56.1-68V3296.3z"/>
			<path class="st11" d="M-2858.4,3384.5l-56.1,68c15.8,13,35.6,20.2,56.1,20.1c48.7,0,88.2-39.5,88.2-88.2v0L-2858.4,3384.5z"/>
			
				<linearGradient id="SVGID_45_" gradientUnits="userSpaceOnUse" x1="-3038.6658" y1="4094.2905" x2="-3037.6658" y2="4094.2905" gradientTransform="matrix(252.6851 0 0 -218.8269 765248.5 899350.9375)">
				<stop  offset="0.179" style="stop-color:#CE370F"/>
				<stop  offset="0.593" style="stop-color:#FF7C22"/>
			</linearGradient>
			<path class="st47" d="M-2450.6,3300.6l-126.3,218.8h252.7L-2450.6,3300.6z"/>
			
				<linearGradient id="SVGID_46_" gradientUnits="userSpaceOnUse" x1="-3042.8777" y1="4092.7368" x2="-3041.8777" y2="4092.7368" gradientTransform="matrix(67.124 0 0 -84.7688 201737.0469 350413.4062)">
				<stop  offset="0" style="stop-color:#FC6327"/>
				<stop  offset="0.64" style="stop-color:#CE370F"/>
			</linearGradient>
			<path class="st48" d="M-2453.2,3462.3c2.3-2.6,4.7-5.1,7.1-7.4v-20.2c-10.1,7.9-20.6,16.1-30.9,25.8c-2.1,2.5-7.7,8-14.1,16.6
				c-3.5,4.7-6.7,9.8-9.4,15c-2.9,5.6-5.4,11.4-7.8,16.9c-1.2,2.8-2.4,5.4-3.7,8c-0.4,0.8-0.9,1.7-1.3,2.5h23.6
				c0-0.1,0.1-0.2,0.1-0.3c0.1-0.3,0-0.6-0.3-0.9c0.8-1.8,1.6-3.3,2.3-4.7c1.8-4.9,3.5-9.6,5.6-14c2.1-4.5,4.6-8.8,7.4-12.9
				C-2468.7,3478.2-2461.4,3470.2-2453.2,3462.3z"/>
			
				<linearGradient id="SVGID_47_" gradientUnits="userSpaceOnUse" x1="-3058.2612" y1="4088.2222" x2="-3057.2612" y2="4088.2222" gradientTransform="matrix(18.23 0 0 -30.4929 53287.7852 128165.9922)">
				<stop  offset="0" style="stop-color:#FC6327"/>
				<stop  offset="0.64" style="stop-color:#CE370F"/>
			</linearGradient>
			<path class="st49" d="M-2446.8,3489.9c-3.7,4.6-7,9.5-9.9,14.7c-2.8,4.9-5.2,10-7.5,14.9h18.2v-30.5
				C-2446.3,3489.2-2446.6,3489.6-2446.8,3489.9z"/>
			
				<linearGradient id="SVGID_48_" gradientUnits="userSpaceOnUse" x1="-3043.772" y1="4090.8093" x2="-3042.772" y2="4090.8093" gradientTransform="matrix(58.0708 0 0 -48.167 174106.6094 200441.2344)">
				<stop  offset="0" style="stop-color:#FC6327"/>
				<stop  offset="0.64" style="stop-color:#CE370F"/>
			</linearGradient>
			<path class="st50" d="M-2647.7,3423.3c2-0.5,4-1.3,5.8-2.3c0-0.3,0-0.6,0.1-0.9c2-0.8,4.1-1.6,6.2-2.5c2.1-0.9,4.2-2,6.3-3
				c7.1-4.6,13.7-9.9,19.6-15.9c-0.3-0.1-0.6-0.2-0.1-0.8c1.2-1.2,2.6-2.6,4.2-4.1s3.3-3.1,5-4.8l1.3-1.6c0.2-0.3,0.2-0.6,0.1-1
				l4-4.1c1.9-2.4,3.7-4.8,5.5-7.1h-27.2c-7.5,7.9-15.3,15.1-22.9,19.8c-2.2,1.3-4.3,2.6-6.3,3.7c-0.6,0.3-1.1,0.5-1.6,0.8V3423.3z"
				/>
			
				<linearGradient id="SVGID_49_" gradientUnits="userSpaceOnUse" x1="-3058.6709" y1="4092.9265" x2="-3057.6709" y2="4092.9265" gradientTransform="matrix(104.1992 0 0 -91.6216 314205.1562 378421.375)">
				<stop  offset="0" style="stop-color:#FC6327"/>
				<stop  offset="0.64" style="stop-color:#CE370F"/>
			</linearGradient>
			<path class="st51" d="M-2626.5,3454.1c1.9-1.4,4-2.5,6.1-3.5c2.1-1,4.2-2.2,6.1-3.7l-0.1-0.8c3.3-2.1,6.9-4,10.4-6.5
				c3-2.4,5.9-5.1,8.7-7.7c1.4-1.3,2.7-2.8,4.1-4.1l2-2.1c0.7-0.7,1.3-1.5,1.9-2.2c-0.3,0-0.6-0.1-0.1-0.8c1-1.3,2.3-2.6,3.8-4.2
				c1.4-1.5,2.9-3.2,4.4-4.9l1.1-1.6c0.1-0.3,0.1-0.6,0-0.9c1.3-1.5,2.4-2.8,3.4-4c3-4.3,5.8-8.4,8.9-12.1
				c3.2-3.8,6.6-7.4,10.3-10.6c3.8-3.3,7.8-6.4,12-9.3h-30.5c-2.7,2.4-5.4,5.1-8,8c-4.2,4.7-8,9.7-11.8,14.4
				c-1.9,2.4-3.7,4.7-5.5,6.8c-1.9,2.1-3.8,4.2-5.7,6.2c-3.8,3.8-7.7,7.4-11.9,10.8c-2,1.6-3.8,3.1-5.7,4.4
				c-1.9,1.3-3.6,2.7-5.3,3.8l-4.6,3l-3.8,2.3l-1.5,1c-3.1,1.9-6.5,3.8-9.9,5.8v25.2c7.2-3.5,14.3-7.2,21.2-11.4
				C-2626.7,3455-2627.8,3455.1-2626.5,3454.1z"/>
			
				<linearGradient id="SVGID_50_" gradientUnits="userSpaceOnUse" x1="-3039.4065" y1="4093.7195" x2="-3038.4065" y2="4093.7195" gradientTransform="matrix(170.0227 0 0 -138.3845 514120.4688 569951.75)">
				<stop  offset="0" style="stop-color:#FC6327"/>
				<stop  offset="0.64" style="stop-color:#CE370F"/>
			</linearGradient>
			<path class="st52" d="M-2644.9,3511.1c4.4-5.1,11.1-9.8,18.3-14.2c3.6-2.2,7.5-4.5,11.2-6.6c3.7-2.1,7.3-4.1,11-5.8
				c-0.2-0.4-1.2-0.5,0-1.3c3.6-2.2,7.2-1.9,11.2-3.8l0.1-0.8c3.3-0.8,7-1.6,10.9-2.5c3.4-1.2,7-2.6,10.6-4.2
				c0.9-0.4,1.8-0.8,2.7-1.2l2.6-1.4c1.8-0.9,3.4-1.9,5.1-2.9c-0.3-0.1-0.5-0.3,0.1-0.8c1.3-0.9,3-1.9,4.8-2.9
				c1.8-1.1,3.7-2.2,5.6-3.6l1.6-1.3c0.2-0.3,0.3-0.6,0.2-0.9c1.6-1.2,3.1-2.2,4.5-3.3c7.9-7.5,15.2-15.7,21.7-24.4
				c6.7-8.6,12.9-17.4,19.7-26.3c2.5-3.9,5.3-7.7,8.4-11.2c2.5-2.6,5.2-5.1,8-7.4c2.9-2.4,5.9-4.6,8.5-6.4c-0.6-0.4-0.3-1.3,0.4-2.6
				c0.1-0.1,0.1-0.2,0.2-0.3h-22.2c-9.8,9-18.3,18.9-26.6,28.5c-1.7,2.4-6.1,8-12.1,14.8c-6.7,7.8-14.2,15-22.3,21.5
				c-4.2,3.3-8.7,6.2-13.4,8.7c-2.3,1.2-4.6,2.3-6.9,3.2s-4.7,1.8-7.1,2.6c-4.7,1.6-9.4,3.1-13.5,4.5c-4.1,1.4-7.7,2.9-10.3,4
				c-0.6,0.3-1.2,0.6-1.8,0.9c-5.6,2.7-11.1,5.7-16.3,9.1c-2.6,1.7-5,3.3-7.3,5c-2.3,1.7-4.5,3.4-6.4,5c-1.3,1.2-2.6,2.5-3.8,3.8
				v16.2c0.3-0.1,0.5-0.2,0.5,0c-0.2,0.2-0.3,0.4-0.5,0.5v10C-2646.7,3512.8-2645.8,3512-2644.9,3511.1z"/>
			
				<linearGradient id="SVGID_51_" gradientUnits="userSpaceOnUse" x1="-3039.4133" y1="4093.7825" x2="-3038.4133" y2="4093.7825" gradientTransform="matrix(169.5129 0 0 -144.2415 512604.3438 593940.4375)">
				<stop  offset="0" style="stop-color:#FC6327"/>
				<stop  offset="0.64" style="stop-color:#CE370F"/>
			</linearGradient>
			<path class="st53" d="M-2575.3,3516.8c-0.2-0.4-1.3-0.3-0.1-1.3c1.9-1.3,3.8-2.3,5.9-3.2c2.1-0.8,4.1-1.8,6-3.1l-0.1-0.8
				c3.4-1.6,7.1-3.1,10.8-4.8c6.5-3.7,12.9-7.4,19.4-11.2c-0.3-0.1-0.5-0.3,0.1-0.8c2.7-1.8,6.8-3.8,10.9-6.5l1.7-1.3
				c0.2-0.2,0.4-0.6,0.3-0.9c1.8-1.2,3.4-2.3,4.9-3.4c4.6-4,8.7-8.5,12.4-13.4c3.5-4.8,6.8-9.8,9.6-15.1
				c5.7-10.3,10.2-20.7,16.2-30.6c2.2-4.3,4.8-8.4,7.9-12.1c1.2-1.3,2.5-2.6,3.9-3.9l2.2-1.9l1.1-1l1.2-0.9c1.6-1.2,3.1-2.4,4.7-3.5
				l2.3-1.6l2.2-1.4c-0.6-0.4-0.2-1.4,0.7-2.6c1.1-1.4,2.3-2.8,3.6-4c0.4-0.4,0.9-0.9,1.3-1.3v-11.1h-5.2c-3.6,2-7.1,4.2-10.5,6.5
				c-8.2,5.6-15.7,12.3-22.3,19.8c-3.2,3.8-6.3,7.7-9.1,11.9c-2.7,4-5.3,8.1-7.7,12.1c-1.4,2.8-5,9.6-10,17.5
				c-2.6,4.2-5.6,8.2-8.9,11.9c-0.8,1-1.8,1.9-2.7,2.9s-1.9,1.9-2.9,2.8c-2.1,1.8-4.2,3.6-6.5,5.2c-2.3,1.7-4.7,3.3-7.2,4.8
				c-1.3,0.8-2.5,1.5-3.8,2.3l-3.9,2.2l-15.6,8.5c-9.8,5.4-18.1,10-22.9,12.8l-1.7,1.1c-5.6,3.3-11,7-16.2,10.9
				c-2.7,1.9-5.1,4.1-7.5,6.1c-1.9,1.7-3.7,3.4-5.3,5.1h36.1C-2578,3518.5-2576.7,3517.7-2575.3,3516.8z"/>
			<path class="st9" d="M-2269.7,3384.5c0-48.7-39.5-88.2-88.2-88.2c0,0,0,0,0,0v88.2H-2269.7z"/>
			<path class="st10" d="M-2357.8,3296.3c-48.7,0-88.2,39.5-88.2,88.2c0,26.3,11.7,51.3,32.1,68l56.1-68L-2357.8,3296.3z"/>
			<path class="st11" d="M-2357.8,3384.5l-56.1,68c15.8,13,35.6,20.2,56.1,20.1c48.7,0,88.2-39.5,88.2-88.2c0,0,0,0,0,0
				L-2357.8,3384.5z"/>
			
				<linearGradient id="SVGID_52_" gradientUnits="userSpaceOnUse" x1="-3038.6658" y1="4094.2905" x2="-3037.6658" y2="4094.2905" gradientTransform="matrix(252.6851 0 0 -218.8269 765736.5 899350.9375)">
				<stop  offset="0.179" style="stop-color:#CE370F"/>
				<stop  offset="0.593" style="stop-color:#FF7C22"/>
			</linearGradient>
			<path class="st54" d="M-1962.6,3300.6l-126.3,218.8h252.7L-1962.6,3300.6z"/>
			
				<linearGradient id="SVGID_53_" gradientUnits="userSpaceOnUse" x1="-3042.8779" y1="4092.7368" x2="-3041.8779" y2="4092.7368" gradientTransform="matrix(67.123 0 0 -84.7688 202222.0781 350413.4062)">
				<stop  offset="0" style="stop-color:#FC6327"/>
				<stop  offset="0.64" style="stop-color:#CE370F"/>
			</linearGradient>
			<path class="st55" d="M-1965.2,3462.3c2.3-2.6,4.7-5.1,7.1-7.4v-20.2c-10.1,7.9-20.6,16.1-30.9,25.8c-2.1,2.5-7.7,8-14.1,16.6
				c-3.5,4.7-6.7,9.8-9.4,15c-2.9,5.6-5.4,11.4-7.8,16.9c-1.2,2.8-2.4,5.4-3.7,8c-0.4,0.8-0.9,1.7-1.3,2.5h23.6l0.1-0.3
				c0.1-0.3,0-0.6-0.3-0.9c0.8-1.8,1.6-3.3,2.3-4.7c1.8-4.9,3.5-9.6,5.6-14c2.1-4.5,4.6-8.8,7.3-12.9
				C-1980.7,3478.2-1973.4,3470.2-1965.2,3462.3z"/>
			
				<linearGradient id="SVGID_54_" gradientUnits="userSpaceOnUse" x1="-3058.2622" y1="4088.2222" x2="-3057.2622" y2="4088.2222" gradientTransform="matrix(18.229 0 0 -30.4929 53772.8125 128165.9922)">
				<stop  offset="0" style="stop-color:#FC6327"/>
				<stop  offset="0.64" style="stop-color:#CE370F"/>
			</linearGradient>
			<path class="st56" d="M-1958.8,3489.9c-3.7,4.6-7,9.5-9.9,14.7c-2.8,4.9-5.2,10-7.5,14.9h18.2v-30.5
				C-1958.3,3489.2-1958.6,3489.6-1958.8,3489.9z"/>
			
				<linearGradient id="SVGID_55_" gradientUnits="userSpaceOnUse" x1="-3043.7717" y1="4090.8093" x2="-3042.7717" y2="4090.8093" gradientTransform="matrix(58.072 0 0 -48.167 174598.3125 200441.2344)">
				<stop  offset="0" style="stop-color:#FC6327"/>
				<stop  offset="0.64" style="stop-color:#CE370F"/>
			</linearGradient>
			<path class="st57" d="M-2159.7,3423.3c2-0.5,4-1.3,5.8-2.3c0-0.3,0-0.6,0.1-0.9c2-0.8,4.1-1.6,6.2-2.5c2.1-0.9,4.2-2,6.3-3
				c7.1-4.6,13.7-9.9,19.6-15.9c-0.3-0.1-0.6-0.2-0.1-0.8c1.2-1.2,2.6-2.6,4.2-4.1s3.3-3.1,5-4.8l1.3-1.6c0.2-0.3,0.2-0.6,0.1-1
				l4-4.1c1.9-2.4,3.7-4.8,5.5-7.1h-27.2c-7.5,7.9-15.3,15.1-22.9,19.8c-2.2,1.3-4.3,2.6-6.3,3.7c-0.6,0.3-1.1,0.5-1.6,0.8
				L-2159.7,3423.3z"/>
			
				<linearGradient id="SVGID_56_" gradientUnits="userSpaceOnUse" x1="-3058.6721" y1="4092.9265" x2="-3057.6721" y2="4092.9265" gradientTransform="matrix(104.1931 0 0 -91.6216 314674.625 378421.375)">
				<stop  offset="0" style="stop-color:#FC6327"/>
				<stop  offset="0.64" style="stop-color:#CE370F"/>
			</linearGradient>
			<path class="st58" d="M-2138.5,3454.1c1.9-1.4,4-2.5,6.1-3.5c2.1-1,4.2-2.2,6.1-3.7l-0.1-0.8c3.3-2.1,6.9-4,10.4-6.5
				c3-2.4,5.9-5.1,8.7-7.7c1.4-1.3,2.7-2.8,4.1-4.1l2-2.1c0.7-0.7,1.3-1.5,1.9-2.2c-0.3,0-0.6-0.1-0.1-0.8c1-1.3,2.3-2.6,3.8-4.2
				c1.4-1.5,2.9-3.2,4.4-4.9l1.1-1.6c0.1-0.3,0.1-0.6,0-0.9c1.3-1.5,2.4-2.8,3.4-4c3-4.3,5.8-8.4,8.9-12.1
				c3.2-3.8,6.6-7.4,10.3-10.6c3.8-3.3,7.8-6.4,12-9.3h-30.5c-2.7,2.4-5.4,5.1-8,8c-4.2,4.7-8,9.7-11.8,14.4
				c-1.9,2.4-3.7,4.7-5.5,6.8c-1.9,2.1-3.8,4.2-5.7,6.2c-3.8,3.8-7.7,7.4-11.9,10.8c-2,1.6-3.8,3.1-5.7,4.4
				c-1.9,1.3-3.6,2.7-5.3,3.8l-4.6,3l-3.8,2.3l-1.5,1c-3.1,1.9-6.5,3.8-9.9,5.8v25.2c7.2-3.5,14.3-7.2,21.2-11.4
				C-2138.7,3455-2139.8,3455.1-2138.5,3454.1z"/>
			
				<linearGradient id="SVGID_57_" gradientUnits="userSpaceOnUse" x1="-3039.4065" y1="4093.7195" x2="-3038.4065" y2="4093.7195" gradientTransform="matrix(170.022 0 0 -138.3845 514606.2188 569951.75)">
				<stop  offset="0" style="stop-color:#FC6327"/>
				<stop  offset="0.64" style="stop-color:#CE370F"/>
			</linearGradient>
			<path class="st59" d="M-2156.9,3511.1c4.4-5.1,11.1-9.8,18.3-14.2c3.6-2.2,7.5-4.5,11.2-6.6c3.7-2.1,7.3-4.1,11-5.8
				c-0.2-0.4-1.2-0.5,0-1.3c3.6-2.2,7.2-1.9,11.2-3.8l0.1-0.8c3.3-0.8,7-1.6,10.9-2.5c3.4-1.2,7-2.6,10.6-4.2
				c0.9-0.4,1.8-0.8,2.7-1.2l2.6-1.4c1.8-0.9,3.4-1.9,5.1-2.9c-0.3-0.1-0.5-0.3,0.1-0.8c1.3-0.9,3-1.9,4.8-2.9
				c1.8-1.1,3.7-2.2,5.6-3.6l1.6-1.3c0.2-0.3,0.3-0.6,0.2-0.9c1.6-1.2,3.1-2.2,4.5-3.3c7.9-7.5,15.2-15.7,21.7-24.4
				c6.7-8.6,12.9-17.4,19.7-26.3c2.5-3.9,5.3-7.7,8.4-11.2c2.5-2.6,5.2-5.1,8-7.4c2.9-2.4,5.9-4.6,8.5-6.4c-0.6-0.4-0.3-1.3,0.4-2.6
				c0.1-0.1,0.1-0.2,0.2-0.3h-22.2c-9.8,9-18.3,18.9-26.6,28.5c-1.7,2.4-6.1,8-12.1,14.8c-6.7,7.8-14.2,15-22.3,21.5
				c-4.2,3.3-8.7,6.2-13.4,8.7c-2.3,1.2-4.6,2.3-6.9,3.2s-4.7,1.8-7.1,2.6c-4.7,1.6-9.4,3.1-13.5,4.5c-4.1,1.4-7.7,2.9-10.3,4
				c-0.6,0.3-1.2,0.6-1.8,0.9c-5.6,2.7-11.1,5.7-16.3,9.1c-2.6,1.7-5,3.3-7.3,5c-2.3,1.7-4.5,3.4-6.4,5c-1.3,1.2-2.6,2.5-3.8,3.8
				v16.2c0.3-0.1,0.5-0.2,0.5,0c-0.2,0.2-0.3,0.4-0.5,0.5v10C-2158.7,3512.8-2157.8,3512-2156.9,3511.1z"/>
			
				<linearGradient id="SVGID_58_" gradientUnits="userSpaceOnUse" x1="-3039.4133" y1="4093.7825" x2="-3038.4133" y2="4093.7825" gradientTransform="matrix(169.5139 0 0 -144.2415 513095.3125 593940.4375)">
				<stop  offset="0" style="stop-color:#FC6327"/>
				<stop  offset="0.64" style="stop-color:#CE370F"/>
			</linearGradient>
			<path class="st60" d="M-2087.3,3516.8c-0.2-0.4-1.3-0.3-0.1-1.3c1.9-1.3,3.8-2.3,5.9-3.2c2.1-0.8,4.1-1.8,6-3.1l-0.1-0.8
				c3.4-1.6,7.1-3.1,10.8-4.8c6.5-3.7,12.9-7.4,19.4-11.2c-0.3-0.1-0.5-0.3,0.1-0.8c2.7-1.8,6.8-3.8,10.9-6.5l1.7-1.3
				c0.2-0.2,0.4-0.6,0.3-0.9c1.8-1.2,3.4-2.3,4.9-3.4c4.6-4,8.7-8.5,12.4-13.4c3.5-4.8,6.8-9.8,9.6-15.1
				c5.7-10.3,10.2-20.7,16.2-30.6c2.2-4.3,4.8-8.4,7.9-12.1c1.2-1.3,2.5-2.6,3.9-3.9c0.7-0.6,1.5-1.3,2.2-1.9l1.1-1l1.2-0.9
				c1.6-1.2,3.1-2.4,4.7-3.5l2.3-1.6l2.2-1.4c-0.6-0.4-0.2-1.4,0.7-2.6c1.1-1.4,2.3-2.8,3.6-4c0.4-0.4,0.9-0.9,1.3-1.3v-11.1h-5.2
				c-3.6,2-7.1,4.2-10.5,6.5c-8.2,5.6-15.7,12.3-22.3,19.8c-3.2,3.8-6.3,7.7-9.1,11.9c-2.7,4-5.3,8.1-7.7,12.1
				c-1.4,2.8-5,9.6-10,17.5c-2.6,4.2-5.6,8.2-8.9,11.9c-0.8,1-1.8,1.9-2.7,2.9s-1.9,1.9-2.9,2.8c-2.1,1.8-4.2,3.6-6.5,5.2
				c-2.3,1.7-4.7,3.3-7.2,4.8c-1.3,0.8-2.5,1.5-3.8,2.3l-3.9,2.2l-15.6,8.5c-9.8,5.4-18.1,10-22.9,12.8l-1.7,1.1
				c-5.6,3.3-11,7-16.2,10.9c-2.7,1.9-5.1,4.1-7.5,6.1c-1.9,1.7-3.7,3.4-5.3,5.1h36.1C-2090,3518.5-2088.7,3517.7-2087.3,3516.8z"/>
			<path class="st9" d="M-1781.7,3384.5c0-48.7-39.5-88.2-88.2-88.2c0,0,0,0,0,0v88.2H-1781.7z"/>
			<path class="st10" d="M-1869.8,3296.3c-48.7,0-88.2,39.5-88.2,88.2c0,0,0,0,0,0c0,26.3,11.7,51.3,32.1,68l56.1-68V3296.3z"/>
			<path class="st11" d="M-1869.8,3384.5l-56.1,68c15.8,13,35.6,20.2,56.1,20.1c48.7,0,88.2-39.5,88.2-88.2L-1869.8,3384.5z"/>
			
				<linearGradient id="SVGID_59_" gradientUnits="userSpaceOnUse" x1="-3038.6658" y1="4094.2905" x2="-3037.6658" y2="4094.2905" gradientTransform="matrix(252.6851 0 0 -218.8318 764254.3125 899885.9375)">
				<stop  offset="0.179" style="stop-color:#CE370F"/>
				<stop  offset="0.593" style="stop-color:#FF7C22"/>
			</linearGradient>
			<path class="st61" d="M-3444.8,3815.6l-126.3,218.8h252.7L-3444.8,3815.6z"/>
			
				<linearGradient id="SVGID_60_" gradientUnits="userSpaceOnUse" x1="-3042.8777" y1="4092.7368" x2="-3041.8777" y2="4092.7368" gradientTransform="matrix(67.124 0 0 -84.7678 200742.8906 350924.4375)">
				<stop  offset="0" style="stop-color:#FC6327"/>
				<stop  offset="0.64" style="stop-color:#CE370F"/>
			</linearGradient>
			<path class="st62" d="M-3447.3,3977.3c2.3-2.6,4.7-5.1,7.1-7.4v-20.2c-10.1,7.9-20.6,16.1-30.9,25.8c-2.1,2.5-7.7,8-14.1,16.6
				c-3.5,4.7-6.7,9.8-9.4,15c-2.9,5.6-5.4,11.4-7.8,16.9c-1.2,2.8-2.4,5.4-3.7,8c-0.4,0.8-0.9,1.7-1.3,2.5h23.6l0.1-0.3
				c0.1-0.3,0-0.6-0.2-0.9c0.8-1.8,1.6-3.3,2.3-4.7c1.8-4.9,3.5-9.6,5.6-14c2.1-4.5,4.6-8.8,7.4-12.9
				C-3462.9,3993.2-3455.6,3985.2-3447.3,3977.3z"/>
			
				<linearGradient id="SVGID_61_" gradientUnits="userSpaceOnUse" x1="-3058.2612" y1="4088.2222" x2="-3057.2612" y2="4088.2222" gradientTransform="matrix(18.23 0 0 -30.4929 52293.625 128681.0156)">
				<stop  offset="0" style="stop-color:#FC6327"/>
				<stop  offset="0.64" style="stop-color:#CE370F"/>
			</linearGradient>
			<path class="st63" d="M-3441,4004.9c-3.7,4.6-7,9.5-9.9,14.7c-2.8,4.9-5.2,10-7.5,14.9h18.2v-30.5
				C-3440.4,4004.3-3440.7,4004.6-3441,4004.9z"/>
			
				<linearGradient id="SVGID_62_" gradientUnits="userSpaceOnUse" x1="-3043.7717" y1="4090.8093" x2="-3042.7717" y2="4090.8093" gradientTransform="matrix(58.0718 0 0 -48.1672 173115.4219 200957.25)">
				<stop  offset="0" style="stop-color:#FC6327"/>
				<stop  offset="0.64" style="stop-color:#CE370F"/>
			</linearGradient>
			<path class="st64" d="M-3641.8,3938.4c2-0.5,4-1.3,5.8-2.3c0-0.3,0-0.6,0.1-0.9c2-0.8,4.1-1.6,6.2-2.5c2.1-0.9,4.2-2,6.3-3
				c7.1-4.6,13.7-9.9,19.6-15.9c-0.3-0.1-0.6-0.2-0.1-0.8c1.2-1.2,2.6-2.6,4.2-4.1s3.3-3.1,5-4.8l1.3-1.6c0.2-0.3,0.2-0.6,0.1-1
				l4-4.1c1.9-2.4,3.7-4.7,5.5-7.1h-27.2c-7.5,7.9-15.3,15.1-22.9,19.8c-2.2,1.3-4.3,2.6-6.3,3.7c-0.6,0.3-1.1,0.5-1.6,0.8V3938.4z"
				/>
			
				<linearGradient id="SVGID_63_" gradientUnits="userSpaceOnUse" x1="-3058.6709" y1="4092.9265" x2="-3057.6709" y2="4092.9265" gradientTransform="matrix(104.2004 0 0 -91.6218 313214.7188 378937.4062)">
				<stop  offset="0" style="stop-color:#FC6327"/>
				<stop  offset="0.64" style="stop-color:#CE370F"/>
			</linearGradient>
			<path class="st65" d="M-3620.7,3969.1c1.9-1.4,4-2.5,6.1-3.5c2.1-1,4.2-2.2,6.1-3.7l-0.1-0.8c3.3-2.1,6.9-4,10.4-6.5
				c3-2.4,5.9-5.1,8.7-7.7c1.4-1.3,2.7-2.8,4.1-4.1l2-2.1c0.7-0.7,1.3-1.5,1.9-2.2c-0.3,0-0.6-0.1-0.1-0.8c1-1.3,2.3-2.6,3.8-4.2
				c1.4-1.5,2.9-3.2,4.4-4.9l1.1-1.6c0.1-0.3,0.1-0.6,0-0.9c1.3-1.5,2.4-2.8,3.4-4c3-4.3,5.8-8.4,8.9-12.1
				c3.2-3.8,6.6-7.4,10.3-10.6c3.8-3.3,7.8-6.4,12-9.3h-30.5c-2.7,2.4-5.4,5.1-8,8c-4.2,4.7-8,9.7-11.8,14.4
				c-1.9,2.4-3.7,4.7-5.5,6.8c-1.9,2.1-3.8,4.2-5.7,6.2c-3.8,3.8-7.7,7.4-11.9,10.8c-2,1.6-3.8,3.1-5.7,4.4
				c-1.9,1.3-3.6,2.7-5.3,3.8l-4.6,3l-3.8,2.3l-1.5,1c-3.1,1.9-6.5,3.8-9.9,5.8v25.2c7.2-3.5,14.3-7.2,21.2-11.4
				C-3620.8,3970-3621.9,3970.1-3620.7,3969.1z"/>
			
				<linearGradient id="SVGID_64_" gradientUnits="userSpaceOnUse" x1="-3039.4065" y1="4093.7195" x2="-3038.4065" y2="4093.7195" gradientTransform="matrix(170.0186 0 0 -138.3845 513113.6875 570466.75)">
				<stop  offset="0" style="stop-color:#FC6327"/>
				<stop  offset="0.64" style="stop-color:#CE370F"/>
			</linearGradient>
			<path class="st66" d="M-3639.1,4026.1c4.4-5.1,11.1-9.8,18.3-14.2c3.6-2.2,7.5-4.5,11.2-6.6c3.7-2.1,7.3-4.1,11-5.8
				c-0.2-0.4-1.2-0.5,0-1.3c3.6-2.2,7.2-1.9,11.2-3.8l0.1-0.8c3.3-0.8,7-1.6,10.9-2.5c3.4-1.2,7-2.6,10.6-4.2
				c0.9-0.4,1.8-0.8,2.7-1.2l2.6-1.4c1.8-0.9,3.4-1.9,5.1-2.9c-0.3-0.1-0.5-0.3,0.1-0.8c1.3-0.9,3-1.9,4.8-2.9
				c1.8-1.1,3.7-2.2,5.6-3.6c0.5-0.4,1-0.9,1.6-1.3c0.2-0.3,0.3-0.6,0.2-0.9c1.6-1.2,3.1-2.2,4.5-3.3c7.9-7.5,15.2-15.7,21.7-24.4
				c6.7-8.6,12.9-17.4,19.7-26.3c2.5-3.9,5.3-7.7,8.4-11.2c2.5-2.6,5.2-5.1,8-7.4c2.9-2.4,5.9-4.6,8.5-6.4c-0.6-0.4-0.3-1.3,0.4-2.6
				c0.1-0.1,0.1-0.2,0.2-0.3h-22.2c-9.8,9-18.3,18.9-26.6,28.5c-1.7,2.4-6.1,8-12.1,14.8c-6.7,7.8-14.2,15-22.3,21.5
				c-4.2,3.3-8.7,6.2-13.4,8.7c-2.3,1.2-4.6,2.3-6.9,3.2c-2.3,1-4.7,1.8-7.1,2.6c-4.7,1.6-9.4,3.1-13.5,4.5c-4.1,1.4-7.7,2.9-10.3,4
				c-0.6,0.3-1.2,0.6-1.8,0.9c-5.6,2.7-11.1,5.7-16.3,9.1c-2.6,1.7-5,3.3-7.3,5c-2.3,1.7-4.5,3.4-6.4,5c-1.3,1.2-2.6,2.5-3.8,3.8
				v16.2c0.3-0.1,0.5-0.2,0.5,0c-0.2,0.2-0.3,0.4-0.5,0.5v10C-3640.9,4027.8-3639.9,4027-3639.1,4026.1z"/>
			
				<linearGradient id="SVGID_65_" gradientUnits="userSpaceOnUse" x1="-3039.4133" y1="4093.7825" x2="-3038.4133" y2="4093.7825" gradientTransform="matrix(169.5139 0 0 -144.2449 511613.1562 594469.4375)">
				<stop  offset="0" style="stop-color:#FC6327"/>
				<stop  offset="0.64" style="stop-color:#CE370F"/>
			</linearGradient>
			<path class="st67" d="M-3569.5,4031.9c-0.2-0.4-1.3-0.3-0.1-1.3c1.9-1.3,3.8-2.3,5.9-3.2c2.1-0.8,4.1-1.8,6-3.1l-0.1-0.8
				c3.4-1.6,7.1-3.1,10.8-4.8c6.5-3.7,12.9-7.4,19.4-11.2c-0.3-0.1-0.5-0.3,0.1-0.8c2.7-1.8,6.8-3.8,10.9-6.5l1.7-1.3
				c0.2-0.2,0.4-0.6,0.3-0.9c1.8-1.2,3.4-2.3,4.9-3.4c4.6-4,8.7-8.5,12.4-13.4c3.5-4.8,6.8-9.8,9.6-15.1
				c5.7-10.3,10.2-20.7,16.2-30.6c2.2-4.3,4.8-8.4,7.9-12.1c1.2-1.3,2.5-2.6,3.9-3.9l2.2-1.9l1.1-1l1.2-0.9c1.6-1.2,3.1-2.4,4.7-3.4
				l2.3-1.6l2.2-1.4c-0.6-0.4-0.2-1.4,0.7-2.6c1.1-1.4,2.3-2.8,3.6-4c0.4-0.4,0.9-0.9,1.3-1.3v-11.1h-5.2c-3.6,2-7.1,4.2-10.5,6.5
				c-8.2,5.6-15.7,12.3-22.3,19.8c-3.2,3.8-6.3,7.7-9.1,11.9c-2.7,4-5.3,8.1-7.7,12.1c-1.4,2.8-5,9.6-10,17.5
				c-2.6,4.2-5.6,8.2-8.9,11.9c-0.8,1-1.8,1.9-2.7,2.9s-1.9,1.9-2.9,2.8c-2.1,1.8-4.2,3.6-6.5,5.2c-2.3,1.7-4.7,3.3-7.2,4.8
				c-1.3,0.8-2.5,1.5-3.8,2.3l-3.9,2.2l-15.6,8.5c-9.8,5.4-18.1,10-22.9,12.8l-1.7,1.1c-5.6,3.3-11,7-16.2,10.9
				c-2.7,1.9-5.1,4.1-7.5,6.1c-1.9,1.8-3.7,3.4-5.3,5.1h36.1C-3572.2,4033.6-3570.8,4032.7-3569.5,4031.9z"/>
			<path class="st9" d="M-3263.8,3899.6c0-48.7-39.5-88.2-88.2-88.2v88.2L-3263.8,3899.6z"/>
			<path class="st10" d="M-3352,3811.4c-48.7,0-88.2,39.5-88.2,88.2c0,0,0,0,0,0c0,26.3,11.7,51.3,32.1,68l56.1-68L-3352,3811.4z"/>
			<path class="st11" d="M-3352,3899.6l-56.1,68c15.8,13,35.6,20.2,56.1,20.1c48.7,0,88.2-39.5,88.2-88.2c0,0,0,0,0,0L-3352,3899.6z
				"/>
			
				<linearGradient id="SVGID_66_" gradientUnits="userSpaceOnUse" x1="-3038.6658" y1="4094.2905" x2="-3037.6658" y2="4094.2905" gradientTransform="matrix(252.6851 0 0 -218.832 764748 899886.9375)">
				<stop  offset="0.179" style="stop-color:#CE370F"/>
				<stop  offset="0.593" style="stop-color:#FF7C22"/>
			</linearGradient>
			<path class="st68" d="M-2951.1,3815.6l-126.3,218.8h252.7L-2951.1,3815.6z"/>
			
				<linearGradient id="SVGID_67_" gradientUnits="userSpaceOnUse" x1="-3042.8779" y1="4092.7368" x2="-3041.8779" y2="4092.7368" gradientTransform="matrix(67.123 0 0 -84.7678 201233.5781 350924.4375)">
				<stop  offset="0" style="stop-color:#FC6327"/>
				<stop  offset="0.64" style="stop-color:#CE370F"/>
			</linearGradient>
			<path class="st69" d="M-2953.7,3977.3c2.3-2.6,4.7-5.1,7.1-7.4v-20.2c-10.1,7.9-20.6,16.1-30.9,25.8c-2.1,2.5-7.7,8-14.1,16.6
				c-3.5,4.7-6.7,9.8-9.4,15c-2.9,5.6-5.4,11.4-7.8,16.9c-1.2,2.8-2.4,5.4-3.7,8c-0.4,0.8-0.9,1.7-1.3,2.5h23.6
				c0-0.1,0.1-0.2,0.1-0.3c0.1-0.3,0-0.6-0.2-0.9c0.8-1.8,1.6-3.3,2.3-4.7c1.8-4.9,3.5-9.6,5.6-14c2.1-4.5,4.6-8.8,7.3-12.9
				C-2969.2,3993.2-2961.9,3985.2-2953.7,3977.3z"/>
			
				<linearGradient id="SVGID_68_" gradientUnits="userSpaceOnUse" x1="-3058.2622" y1="4088.2222" x2="-3057.2622" y2="4088.2222" gradientTransform="matrix(18.229 0 0 -30.4929 52784.3125 128681.0156)">
				<stop  offset="0" style="stop-color:#FC6327"/>
				<stop  offset="0.64" style="stop-color:#CE370F"/>
			</linearGradient>
			<path class="st70" d="M-2947.3,4004.9c-3.7,4.6-7,9.5-9.9,14.7c-2.8,4.9-5.2,10-7.5,14.9h18.2v-30.5
				C-2946.8,4004.3-2947.1,4004.6-2947.3,4004.9z"/>
			
				<linearGradient id="SVGID_69_" gradientUnits="userSpaceOnUse" x1="-3043.7717" y1="4090.8093" x2="-3042.7717" y2="4090.8093" gradientTransform="matrix(58.072 0 0 -48.1672 173609.8125 200957.25)">
				<stop  offset="0" style="stop-color:#FC6327"/>
				<stop  offset="0.64" style="stop-color:#CE370F"/>
			</linearGradient>
			<path class="st71" d="M-3148.2,3938.4c2-0.5,4-1.3,5.8-2.3c0-0.3,0-0.6,0.1-0.9c2-0.8,4.1-1.6,6.2-2.5c2.1-0.9,4.2-2,6.3-3
				c7.1-4.6,13.7-9.9,19.6-15.9c-0.3-0.1-0.6-0.2-0.1-0.8c1.2-1.2,2.6-2.6,4.2-4.1s3.3-3.1,5-4.8l1.3-1.6c0.2-0.3,0.2-0.6,0.1-1
				c1.5-1.5,2.8-2.9,4-4.1c1.9-2.4,3.7-4.7,5.5-7.1h-27.2c-7.5,7.9-15.3,15.1-22.9,19.8c-2.2,1.3-4.3,2.6-6.3,3.7
				c-0.6,0.3-1.1,0.5-1.6,0.8L-3148.2,3938.4z"/>
			
				<linearGradient id="SVGID_70_" gradientUnits="userSpaceOnUse" x1="-3058.6709" y1="4092.9265" x2="-3057.6709" y2="4092.9265" gradientTransform="matrix(104.1995 0 0 -91.6218 313705.4062 378937.4062)">
				<stop  offset="0" style="stop-color:#FC6327"/>
				<stop  offset="0.64" style="stop-color:#CE370F"/>
			</linearGradient>
			<path class="st72" d="M-3127,3969.1c1.9-1.4,4-2.5,6.1-3.5c2.1-1,4.2-2.2,6.1-3.7l-0.1-0.8c3.3-2.1,6.9-4,10.4-6.5
				c3-2.4,5.9-5.1,8.7-7.7c1.4-1.3,2.7-2.8,4.1-4.1l2-2.1c0.7-0.7,1.3-1.5,1.9-2.2c-0.3,0-0.6-0.1-0.1-0.8c1-1.3,2.3-2.6,3.8-4.2
				c1.4-1.5,2.9-3.2,4.4-4.9l1.1-1.6c0.1-0.3,0.1-0.6,0-0.9c1.3-1.5,2.4-2.8,3.4-4c3-4.3,5.8-8.4,8.9-12.1
				c3.2-3.8,6.6-7.4,10.3-10.6c3.8-3.3,7.8-6.4,12-9.3h-30.5c-2.7,2.4-5.4,5.1-8,8c-4.2,4.7-8,9.7-11.8,14.4
				c-1.9,2.4-3.7,4.7-5.5,6.8c-1.9,2.1-3.8,4.2-5.7,6.2c-3.8,3.8-7.7,7.4-11.9,10.8c-2,1.6-3.8,3.1-5.7,4.4
				c-1.9,1.3-3.6,2.7-5.3,3.8l-4.6,3l-3.8,2.3l-1.5,1c-3.1,1.9-6.5,3.8-9.9,5.8v25.2c7.2-3.5,14.3-7.2,21.2-11.4
				C-3127.2,3970-3128.3,3970.1-3127,3969.1z"/>
			
				<linearGradient id="SVGID_71_" gradientUnits="userSpaceOnUse" x1="-3039.4065" y1="4093.7195" x2="-3038.4065" y2="4093.7195" gradientTransform="matrix(170.0269 0 0 -138.386 513632.5625 570472.75)">
				<stop  offset="0" style="stop-color:#FC6327"/>
				<stop  offset="0.64" style="stop-color:#CE370F"/>
			</linearGradient>
			<path class="st73" d="M-3145.4,4026.1c4.4-5.1,11.1-9.8,18.3-14.2c3.6-2.2,7.5-4.5,11.2-6.6c3.7-2.1,7.3-4.1,11-5.8
				c-0.2-0.4-1.2-0.5,0-1.3c3.6-2.2,7.2-1.9,11.2-3.8l0.1-0.8c3.3-0.8,7-1.6,10.9-2.5c3.4-1.2,7-2.6,10.6-4.2
				c0.9-0.4,1.8-0.8,2.7-1.2l2.6-1.4c1.8-0.9,3.4-1.9,5.1-2.9c-0.3-0.1-0.5-0.3,0.1-0.8c1.3-0.9,3-1.9,4.8-2.9
				c1.8-1.1,3.7-2.2,5.6-3.6l1.6-1.3c0.2-0.3,0.3-0.6,0.2-0.9c1.6-1.2,3.1-2.2,4.5-3.3c7.9-7.5,15.2-15.7,21.7-24.4
				c6.7-8.6,12.9-17.4,19.7-26.3c2.5-3.9,5.3-7.7,8.4-11.2c2.5-2.6,5.2-5.1,8-7.4c2.9-2.4,5.9-4.6,8.5-6.4c-0.6-0.4-0.3-1.3,0.4-2.6
				c0.1-0.1,0.1-0.2,0.2-0.3h-22.2c-9.8,9-18.3,18.9-26.6,28.5c-1.7,2.4-6.1,8-12.1,14.8c-6.7,7.8-14.2,15-22.3,21.5
				c-4.2,3.3-8.7,6.2-13.4,8.7c-2.3,1.2-4.6,2.3-6.9,3.2c-2.3,1-4.7,1.8-7.1,2.6c-4.7,1.6-9.4,3.1-13.5,4.5c-4.1,1.4-7.7,2.9-10.3,4
				c-0.6,0.3-1.2,0.6-1.8,0.9c-5.6,2.7-11.1,5.7-16.3,9.1c-2.6,1.7-5,3.3-7.3,5c-2.3,1.7-4.5,3.4-6.4,5c-1.3,1.2-2.6,2.5-3.8,3.8
				v16.2c0.3-0.1,0.5-0.2,0.5,0c-0.2,0.2-0.3,0.4-0.5,0.5v10C-3147.2,4027.8-3146.3,4027-3145.4,4026.1z"/>
			
				<linearGradient id="SVGID_72_" gradientUnits="userSpaceOnUse" x1="-3039.4133" y1="4093.7825" x2="-3038.4133" y2="4093.7825" gradientTransform="matrix(169.5137 0 0 -144.2449 512106.0625 594469.4375)">
				<stop  offset="0" style="stop-color:#FC6327"/>
				<stop  offset="0.64" style="stop-color:#CE370F"/>
			</linearGradient>
			<path class="st74" d="M-3075.8,4031.9c-0.2-0.4-1.3-0.3-0.1-1.3c1.9-1.3,3.8-2.3,5.9-3.2c2.1-0.8,4.1-1.8,6-3.1l-0.1-0.8
				c3.4-1.6,7.1-3.1,10.8-4.8c6.5-3.7,12.9-7.4,19.4-11.2c-0.3-0.1-0.5-0.3,0.1-0.8c2.7-1.8,6.8-3.8,10.9-6.5l1.7-1.3
				c0.2-0.2,0.4-0.6,0.3-0.9c1.8-1.2,3.4-2.3,4.9-3.4c4.6-4,8.7-8.5,12.4-13.4c3.5-4.8,6.8-9.8,9.6-15.1
				c5.7-10.3,10.2-20.7,16.2-30.6c2.2-4.3,4.8-8.4,7.9-12.1c1.2-1.3,2.5-2.6,3.9-3.9l2.2-1.9l1.1-1l1.2-0.9c1.6-1.2,3.1-2.4,4.7-3.4
				l2.3-1.6l2.2-1.4c-0.6-0.4-0.2-1.4,0.7-2.6c1.1-1.4,2.3-2.8,3.6-4c0.4-0.4,0.9-0.9,1.3-1.3v-11.1h-5.2c-3.6,2-7.1,4.2-10.5,6.5
				c-8.2,5.6-15.7,12.3-22.3,19.8c-3.2,3.8-6.3,7.7-9.1,11.9c-2.7,4-5.3,8.1-7.7,12.1c-1.4,2.8-5,9.6-10,17.5
				c-2.6,4.2-5.6,8.2-8.9,11.9c-0.8,1-1.8,1.9-2.7,2.9s-1.9,1.9-2.9,2.8c-2.1,1.8-4.2,3.6-6.5,5.2c-2.3,1.7-4.7,3.3-7.2,4.8
				c-1.3,0.8-2.5,1.5-3.8,2.3l-3.9,2.2l-15.6,8.5c-9.8,5.4-18.1,10-22.9,12.8l-1.7,1.1c-5.6,3.3-11,7-16.2,10.9
				c-2.7,1.9-5.1,4.1-7.5,6.1c-1.9,1.8-3.7,3.4-5.3,5.1h36.1C-3078.5,4033.6-3077.2,4032.7-3075.8,4031.9z"/>
			<path class="st9" d="M-2770.2,3899.6c0-48.7-39.5-88.2-88.2-88.2c0,0,0,0,0,0v88.2H-2770.2z"/>
			<path class="st10" d="M-2858.4,3811.4c-48.7,0-88.2,39.5-88.2,88.2v0c0,26.3,11.7,51.3,32.1,68l56.1-68V3811.4z"/>
			<path class="st11" d="M-2858.4,3899.6l-56.1,68c15.8,13,35.6,20.2,56.1,20.1c48.7,0,88.2-39.5,88.2-88.2c0,0,0,0,0,0H-2858.4z"/>
			
				<linearGradient id="SVGID_73_" gradientUnits="userSpaceOnUse" x1="-3038.6658" y1="4094.2905" x2="-3037.6658" y2="4094.2905" gradientTransform="matrix(252.6851 0 0 -218.832 765248.5 899886.9375)">
				<stop  offset="0.179" style="stop-color:#CE370F"/>
				<stop  offset="0.593" style="stop-color:#FF7C22"/>
			</linearGradient>
			<path class="st75" d="M-2450.6,3815.6l-126.3,218.8h252.7L-2450.6,3815.6z"/>
			
				<linearGradient id="SVGID_74_" gradientUnits="userSpaceOnUse" x1="-3042.8777" y1="4092.7368" x2="-3041.8777" y2="4092.7368" gradientTransform="matrix(67.124 0 0 -84.7678 201737.0469 350924.4375)">
				<stop  offset="0" style="stop-color:#FC6327"/>
				<stop  offset="0.64" style="stop-color:#CE370F"/>
			</linearGradient>
			<path class="st76" d="M-2453.2,3977.3c2.3-2.6,4.7-5.1,7.1-7.4v-20.2c-10.1,7.9-20.6,16.1-30.9,25.8c-2.1,2.5-7.7,8-14.1,16.6
				c-3.5,4.7-6.7,9.8-9.4,15c-2.9,5.6-5.4,11.4-7.8,16.9c-1.2,2.8-2.4,5.4-3.7,8c-0.4,0.8-0.9,1.7-1.3,2.5h23.6
				c0-0.1,0.1-0.2,0.1-0.3c0.1-0.3,0-0.6-0.3-0.9c0.8-1.8,1.6-3.3,2.3-4.7c1.8-4.9,3.5-9.6,5.6-14c2.1-4.5,4.6-8.8,7.4-12.9
				C-2468.7,3993.2-2461.4,3985.2-2453.2,3977.3z"/>
			
				<linearGradient id="SVGID_75_" gradientUnits="userSpaceOnUse" x1="-3058.2612" y1="4088.2222" x2="-3057.2612" y2="4088.2222" gradientTransform="matrix(18.23 0 0 -30.4929 53287.7852 128681.0156)">
				<stop  offset="0" style="stop-color:#FC6327"/>
				<stop  offset="0.64" style="stop-color:#CE370F"/>
			</linearGradient>
			<path class="st77" d="M-2446.8,4004.9c-3.7,4.6-7,9.5-9.9,14.7c-2.8,4.9-5.2,10-7.5,14.9h18.2v-30.5
				C-2446.3,4004.3-2446.6,4004.6-2446.8,4004.9z"/>
			
				<linearGradient id="SVGID_76_" gradientUnits="userSpaceOnUse" x1="-3043.772" y1="4090.8093" x2="-3042.772" y2="4090.8093" gradientTransform="matrix(58.0708 0 0 -48.1672 174106.6094 200957.25)">
				<stop  offset="0" style="stop-color:#FC6327"/>
				<stop  offset="0.64" style="stop-color:#CE370F"/>
			</linearGradient>
			<path class="st78" d="M-2647.7,3938.4c2-0.5,4-1.3,5.8-2.3c0-0.3,0-0.6,0.1-0.9c2-0.8,4.1-1.6,6.2-2.5c2.1-0.9,4.2-2,6.3-3
				c7.1-4.6,13.7-9.9,19.6-15.9c-0.3-0.1-0.6-0.2-0.1-0.8c1.2-1.2,2.6-2.6,4.2-4.1s3.3-3.1,5-4.8l1.3-1.6c0.2-0.3,0.2-0.6,0.1-1
				l4-4.1c1.9-2.4,3.7-4.7,5.5-7.1h-27.2c-7.5,7.9-15.3,15.1-22.9,19.8c-2.2,1.3-4.3,2.6-6.3,3.7c-0.6,0.3-1.1,0.5-1.6,0.8V3938.4z"
				/>
			
				<linearGradient id="SVGID_77_" gradientUnits="userSpaceOnUse" x1="-3058.6709" y1="4092.9265" x2="-3057.6709" y2="4092.9265" gradientTransform="matrix(104.1992 0 0 -91.6218 314205.1562 378937.4062)">
				<stop  offset="0" style="stop-color:#FC6327"/>
				<stop  offset="0.64" style="stop-color:#CE370F"/>
			</linearGradient>
			<path class="st79" d="M-2626.5,3969.1c1.9-1.4,4-2.5,6.1-3.5c2.1-1,4.2-2.2,6.1-3.7l-0.1-0.8c3.3-2.1,6.9-4,10.4-6.5
				c3-2.4,5.9-5.1,8.7-7.7c1.4-1.3,2.7-2.8,4.1-4.1l2-2.1c0.7-0.7,1.3-1.5,1.9-2.2c-0.3,0-0.6-0.1-0.1-0.8c1-1.3,2.3-2.6,3.8-4.2
				c1.4-1.5,2.9-3.2,4.4-4.9l1.1-1.6c0.1-0.3,0.1-0.6,0-0.9c1.3-1.5,2.4-2.8,3.4-4c3-4.3,5.8-8.4,8.9-12.1
				c3.2-3.8,6.6-7.4,10.3-10.6c3.8-3.3,7.8-6.4,12-9.3h-30.5c-2.7,2.4-5.4,5.1-8,8c-4.2,4.7-8,9.7-11.8,14.4
				c-1.9,2.4-3.7,4.7-5.5,6.8c-1.9,2.1-3.8,4.2-5.7,6.2c-3.8,3.8-7.7,7.4-11.9,10.8c-2,1.6-3.8,3.1-5.7,4.4
				c-1.9,1.3-3.6,2.7-5.3,3.8l-4.6,3l-3.8,2.3l-1.5,1c-3.1,1.9-6.5,3.8-9.9,5.8v25.2c7.2-3.5,14.3-7.2,21.2-11.4
				C-2626.7,3970-2627.8,3970.1-2626.5,3969.1z"/>
			
				<linearGradient id="SVGID_78_" gradientUnits="userSpaceOnUse" x1="-3039.4065" y1="4093.7195" x2="-3038.4065" y2="4093.7195" gradientTransform="matrix(170.0227 0 0 -138.386 514120.4688 570472.75)">
				<stop  offset="0" style="stop-color:#FC6327"/>
				<stop  offset="0.64" style="stop-color:#CE370F"/>
			</linearGradient>
			<path class="st80" d="M-2644.9,4026.1c4.4-5.1,11.1-9.8,18.3-14.2c3.6-2.2,7.5-4.5,11.2-6.6c3.7-2.1,7.3-4.1,11-5.8
				c-0.2-0.4-1.2-0.5,0-1.3c3.6-2.2,7.2-1.9,11.2-3.8l0.1-0.8c3.3-0.8,7-1.6,10.9-2.5c3.4-1.2,7-2.6,10.6-4.2
				c0.9-0.4,1.8-0.8,2.7-1.2l2.6-1.4c1.8-0.9,3.4-1.9,5.1-2.9c-0.3-0.1-0.5-0.3,0.1-0.8c1.3-0.9,3-1.9,4.8-2.9
				c1.8-1.1,3.7-2.2,5.6-3.6l1.6-1.3c0.2-0.3,0.3-0.6,0.2-0.9c1.6-1.2,3.1-2.2,4.5-3.3c7.9-7.5,15.2-15.7,21.7-24.4
				c6.7-8.6,12.9-17.4,19.7-26.3c2.5-3.9,5.3-7.7,8.4-11.2c2.5-2.6,5.2-5.1,8-7.4c2.9-2.4,5.9-4.6,8.5-6.4c-0.6-0.4-0.3-1.3,0.4-2.6
				c0.1-0.1,0.1-0.2,0.2-0.3h-22.2c-9.8,9-18.3,18.9-26.6,28.5c-1.7,2.4-6.1,8-12.1,14.8c-6.7,7.8-14.2,15-22.3,21.5
				c-4.2,3.3-8.7,6.2-13.4,8.7c-2.3,1.2-4.6,2.3-6.9,3.2c-2.3,1-4.7,1.8-7.1,2.6c-4.7,1.6-9.4,3.1-13.5,4.5c-4.1,1.4-7.7,2.9-10.3,4
				c-0.6,0.3-1.2,0.6-1.8,0.9c-5.6,2.7-11.1,5.7-16.3,9.1c-2.6,1.7-5,3.3-7.3,5c-2.3,1.7-4.5,3.4-6.4,5c-1.3,1.2-2.6,2.5-3.8,3.8
				v16.2c0.3-0.1,0.5-0.2,0.5,0c-0.2,0.2-0.3,0.4-0.5,0.5v10C-2646.7,4027.8-2645.8,4027-2644.9,4026.1z"/>
			
				<linearGradient id="SVGID_79_" gradientUnits="userSpaceOnUse" x1="-3039.4133" y1="4093.7825" x2="-3038.4133" y2="4093.7825" gradientTransform="matrix(169.5129 0 0 -144.2449 512604.3438 594469.4375)">
				<stop  offset="0" style="stop-color:#FC6327"/>
				<stop  offset="0.64" style="stop-color:#CE370F"/>
			</linearGradient>
			<path class="st81" d="M-2575.3,4031.9c-0.2-0.4-1.3-0.3-0.1-1.3c1.9-1.3,3.8-2.3,5.9-3.2c2.1-0.8,4.1-1.8,6-3.1l-0.1-0.8
				c3.4-1.6,7.1-3.1,10.8-4.8c6.5-3.7,12.9-7.4,19.4-11.2c-0.3-0.1-0.5-0.3,0.1-0.8c2.7-1.8,6.8-3.8,10.9-6.5l1.7-1.3
				c0.2-0.2,0.4-0.6,0.3-0.9c1.8-1.2,3.4-2.3,4.9-3.4c4.6-4,8.7-8.5,12.4-13.4c3.5-4.8,6.8-9.8,9.6-15.1
				c5.7-10.3,10.2-20.7,16.2-30.6c2.2-4.3,4.8-8.4,7.9-12.1c1.2-1.3,2.5-2.6,3.9-3.9l2.2-1.9l1.1-1l1.2-0.9c1.6-1.2,3.1-2.4,4.7-3.4
				c0.8-0.5,1.6-1.1,2.3-1.6l2.2-1.4c-0.6-0.4-0.2-1.4,0.7-2.6c1.1-1.4,2.3-2.8,3.6-4c0.4-0.4,0.9-0.9,1.3-1.3v-11.1h-5.2
				c-3.6,2-7.1,4.2-10.5,6.5c-8.2,5.6-15.7,12.3-22.3,19.8c-3.2,3.8-6.3,7.7-9.1,11.9c-2.7,4-5.3,8.1-7.7,12.1
				c-1.4,2.8-5,9.6-10,17.5c-2.6,4.2-5.6,8.2-8.9,11.9c-0.8,1-1.8,1.9-2.7,2.9s-1.9,1.9-2.9,2.8c-2.1,1.8-4.2,3.6-6.5,5.2
				c-2.3,1.7-4.7,3.3-7.2,4.8c-1.3,0.8-2.5,1.5-3.8,2.3l-3.9,2.2l-15.6,8.5c-9.8,5.4-18.1,10-22.9,12.8l-1.7,1.1
				c-5.6,3.3-11,7-16.2,10.9c-2.7,1.9-5.1,4.1-7.5,6.1c-1.9,1.8-3.7,3.4-5.3,5.1h36.1C-2578,4033.6-2576.7,4032.7-2575.3,4031.9z"/>
			<path class="st9" d="M-2269.7,3899.6c0-48.7-39.5-88.2-88.2-88.2h0v88.2H-2269.7z"/>
			<path class="st10" d="M-2357.8,3811.4c-48.7,0-88.2,39.5-88.2,88.2c0,26.3,11.7,51.3,32.1,68l56.1-68L-2357.8,3811.4z"/>
			<path class="st11" d="M-2357.8,3899.6l-56.1,68c15.8,13,35.6,20.2,56.1,20.1c48.7,0,88.2-39.5,88.2-88.2H-2357.8z"/>
			
				<linearGradient id="SVGID_80_" gradientUnits="userSpaceOnUse" x1="-3038.6658" y1="4094.2905" x2="-3037.6658" y2="4094.2905" gradientTransform="matrix(252.6851 0 0 -218.832 765736.5 899886.9375)">
				<stop  offset="0.179" style="stop-color:#CE370F"/>
				<stop  offset="0.593" style="stop-color:#FF7C22"/>
			</linearGradient>
			<path class="st82" d="M-1962.6,3815.6l-126.3,218.8h252.7L-1962.6,3815.6z"/>
			
				<linearGradient id="SVGID_81_" gradientUnits="userSpaceOnUse" x1="-3042.8779" y1="4092.7368" x2="-3041.8779" y2="4092.7368" gradientTransform="matrix(67.123 0 0 -84.7678 202222.0781 350924.4375)">
				<stop  offset="0" style="stop-color:#FC6327"/>
				<stop  offset="0.64" style="stop-color:#CE370F"/>
			</linearGradient>
			<path class="st83" d="M-1965.2,3977.3c2.3-2.6,4.7-5.1,7.1-7.4v-20.2c-10.1,7.9-20.6,16.1-30.9,25.8c-2.1,2.5-7.7,8-14.1,16.6
				c-3.5,4.7-6.7,9.8-9.4,15c-2.9,5.6-5.4,11.4-7.8,16.9c-1.2,2.8-2.4,5.4-3.7,8c-0.4,0.8-0.9,1.7-1.3,2.5h23.6
				c0-0.1,0.1-0.2,0.1-0.3c0.1-0.3,0-0.6-0.3-0.9c0.8-1.8,1.6-3.3,2.3-4.7c1.8-4.9,3.5-9.6,5.6-14c2.1-4.5,4.6-8.8,7.3-12.9
				C-1980.7,3993.2-1973.4,3985.2-1965.2,3977.3z"/>
			
				<linearGradient id="SVGID_82_" gradientUnits="userSpaceOnUse" x1="-3058.2622" y1="4088.2222" x2="-3057.2622" y2="4088.2222" gradientTransform="matrix(18.229 0 0 -30.4929 53772.8125 128681.0156)">
				<stop  offset="0" style="stop-color:#FC6327"/>
				<stop  offset="0.64" style="stop-color:#CE370F"/>
			</linearGradient>
			<path class="st84" d="M-1958.8,4004.9c-3.7,4.6-7,9.5-9.9,14.7c-2.8,4.9-5.2,10-7.5,14.9h18.2v-30.5
				C-1958.3,4004.3-1958.6,4004.6-1958.8,4004.9z"/>
			
				<linearGradient id="SVGID_83_" gradientUnits="userSpaceOnUse" x1="-3043.7717" y1="4090.8093" x2="-3042.7717" y2="4090.8093" gradientTransform="matrix(58.072 0 0 -48.1672 174598.3125 200957.25)">
				<stop  offset="0" style="stop-color:#FC6327"/>
				<stop  offset="0.64" style="stop-color:#CE370F"/>
			</linearGradient>
			<path class="st85" d="M-2159.7,3938.4c2-0.5,4-1.3,5.8-2.3l0.1-0.9c2-0.8,4.1-1.6,6.2-2.5c2.1-0.9,4.2-2,6.3-3
				c7.1-4.6,13.7-9.9,19.6-15.9c-0.3-0.1-0.6-0.2-0.1-0.8c1.2-1.2,2.6-2.6,4.2-4.1s3.3-3.1,5-4.8c0.4-0.5,0.9-1.1,1.3-1.6
				c0.2-0.3,0.2-0.6,0.1-1l4-4.1c1.9-2.4,3.7-4.7,5.5-7.1h-27.2c-7.5,7.9-15.3,15.1-22.9,19.8c-2.2,1.3-4.3,2.6-6.3,3.7
				c-0.6,0.3-1.1,0.5-1.6,0.8L-2159.7,3938.4z"/>
			
				<linearGradient id="SVGID_84_" gradientUnits="userSpaceOnUse" x1="-3058.6721" y1="4092.9265" x2="-3057.6721" y2="4092.9265" gradientTransform="matrix(104.1931 0 0 -91.6218 314674.625 378937.4062)">
				<stop  offset="0" style="stop-color:#FC6327"/>
				<stop  offset="0.64" style="stop-color:#CE370F"/>
			</linearGradient>
			<path class="st86" d="M-2138.5,3969.1c1.9-1.4,4-2.5,6.1-3.5c2.1-1,4.2-2.2,6.1-3.7l-0.1-0.8c3.3-2.1,6.9-4,10.4-6.5
				c3-2.4,5.9-5.1,8.7-7.7c1.4-1.3,2.7-2.8,4.1-4.1l2-2.1c0.7-0.7,1.3-1.5,1.9-2.2c-0.3,0-0.6-0.1-0.1-0.8c1-1.3,2.3-2.6,3.8-4.2
				c1.4-1.5,2.9-3.2,4.4-4.9l1.1-1.6c0.1-0.3,0.1-0.6,0-0.9c1.3-1.5,2.4-2.8,3.4-4c3-4.3,5.8-8.4,8.9-12.1
				c3.2-3.8,6.6-7.4,10.3-10.6c3.8-3.3,7.8-6.4,12-9.3h-30.5c-2.7,2.4-5.4,5.1-8,8c-4.2,4.7-8,9.7-11.8,14.4
				c-1.9,2.4-3.7,4.7-5.5,6.8c-1.9,2.1-3.8,4.2-5.7,6.2c-3.8,3.8-7.7,7.4-11.9,10.8c-2,1.6-3.8,3.1-5.7,4.4
				c-1.9,1.3-3.6,2.7-5.3,3.8l-4.6,3l-3.8,2.3l-1.5,1c-3.1,1.9-6.5,3.8-9.9,5.8v25.2c7.2-3.5,14.3-7.2,21.2-11.4
				C-2138.7,3970-2139.8,3970.1-2138.5,3969.1z"/>
			
				<linearGradient id="SVGID_85_" gradientUnits="userSpaceOnUse" x1="-3039.4065" y1="4093.7195" x2="-3038.4065" y2="4093.7195" gradientTransform="matrix(170.022 0 0 -138.386 514606.2188 570472.75)">
				<stop  offset="0" style="stop-color:#FC6327"/>
				<stop  offset="0.64" style="stop-color:#CE370F"/>
			</linearGradient>
			<path class="st87" d="M-2156.9,4026.1c4.4-5.1,11.1-9.8,18.3-14.2c3.6-2.2,7.5-4.5,11.2-6.6c3.7-2.1,7.3-4.1,11-5.8
				c-0.2-0.4-1.2-0.5,0-1.3c3.6-2.2,7.2-1.9,11.2-3.8l0.1-0.8c3.3-0.8,7-1.6,10.9-2.5c3.4-1.2,7-2.6,10.6-4.2
				c0.9-0.4,1.8-0.8,2.7-1.2l2.6-1.4c1.8-0.9,3.4-1.9,5.1-2.9c-0.3-0.1-0.5-0.3,0.1-0.8c1.3-0.9,3-1.9,4.8-2.9
				c1.8-1.1,3.7-2.2,5.6-3.6l1.6-1.3c0.2-0.3,0.3-0.6,0.2-0.9c1.6-1.2,3.1-2.2,4.5-3.3c7.9-7.5,15.2-15.7,21.7-24.4
				c6.7-8.6,12.9-17.4,19.7-26.3c2.5-3.9,5.3-7.7,8.4-11.2c2.5-2.6,5.2-5.1,8-7.4c2.9-2.4,5.9-4.6,8.5-6.4c-0.6-0.4-0.3-1.3,0.4-2.6
				c0.1-0.1,0.1-0.2,0.2-0.3h-22.2c-9.8,9-18.3,18.9-26.6,28.5c-1.7,2.4-6.1,8-12.1,14.8c-6.7,7.8-14.2,15-22.3,21.5
				c-4.2,3.3-8.7,6.2-13.4,8.7c-2.3,1.2-4.6,2.3-6.9,3.2c-2.3,1-4.7,1.8-7.1,2.6c-4.7,1.6-9.4,3.1-13.5,4.5c-4.1,1.4-7.7,2.9-10.3,4
				c-0.6,0.3-1.2,0.6-1.8,0.9c-5.6,2.7-11.1,5.7-16.3,9.1c-2.6,1.7-5,3.3-7.3,5c-2.3,1.7-4.5,3.4-6.4,5c-1.3,1.2-2.6,2.5-3.8,3.8
				v16.2c0.3-0.1,0.5-0.2,0.5,0c-0.2,0.2-0.3,0.4-0.5,0.5v10C-2158.7,4027.8-2157.8,4027-2156.9,4026.1z"/>
			
				<linearGradient id="SVGID_86_" gradientUnits="userSpaceOnUse" x1="-3039.4133" y1="4093.7825" x2="-3038.4133" y2="4093.7825" gradientTransform="matrix(169.5139 0 0 -144.2449 513095.3125 594469.4375)">
				<stop  offset="0" style="stop-color:#FC6327"/>
				<stop  offset="0.64" style="stop-color:#CE370F"/>
			</linearGradient>
			<path class="st88" d="M-2087.3,4031.9c-0.2-0.4-1.3-0.3-0.1-1.3c1.9-1.3,3.8-2.3,5.9-3.2c2.1-0.8,4.1-1.8,6-3.1l-0.1-0.8
				c3.4-1.6,7.1-3.1,10.8-4.8c6.5-3.7,12.9-7.4,19.4-11.2c-0.3-0.1-0.5-0.3,0.1-0.8c2.7-1.8,6.8-3.8,10.9-6.5l1.7-1.3
				c0.2-0.2,0.3-0.6,0.3-0.9c1.8-1.2,3.4-2.3,4.9-3.4c4.6-4,8.7-8.5,12.4-13.4c3.5-4.8,6.8-9.8,9.6-15.1
				c5.7-10.3,10.2-20.7,16.2-30.6c2.2-4.3,4.8-8.4,7.9-12.1c1.2-1.3,2.5-2.6,3.9-3.9l2.2-1.9l1.1-1l1.2-0.9c1.6-1.2,3.1-2.4,4.7-3.4
				l2.3-1.6l2.2-1.4c-0.6-0.4-0.2-1.4,0.7-2.6c1.1-1.4,2.3-2.8,3.6-4c0.4-0.4,0.9-0.9,1.3-1.3v-11.1h-5.2c-3.6,2-7.1,4.2-10.5,6.5
				c-8.2,5.6-15.7,12.3-22.3,19.8c-3.2,3.8-6.3,7.7-9.1,11.9c-2.7,4-5.3,8.1-7.7,12.1c-1.4,2.8-5,9.6-10,17.5
				c-2.6,4.2-5.6,8.2-8.9,11.9c-0.8,1-1.8,1.9-2.7,2.9s-1.9,1.9-2.9,2.8c-2.1,1.8-4.2,3.6-6.5,5.2c-2.3,1.7-4.7,3.3-7.2,4.8
				c-1.3,0.8-2.5,1.5-3.8,2.3l-3.9,2.2l-15.6,8.5c-9.8,5.4-18.1,10-22.9,12.8l-1.7,1.1c-5.6,3.3-11,7-16.2,10.9
				c-2.7,1.9-5.1,4.1-7.5,6.1c-1.9,1.8-3.7,3.4-5.3,5.1h36.1C-2090,4033.6-2088.7,4032.7-2087.3,4031.9z"/>
			<path class="st9" d="M-1781.7,3899.6c0-48.7-39.5-88.2-88.2-88.2c0,0,0,0,0,0v88.2H-1781.7z"/>
			<path class="st10" d="M-1869.8,3811.4c-48.7,0-88.2,39.5-88.2,88.2l0,0c0,26.3,11.7,51.3,32.1,68l56.1-68V3811.4z"/>
			<path class="st11" d="M-1869.8,3899.6l-56.1,68c15.8,13,35.6,20.2,56.1,20.1c48.7,0,88.2-39.5,88.2-88.2H-1869.8z"/>
			<rect x="-3422.1" y="3468.9" class="st89" width="1366" height="412"/>
		</g>
	</g>
</g>
</svg>
