<svg xmlns="http://www.w3.org/2000/svg" xmlns:xlink="http://www.w3.org/1999/xlink" width="1366" height="412" viewBox="0 0 1366 412"><defs><style>.a{fill:none;}.b{clip-path:url(#a);}.c,.o{fill:#ce370f;}.d{fill:url(#b);}.e{fill:url(#c);}.f{fill:url(#f);}.g{fill:#ff9a22;}.h{fill:#fc6327;}.i{fill:#c42c0e;}.j{fill:url(#aa);}.k{fill:url(#ah);}.l{fill:url(#bc);}.m{fill:url(#bj);}.n{fill:url(#ce);}.o{opacity:0.88;}</style><clipPath id="a"><rect class="a" width="1366" height="412" transform="translate(-3422.142 3468.883)"/></clipPath><linearGradient id="b" y1="0.5" x2="1" y2="0.5" gradientUnits="objectBoundingBox"><stop offset="0.179" stop-color="#ce370f"/><stop offset="0.593" stop-color="#ff7c22"/></linearGradient><linearGradient id="c" y1="0.5" x2="1" y2="0.5" gradientUnits="objectBoundingBox"><stop offset="0" stop-color="#fc6327"/><stop offset="0.64" stop-color="#ce370f"/></linearGradient><linearGradient id="f" x1="-17.834" y1="-134.4" x2="-16.834" y2="-134.4" xlink:href="#c"/><linearGradient id="aa" x1="-17.835" y1="-134.4" x2="-16.835" y2="-134.4" xlink:href="#c"/><linearGradient id="ah" x1="-17.834" y1="-134.398" x2="-16.835" y2="-134.398" xlink:href="#c"/><linearGradient id="bc" x1="-17.835" y1="-134.398" x2="-16.835" y2="-134.398" xlink:href="#c"/><linearGradient id="bj" x1="-17.834" y1="-134.399" x2="-16.834" y2="-134.399" xlink:href="#c"/><linearGradient id="ce" x1="-17.835" y1="-134.399" x2="-16.835" y2="-134.399" xlink:href="#c"/></defs><g transform="translate(3422.142 -3468.883)"><g class="b"><rect class="c" width="1366" height="412" transform="translate(-3422.142 3468.765)"/><path class="d" d="M-3676.823,3558.087l-126.342,218.832h252.685Z"/><path class="e" d="M-3679.393,3719.8c2.315-2.551,4.7-5.068,7.143-7.439v-20.211c-10.087,7.936-20.641,16.119-30.867,25.806-2.1,2.451-7.68,8.039-14.056,16.572a111.1,111.1,0,0,0-9.417,14.993c-2.912,5.58-5.372,11.389-7.8,16.9-1.212,2.754-2.419,5.429-3.666,7.978-.437.845-.878,1.681-1.318,2.518h23.58l.118-.312a1.046,1.046,0,0,0-.25-.891c.841-1.794,1.611-3.343,2.335-4.749,1.8-4.9,3.536-9.585,5.571-13.976a93.391,93.391,0,0,1,7.35-12.85C-3694.96,3735.726-3687.651,3727.715-3679.393,3719.8Z"/><path class="e" d="M-3673.04,3747.4a110.927,110.927,0,0,0-9.92,14.665c-2.767,4.889-5.176,9.963-7.52,14.855h18.23v-30.493C-3672.513,3746.748-3672.775,3747.067-3673.04,3747.4Z"/><path class="e" d="M-3873.888,3680.842a27.159,27.159,0,0,0,5.835-2.291c.017-.283.035-.57.052-.856,2.034-.761,4.122-1.573,6.238-2.484,2.093-.932,4.163-1.994,6.286-3.039a116.116,116.116,0,0,0,19.639-15.892c-.347-.059-.6-.179-.063-.8,1.22-1.207,2.627-2.617,4.207-4.125s3.34-3.115,4.957-4.833l1.333-1.619a1.091,1.091,0,0,0,.085-.964l4.014-4.138c1.864-2.373,3.685-4.75,5.489-7.125h-27.2c-7.484,7.943-15.345,15.053-22.932,19.831-2.205,1.273-4.267,2.593-6.3,3.684-.554.292-1.094.548-1.64.819Z"/><path class="f" d="M-3852.762,3711.6a33.2,33.2,0,0,1,6.136-3.455,32.1,32.1,0,0,0,6.056-3.685l-.135-.827c3.341-2.056,6.947-4.044,10.423-6.462,3.032-2.411,5.882-5.071,8.727-7.7,1.42-1.318,2.744-2.758,4.109-4.135l2.024-2.09c.669-.7,1.288-1.458,1.931-2.185-.339-.043-.589-.15-.14-.784,1.016-1.252,2.341-2.639,3.783-4.157,1.419-1.545,2.913-3.2,4.356-4.9l1.129-1.6a1.051,1.051,0,0,0-.02-.926c1.262-1.526,2.394-2.834,3.447-4.015,2.963-4.3,5.816-8.4,8.883-12.143a93.49,93.49,0,0,1,10.325-10.608,122.431,122.431,0,0,1,12.036-9.252H-3800.2c-2.657,2.41-5.36,5.1-7.974,7.994-4.213,4.676-8.045,9.687-11.771,14.416-1.861,2.364-3.7,4.653-5.542,6.811-1.89,2.113-3.779,4.2-5.7,6.211a145.81,145.81,0,0,1-11.872,10.771c-1.976,1.573-3.836,3.118-5.73,4.439-1.875,1.339-3.579,2.668-5.287,3.752l-4.61,3.045-3.76,2.255-1.516.99c-3.1,1.876-6.493,3.819-9.932,5.76v25.177c7.177-3.472,14.279-7.217,21.218-11.379C-3852.886,3712.493-3854,3712.634-3852.762,3711.6Z"/><path class="e" d="M-3871.148,3768.611c4.424-5.126,11.08-9.761,18.259-14.152,3.582-2.18,7.512-4.509,11.174-6.619,3.7-2.124,7.343-4.1,10.953-5.828-.177-.437-1.161-.49-.049-1.262,3.624-2.227,7.242-1.94,11.239-3.831l.05-.822c3.344-.829,7-1.563,10.878-2.5,3.436-1.221,7-2.578,10.576-4.168.893-.389,1.8-.826,2.688-1.241l2.645-1.357c1.781-.877,3.45-1.906,5.148-2.886-.315-.145-.523-.324.108-.782,1.343-.9,3-1.862,4.8-2.927,1.765-1.1,3.722-2.246,5.577-3.565l1.559-1.276a1.048,1.048,0,0,0,.23-.917c1.62-1.229,3.14-2.246,4.463-3.259a199.777,199.777,0,0,0,21.712-24.36c6.652-8.574,12.883-17.444,19.736-26.255a109.04,109.04,0,0,1,8.377-11.24,84.324,84.324,0,0,1,7.995-7.423c2.927-2.366,5.907-4.613,8.546-6.444-.6-.4-.3-1.339.438-2.552.055-.087.129-.183.189-.272h-22.209c-9.792,9.04-18.27,18.924-26.633,28.5-1.728,2.41-6.14,8-12.113,14.827a165.4,165.4,0,0,1-22.255,21.467,92.6,92.6,0,0,1-13.4,8.719c-2.3,1.181-4.55,2.279-6.89,3.221-2.334.958-4.717,1.825-7.085,2.642-4.738,1.631-9.4,3.087-13.527,4.537-4.114,1.425-7.713,2.862-10.281,3.979-.615.291-1.221.585-1.819.889a135.085,135.085,0,0,0-16.266,9.113c-2.559,1.653-4.954,3.279-7.313,4.96-2.337,1.693-4.521,3.367-6.432,5.04-1.287,1.2-2.554,2.466-3.8,3.768v16.179c.264-.139.456-.169.517-.019a4.225,4.225,0,0,1-.517.532v10.033A27.614,27.614,0,0,0-3871.148,3768.611Z"/><path class="e" d="M-3801.514,3774.348c-.218-.418-1.291-.3-.124-1.291a29.335,29.335,0,0,1,5.939-3.168,30.01,30.01,0,0,0,6.036-3.094l-.075-.836c3.449-1.567,7.06-3.123,10.786-4.75,6.471-3.694,12.893-7.366,19.408-11.241-.314-.144-.522-.321.111-.789,2.749-1.765,6.824-3.836,10.886-6.457l1.689-1.31a1.114,1.114,0,0,0,.3-.936c1.8-1.237,3.418-2.344,4.906-3.414a89.634,89.634,0,0,0,12.4-13.439,127.337,127.337,0,0,0,9.6-15.06c5.675-10.261,10.222-20.717,16.239-30.553a68.145,68.145,0,0,1,7.87-12.144c1.206-1.259,2.483-2.623,3.914-3.912l2.212-1.915,1.126-.959,1.183-.9c1.576-1.2,3.141-2.4,4.74-3.451l2.309-1.587,2.238-1.426c-.59-.415-.209-1.37.652-2.591a41.888,41.888,0,0,1,3.6-4.008c.45-.449.894-.892,1.318-1.322v-11.122h-5.154q-5.355,3.013-10.483,6.5a118.154,118.154,0,0,0-22.317,19.772,129.988,129.988,0,0,0-9.068,11.871c-2.73,4.037-5.251,8.091-7.677,12.077-1.423,2.839-5,9.646-9.953,17.5a96.57,96.57,0,0,1-8.856,11.886c-.828,1.011-1.766,1.893-2.669,2.851s-1.868,1.851-2.865,2.758a82.3,82.3,0,0,1-6.478,5.222c-2.3,1.676-4.73,3.281-7.223,4.822-1.254.764-2.513,1.522-3.8,2.253l-3.94,2.2-15.561,8.543c-9.792,5.364-18.063,10.023-22.872,12.835l-1.709,1.067a175.768,175.768,0,0,0-16.152,10.89c-2.66,1.946-5.118,4.128-7.466,6.118-1.905,1.749-3.682,3.443-5.271,5.075h36.131C-3804.263,3776.057-3802.9,3775.194-3801.514,3774.348Z"/><path class="g" d="M-3495.885,3642.04a88.182,88.182,0,0,0-88.183-88.182v88.182Z"/><path class="h" d="M-3584.068,3553.857a88.182,88.182,0,0,0-88.182,88.183,88,88,0,0,0,32.09,68.046l56.092-68.046Z"/><path class="i" d="M-3584.068,3642.04l-56.092,68.046a87.819,87.819,0,0,0,56.092,20.137,88.183,88.183,0,0,0,88.183-88.183Z"/><path class="d" d="M-3208.621,3558.087l-126.343,218.832h252.685Z"/><path class="e" d="M-3211.191,3719.8c2.315-2.551,4.7-5.068,7.143-7.439v-20.211c-10.087,7.936-20.641,16.119-30.867,25.806-2.1,2.451-7.68,8.039-14.056,16.572a111.1,111.1,0,0,0-9.417,14.993c-2.912,5.58-5.372,11.389-7.8,16.9-1.212,2.754-2.419,5.429-3.666,7.978-.437.845-.878,1.681-1.318,2.518h23.58l.118-.312a1.047,1.047,0,0,0-.25-.891c.841-1.794,1.611-3.343,2.335-4.749,1.8-4.9,3.536-9.585,5.571-13.976a93.389,93.389,0,0,1,7.35-12.85C-3226.758,3735.726-3219.449,3727.715-3211.191,3719.8Z"/><path class="e" d="M-3204.839,3747.4a111.044,111.044,0,0,0-9.919,14.665c-2.767,4.889-5.176,9.963-7.52,14.855h18.23v-30.493C-3204.311,3746.748-3204.573,3747.067-3204.839,3747.4Z"/><path class="e" d="M-3405.686,3680.842a27.159,27.159,0,0,0,5.835-2.291c.017-.283.035-.57.052-.856,2.034-.761,4.122-1.573,6.238-2.484,2.093-.932,4.163-1.994,6.286-3.039a116.114,116.114,0,0,0,19.639-15.892c-.347-.059-.595-.179-.063-.8,1.22-1.207,2.627-2.617,4.207-4.125s3.34-3.115,4.957-4.833l1.333-1.619a1.092,1.092,0,0,0,.085-.964l4.014-4.138c1.864-2.373,3.685-4.75,5.489-7.125h-27.2c-7.484,7.943-15.345,15.053-22.932,19.831-2.205,1.273-4.267,2.593-6.3,3.684-.553.292-1.093.548-1.639.819Z"/><path class="f" d="M-3384.56,3711.6a33.211,33.211,0,0,1,6.136-3.455,32.113,32.113,0,0,0,6.056-3.685l-.135-.827c3.341-2.056,6.947-4.044,10.423-6.462,3.032-2.411,5.882-5.071,8.727-7.7,1.42-1.318,2.744-2.758,4.109-4.135l2.024-2.09c.669-.7,1.288-1.458,1.931-2.185-.339-.043-.589-.15-.14-.784,1.016-1.252,2.341-2.639,3.783-4.157,1.419-1.545,2.913-3.2,4.356-4.9l1.129-1.6a1.053,1.053,0,0,0-.02-.926c1.262-1.526,2.394-2.834,3.447-4.015,2.963-4.3,5.816-8.4,8.883-12.143a93.492,93.492,0,0,1,10.325-10.608,122.427,122.427,0,0,1,12.036-9.252H-3332c-2.657,2.41-5.36,5.1-7.974,7.994-4.213,4.676-8.045,9.687-11.771,14.416-1.861,2.364-3.7,4.653-5.542,6.811-1.89,2.113-3.779,4.2-5.7,6.211a145.81,145.81,0,0,1-11.872,10.771c-1.976,1.573-3.836,3.118-5.73,4.439-1.875,1.339-3.579,2.668-5.287,3.752l-4.61,3.045-3.76,2.255-1.516.99c-3.1,1.876-6.493,3.819-9.932,5.76v25.177c7.177-3.472,14.279-7.217,21.218-11.379C-3384.684,3712.493-3385.8,3712.634-3384.56,3711.6Z"/><path class="e" d="M-3402.946,3768.611c4.424-5.126,11.08-9.761,18.259-14.152,3.582-2.18,7.512-4.509,11.174-6.619,3.7-2.124,7.343-4.1,10.953-5.828-.177-.437-1.161-.49-.049-1.262,3.624-2.227,7.242-1.94,11.239-3.831l.05-.822c3.344-.829,7-1.563,10.878-2.5,3.436-1.221,7-2.578,10.576-4.168.893-.389,1.795-.826,2.688-1.241l2.645-1.357c1.781-.877,3.45-1.906,5.148-2.886-.315-.145-.523-.324.108-.782,1.343-.9,3-1.862,4.8-2.927,1.765-1.1,3.721-2.246,5.577-3.565l1.559-1.276a1.048,1.048,0,0,0,.23-.917c1.62-1.229,3.14-2.246,4.463-3.259a199.8,199.8,0,0,0,21.712-24.36c6.652-8.574,12.883-17.444,19.736-26.255a109.075,109.075,0,0,1,8.377-11.24,84.358,84.358,0,0,1,8-7.423c2.927-2.366,5.907-4.613,8.546-6.444-.6-.4-.3-1.339.438-2.552.055-.087.129-.183.189-.272h-22.209c-9.792,9.04-18.27,18.924-26.633,28.5-1.728,2.41-6.14,8-12.113,14.827a165.408,165.408,0,0,1-22.255,21.467,92.6,92.6,0,0,1-13.4,8.719c-2.3,1.181-4.55,2.279-6.89,3.221-2.334.958-4.717,1.825-7.085,2.642-4.738,1.631-9.4,3.087-13.527,4.537-4.114,1.425-7.713,2.862-10.281,3.979-.615.291-1.221.585-1.819.889a135.085,135.085,0,0,0-16.266,9.113c-2.559,1.653-4.954,3.279-7.313,4.96-2.337,1.693-4.521,3.367-6.432,5.04-1.287,1.2-2.554,2.466-3.8,3.768v16.179c.264-.139.456-.169.517-.019a4.23,4.23,0,0,1-.517.532v10.033A27.557,27.557,0,0,0-3402.946,3768.611Z"/><path class="e" d="M-3333.312,3774.348c-.218-.418-1.291-.3-.124-1.291a29.341,29.341,0,0,1,5.939-3.168,30,30,0,0,0,6.036-3.094l-.075-.836c3.449-1.567,7.06-3.123,10.786-4.75,6.471-3.694,12.893-7.366,19.408-11.241-.314-.144-.522-.321.111-.789,2.749-1.765,6.824-3.836,10.886-6.457l1.689-1.31a1.115,1.115,0,0,0,.3-.936c1.8-1.237,3.418-2.344,4.906-3.414a89.632,89.632,0,0,0,12.4-13.439,127.337,127.337,0,0,0,9.6-15.06c5.675-10.261,10.222-20.717,16.239-30.553a68.144,68.144,0,0,1,7.87-12.144c1.206-1.259,2.483-2.623,3.914-3.912l2.212-1.915,1.126-.959,1.183-.9c1.576-1.2,3.141-2.4,4.74-3.451l2.309-1.587,2.238-1.426c-.59-.415-.209-1.37.652-2.591a41.893,41.893,0,0,1,3.6-4.008c.45-.449.894-.892,1.318-1.322v-11.122h-5.154q-5.355,3.013-10.483,6.5A118.145,118.145,0,0,0-3242,3658.948a129.948,129.948,0,0,0-9.068,11.871c-2.73,4.037-5.251,8.091-7.677,12.077-1.423,2.839-5,9.646-9.953,17.5a96.62,96.62,0,0,1-8.856,11.886c-.828,1.011-1.766,1.893-2.669,2.851s-1.868,1.851-2.865,2.758a82.208,82.208,0,0,1-6.478,5.222c-2.3,1.676-4.73,3.281-7.223,4.822-1.254.764-2.513,1.522-3.8,2.253l-3.94,2.2-15.561,8.543c-9.792,5.364-18.063,10.023-22.872,12.835l-1.709,1.067a175.771,175.771,0,0,0-16.152,10.89c-2.66,1.946-5.118,4.128-7.466,6.118-1.9,1.749-3.682,3.443-5.271,5.075h36.131C-3336.061,3776.057-3334.7,3775.194-3333.312,3774.348Z"/><path class="g" d="M-3027.683,3642.04a88.182,88.182,0,0,0-88.183-88.182v88.182Z"/><path class="h" d="M-3115.866,3553.857a88.182,88.182,0,0,0-88.182,88.183,88,88,0,0,0,32.09,68.046l56.092-68.046Z"/><path class="i" d="M-3115.866,3642.04l-56.092,68.046a87.819,87.819,0,0,0,56.092,20.137,88.183,88.183,0,0,0,88.183-88.183Z"/><path class="d" d="M-2740.419,3558.087l-126.343,218.832h252.685Z"/><path class="e" d="M-2742.989,3719.8c2.315-2.551,4.7-5.068,7.143-7.439v-20.211c-10.087,7.936-20.641,16.119-30.867,25.806-2.1,2.451-7.68,8.039-14.056,16.572a111.1,111.1,0,0,0-9.417,14.993c-2.912,5.58-5.372,11.389-7.8,16.9-1.212,2.754-2.419,5.429-3.666,7.978-.437.845-.878,1.681-1.318,2.518h23.58l.118-.312a1.047,1.047,0,0,0-.25-.891c.841-1.794,1.611-3.343,2.335-4.749,1.8-4.9,3.536-9.585,5.571-13.976a93.366,93.366,0,0,1,7.35-12.85C-2758.556,3735.726-2751.247,3727.715-2742.989,3719.8Z"/><path class="e" d="M-2736.637,3747.4a111.02,111.02,0,0,0-9.919,14.665c-2.767,4.889-5.176,9.963-7.52,14.855h18.23v-30.493C-2736.109,3746.748-2736.371,3747.067-2736.637,3747.4Z"/><path class="e" d="M-2937.484,3680.842a27.159,27.159,0,0,0,5.835-2.291c.017-.283.035-.57.052-.856,2.034-.761,4.122-1.573,6.238-2.484,2.093-.932,4.163-1.994,6.286-3.039a116.1,116.1,0,0,0,19.639-15.892c-.347-.059-.595-.179-.063-.8,1.22-1.207,2.627-2.617,4.207-4.125s3.34-3.115,4.957-4.833l1.333-1.619a1.094,1.094,0,0,0,.085-.964c1.479-1.524,2.794-2.881,4.014-4.138,1.864-2.373,3.685-4.75,5.489-7.125h-27.2c-7.484,7.943-15.345,15.053-22.932,19.831-2.2,1.273-4.267,2.593-6.3,3.684-.553.292-1.093.548-1.639.819Z"/><path class="f" d="M-2916.358,3711.6a33.2,33.2,0,0,1,6.136-3.455,32.119,32.119,0,0,0,6.056-3.685l-.135-.827c3.341-2.056,6.947-4.044,10.423-6.462,3.032-2.411,5.882-5.071,8.727-7.7,1.42-1.318,2.744-2.758,4.109-4.135l2.024-2.09c.669-.7,1.288-1.458,1.931-2.185-.339-.043-.589-.15-.14-.784,1.016-1.252,2.341-2.639,3.783-4.157,1.419-1.545,2.913-3.2,4.356-4.9l1.129-1.6a1.052,1.052,0,0,0-.02-.926c1.262-1.526,2.394-2.834,3.447-4.015,2.963-4.3,5.816-8.4,8.883-12.143a93.49,93.49,0,0,1,10.325-10.608,122.456,122.456,0,0,1,12.036-9.252h-30.506c-2.657,2.41-5.36,5.1-7.974,7.994-4.213,4.676-8.045,9.687-11.771,14.416-1.861,2.364-3.7,4.653-5.542,6.811-1.89,2.113-3.779,4.2-5.7,6.211a145.849,145.849,0,0,1-11.872,10.771c-1.976,1.573-3.836,3.118-5.73,4.439-1.875,1.339-3.579,2.668-5.287,3.752l-4.61,3.045-3.76,2.255-1.516.99c-3.1,1.876-6.493,3.819-9.932,5.76v25.177c7.177-3.472,14.279-7.217,21.218-11.379C-2916.482,3712.493-2917.595,3712.634-2916.358,3711.6Z"/><path class="e" d="M-2934.744,3768.611c4.424-5.126,11.08-9.761,18.259-14.152,3.582-2.18,7.511-4.509,11.174-6.619,3.7-2.124,7.343-4.1,10.953-5.828-.178-.437-1.161-.49-.049-1.262,3.624-2.227,7.242-1.94,11.239-3.831l.05-.822c3.344-.829,7-1.563,10.878-2.5,3.436-1.221,7-2.578,10.576-4.168.893-.389,1.8-.826,2.688-1.241l2.645-1.357c1.781-.877,3.45-1.906,5.148-2.886-.315-.145-.523-.324.108-.782,1.343-.9,3-1.862,4.8-2.927,1.765-1.1,3.721-2.246,5.577-3.565l1.559-1.276a1.048,1.048,0,0,0,.23-.917c1.62-1.229,3.14-2.246,4.463-3.259a199.8,199.8,0,0,0,21.712-24.36c6.652-8.574,12.883-17.444,19.736-26.255a109.075,109.075,0,0,1,8.377-11.24,84.358,84.358,0,0,1,8-7.423c2.927-2.366,5.907-4.613,8.546-6.444-.6-.4-.3-1.339.438-2.552.055-.087.129-.183.189-.272h-22.209c-9.792,9.04-18.27,18.924-26.633,28.5-1.728,2.41-6.14,8-12.113,14.827a165.393,165.393,0,0,1-22.255,21.467,92.545,92.545,0,0,1-13.4,8.719c-2.3,1.181-4.549,2.279-6.889,3.221-2.334.958-4.717,1.825-7.085,2.642-4.738,1.631-9.4,3.087-13.527,4.537-4.114,1.425-7.713,2.862-10.281,3.979-.615.291-1.221.585-1.819.889a135.088,135.088,0,0,0-16.266,9.113c-2.559,1.653-4.954,3.279-7.313,4.96-2.337,1.693-4.521,3.367-6.432,5.04-1.287,1.2-2.554,2.466-3.8,3.768v16.179c.264-.139.456-.169.517-.019a4.225,4.225,0,0,1-.517.532v10.033A27.614,27.614,0,0,0-2934.744,3768.611Z"/><path class="e" d="M-2865.11,3774.348c-.218-.418-1.291-.3-.124-1.291a29.335,29.335,0,0,1,5.939-3.168,30.01,30.01,0,0,0,6.036-3.094l-.075-.836c3.449-1.567,7.06-3.123,10.786-4.75,6.471-3.694,12.893-7.366,19.408-11.241-.314-.144-.522-.321.111-.789,2.749-1.765,6.824-3.836,10.886-6.457l1.689-1.31a1.114,1.114,0,0,0,.3-.936c1.8-1.237,3.418-2.344,4.906-3.414a89.634,89.634,0,0,0,12.4-13.439,127.334,127.334,0,0,0,9.6-15.06c5.675-10.261,10.222-20.717,16.239-30.553a68.132,68.132,0,0,1,7.87-12.144c1.206-1.259,2.483-2.623,3.914-3.912l2.212-1.915,1.126-.959,1.183-.9c1.576-1.2,3.141-2.4,4.74-3.451l2.309-1.587,2.238-1.426c-.59-.415-.209-1.37.652-2.591a41.855,41.855,0,0,1,3.6-4.008c.45-.449.894-.892,1.318-1.322v-11.122H-2741q-5.355,3.013-10.483,6.5a118.154,118.154,0,0,0-22.317,19.772,129.944,129.944,0,0,0-9.068,11.871c-2.73,4.037-5.251,8.091-7.677,12.077-1.423,2.839-5,9.646-9.953,17.5a96.6,96.6,0,0,1-8.856,11.886c-.828,1.011-1.766,1.893-2.669,2.851s-1.868,1.851-2.865,2.758a82.3,82.3,0,0,1-6.478,5.222c-2.3,1.676-4.73,3.281-7.223,4.822-1.254.764-2.513,1.522-3.8,2.253l-3.94,2.2-15.561,8.543c-9.792,5.364-18.063,10.023-22.872,12.835l-1.709,1.067a175.768,175.768,0,0,0-16.152,10.89c-2.66,1.946-5.118,4.128-7.466,6.118-1.905,1.749-3.682,3.443-5.271,5.075h36.131C-2867.859,3776.057-2866.5,3775.194-2865.11,3774.348Z"/><path class="g" d="M-2559.481,3642.04a88.182,88.182,0,0,0-88.183-88.182v88.182Z"/><path class="h" d="M-2647.664,3553.857a88.182,88.182,0,0,0-88.182,88.183,88,88,0,0,0,32.09,68.046l56.092-68.046Z"/><path class="i" d="M-2647.664,3642.04l-56.092,68.046a87.82,87.82,0,0,0,56.092,20.137,88.183,88.183,0,0,0,88.183-88.183Z"/><path class="d" d="M-2272.217,3558.087l-126.342,218.832h252.685Z"/><path class="e" d="M-2274.787,3719.8c2.315-2.551,4.7-5.068,7.143-7.439v-20.211c-10.087,7.936-20.641,16.119-30.867,25.806-2.1,2.451-7.68,8.039-14.056,16.572a111.052,111.052,0,0,0-9.417,14.993c-2.912,5.58-5.372,11.389-7.8,16.9-1.212,2.754-2.419,5.429-3.666,7.978-.437.845-.878,1.681-1.318,2.518h23.58l.118-.312a1.046,1.046,0,0,0-.25-.891c.841-1.794,1.611-3.343,2.335-4.749,1.8-4.9,3.536-9.585,5.571-13.976a93.416,93.416,0,0,1,7.35-12.85C-2290.354,3735.726-2283.045,3727.715-2274.787,3719.8Z"/><path class="e" d="M-2268.435,3747.4a111.02,111.02,0,0,0-9.919,14.665c-2.767,4.889-5.176,9.963-7.52,14.855h18.23v-30.493C-2267.907,3746.748-2268.169,3747.067-2268.435,3747.4Z"/><path class="e" d="M-2469.282,3680.842a27.159,27.159,0,0,0,5.835-2.291c.017-.283.035-.57.052-.856,2.034-.761,4.122-1.573,6.238-2.484,2.093-.932,4.163-1.994,6.286-3.039a116.116,116.116,0,0,0,19.639-15.892c-.347-.059-.595-.179-.063-.8,1.22-1.207,2.627-2.617,4.207-4.125s3.34-3.115,4.957-4.833l1.333-1.619a1.1,1.1,0,0,0,.085-.964l4.014-4.138c1.864-2.373,3.685-4.75,5.489-7.125h-27.2c-7.484,7.943-15.345,15.053-22.932,19.831-2.205,1.273-4.267,2.593-6.3,3.684-.553.292-1.093.548-1.639.819Z"/><path class="j" d="M-2448.156,3711.6a33.211,33.211,0,0,1,6.136-3.455,32.1,32.1,0,0,0,6.056-3.685l-.135-.827c3.341-2.056,6.947-4.044,10.423-6.462,3.032-2.411,5.882-5.071,8.727-7.7,1.42-1.318,2.744-2.758,4.109-4.135l2.024-2.09c.669-.7,1.288-1.458,1.931-2.185-.339-.043-.589-.15-.14-.784,1.016-1.252,2.341-2.639,3.783-4.157,1.419-1.545,2.913-3.2,4.356-4.9l1.129-1.6a1.051,1.051,0,0,0-.02-.926c1.262-1.526,2.394-2.834,3.447-4.015,2.962-4.3,5.816-8.4,8.883-12.143a93.51,93.51,0,0,1,10.325-10.608,122.46,122.46,0,0,1,12.036-9.252h-30.506c-2.657,2.41-5.36,5.1-7.974,7.994-4.213,4.676-8.045,9.687-11.771,14.416-1.861,2.364-3.7,4.653-5.542,6.811-1.89,2.113-3.779,4.2-5.7,6.211a145.81,145.81,0,0,1-11.872,10.771c-1.976,1.573-3.836,3.118-5.73,4.439-1.875,1.339-3.579,2.668-5.287,3.752l-4.61,3.045-3.76,2.255-1.516.99c-3.1,1.876-6.493,3.819-9.932,5.76v25.177c7.177-3.472,14.279-7.217,21.218-11.379C-2448.28,3712.493-2449.393,3712.634-2448.156,3711.6Z"/><path class="e" d="M-2466.542,3768.611c4.424-5.126,11.08-9.761,18.259-14.152,3.582-2.18,7.511-4.509,11.174-6.619,3.7-2.124,7.343-4.1,10.953-5.828-.178-.437-1.161-.49-.049-1.262,3.624-2.227,7.241-1.94,11.239-3.831l.05-.822c3.344-.829,7-1.563,10.878-2.5,3.436-1.221,7-2.578,10.576-4.168.893-.389,1.795-.826,2.688-1.241l2.645-1.357c1.781-.877,3.45-1.906,5.148-2.886-.315-.145-.523-.324.108-.782,1.343-.9,3-1.862,4.8-2.927,1.765-1.1,3.721-2.246,5.577-3.565l1.559-1.276a1.048,1.048,0,0,0,.23-.917c1.62-1.229,3.14-2.246,4.463-3.259a199.8,199.8,0,0,0,21.712-24.36c6.652-8.574,12.883-17.444,19.736-26.255a109.075,109.075,0,0,1,8.377-11.24,84.354,84.354,0,0,1,7.995-7.423c2.927-2.366,5.907-4.613,8.546-6.444-.6-.4-.3-1.339.438-2.552.055-.087.129-.183.189-.272h-22.209c-9.792,9.04-18.27,18.924-26.633,28.5-1.728,2.41-6.14,8-12.113,14.827a165.4,165.4,0,0,1-22.255,21.467,92.56,92.56,0,0,1-13.405,8.719c-2.3,1.181-4.549,2.279-6.889,3.221-2.334.958-4.717,1.825-7.085,2.642-4.738,1.631-9.4,3.087-13.527,4.537-4.114,1.425-7.713,2.862-10.281,3.979-.615.291-1.221.585-1.819.889a135.085,135.085,0,0,0-16.266,9.113c-2.559,1.653-4.954,3.279-7.313,4.96-2.337,1.693-4.521,3.367-6.432,5.04-1.287,1.2-2.554,2.466-3.8,3.768v16.179c.264-.139.456-.169.517-.019a4.23,4.23,0,0,1-.517.532v10.033A27.586,27.586,0,0,0-2466.542,3768.611Z"/><path class="e" d="M-2396.908,3774.348c-.218-.418-1.291-.3-.124-1.291a29.341,29.341,0,0,1,5.939-3.168,30.018,30.018,0,0,0,6.036-3.094l-.075-.836c3.449-1.567,7.06-3.123,10.786-4.75,6.471-3.694,12.893-7.366,19.408-11.241-.314-.144-.522-.321.111-.789,2.749-1.765,6.824-3.836,10.886-6.457l1.689-1.31a1.115,1.115,0,0,0,.3-.936c1.8-1.237,3.418-2.344,4.906-3.414a89.645,89.645,0,0,0,12.4-13.439,127.337,127.337,0,0,0,9.6-15.06c5.675-10.261,10.222-20.717,16.239-30.553a68.144,68.144,0,0,1,7.87-12.144c1.206-1.259,2.483-2.623,3.914-3.912l2.211-1.915,1.127-.959,1.183-.9c1.576-1.2,3.141-2.4,4.74-3.451l2.309-1.587,2.238-1.426c-.59-.415-.209-1.37.652-2.591a41.893,41.893,0,0,1,3.6-4.008c.45-.449.894-.892,1.318-1.322v-11.122h-5.154q-5.355,3.013-10.483,6.5a118.145,118.145,0,0,0-22.317,19.772,129.948,129.948,0,0,0-9.068,11.871c-2.73,4.037-5.251,8.091-7.677,12.077-1.423,2.839-5,9.646-9.953,17.5a96.6,96.6,0,0,1-8.856,11.886c-.828,1.011-1.766,1.893-2.669,2.851s-1.868,1.851-2.865,2.758a82.3,82.3,0,0,1-6.478,5.222c-2.3,1.676-4.73,3.281-7.223,4.822-1.254.764-2.513,1.522-3.8,2.253l-3.94,2.2-15.561,8.543c-9.792,5.364-18.063,10.023-22.872,12.835l-1.709,1.067a175.771,175.771,0,0,0-16.152,10.89c-2.66,1.946-5.118,4.128-7.466,6.118-1.905,1.749-3.682,3.443-5.271,5.075h36.131C-2399.657,3776.057-2398.295,3775.194-2396.908,3774.348Z"/><path class="g" d="M-2091.279,3642.04a88.182,88.182,0,0,0-88.183-88.182v88.182Z"/><path class="h" d="M-2179.462,3553.857a88.182,88.182,0,0,0-88.182,88.183,88,88,0,0,0,32.09,68.046l56.092-68.046Z"/><path class="i" d="M-2179.462,3642.04l-56.092,68.046a87.819,87.819,0,0,0,56.092,20.137,88.183,88.183,0,0,0,88.183-88.183Z"/><path class="d" d="M-3444.76,3300.573-3571.1,3519.4h252.685Z"/><path class="e" d="M-3447.33,3462.288c2.315-2.551,4.7-5.068,7.143-7.439v-20.211c-10.087,7.937-20.641,16.119-30.867,25.807-2.1,2.451-7.68,8.039-14.056,16.572a111.085,111.085,0,0,0-9.417,14.993c-2.912,5.58-5.372,11.389-7.8,16.9-1.212,2.754-2.419,5.429-3.666,7.979-.437.845-.878,1.68-1.318,2.518h23.58l.118-.313a1.047,1.047,0,0,0-.25-.891c.841-1.794,1.611-3.342,2.335-4.749,1.8-4.9,3.536-9.585,5.571-13.976a93.445,93.445,0,0,1,7.35-12.85C-3462.9,3478.213-3455.588,3470.2-3447.33,3462.288Z"/><path class="e" d="M-3440.977,3489.885a110.782,110.782,0,0,0-9.92,14.665c-2.767,4.889-5.176,9.962-7.52,14.855h18.23v-30.493C-3440.45,3489.234-3440.712,3489.553-3440.977,3489.885Z"/><path class="e" d="M-3641.825,3423.329a27.274,27.274,0,0,0,5.835-2.291q.026-.426.052-.857c2.034-.761,4.122-1.573,6.238-2.484,2.093-.932,4.163-1.994,6.286-3.039a116.055,116.055,0,0,0,19.639-15.892c-.347-.059-.6-.179-.063-.8,1.22-1.206,2.627-2.617,4.207-4.125s3.34-3.114,4.957-4.833l1.333-1.618a1.093,1.093,0,0,0,.085-.965l4.014-4.138c1.864-2.372,3.685-4.75,5.489-7.125h-27.2c-7.484,7.943-15.345,15.053-22.932,19.831-2.205,1.273-4.267,2.594-6.3,3.685-.554.291-1.093.547-1.64.818Z"/><path class="k" d="M-3620.7,3454.089a33.175,33.175,0,0,1,6.136-3.455,32.053,32.053,0,0,0,6.056-3.685l-.135-.827c3.341-2.056,6.947-4.044,10.423-6.461,3.032-2.412,5.882-5.072,8.727-7.7,1.42-1.318,2.744-2.758,4.109-4.135l2.024-2.09c.669-.7,1.288-1.458,1.931-2.185-.339-.042-.589-.149-.14-.784,1.016-1.252,2.341-2.639,3.783-4.156,1.419-1.545,2.913-3.2,4.356-4.905l1.129-1.6a1.049,1.049,0,0,0-.02-.925c1.262-1.527,2.394-2.835,3.447-4.016,2.963-4.3,5.817-8.4,8.883-12.143a93.512,93.512,0,0,1,10.325-10.608,122.657,122.657,0,0,1,12.036-9.252h-30.506c-2.657,2.41-5.36,5.1-7.974,7.994-4.213,4.676-8.045,9.687-11.771,14.416-1.861,2.364-3.7,4.653-5.542,6.811-1.89,2.114-3.779,4.2-5.7,6.212a146.17,146.17,0,0,1-11.872,10.771c-1.976,1.572-3.836,3.117-5.73,4.438-1.875,1.339-3.579,2.668-5.287,3.752l-4.61,3.046-3.76,2.254-1.516.991c-3.1,1.876-6.493,3.819-9.932,5.759v25.178c7.177-3.473,14.279-7.218,21.218-11.38C-3620.823,3454.979-3621.936,3455.12-3620.7,3454.089Z"/><path class="e" d="M-3639.085,3511.1c4.424-5.126,11.08-9.761,18.259-14.151,3.582-2.181,7.512-4.51,11.174-6.62,3.7-2.124,7.343-4.1,10.953-5.827-.177-.438-1.161-.49-.049-1.262,3.624-2.227,7.242-1.94,11.239-3.831l.05-.823c3.344-.829,7-1.563,10.878-2.5,3.436-1.222,7-2.579,10.576-4.169.893-.389,1.795-.826,2.688-1.241l2.645-1.356c1.781-.878,3.45-1.906,5.148-2.887-.315-.145-.523-.323.108-.782,1.343-.9,3-1.862,4.8-2.927,1.765-1.1,3.722-2.246,5.577-3.565.524-.428,1.046-.855,1.559-1.276a1.048,1.048,0,0,0,.23-.917c1.62-1.229,3.14-2.245,4.463-3.258a199.9,199.9,0,0,0,21.712-24.361c6.652-8.574,12.883-17.444,19.736-26.254a109.169,109.169,0,0,1,8.377-11.241,84.128,84.128,0,0,1,7.995-7.422c2.927-2.367,5.907-4.614,8.546-6.445-.6-.4-.3-1.339.438-2.551.055-.087.129-.184.189-.273H-3494c-9.792,9.04-18.27,18.925-26.633,28.5-1.728,2.41-6.14,8-12.113,14.826A165.39,165.39,0,0,1-3555,3439.95a92.482,92.482,0,0,1-13.4,8.719c-2.3,1.182-4.55,2.28-6.89,3.222s-4.717,1.824-7.085,2.642c-4.738,1.63-9.4,3.086-13.527,4.537-4.114,1.424-7.713,2.861-10.281,3.978q-.922.437-1.819.889a135.185,135.185,0,0,0-16.266,9.113c-2.559,1.653-4.954,3.279-7.313,4.96-2.337,1.693-4.521,3.367-6.432,5.04-1.287,1.2-2.554,2.466-3.8,3.769V3503c.264-.139.456-.168.517-.019a4.306,4.306,0,0,1-.517.533v10.032A27.552,27.552,0,0,0-3639.085,3511.1Z"/><path class="e" d="M-3569.451,3516.834c-.218-.418-1.291-.3-.124-1.29a29.328,29.328,0,0,1,5.939-3.169,30.022,30.022,0,0,0,6.036-3.094l-.075-.835c3.449-1.567,7.06-3.123,10.786-4.751,6.471-3.694,12.893-7.366,19.408-11.241-.314-.143-.522-.321.111-.788,2.749-1.766,6.824-3.837,10.886-6.458l1.689-1.309a1.115,1.115,0,0,0,.3-.937c1.8-1.237,3.418-2.343,4.906-3.414a89.576,89.576,0,0,0,12.4-13.439,127.314,127.314,0,0,0,9.6-15.06c5.675-10.26,10.222-20.716,16.239-30.553a68.171,68.171,0,0,1,7.87-12.144c1.206-1.259,2.483-2.623,3.914-3.912l2.212-1.915,1.126-.958,1.183-.9c1.576-1.2,3.141-2.4,4.74-3.451l2.309-1.587,2.238-1.425c-.59-.416-.209-1.371.652-2.592a41.978,41.978,0,0,1,3.6-4.008c.45-.449.894-.892,1.318-1.322v-11.122h-5.154q-5.355,3.014-10.483,6.5a118.126,118.126,0,0,0-22.317,19.773,130.007,130.007,0,0,0-9.068,11.87c-2.73,4.037-5.251,8.091-7.677,12.078-1.423,2.838-5,9.646-9.953,17.5a96.653,96.653,0,0,1-8.856,11.887c-.828,1.01-1.766,1.892-2.669,2.85s-1.868,1.851-2.865,2.759a82.455,82.455,0,0,1-6.478,5.221c-2.3,1.677-4.73,3.282-7.223,4.823-1.254.764-2.513,1.521-3.8,2.252l-3.94,2.2-15.561,8.543c-9.792,5.365-18.063,10.023-22.872,12.835l-1.709,1.067a176.012,176.012,0,0,0-16.152,10.89c-2.66,1.946-5.118,4.128-7.466,6.118-1.905,1.749-3.682,3.444-5.271,5.076h36.131C-3572.2,3518.543-3570.838,3517.681-3569.451,3516.834Z"/><path class="g" d="M-3263.822,3384.526A88.182,88.182,0,0,0-3352,3296.344v88.182Z"/><path class="h" d="M-3352,3296.344a88.181,88.181,0,0,0-88.182,88.182,88,88,0,0,0,32.09,68.046l56.092-68.046Z"/><path class="i" d="M-3352,3384.526l-56.092,68.046A87.819,87.819,0,0,0-3352,3472.709a88.183,88.183,0,0,0,88.183-88.183Z"/><path class="d" d="M-2951.107,3300.573-3077.45,3519.4h252.685Z"/><path class="e" d="M-2953.677,3462.288c2.314-2.551,4.7-5.068,7.142-7.439v-20.211c-10.087,7.937-20.641,16.119-30.866,25.807-2.1,2.451-7.681,8.039-14.056,16.572a110.891,110.891,0,0,0-9.417,14.993c-2.912,5.58-5.372,11.389-7.8,16.9-1.212,2.754-2.419,5.429-3.666,7.979-.437.845-.878,1.68-1.318,2.518h23.581l.118-.313a1.048,1.048,0,0,0-.25-.891c.841-1.794,1.61-3.342,2.335-4.749,1.8-4.9,3.536-9.585,5.571-13.976a93.41,93.41,0,0,1,7.349-12.85C-2969.245,3478.213-2961.935,3470.2-2953.677,3462.288Z"/><path class="e" d="M-2947.325,3489.885a110.971,110.971,0,0,0-9.92,14.665c-2.766,4.889-5.175,9.962-7.519,14.855h18.229v-30.493C-2946.8,3489.234-2947.059,3489.553-2947.325,3489.885Z"/><path class="e" d="M-3148.172,3423.329a27.291,27.291,0,0,0,5.835-2.291q.025-.426.052-.857c2.034-.761,4.122-1.573,6.238-2.484,2.093-.932,4.163-1.994,6.286-3.039a116.044,116.044,0,0,0,19.639-15.892c-.348-.059-.6-.179-.063-.8,1.22-1.206,2.627-2.617,4.207-4.125s3.34-3.114,4.956-4.833l1.334-1.618a1.1,1.1,0,0,0,.085-.965c1.478-1.524,2.794-2.88,4.013-4.138,1.864-2.372,3.686-4.75,5.489-7.125h-27.2c-7.485,7.943-15.345,15.053-22.933,19.831-2.2,1.273-4.267,2.594-6.3,3.685-.553.291-1.093.547-1.639.818Z"/><path class="k" d="M-3127.046,3454.089a33.136,33.136,0,0,1,6.136-3.455,32.1,32.1,0,0,0,6.056-3.685l-.136-.827c3.342-2.056,6.948-4.044,10.424-6.461,3.031-2.412,5.882-5.072,8.726-7.7,1.421-1.318,2.745-2.758,4.11-4.135l2.024-2.09c.668-.7,1.288-1.458,1.931-2.185-.339-.042-.589-.149-.14-.784,1.016-1.252,2.341-2.639,3.782-4.156,1.42-1.545,2.913-3.2,4.356-4.905l1.129-1.6a1.043,1.043,0,0,0-.02-.925c1.263-1.527,2.4-2.835,3.447-4.016,2.963-4.3,5.817-8.4,8.884-12.143a93.512,93.512,0,0,1,10.325-10.608,122.566,122.566,0,0,1,12.036-9.252h-30.506c-2.657,2.41-5.36,5.1-7.974,7.994-4.213,4.676-8.045,9.687-11.771,14.416-1.861,2.364-3.7,4.653-5.542,6.811-1.89,2.114-3.78,4.2-5.7,6.212a146.038,146.038,0,0,1-11.871,10.771c-1.976,1.572-3.836,3.117-5.73,4.438-1.875,1.339-3.579,2.668-5.287,3.752l-4.61,3.046-3.76,2.254-1.516.991c-3.1,1.876-6.493,3.819-9.932,5.759v25.178c7.177-3.473,14.279-7.218,21.217-11.38C-3127.171,3454.979-3128.283,3455.12-3127.046,3454.089Z"/><path class="e" d="M-3145.432,3511.1c4.424-5.126,11.08-9.761,18.259-14.151,3.582-2.181,7.511-4.51,11.173-6.62,3.7-2.124,7.343-4.1,10.953-5.827-.177-.438-1.16-.49-.048-1.262,3.624-2.227,7.241-1.94,11.239-3.831l.05-.823c3.344-.829,7-1.563,10.877-2.5,3.437-1.222,7-2.579,10.577-4.169.893-.389,1.8-.826,2.688-1.241l2.645-1.356c1.78-.878,3.45-1.906,5.148-2.887-.315-.145-.523-.323.108-.782,1.343-.9,3-1.862,4.8-2.927,1.765-1.1,3.721-2.246,5.577-3.565l1.559-1.276a1.047,1.047,0,0,0,.229-.917c1.62-1.229,3.141-2.245,4.463-3.258a199.711,199.711,0,0,0,21.712-24.361c6.653-8.574,12.884-17.444,19.737-26.254a109.2,109.2,0,0,1,8.376-11.241,84.4,84.4,0,0,1,8-7.422c2.927-2.367,5.907-4.614,8.547-6.445-.6-.4-.3-1.339.437-2.551.056-.087.129-.184.189-.273h-22.208c-9.792,9.04-18.271,18.925-26.633,28.5-1.729,2.41-6.14,8-12.114,14.826a165.262,165.262,0,0,1-22.255,21.467,92.414,92.414,0,0,1-13.4,8.719c-2.3,1.182-4.55,2.28-6.889,3.222s-4.718,1.824-7.086,2.642c-4.737,1.63-9.4,3.086-13.527,4.537-4.113,1.424-7.713,2.861-10.28,3.978q-.924.437-1.819.889a135.188,135.188,0,0,0-16.266,9.113c-2.559,1.653-4.955,3.279-7.313,4.96-2.338,1.693-4.522,3.367-6.432,5.04-1.287,1.2-2.554,2.466-3.805,3.769V3503c.264-.139.456-.168.516-.019a4.2,4.2,0,0,1-.516.533v10.032A27.559,27.559,0,0,0-3145.432,3511.1Z"/><path class="e" d="M-3075.8,3516.834c-.217-.418-1.29-.3-.123-1.29a29.311,29.311,0,0,1,5.939-3.169,30.022,30.022,0,0,0,6.036-3.094l-.075-.835c3.449-1.567,7.06-3.123,10.785-4.751,6.472-3.694,12.894-7.366,19.409-11.241-.314-.143-.522-.321.111-.788,2.749-1.766,6.823-3.837,10.886-6.458l1.689-1.309a1.115,1.115,0,0,0,.3-.937c1.8-1.237,3.418-2.343,4.906-3.414a89.519,89.519,0,0,0,12.4-13.439,127.062,127.062,0,0,0,9.6-15.06c5.675-10.26,10.223-20.716,16.24-30.553a68.05,68.05,0,0,1,7.87-12.144c1.206-1.259,2.483-2.623,3.913-3.912q1.094-.945,2.212-1.915l1.127-.958,1.182-.9c1.577-1.2,3.141-2.4,4.741-3.451l2.308-1.587,2.239-1.425c-.59-.416-.209-1.371.652-2.592a41.84,41.84,0,0,1,3.6-4.008c.449-.449.894-.892,1.317-1.322v-11.122h-5.153q-5.355,3.014-10.483,6.5a118.131,118.131,0,0,0-22.318,19.773,130.127,130.127,0,0,0-9.067,11.87c-2.73,4.037-5.251,8.091-7.677,12.078-1.423,2.838-5,9.646-9.953,17.5a96.614,96.614,0,0,1-8.857,11.887c-.827,1.01-1.766,1.892-2.668,2.85s-1.868,1.851-2.866,2.759a82.455,82.455,0,0,1-6.478,5.221c-2.3,1.677-4.729,3.282-7.222,4.823-1.254.764-2.514,1.521-3.8,2.252l-3.94,2.2-15.562,8.543c-9.791,5.365-18.062,10.023-22.871,12.835l-1.71,1.067a176,176,0,0,0-16.151,10.89c-2.661,1.946-5.118,4.128-7.466,6.118-1.905,1.749-3.682,3.444-5.272,5.076h36.132C-3078.548,3518.543-3077.185,3517.681-3075.8,3516.834Z"/><path class="g" d="M-2770.17,3384.526a88.181,88.181,0,0,0-88.182-88.182v88.182Z"/><path class="h" d="M-2858.352,3296.344a88.182,88.182,0,0,0-88.183,88.182,88,88,0,0,0,32.091,68.046l56.092-68.046Z"/><path class="i" d="M-2858.352,3384.526l-56.092,68.046a87.82,87.82,0,0,0,56.092,20.137,88.183,88.183,0,0,0,88.183-88.183Z"/><path class="d" d="M-2450.6,3300.573-2576.941,3519.4h252.685Z"/><path class="e" d="M-2453.169,3462.288c2.315-2.551,4.7-5.068,7.143-7.439v-20.211c-10.087,7.937-20.641,16.119-30.866,25.807-2.1,2.451-7.681,8.039-14.057,16.572a111.085,111.085,0,0,0-9.417,14.993c-2.912,5.58-5.372,11.389-7.8,16.9-1.212,2.754-2.419,5.429-3.666,7.979-.437.845-.878,1.68-1.318,2.518h23.58c.039-.1.08-.21.119-.313a1.048,1.048,0,0,0-.251-.891c.841-1.794,1.611-3.342,2.335-4.749,1.8-4.9,3.536-9.585,5.571-13.976a93.519,93.519,0,0,1,7.35-12.85C-2468.736,3478.213-2461.426,3470.2-2453.169,3462.288Z"/><path class="e" d="M-2446.816,3489.885a110.877,110.877,0,0,0-9.92,14.665c-2.767,4.889-5.176,9.962-7.52,14.855h18.23v-30.493C-2446.289,3489.234-2446.55,3489.553-2446.816,3489.885Z"/><path class="e" d="M-2647.663,3423.329a27.282,27.282,0,0,0,5.834-2.291c.017-.284.035-.57.052-.857,2.034-.761,4.122-1.573,6.238-2.484,2.094-.932,4.163-1.994,6.286-3.039a116.053,116.053,0,0,0,19.639-15.892c-.347-.059-.595-.179-.063-.8,1.22-1.206,2.627-2.617,4.208-4.125s3.339-3.114,4.956-4.833l1.333-1.618a1.1,1.1,0,0,0,.086-.965l4.013-4.138c1.864-2.372,3.685-4.75,5.489-7.125h-27.2c-7.484,7.943-15.344,15.053-22.932,19.831-2.205,1.273-4.267,2.594-6.3,3.685-.554.291-1.093.547-1.639.818Z"/><path class="k" d="M-2626.538,3454.089a33.183,33.183,0,0,1,6.136-3.455,32.062,32.062,0,0,0,6.056-3.685l-.135-.827c3.341-2.056,6.947-4.044,10.423-6.461,3.032-2.412,5.882-5.072,8.727-7.7,1.421-1.318,2.744-2.758,4.109-4.135l2.024-2.09c.669-.7,1.288-1.458,1.932-2.185-.34-.042-.59-.149-.14-.784,1.015-1.252,2.34-2.639,3.782-4.156,1.419-1.545,2.913-3.2,4.356-4.905l1.129-1.6a1.047,1.047,0,0,0-.02-.925c1.262-1.527,2.394-2.835,3.447-4.016,2.963-4.3,5.817-8.4,8.883-12.143a93.535,93.535,0,0,1,10.325-10.608,122.8,122.8,0,0,1,12.036-9.252h-30.506c-2.657,2.41-5.36,5.1-7.973,7.994-4.214,4.676-8.046,9.687-11.772,14.416-1.861,2.364-3.7,4.653-5.541,6.811-1.891,2.114-3.78,4.2-5.7,6.212a146.17,146.17,0,0,1-11.872,10.771c-1.975,1.572-3.836,3.117-5.73,4.438-1.875,1.339-3.579,2.668-5.287,3.752l-4.61,3.046-3.76,2.254-1.515.991c-3.1,1.876-6.494,3.819-9.933,5.759v25.178c7.177-3.473,14.279-7.218,21.218-11.38C-2626.662,3454.979-2627.774,3455.12-2626.538,3454.089Z"/><path class="e" d="M-2644.924,3511.1c4.425-5.126,11.08-9.761,18.259-14.151,3.582-2.181,7.512-4.51,11.174-6.62,3.7-2.124,7.343-4.1,10.953-5.827-.177-.438-1.161-.49-.049-1.262,3.624-2.227,7.242-1.94,11.239-3.831l.051-.823c3.343-.829,7-1.563,10.877-2.5,3.436-1.222,7-2.579,10.576-4.169.893-.389,1.795-.826,2.688-1.241l2.645-1.356c1.781-.878,3.45-1.906,5.149-2.887-.316-.145-.523-.323.108-.782,1.342-.9,3-1.862,4.8-2.927,1.765-1.1,3.722-2.246,5.578-3.565l1.559-1.276a1.047,1.047,0,0,0,.229-.917c1.62-1.229,3.141-2.245,4.463-3.258a199.793,199.793,0,0,0,21.712-24.361c6.653-8.574,12.883-17.444,19.736-26.254a109.2,109.2,0,0,1,8.377-11.241,84.28,84.28,0,0,1,8-7.422c2.927-2.367,5.907-4.614,8.546-6.445-.6-.4-.3-1.339.438-2.551.055-.087.129-.184.189-.273h-22.209c-9.792,9.04-18.27,18.925-26.633,28.5-1.728,2.41-6.14,8-12.113,14.826a165.32,165.32,0,0,1-22.255,21.467,92.482,92.482,0,0,1-13.4,8.719c-2.3,1.182-4.55,2.28-6.89,3.222s-4.717,1.824-7.085,2.642c-4.737,1.63-9.4,3.086-13.527,4.537-4.113,1.424-7.713,2.861-10.281,3.978q-.922.437-1.819.889a135.082,135.082,0,0,0-16.265,9.113c-2.56,1.653-4.955,3.279-7.314,4.96-2.337,1.693-4.521,3.367-6.432,5.04-1.287,1.2-2.554,2.466-3.8,3.769V3503c.264-.139.456-.168.516-.019a4.365,4.365,0,0,1-.516.533v10.032A27.608,27.608,0,0,0-2644.924,3511.1Z"/><path class="e" d="M-2575.29,3516.834c-.218-.418-1.291-.3-.123-1.29a29.335,29.335,0,0,1,5.938-3.169,29.966,29.966,0,0,0,6.036-3.094l-.074-.835c3.449-1.567,7.059-3.123,10.785-4.751,6.471-3.694,12.893-7.366,19.408-11.241-.314-.143-.522-.321.111-.788,2.749-1.766,6.824-3.837,10.886-6.458l1.69-1.309a1.117,1.117,0,0,0,.3-.937c1.8-1.237,3.418-2.343,4.906-3.414a89.575,89.575,0,0,0,12.4-13.439,127.158,127.158,0,0,0,9.6-15.06c5.675-10.26,10.222-20.716,16.239-30.553a68.108,68.108,0,0,1,7.871-12.144c1.2-1.259,2.482-2.623,3.913-3.912l2.212-1.915,1.127-.958,1.182-.9c1.576-1.2,3.141-2.4,4.741-3.451l2.308-1.587,2.239-1.425c-.591-.416-.21-1.371.651-2.592a41.9,41.9,0,0,1,3.6-4.008c.449-.449.894-.892,1.317-1.322v-11.122h-5.154q-5.355,3.014-10.483,6.5a118.117,118.117,0,0,0-22.317,19.773,130.142,130.142,0,0,0-9.068,11.87c-2.729,4.037-5.251,8.091-7.676,12.078-1.424,2.838-5,9.646-9.954,17.5a96.7,96.7,0,0,1-8.856,11.887c-.828,1.01-1.766,1.892-2.669,2.85s-1.868,1.851-2.865,2.759a82.406,82.406,0,0,1-6.478,5.221c-2.3,1.677-4.73,3.282-7.222,4.823-1.255.764-2.514,1.521-3.8,2.252l-3.94,2.2-15.561,8.543c-9.792,5.365-18.062,10.023-22.872,12.835l-1.709,1.067a175.871,175.871,0,0,0-16.151,10.89c-2.661,1.946-5.118,4.128-7.467,6.118-1.905,1.749-3.681,3.444-5.271,5.076h36.132C-2578.039,3518.543-2576.676,3517.681-2575.29,3516.834Z"/><path class="g" d="M-2269.661,3384.526a88.182,88.182,0,0,0-88.183-88.182v88.182Z"/><path class="h" d="M-2357.844,3296.344a88.182,88.182,0,0,0-88.182,88.182,88.005,88.005,0,0,0,32.09,68.046l56.092-68.046Z"/><path class="i" d="M-2357.843,3384.526l-56.093,68.046a87.822,87.822,0,0,0,56.093,20.137,88.182,88.182,0,0,0,88.182-88.183Z"/><path class="d" d="M-1962.605,3300.573-2088.948,3519.4h252.685Z"/><path class="e" d="M-1965.175,3462.288c2.314-2.551,4.7-5.068,7.142-7.439v-20.211c-10.087,7.937-20.641,16.119-30.866,25.807-2.1,2.451-7.681,8.039-14.057,16.572a110.975,110.975,0,0,0-9.416,14.993c-2.913,5.58-5.373,11.389-7.8,16.9-1.212,2.754-2.419,5.429-3.666,7.979-.437.845-.878,1.68-1.318,2.518h23.581l.118-.313a1.044,1.044,0,0,0-.251-.891c.842-1.794,1.611-3.342,2.336-4.749,1.8-4.9,3.536-9.585,5.571-13.976a93.424,93.424,0,0,1,7.349-12.85C-1980.743,3478.213-1973.433,3470.2-1965.175,3462.288Z"/><path class="e" d="M-1958.823,3489.885a110.877,110.877,0,0,0-9.92,14.665c-2.767,4.889-5.175,9.962-7.519,14.855h18.229v-30.493C-1958.3,3489.234-1958.557,3489.553-1958.823,3489.885Z"/><path class="e" d="M-2159.67,3423.329a27.294,27.294,0,0,0,5.835-2.291q.025-.426.051-.857c2.034-.761,4.123-1.573,6.239-2.484,2.093-.932,4.163-1.994,6.286-3.039a116.036,116.036,0,0,0,19.638-15.892c-.347-.059-.595-.179-.062-.8,1.22-1.206,2.626-2.617,4.207-4.125s3.339-3.114,4.956-4.833l1.333-1.618a1.1,1.1,0,0,0,.086-.965l4.013-4.138c1.864-2.372,3.686-4.75,5.489-7.125h-27.2c-7.485,7.943-15.345,15.053-22.933,19.831-2.2,1.273-4.267,2.594-6.3,3.685-.553.291-1.093.547-1.639.818Z"/><path class="l" d="M-2138.544,3454.089a33.144,33.144,0,0,1,6.136-3.455,32.091,32.091,0,0,0,6.056-3.685l-.136-.827c3.342-2.056,6.948-4.044,10.424-6.461,3.031-2.412,5.881-5.072,8.726-7.7,1.421-1.318,2.745-2.758,4.11-4.135l2.023-2.09c.669-.7,1.289-1.458,1.932-2.185-.339-.042-.59-.149-.14-.784,1.016-1.252,2.341-2.639,3.782-4.156,1.42-1.545,2.913-3.2,4.356-4.905l1.129-1.6a1.042,1.042,0,0,0-.02-.925c1.263-1.527,2.394-2.835,3.447-4.016,2.963-4.3,5.817-8.4,8.884-12.143a93.428,93.428,0,0,1,10.325-10.608,122.668,122.668,0,0,1,12.035-9.252h-30.5c-2.657,2.41-5.36,5.1-7.974,7.994-4.213,4.676-8.045,9.687-11.771,14.416-1.861,2.364-3.7,4.653-5.542,6.811-1.89,2.114-3.78,4.2-5.7,6.212a145.957,145.957,0,0,1-11.871,10.771c-1.976,1.572-3.836,3.117-5.73,4.438-1.875,1.339-3.579,2.668-5.288,3.752l-4.609,3.046-3.76,2.254-1.516.991c-3.1,1.876-6.494,3.819-9.932,5.759v25.178c7.177-3.473,14.279-7.218,21.217-11.38C-2138.669,3454.979-2139.781,3455.12-2138.544,3454.089Z"/><path class="e" d="M-2156.93,3511.1c4.424-5.126,11.08-9.761,18.259-14.151,3.582-2.181,7.511-4.51,11.173-6.62,3.7-2.124,7.343-4.1,10.953-5.827-.177-.438-1.16-.49-.048-1.262,3.624-2.227,7.241-1.94,11.239-3.831l.05-.823c3.344-.829,7-1.563,10.877-2.5,3.436-1.222,7-2.579,10.577-4.169.893-.389,1.8-.826,2.688-1.241l2.645-1.356c1.78-.878,3.45-1.906,5.148-2.887-.315-.145-.523-.323.108-.782,1.343-.9,3-1.862,4.8-2.927,1.766-1.1,3.722-2.246,5.578-3.565l1.559-1.276a1.047,1.047,0,0,0,.229-.917c1.62-1.229,3.141-2.245,4.463-3.258a199.7,199.7,0,0,0,21.712-24.361c6.653-8.574,12.884-17.444,19.737-26.254a109.2,109.2,0,0,1,8.376-11.241,84.278,84.278,0,0,1,7.995-7.422c2.927-2.367,5.907-4.614,8.547-6.445-.6-.4-.3-1.339.437-2.551.055-.087.129-.184.189-.273h-22.208c-9.793,9.04-18.271,18.925-26.634,28.5-1.728,2.41-6.139,8-12.113,14.826a165.262,165.262,0,0,1-22.255,21.467,92.414,92.414,0,0,1-13.4,8.719c-2.3,1.182-4.55,2.28-6.89,3.222s-4.717,1.824-7.085,2.642c-4.737,1.63-9.4,3.086-13.527,4.537-4.113,1.424-7.713,2.861-10.28,3.978q-.924.437-1.819.889a135.207,135.207,0,0,0-16.266,9.113c-2.559,1.653-4.955,3.279-7.313,4.96-2.338,1.693-4.522,3.367-6.432,5.04-1.287,1.2-2.554,2.466-3.8,3.769V3503c.264-.139.456-.168.516-.019a4.216,4.216,0,0,1-.516.533v10.032A27.58,27.58,0,0,0-2156.93,3511.1Z"/><path class="e" d="M-2087.3,3516.834c-.218-.418-1.291-.3-.123-1.29a29.322,29.322,0,0,1,5.938-3.169,30,30,0,0,0,6.037-3.094l-.075-.835c3.449-1.567,7.06-3.123,10.785-4.751,6.472-3.694,12.894-7.366,19.409-11.241-.314-.143-.522-.321.111-.788,2.748-1.766,6.823-3.837,10.886-6.458l1.689-1.309a1.119,1.119,0,0,0,.3-.937c1.8-1.237,3.418-2.343,4.906-3.414a89.575,89.575,0,0,0,12.4-13.439,127.049,127.049,0,0,0,9.6-15.06c5.675-10.26,10.223-20.716,16.24-30.553a68.049,68.049,0,0,1,7.87-12.144c1.206-1.259,2.483-2.623,3.913-3.912q1.094-.945,2.212-1.915l1.127-.958,1.182-.9c1.577-1.2,3.141-2.4,4.741-3.451l2.308-1.587,2.239-1.425c-.59-.416-.209-1.371.652-2.592a41.859,41.859,0,0,1,3.6-4.008c.449-.449.894-.892,1.317-1.322v-11.122h-5.153q-5.355,3.014-10.484,6.5a118.159,118.159,0,0,0-22.317,19.773,130.149,130.149,0,0,0-9.067,11.87c-2.73,4.037-5.251,8.091-7.677,12.078-1.424,2.838-5,9.646-9.953,17.5a96.6,96.6,0,0,1-8.857,11.887c-.828,1.01-1.766,1.892-2.668,2.85s-1.869,1.851-2.866,2.759a82.455,82.455,0,0,1-6.478,5.221c-2.3,1.677-4.729,3.282-7.222,4.823-1.255.764-2.514,1.521-3.8,2.252l-3.94,2.2-15.562,8.543c-9.792,5.365-18.062,10.023-22.871,12.835l-1.71,1.067a176,176,0,0,0-16.151,10.89c-2.661,1.946-5.118,4.128-7.466,6.118-1.906,1.749-3.682,3.444-5.272,5.076h36.132C-2090.046,3518.543-2088.683,3517.681-2087.3,3516.834Z"/><path class="g" d="M-1781.668,3384.526a88.181,88.181,0,0,0-88.182-88.182v88.182Z"/><path class="h" d="M-1869.85,3296.344a88.182,88.182,0,0,0-88.183,88.182,88,88,0,0,0,32.091,68.046l56.092-68.046Z"/><path class="i" d="M-1869.85,3384.526l-56.092,68.046a87.819,87.819,0,0,0,56.092,20.137,88.184,88.184,0,0,0,88.183-88.183Z"/><path class="d" d="M-3444.76,3815.6-3571.1,4034.432h252.685Z"/><path class="e" d="M-3447.33,3977.315c2.315-2.551,4.7-5.067,7.143-7.439v-20.21c-10.087,7.936-20.641,16.119-30.867,25.806-2.1,2.451-7.68,8.039-14.056,16.572a111.089,111.089,0,0,0-9.417,14.993c-2.912,5.58-5.372,11.389-7.8,16.9-1.212,2.754-2.419,5.429-3.666,7.979-.437.845-.878,1.681-1.318,2.518h23.58l.118-.312a1.051,1.051,0,0,0-.25-.892c.841-1.793,1.611-3.342,2.335-4.748,1.8-4.9,3.536-9.585,5.571-13.977a93.515,93.515,0,0,1,7.35-12.85C-3462.9,3993.24-3455.588,3985.229-3447.33,3977.315Z"/><path class="e" d="M-3440.977,4004.912a110.923,110.923,0,0,0-9.92,14.665c-2.767,4.889-5.176,9.962-7.52,14.855h18.23v-30.493C-3440.45,4004.261-3440.712,4004.58-3440.977,4004.912Z"/><path class="e" d="M-3641.825,3938.356a27.146,27.146,0,0,0,5.835-2.291c.017-.283.035-.57.052-.856,2.034-.761,4.122-1.574,6.238-2.485,2.093-.931,4.163-1.993,6.286-3.039a116.087,116.087,0,0,0,19.639-15.891c-.347-.059-.6-.18-.063-.8,1.22-1.207,2.627-2.617,4.207-4.125s3.34-3.115,4.957-4.833l1.333-1.619a1.093,1.093,0,0,0,.085-.965l4.014-4.138c1.864-2.372,3.685-4.749,5.489-7.125h-27.2c-7.484,7.944-15.345,15.053-22.932,19.831-2.205,1.274-4.267,2.594-6.3,3.685-.554.292-1.093.547-1.64.818Z"/><path class="m" d="M-3620.7,3969.117a33.076,33.076,0,0,1,6.136-3.455,32.072,32.072,0,0,0,6.056-3.686l-.135-.827c3.341-2.056,6.947-4.044,10.423-6.461,3.032-2.412,5.882-5.072,8.727-7.7,1.42-1.319,2.744-2.758,4.109-4.135l2.024-2.09c.669-.7,1.288-1.458,1.931-2.185-.339-.043-.589-.15-.14-.785,1.016-1.252,2.341-2.638,3.783-4.156,1.419-1.545,2.913-3.2,4.356-4.9l1.129-1.6a1.051,1.051,0,0,0-.02-.926c1.262-1.527,2.394-2.834,3.447-4.015,2.963-4.3,5.817-8.4,8.883-12.143a93.517,93.517,0,0,1,10.325-10.609,122.657,122.657,0,0,1,12.036-9.252h-30.506c-2.657,2.411-5.36,5.1-7.974,7.995-4.213,4.676-8.045,9.687-11.771,14.416-1.861,2.364-3.7,4.653-5.542,6.81-1.89,2.114-3.779,4.2-5.7,6.212a145.945,145.945,0,0,1-11.872,10.771c-1.976,1.573-3.836,3.117-5.73,4.438-1.875,1.34-3.579,2.668-5.287,3.753l-4.61,3.045-3.76,2.255-1.516.99c-3.1,1.876-6.493,3.819-9.932,5.76v25.177c7.177-3.472,14.279-7.217,21.218-11.38C-3620.823,3970.006-3621.936,3970.148-3620.7,3969.117Z"/><path class="e" d="M-3639.085,4026.124c4.424-5.125,11.08-9.76,18.259-14.151,3.582-2.181,7.512-4.51,11.174-6.619,3.7-2.125,7.343-4.1,10.953-5.828-.177-.438-1.161-.49-.049-1.262,3.624-2.227,7.242-1.94,11.239-3.831l.05-.823c3.344-.828,7-1.563,10.878-2.5,3.436-1.222,7-2.578,10.576-4.168.893-.389,1.795-.827,2.688-1.242l2.645-1.356c1.781-.877,3.45-1.906,5.148-2.886-.315-.146-.523-.324.108-.783,1.343-.9,3-1.862,4.8-2.926,1.765-1.1,3.722-2.247,5.577-3.565.524-.428,1.046-.856,1.559-1.276a1.049,1.049,0,0,0,.23-.917c1.62-1.229,3.14-2.246,4.463-3.259a199.812,199.812,0,0,0,21.712-24.36c6.652-8.574,12.883-17.445,19.736-26.255a109.182,109.182,0,0,1,8.377-11.24,84.037,84.037,0,0,1,7.995-7.423c2.927-2.367,5.907-4.613,8.546-6.445-.6-.4-.3-1.338.438-2.551.055-.087.129-.183.189-.273H-3494c-9.792,9.041-18.27,18.925-26.633,28.5-1.728,2.41-6.14,8-12.113,14.827A165.461,165.461,0,0,1-3555,3954.977a92.4,92.4,0,0,1-13.4,8.719c-2.3,1.182-4.55,2.28-6.89,3.222-2.334.958-4.717,1.825-7.085,2.642-4.738,1.63-9.4,3.087-13.527,4.537-4.114,1.424-7.713,2.861-10.281,3.978-.615.292-1.221.586-1.819.889a135.09,135.09,0,0,0-16.266,9.114c-2.559,1.653-4.954,3.278-7.313,4.96-2.337,1.693-4.521,3.367-6.432,5.039-1.287,1.2-2.554,2.467-3.8,3.769v16.179c.264-.139.456-.169.517-.02a4.289,4.289,0,0,1-.517.533v10.032A27.46,27.46,0,0,0-3639.085,4026.124Z"/><path class="e" d="M-3569.451,4031.862c-.218-.419-1.291-.3-.124-1.291a29.262,29.262,0,0,1,5.939-3.168,29.99,29.99,0,0,0,6.036-3.095l-.075-.835c3.449-1.567,7.06-3.123,10.786-4.75,6.471-3.694,12.893-7.366,19.408-11.241-.314-.144-.522-.322.111-.789,2.749-1.766,6.824-3.837,10.886-6.458l1.689-1.309a1.114,1.114,0,0,0,.3-.936c1.8-1.238,3.418-2.344,4.906-3.415a89.527,89.527,0,0,0,12.4-13.439,127.217,127.217,0,0,0,9.6-15.06c5.675-10.26,10.222-20.716,16.239-30.553a68.215,68.215,0,0,1,7.87-12.144c1.206-1.258,2.483-2.622,3.914-3.911l2.212-1.915,1.126-.959,1.183-.9c1.576-1.2,3.141-2.4,4.74-3.45l2.309-1.587,2.238-1.426c-.59-.416-.209-1.37.652-2.592a41.888,41.888,0,0,1,3.6-4.007c.45-.449.894-.892,1.318-1.323v-11.122h-5.154q-5.355,3.014-10.483,6.5a118.211,118.211,0,0,0-22.317,19.773,130.145,130.145,0,0,0-9.068,11.87c-2.73,4.038-5.251,8.091-7.677,12.078-1.423,2.839-5,9.646-9.953,17.5a96.57,96.57,0,0,1-8.856,11.886c-.828,1.01-1.766,1.892-2.669,2.851s-1.868,1.85-2.865,2.758a82.232,82.232,0,0,1-6.478,5.221c-2.3,1.677-4.73,3.282-7.223,4.823-1.254.764-2.513,1.521-3.8,2.252l-3.94,2.205-15.561,8.543c-9.792,5.364-18.063,10.022-22.872,12.834l-1.709,1.067a175.883,175.883,0,0,0-16.152,10.891c-2.66,1.946-5.118,4.127-7.466,6.117-1.905,1.75-3.682,3.444-5.271,5.076h36.131C-3572.2,4033.571-3570.838,4032.708-3569.451,4031.862Z"/><path class="g" d="M-3263.822,3899.554A88.183,88.183,0,0,0-3352,3811.371v88.183Z"/><path class="h" d="M-3352,3811.371a88.182,88.182,0,0,0-88.182,88.183,88,88,0,0,0,32.09,68.046l56.092-68.046Z"/><path class="i" d="M-3352,3899.554-3408.1,3967.6A87.825,87.825,0,0,0-3352,3987.736a88.182,88.182,0,0,0,88.183-88.182Z"/><path class="d" d="M-2951.107,3815.6l-126.343,218.832h252.685Z"/><path class="e" d="M-2953.677,3977.315c2.314-2.551,4.7-5.067,7.142-7.439v-20.21c-10.087,7.936-20.641,16.119-30.866,25.806-2.1,2.451-7.681,8.039-14.056,16.572a110.9,110.9,0,0,0-9.417,14.993c-2.912,5.58-5.372,11.389-7.8,16.9-1.212,2.754-2.419,5.429-3.666,7.979-.437.845-.878,1.681-1.318,2.518h23.581c.039-.1.079-.21.118-.312a1.052,1.052,0,0,0-.25-.892c.841-1.793,1.61-3.342,2.335-4.748,1.8-4.9,3.536-9.585,5.571-13.977a93.48,93.48,0,0,1,7.349-12.85C-2969.245,3993.24-2961.935,3985.229-2953.677,3977.315Z"/><path class="e" d="M-2947.325,4004.912a111.114,111.114,0,0,0-9.92,14.665c-2.766,4.889-5.175,9.962-7.519,14.855h18.229v-30.493C-2946.8,4004.261-2947.059,4004.58-2947.325,4004.912Z"/><path class="e" d="M-3148.172,3938.356a27.163,27.163,0,0,0,5.835-2.291c.017-.283.034-.57.052-.856,2.034-.761,4.122-1.574,6.238-2.485,2.093-.931,4.163-1.993,6.286-3.039a116.076,116.076,0,0,0,19.639-15.891c-.348-.059-.6-.18-.063-.8,1.22-1.207,2.627-2.617,4.207-4.125s3.34-3.115,4.956-4.833l1.334-1.619a1.1,1.1,0,0,0,.085-.965c1.478-1.524,2.794-2.88,4.013-4.138,1.864-2.372,3.686-4.749,5.489-7.125h-27.2c-7.485,7.944-15.345,15.053-22.933,19.831-2.2,1.274-4.267,2.594-6.3,3.685-.553.292-1.093.547-1.639.818Z"/><path class="m" d="M-3127.046,3969.117a33.036,33.036,0,0,1,6.136-3.455,32.118,32.118,0,0,0,6.056-3.686l-.136-.827c3.342-2.056,6.948-4.044,10.424-6.461,3.031-2.412,5.882-5.072,8.726-7.7,1.421-1.319,2.745-2.758,4.11-4.135l2.024-2.09c.668-.7,1.288-1.458,1.931-2.185-.339-.043-.589-.15-.14-.785,1.016-1.252,2.341-2.638,3.782-4.156,1.42-1.545,2.913-3.2,4.356-4.9l1.129-1.6a1.045,1.045,0,0,0-.02-.926c1.263-1.527,2.4-2.834,3.447-4.015,2.963-4.3,5.817-8.4,8.884-12.143a93.517,93.517,0,0,1,10.325-10.609,122.566,122.566,0,0,1,12.036-9.252h-30.506c-2.657,2.411-5.36,5.1-7.974,7.995-4.213,4.676-8.045,9.687-11.771,14.416-1.861,2.364-3.7,4.653-5.542,6.81-1.89,2.114-3.78,4.2-5.7,6.212a145.813,145.813,0,0,1-11.871,10.771c-1.976,1.573-3.836,3.117-5.73,4.438-1.875,1.34-3.579,2.668-5.287,3.753l-4.61,3.045-3.76,2.255-1.516.99c-3.1,1.876-6.493,3.819-9.932,5.76v25.177c7.177-3.472,14.279-7.217,21.217-11.38C-3127.171,3970.006-3128.283,3970.148-3127.046,3969.117Z"/><path class="e" d="M-3145.432,4026.124c4.424-5.125,11.08-9.76,18.259-14.151,3.582-2.181,7.511-4.51,11.173-6.619,3.7-2.125,7.343-4.1,10.953-5.828-.177-.438-1.16-.49-.048-1.262,3.624-2.227,7.241-1.94,11.239-3.831l.05-.823c3.344-.828,7-1.563,10.877-2.5,3.437-1.222,7-2.578,10.577-4.168.893-.389,1.8-.827,2.688-1.242l2.645-1.356c1.78-.877,3.45-1.906,5.148-2.886-.315-.146-.523-.324.108-.783,1.343-.9,3-1.862,4.8-2.926,1.765-1.1,3.721-2.247,5.577-3.565l1.559-1.276a1.047,1.047,0,0,0,.229-.917c1.62-1.229,3.141-2.246,4.463-3.259a199.628,199.628,0,0,0,21.712-24.36c6.653-8.574,12.884-17.445,19.737-26.255a109.21,109.21,0,0,1,8.376-11.24,84.307,84.307,0,0,1,8-7.423c2.927-2.367,5.907-4.613,8.547-6.445-.6-.4-.3-1.338.437-2.551.056-.087.129-.183.189-.273h-22.208c-9.792,9.041-18.271,18.925-26.633,28.5-1.729,2.41-6.14,8-12.114,14.827a165.333,165.333,0,0,1-22.255,21.466,92.332,92.332,0,0,1-13.4,8.719c-2.3,1.182-4.55,2.28-6.889,3.222-2.334.958-4.718,1.825-7.086,2.642-4.737,1.63-9.4,3.087-13.527,4.537-4.113,1.424-7.713,2.861-10.28,3.978-.616.292-1.221.586-1.819.889a135.093,135.093,0,0,0-16.266,9.114c-2.559,1.653-4.955,3.278-7.313,4.96-2.338,1.693-4.522,3.367-6.432,5.039-1.287,1.2-2.554,2.467-3.805,3.769v16.179c.264-.139.456-.169.516-.02a4.187,4.187,0,0,1-.516.533v10.032A27.467,27.467,0,0,0-3145.432,4026.124Z"/><path class="e" d="M-3075.8,4031.862c-.217-.419-1.29-.3-.123-1.291a29.245,29.245,0,0,1,5.939-3.168,29.99,29.99,0,0,0,6.036-3.095l-.075-.835c3.449-1.567,7.06-3.123,10.785-4.75,6.472-3.694,12.894-7.366,19.409-11.241-.314-.144-.522-.322.111-.789,2.749-1.766,6.823-3.837,10.886-6.458l1.689-1.309a1.114,1.114,0,0,0,.3-.936c1.8-1.238,3.418-2.344,4.906-3.415a89.47,89.47,0,0,0,12.4-13.439,126.966,126.966,0,0,0,9.6-15.06c5.675-10.26,10.223-20.716,16.24-30.553a68.094,68.094,0,0,1,7.87-12.144c1.206-1.258,2.483-2.622,3.913-3.911l2.212-1.915,1.127-.959,1.182-.9c1.577-1.2,3.141-2.4,4.741-3.45l2.308-1.587,2.239-1.426c-.59-.416-.209-1.37.652-2.592a41.751,41.751,0,0,1,3.6-4.007c.449-.449.894-.892,1.317-1.323v-11.122h-5.153q-5.355,3.014-10.483,6.5a118.216,118.216,0,0,0-22.318,19.773,130.265,130.265,0,0,0-9.067,11.87c-2.73,4.038-5.251,8.091-7.677,12.078-1.423,2.839-5,9.646-9.953,17.5a96.531,96.531,0,0,1-8.857,11.886c-.827,1.01-1.766,1.892-2.668,2.851s-1.868,1.85-2.866,2.758a82.232,82.232,0,0,1-6.478,5.221c-2.3,1.677-4.729,3.282-7.222,4.823-1.254.764-2.514,1.521-3.8,2.252l-3.94,2.205-15.562,8.543c-9.791,5.364-18.062,10.022-22.871,12.834l-1.71,1.067a175.872,175.872,0,0,0-16.151,10.891c-2.661,1.946-5.118,4.127-7.466,6.117-1.905,1.75-3.682,3.444-5.272,5.076h36.132C-3078.548,4033.571-3077.185,4032.708-3075.8,4031.862Z"/><path class="g" d="M-2770.17,3899.554a88.182,88.182,0,0,0-88.182-88.183v88.183Z"/><path class="h" d="M-2858.352,3811.371a88.183,88.183,0,0,0-88.183,88.183,88,88,0,0,0,32.091,68.046l56.092-68.046Z"/><path class="i" d="M-2858.352,3899.554l-56.092,68.046a87.826,87.826,0,0,0,56.092,20.136,88.182,88.182,0,0,0,88.183-88.182Z"/><path class="d" d="M-2450.6,3815.6l-126.343,218.832h252.685Z"/><path class="e" d="M-2453.169,3977.315c2.315-2.551,4.7-5.067,7.143-7.439v-20.21c-10.087,7.936-20.641,16.119-30.866,25.806-2.1,2.451-7.681,8.039-14.057,16.572a111.089,111.089,0,0,0-9.417,14.993c-2.912,5.58-5.372,11.389-7.8,16.9-1.212,2.754-2.419,5.429-3.666,7.979-.437.845-.878,1.681-1.318,2.518h23.58c.039-.1.08-.21.119-.312a1.051,1.051,0,0,0-.251-.892c.841-1.793,1.611-3.342,2.335-4.748,1.8-4.9,3.536-9.585,5.571-13.977a93.589,93.589,0,0,1,7.35-12.85C-2468.736,3993.24-2461.426,3985.229-2453.169,3977.315Z"/><path class="e" d="M-2446.816,4004.912a111.019,111.019,0,0,0-9.92,14.665c-2.767,4.889-5.176,9.962-7.52,14.855h18.23v-30.493C-2446.289,4004.261-2446.55,4004.58-2446.816,4004.912Z"/><path class="e" d="M-2647.663,3938.356a27.154,27.154,0,0,0,5.834-2.291c.017-.283.035-.57.052-.856,2.034-.761,4.122-1.574,6.238-2.485,2.094-.931,4.163-1.993,6.286-3.039a116.085,116.085,0,0,0,19.639-15.891c-.347-.059-.595-.18-.063-.8,1.22-1.207,2.627-2.617,4.208-4.125s3.339-3.115,4.956-4.833l1.333-1.619a1.1,1.1,0,0,0,.086-.965l4.013-4.138c1.864-2.372,3.685-4.749,5.489-7.125h-27.2c-7.484,7.944-15.344,15.053-22.932,19.831-2.205,1.274-4.267,2.594-6.3,3.685-.554.292-1.093.547-1.639.818Z"/><path class="m" d="M-2626.538,3969.117a33.083,33.083,0,0,1,6.136-3.455,32.081,32.081,0,0,0,6.056-3.686l-.135-.827c3.341-2.056,6.947-4.044,10.423-6.461,3.032-2.412,5.882-5.072,8.727-7.7,1.421-1.319,2.744-2.758,4.109-4.135l2.024-2.09c.669-.7,1.288-1.458,1.932-2.185-.34-.043-.59-.15-.14-.785,1.015-1.252,2.34-2.638,3.782-4.156,1.419-1.545,2.913-3.2,4.356-4.9l1.129-1.6a1.049,1.049,0,0,0-.02-.926c1.262-1.527,2.394-2.834,3.447-4.015,2.963-4.3,5.817-8.4,8.883-12.143a93.541,93.541,0,0,1,10.325-10.609,122.8,122.8,0,0,1,12.036-9.252h-30.506c-2.657,2.411-5.36,5.1-7.973,7.995-4.214,4.676-8.046,9.687-11.772,14.416-1.861,2.364-3.7,4.653-5.541,6.81-1.891,2.114-3.78,4.2-5.7,6.212a145.945,145.945,0,0,1-11.872,10.771c-1.975,1.573-3.836,3.117-5.73,4.438-1.875,1.34-3.579,2.668-5.287,3.753l-4.61,3.045-3.76,2.255-1.515.99c-3.1,1.876-6.494,3.819-9.933,5.76v25.177c7.177-3.472,14.279-7.217,21.218-11.38C-2626.662,3970.006-2627.774,3970.148-2626.538,3969.117Z"/><path class="e" d="M-2644.924,4026.124c4.425-5.125,11.08-9.76,18.259-14.151,3.582-2.181,7.512-4.51,11.174-6.619,3.7-2.125,7.343-4.1,10.953-5.828-.177-.438-1.161-.49-.049-1.262,3.624-2.227,7.242-1.94,11.239-3.831l.051-.823c3.343-.828,7-1.563,10.877-2.5,3.436-1.222,7-2.578,10.576-4.168.893-.389,1.795-.827,2.688-1.242l2.645-1.356c1.781-.877,3.45-1.906,5.149-2.886-.316-.146-.523-.324.108-.783,1.342-.9,3-1.862,4.8-2.926,1.765-1.1,3.722-2.247,5.578-3.565l1.559-1.276a1.048,1.048,0,0,0,.229-.917c1.62-1.229,3.141-2.246,4.463-3.259a199.71,199.71,0,0,0,21.712-24.36c6.653-8.574,12.883-17.445,19.736-26.255a109.217,109.217,0,0,1,8.377-11.24,84.189,84.189,0,0,1,8-7.423c2.927-2.367,5.907-4.613,8.546-6.445-.6-.4-.3-1.338.438-2.551.055-.087.129-.183.189-.273h-22.209c-9.792,9.041-18.27,18.925-26.633,28.5-1.728,2.41-6.14,8-12.113,14.827a165.391,165.391,0,0,1-22.255,21.466,92.4,92.4,0,0,1-13.4,8.719c-2.3,1.182-4.55,2.28-6.89,3.222-2.333.958-4.717,1.825-7.085,2.642-4.737,1.63-9.4,3.087-13.527,4.537-4.113,1.424-7.713,2.861-10.281,3.978-.615.292-1.221.586-1.819.889a134.987,134.987,0,0,0-16.265,9.114c-2.56,1.653-4.955,3.278-7.314,4.96-2.337,1.693-4.521,3.367-6.432,5.039-1.287,1.2-2.554,2.467-3.8,3.769v16.179c.264-.139.456-.169.516-.02a4.346,4.346,0,0,1-.516.533v10.032A27.515,27.515,0,0,0-2644.924,4026.124Z"/><path class="e" d="M-2575.29,4031.862c-.218-.419-1.291-.3-.123-1.291a29.268,29.268,0,0,1,5.938-3.168,29.934,29.934,0,0,0,6.036-3.095l-.074-.835c3.449-1.567,7.059-3.123,10.785-4.75,6.471-3.694,12.893-7.366,19.408-11.241-.314-.144-.522-.322.111-.789,2.749-1.766,6.824-3.837,10.886-6.458l1.69-1.309a1.116,1.116,0,0,0,.3-.936c1.8-1.238,3.418-2.344,4.906-3.415a89.526,89.526,0,0,0,12.4-13.439,127.061,127.061,0,0,0,9.6-15.06c5.675-10.26,10.222-20.716,16.239-30.553a68.152,68.152,0,0,1,7.871-12.144c1.2-1.258,2.482-2.622,3.913-3.911l2.212-1.915,1.127-.959,1.182-.9c1.576-1.2,3.141-2.4,4.741-3.45.785-.541,1.557-1.071,2.308-1.587l2.239-1.426c-.591-.416-.21-1.37.651-2.592a41.81,41.81,0,0,1,3.6-4.007c.449-.449.894-.892,1.317-1.323v-11.122h-5.154q-5.355,3.014-10.483,6.5a118.2,118.2,0,0,0-22.317,19.773,130.28,130.28,0,0,0-9.068,11.87c-2.729,4.038-5.251,8.091-7.676,12.078-1.424,2.839-5,9.646-9.954,17.5a96.62,96.62,0,0,1-8.856,11.886c-.828,1.01-1.766,1.892-2.669,2.851s-1.868,1.85-2.865,2.758a82.183,82.183,0,0,1-6.478,5.221c-2.3,1.677-4.73,3.282-7.222,4.823-1.255.764-2.514,1.521-3.8,2.252l-3.94,2.205-15.561,8.543c-9.792,5.364-18.062,10.022-22.872,12.834l-1.709,1.067a175.741,175.741,0,0,0-16.151,10.891c-2.661,1.946-5.118,4.127-7.467,6.117-1.905,1.75-3.681,3.444-5.271,5.076h36.132C-2578.039,4033.571-2576.676,4032.708-2575.29,4031.862Z"/><path class="g" d="M-2269.661,3899.554a88.183,88.183,0,0,0-88.183-88.183v88.183Z"/><path class="h" d="M-2357.844,3811.371a88.183,88.183,0,0,0-88.182,88.183,88.005,88.005,0,0,0,32.09,68.046l56.092-68.046Z"/><path class="i" d="M-2357.843,3899.554l-56.093,68.046a87.828,87.828,0,0,0,56.093,20.136,88.182,88.182,0,0,0,88.182-88.182Z"/><path class="d" d="M-1962.605,3815.6l-126.342,218.832h252.685Z"/><path class="e" d="M-1965.175,3977.315c2.314-2.551,4.7-5.067,7.142-7.439v-20.21c-10.087,7.936-20.641,16.119-30.866,25.806-2.1,2.451-7.681,8.039-14.057,16.572a110.978,110.978,0,0,0-9.416,14.993c-2.913,5.58-5.373,11.389-7.8,16.9-1.212,2.754-2.419,5.429-3.666,7.979-.437.845-.878,1.681-1.318,2.518h23.581c.039-.1.079-.21.118-.312a1.047,1.047,0,0,0-.251-.892c.842-1.793,1.611-3.342,2.336-4.748,1.8-4.9,3.536-9.585,5.571-13.977a93.493,93.493,0,0,1,7.349-12.85C-1980.743,3993.24-1973.433,3985.229-1965.175,3977.315Z"/><path class="e" d="M-1958.823,4004.912a111.018,111.018,0,0,0-9.92,14.665c-2.767,4.889-5.175,9.962-7.519,14.855h18.229v-30.493C-1958.3,4004.261-1958.557,4004.58-1958.823,4004.912Z"/><path class="e" d="M-2159.67,3938.356a27.166,27.166,0,0,0,5.835-2.291l.051-.856c2.034-.761,4.123-1.574,6.239-2.485,2.093-.931,4.163-1.993,6.286-3.039a116.068,116.068,0,0,0,19.638-15.891c-.347-.059-.595-.18-.062-.8,1.22-1.207,2.626-2.617,4.207-4.125s3.339-3.115,4.956-4.833c.448-.543.894-1.086,1.333-1.619a1.1,1.1,0,0,0,.086-.965l4.013-4.138c1.864-2.372,3.686-4.749,5.489-7.125h-27.2c-7.485,7.944-15.345,15.053-22.933,19.831-2.2,1.274-4.267,2.594-6.3,3.685-.553.292-1.093.547-1.639.818Z"/><path class="n" d="M-2138.544,3969.117a33.044,33.044,0,0,1,6.136-3.455,32.11,32.11,0,0,0,6.056-3.686l-.136-.827c3.342-2.056,6.948-4.044,10.424-6.461,3.031-2.412,5.881-5.072,8.726-7.7,1.421-1.319,2.745-2.758,4.11-4.135l2.023-2.09c.669-.7,1.289-1.458,1.932-2.185-.339-.043-.59-.15-.14-.785,1.016-1.252,2.341-2.638,3.782-4.156,1.42-1.545,2.913-3.2,4.356-4.9l1.129-1.6a1.044,1.044,0,0,0-.02-.926c1.263-1.527,2.394-2.834,3.447-4.015,2.963-4.3,5.817-8.4,8.884-12.143a93.434,93.434,0,0,1,10.325-10.609,122.668,122.668,0,0,1,12.035-9.252h-30.5c-2.657,2.411-5.36,5.1-7.974,7.995-4.213,4.676-8.045,9.687-11.771,14.416-1.861,2.364-3.7,4.653-5.542,6.81-1.89,2.114-3.78,4.2-5.7,6.212a145.732,145.732,0,0,1-11.871,10.771c-1.976,1.573-3.836,3.117-5.73,4.438-1.875,1.34-3.579,2.668-5.288,3.753l-4.609,3.045-3.76,2.255-1.516.99c-3.1,1.876-6.494,3.819-9.932,5.76v25.177c7.177-3.472,14.279-7.217,21.217-11.38C-2138.669,3970.006-2139.781,3970.148-2138.544,3969.117Z"/><path class="e" d="M-2156.93,4026.124c4.424-5.125,11.08-9.76,18.259-14.151,3.582-2.181,7.511-4.51,11.173-6.619,3.7-2.125,7.343-4.1,10.953-5.828-.177-.438-1.16-.49-.048-1.262,3.624-2.227,7.241-1.94,11.239-3.831l.05-.823c3.344-.828,7-1.563,10.877-2.5,3.436-1.222,7-2.578,10.577-4.168.893-.389,1.8-.827,2.688-1.242l2.645-1.356c1.78-.877,3.45-1.906,5.148-2.886-.315-.146-.523-.324.108-.783,1.343-.9,3-1.862,4.8-2.926,1.766-1.1,3.722-2.247,5.578-3.565l1.559-1.276a1.047,1.047,0,0,0,.229-.917c1.62-1.229,3.141-2.246,4.463-3.259a199.619,199.619,0,0,0,21.712-24.36c6.653-8.574,12.884-17.445,19.737-26.255a109.21,109.21,0,0,1,8.376-11.24,84.187,84.187,0,0,1,7.995-7.423c2.927-2.367,5.907-4.613,8.547-6.445-.6-.4-.3-1.338.437-2.551.055-.087.129-.183.189-.273h-22.208c-9.793,9.041-18.271,18.925-26.634,28.5-1.728,2.41-6.139,8-12.113,14.827a165.333,165.333,0,0,1-22.255,21.466,92.332,92.332,0,0,1-13.4,8.719c-2.3,1.182-4.55,2.28-6.89,3.222-2.333.958-4.717,1.825-7.085,2.642-4.737,1.63-9.4,3.087-13.527,4.537-4.113,1.424-7.713,2.861-10.28,3.978-.616.292-1.222.586-1.819.889a135.112,135.112,0,0,0-16.266,9.114c-2.559,1.653-4.955,3.278-7.313,4.96-2.338,1.693-4.522,3.367-6.432,5.039-1.287,1.2-2.554,2.467-3.8,3.769v16.179c.264-.139.456-.169.516-.02a4.2,4.2,0,0,1-.516.533v10.032A27.488,27.488,0,0,0-2156.93,4026.124Z"/><path class="e" d="M-2087.3,4031.862c-.218-.419-1.291-.3-.123-1.291a29.255,29.255,0,0,1,5.938-3.168,29.971,29.971,0,0,0,6.037-3.095l-.075-.835c3.449-1.567,7.06-3.123,10.785-4.75,6.472-3.694,12.894-7.366,19.409-11.241-.314-.144-.522-.322.111-.789,2.748-1.766,6.823-3.837,10.886-6.458l1.689-1.309a1.118,1.118,0,0,0,.3-.936c1.8-1.238,3.418-2.344,4.906-3.415a89.526,89.526,0,0,0,12.4-13.439,126.952,126.952,0,0,0,9.6-15.06c5.675-10.26,10.223-20.716,16.24-30.553a68.093,68.093,0,0,1,7.87-12.144c1.206-1.258,2.483-2.622,3.913-3.911l2.212-1.915,1.127-.959,1.182-.9c1.577-1.2,3.141-2.4,4.741-3.45l2.308-1.587,2.239-1.426c-.59-.416-.209-1.37.652-2.592a41.77,41.77,0,0,1,3.6-4.007c.449-.449.894-.892,1.317-1.323v-11.122h-5.153q-5.355,3.014-10.484,6.5a118.244,118.244,0,0,0-22.317,19.773,130.287,130.287,0,0,0-9.067,11.87c-2.73,4.038-5.251,8.091-7.677,12.078-1.424,2.839-5,9.646-9.953,17.5a96.52,96.52,0,0,1-8.857,11.886c-.828,1.01-1.766,1.892-2.668,2.851s-1.869,1.85-2.866,2.758a82.232,82.232,0,0,1-6.478,5.221c-2.3,1.677-4.729,3.282-7.222,4.823-1.255.764-2.514,1.521-3.8,2.252l-3.94,2.205-15.562,8.543c-9.792,5.364-18.062,10.022-22.871,12.834l-1.71,1.067a175.872,175.872,0,0,0-16.151,10.891c-2.661,1.946-5.118,4.127-7.466,6.117-1.906,1.75-3.682,3.444-5.272,5.076h36.132C-2090.046,4033.571-2088.683,4032.708-2087.3,4031.862Z"/><path class="g" d="M-1781.668,3899.554a88.182,88.182,0,0,0-88.182-88.183v88.183Z"/><path class="h" d="M-1869.85,3811.371a88.183,88.183,0,0,0-88.183,88.183,88,88,0,0,0,32.091,68.046l56.092-68.046Z"/><path class="i" d="M-1869.85,3899.554l-56.092,68.046a87.825,87.825,0,0,0,56.092,20.136,88.183,88.183,0,0,0,88.183-88.182Z"/><rect class="o" width="1366" height="412" transform="translate(-3422.142 3468.883)"/></g></g></svg>