<svg xmlns="http://www.w3.org/2000/svg" width="18.762" height="21.27" viewBox="0 0 18.762 21.27"><defs><style>.a{fill:#0f5a6b;}</style></defs><path class="a" d="M-775.634,208l-5.024-6.3a8.02,8.02,0,0,0,2.351-5.678,8.054,8.054,0,0,0-8.044-8.044,8.054,8.054,0,0,0-8.045,8.044,8.054,8.054,0,0,0,8.045,8.045,7.98,7.98,0,0,0,4.111-1.143l5.043,6.324ZM-792.4,196.021a6.051,6.051,0,0,1,6.045-6.044,6.051,6.051,0,0,1,6.044,6.044,6.052,6.052,0,0,1-6.044,6.045A6.052,6.052,0,0,1-792.4,196.021Z" transform="translate(794.396 -187.977)"/></svg>