<svg xmlns="http://www.w3.org/2000/svg" width="146.285" height="56.885" viewBox="0 0 146.285 56.885"><defs><style>.a{fill:#67676a;}.b{fill:#ffcb00;}.c{fill:#005aa6;}.d{fill:#e1231d;}</style></defs><g transform="translate(-27 -21)"><g transform="translate(503 57)"><g transform="translate(-418.537 -30.904)"><path class="a" d="M933.229,66.476h9.014c7.845.182,11.968,4.488,11.968,13.026s-4.123,12.845-11.968,13.028h-9.014Zm2.482,23.937H941c7.48.037,10.728-3.138,10.728-10.911S948.482,68.556,941,68.591h-5.291Z" transform="translate(-933.229 -66.476)"/><path class="a" d="M968.158,82.469c.219-4.416,3.32-6.313,7.625-6.313,3.321,0,6.933,1.022,6.933,6.057v10a1.224,1.224,0,0,0,1.35,1.386,2.159,2.159,0,0,0,.73-.146v1.934a6.3,6.3,0,0,1-1.5.146c-2.336,0-2.7-1.314-2.7-3.285h-.073c-1.606,2.445-3.247,3.832-6.86,3.832-3.467,0-6.313-1.715-6.313-5.51,0-5.291,5.145-5.473,10.108-6.057,1.9-.219,2.956-.475,2.956-2.554,0-3.1-2.226-3.868-4.926-3.868-2.846,0-4.962,1.314-5.035,4.379Zm12.26,2.773h-.073c-.291.548-1.313.73-1.933.839-3.9.693-8.758.657-8.758,4.342a3.921,3.921,0,0,0,4.2,3.722c3.5,0,6.6-2.226,6.568-5.911Z" transform="translate(-943.816 -69.479)"/><path class="a" d="M999.073,74.406h3.832V76.34h-3.832v12.7c0,1.5.219,2.372,1.861,2.481a17.971,17.971,0,0,0,1.971-.109v1.97c-.693,0-1.351.073-2.044.073-3.065,0-4.123-1.022-4.087-4.233V76.34h-3.285V74.406h3.285V68.75h2.3Z" transform="translate(-951.924 -67.181)"/><path class="a" d="M1028.385,86.118c0,5.4-3.138,9.962-8.9,9.962s-8.9-4.561-8.9-9.962,3.138-9.962,8.9-9.962S1028.385,80.717,1028.385,86.118Zm-15.509,0c0,4.014,2.19,8.027,6.605,8.027s6.605-4.014,6.605-8.027-2.19-8.028-6.605-8.028S1012.876,82.1,1012.876,86.118Z" transform="translate(-957.226 -69.479)"/><path class="a" d="M1052.168,82.213c-.109-2.846-2.3-4.123-4.926-4.123-2.044,0-4.452.8-4.452,3.247,0,2.044,2.336,2.774,3.9,3.175l3.066.693c2.627.4,5.364,1.934,5.364,5.218,0,4.087-4.05,5.656-7.553,5.656-4.379,0-7.371-2.043-7.736-6.641h2.3c.183,3.1,2.482,4.707,5.546,4.707,2.153,0,5.146-.948,5.146-3.576,0-2.189-2.044-2.919-4.124-3.43l-2.956-.657c-2.992-.8-5.255-1.824-5.255-5.036,0-3.832,3.759-5.291,7.08-5.291,3.758,0,6.751,1.971,6.9,6.057Z" transform="translate(-966.302 -69.479)"/></g><g transform="translate(-476 -5.679)"><path class="a" d="M859.808,103.047h5.875l9.743,26.054h-5.948l-1.971-5.8h-9.743l-2.043,5.8h-5.8Zm-.547,15.982h6.75l-3.284-9.561h-.072Z" transform="translate(-849.92 -103.047)"/><path class="a" d="M889.388,103.047h5.181v9.487h.073a6.966,6.966,0,0,1,5.948-2.809c3.759,0,7.809,3.029,7.809,9.925,0,6.933-4.05,9.962-7.809,9.962-2.773,0-5.073-.839-6.2-2.918h-.073V129.1h-4.926Zm9.414,10.582c-3.065,0-4.415,2.883-4.415,6.057,0,3.138,1.35,6.021,4.415,6.021s4.415-2.883,4.415-6.021C903.217,116.512,901.866,113.629,898.8,113.629Z" transform="translate(-862.164 -103.047)"/><path class="a" d="M927.106,107.316h-5.182v-4.269h5.182Zm-5.182,2.919h5.182V129.1h-5.182Z" transform="translate(-872.258 -103.047)"/><path class="a" d="M939.221,123.93c.146,3.284,1.751,4.78,4.634,4.78,2.08,0,3.759-1.277,4.086-2.445H952.5c-1.459,4.452-4.561,6.349-8.83,6.349-5.948,0-9.633-4.087-9.633-9.925,0-5.656,3.9-9.962,9.633-9.962,6.422,0,9.524,5.4,9.159,11.2Zm8.429-3.284c-.474-2.628-1.606-4.014-4.123-4.014a4.082,4.082,0,0,0-4.305,4.014Z" transform="translate(-876.017 -106.05)"/><path class="a" d="M965.729,113.238h4.926v3.5h.074a6.669,6.669,0,0,1,6.02-4.014,3.865,3.865,0,0,1,1.132.182v4.817a9.451,9.451,0,0,0-1.862-.183c-3.8,0-5.108,2.736-5.108,6.057v8.5h-5.182Z" transform="translate(-885.848 -106.05)"/><path class="a" d="M992.09,110.924h3.8v3.467h-3.8v9.341c0,1.752.438,2.189,2.19,2.189a7.947,7.947,0,0,0,1.605-.146v4.05a19.926,19.926,0,0,1-3.029.182c-3.174,0-5.948-.729-5.948-4.488V114.391h-3.138v-3.467h3.138v-5.655h5.181Z" transform="translate(-891.446 -103.736)"/><path class="a" d="M1013.828,112.728c5.948,0,9.779,3.941,9.779,9.962,0,5.984-3.832,9.925-9.779,9.925-5.911,0-9.742-3.941-9.742-9.925C1004.086,116.669,1007.918,112.728,1013.828,112.728Zm0,15.982c3.54,0,4.6-3.029,4.6-6.021,0-3.029-1.058-6.057-4.6-6.057-3.5,0-4.561,3.029-4.561,6.057C1009.267,125.682,1010.326,128.71,1013.828,128.71Z" transform="translate(-897.748 -106.05)"/><path class="a" d="M1040.861,125.973c.037,2.262,1.934,3.175,3.978,3.175,1.5,0,3.394-.584,3.394-2.409,0-1.569-2.153-2.116-5.875-2.919-2.992-.657-5.984-1.715-5.984-5.036,0-4.817,4.161-6.057,8.211-6.057,4.123,0,7.918,1.386,8.319,6.021h-4.926c-.146-2.007-1.679-2.555-3.54-2.555-1.168,0-2.883.219-2.883,1.752,0,1.861,2.919,2.116,5.875,2.81,3.028.693,5.984,1.787,5.984,5.29,0,4.963-4.305,6.568-8.611,6.568-4.379,0-8.648-1.642-8.867-6.641Z" transform="translate(-907.629 -106.05)"/></g><g transform="translate(-465.716 -36)"><path class="b" d="M917.05,89.775q-.173-1.585-.341-3.17c-.114-1.052-.232-2.1-.336-3.155-.017-.176-.072-.187-.221-.155q-3.912.847-7.826,1.686l-8.313,1.785-7.687,1.651q-1.737.374-3.476.744a.231.231,0,0,0-.064.021,3.54,3.54,0,0,1,.088.765.324.324,0,0,0,.17.029q6.952-.006,13.9,0h13.921C917.076,89.972,917.072,89.973,917.05,89.775Z" transform="translate(-872.261 -66.594)"/><path class="b" d="M888.6,84.648q2.311-.759,4.627-1.505L904.484,79.5q4.538-1.468,9.074-2.939c.548-.178,1.1-.354,1.644-.533.044-.014.115,0,.111-.09l-.052-.114Q913.95,72.916,912.644,70c-.067-.149-.115-.157-.248-.079q-11.051,6.435-22.106,12.865c-.674.392-1.346.786-2.022,1.174a.287.287,0,0,0-.063.046,3.564,3.564,0,0,1,.3.661A.424.424,0,0,0,888.6,84.648Z" transform="translate(-872.081 -62.435)"/><path class="b" d="M886.6,79.5q3.733-5.143,7.475-10.28l5.356-7.361.086-.12c-.014-.069-.082-.077-.128-.1q-2.209-1.251-4.419-2.5c-.127-.072-.168-.056-.225.075q-3.36,7.634-6.729,15.264-1.037,2.351-2.075,4.7a.519.519,0,0,0-.025.066,3.548,3.548,0,0,1,.6.347A.273.273,0,0,0,886.6,79.5Z" transform="translate(-871.37 -59.088)"/><path class="b" d="M887.712,82.331l.1-.069q8.694-6.315,17.39-12.627c.106-.077.1-.12.024-.215q-1.595-1.977-3.179-3.963c-.1-.123-.14-.1-.231,0q-2.407,2.7-4.82,5.386l-7.269,8.118q-1.229,1.373-2.46,2.745a.267.267,0,0,0-.049.07A3.537,3.537,0,0,1,887.712,82.331Z" transform="translate(-871.773 -61.038)"/><path class="b" d="M881.87,80.172a.318.318,0,0,0,.025-.148q-.008-4.17,0-8.339V65.222c0-.646,0-1.293,0-1.94,0-.112-.03-.146-.145-.139-.389.026-.779.042-1.168.061-.977.049-1.953.1-2.929.145-.108,0-.142.021-.115.146q.658,3.069,1.305,6.14.826,3.891,1.654,7.783c.2.924.4,1.847.585,2.773a.3.3,0,0,0,.017.058,3.543,3.543,0,0,1,.736-.077Z" transform="translate(-868.769 -60.346)"/><path class="b" d="M885.114,80.257c.263-.823.532-1.644.8-2.465l3.04-9.375q.693-2.139,1.39-4.277c.044-.134.024-.175-.123-.2-1.326-.252-2.651-.513-3.975-.775-.1-.019-.128,0-.139.1-.073.755-.153,1.509-.231,2.263q-.171,1.634-.341,3.267-.154,1.474-.3,2.948l-.337,3.252q-.154,1.49-.309,2.98c-.077.738-.152,1.477-.227,2.207l0,.018a3.494,3.494,0,0,1,.708.154A.19.19,0,0,0,885.114,80.257Z" transform="translate(-870.886 -60.35)"/><path class="b" d="M878.925,82.34q-1.976-6.173-3.95-12.345c-.048-.152-.1-.154-.226-.1-.969.433-1.942.859-2.914,1.286-.192.084-.191.083-.083.27l5.491,9.517q.5.86.994,1.719a.282.282,0,0,1,.017.037,3.488,3.488,0,0,1,.7-.308Z" transform="translate(-866.954 -62.431)"/><path class="b" d="M876.184,84.034l-.039-.055q-3.763-5.2-7.524-10.4c-.082-.114-.125-.112-.226-.023q-1.2,1.055-2.4,2.1c-.123.106-.112.152,0,.255q3.6,3.222,7.189,6.453,1.2,1.076,2.395,2.153l.026.022A3.522,3.522,0,0,1,876.184,84.034Z" transform="translate(-865.164 -63.558)"/><path class="c" d="M874.512,90c-.269-.085-.537-.177-.8-.265q-4.02-1.323-8.038-2.649c-.114-.038-.153-.024-.184.1-.208.806-.42,1.61-.642,2.412-.044.155.012.177.14.188.383.033.765.074,1.148.114l3.282.338,3.3.339,1.66.171a3.512,3.512,0,0,1,.164-.737Z" transform="translate(-864.829 -67.768)"/><path class="c" d="M875.541,87.4c-.5-.357-.993-.724-1.488-1.086l-5.921-4.333-.115-.083c-.059.014-.07.068-.094.1-.446.69-.886,1.385-1.336,2.072-.081.123-.053.156.068.209q2.074.905,4.146,1.82,2.188.963,4.376,1.931l.032.013a3.547,3.547,0,0,1,.368-.621Z" transform="translate(-865.359 -66.165)"/><path class="c" d="M875.683,94.559c-.282.1-.568.184-.852.276q-3.045.984-6.091,1.964c-.121.039-.145.072-.075.189q.513.859,1.009,1.728c.06.106.1.126.213.062q1.718-1,3.441-1.98,1.34-.769,2.679-1.539l.006,0a3.516,3.516,0,0,1-.315-.7Z" transform="translate(-866.007 -70.091)"/><path class="c" d="M875.346,92.9a.437.437,0,0,0-.063,0c-1.181.006-2.361,0-3.542,0s-2.382,0-3.574,0c-.1,0-.15,0-.119.137q.228.99.433,1.985c.026.126.076.146.195.12q2.1-.45,4.194-.893l2.558-.543a3.559,3.559,0,0,1-.082-.757C875.345,92.934,875.346,92.919,875.346,92.9Z" transform="translate(-865.825 -69.578)"/><path class="c" d="M877.792,95.98l-.008.006c-.408.3-.821.595-1.233.891l-2.691,1.938c-.056.041-.152.063-.053.173.365.4.721.817,1.079,1.226a.811.811,0,0,1,.065.113c.043-.064.058-.094.079-.118.106-.12.214-.239.321-.358q1.473-1.638,2.948-3.274l.016-.019A3.572,3.572,0,0,1,877.792,95.98Z" transform="translate(-867.6 -70.533)"/><path class="c" d="M879.465,97.156q-1.411,1.917-2.831,3.827c-.059.08-.076.12.036.172.465.216.924.442,1.386.665l.075.036c.07-.006.069-.072.088-.115q.331-.738.658-1.477.61-1.374,1.222-2.747l0-.01a3.518,3.518,0,0,1-.63-.362Z" transform="translate(-868.477 -70.895)"/><path class="d" d="M880.69,101.03c-.032.1-.012.13.083.148.393.072.786.147,1.177.228.125.026.154-.019.163-.134.02-.255.052-.509.08-.764.09-.825.18-1.65.272-2.491a3.506,3.506,0,0,1-.755-.157Q881.206,99.447,880.69,101.03Z" transform="translate(-869.745 -71.117)"/><path class="d" d="M883.773,98.122c.006.513,0,1.026,0,1.54s0,1.048,0,1.571c0,.078,0,.13.108.128q.642-.007,1.283,0c.1,0,.1-.043.086-.119q-.364-1.622-.723-3.247a3.564,3.564,0,0,1-.753.081A.3.3,0,0,0,883.773,98.122Z" transform="translate(-870.706 -71.159)"/><path class="d" d="M885.379,97.8a.27.27,0,0,1,.015.046c.2.589.406,1.177.6,1.768.033.1.063.117.161.068.27-.138.548-.261.822-.392.036-.017.08-.024.1-.068-.01-.021-.018-.041-.028-.059q-.5-.876-1-1.752a3.5,3.5,0,0,1-.7.315A.293.293,0,0,0,885.379,97.8Z" transform="translate(-871.194 -70.977)"/><path class="d" d="M886.827,96.875l.009.014q.529.743,1.046,1.494c.042.061.071.079.134.022.245-.221.5-.437.744-.656a.825.825,0,0,0,.057-.061.8.8,0,0,0-.054-.063q-.682-.63-1.363-1.261l-.01-.008A3.612,3.612,0,0,1,886.827,96.875Z" transform="translate(-871.653 -70.65)"/><path class="d" d="M888.655,94.308c.146.052.288.114.431.172.3.121.3.121.422-.19l.2-.528c.013-.055-.035-.057-.068-.062-.274-.047-.548-.091-.821-.136l-.013,0a3.5,3.5,0,0,1-.166.739Z" transform="translate(-872.215 -69.783)"/><path class="d" d="M888.512,96.07c.057.043.081.019.112-.026.13-.189.259-.378.392-.565.045-.063.041-.1-.033-.13-.219-.1-.437-.2-.651-.3l-.01,0a3.572,3.572,0,0,1-.351.619C888.153,95.8,888.334,95.932,888.512,96.07Z" transform="translate(-872.008 -70.242)"/></g></g></g></svg>