<svg xmlns="http://www.w3.org/2000/svg" width="146.284" height="56.885" viewBox="0 0 146.284 56.885"><defs><style>.a{fill:#0f5a6b;}.b{fill:#ff9a22;}.c{fill:#1d6d7f;}.d{fill:#ce370f;}</style></defs><g transform="translate(-32.249 -16.364)"><path class="a" d="M89.712,21.459h9.013c7.846.183,11.969,4.489,11.969,13.027S106.571,47.33,98.725,47.513H89.712ZM92.193,45.4h5.292c7.48.037,10.727-3.138,10.727-10.91s-3.247-10.947-10.727-10.911H92.193Z"/><path class="a" d="M114.053,34.45c.219-4.416,3.32-6.313,7.625-6.313,3.321,0,6.934,1.022,6.934,6.057v10a1.225,1.225,0,0,0,1.35,1.387,2.16,2.16,0,0,0,.73-.146v1.934a6.332,6.332,0,0,1-1.5.146c-2.336,0-2.7-1.314-2.7-3.284h-.072c-1.606,2.445-3.248,3.831-6.861,3.831-3.466,0-6.312-1.715-6.312-5.51,0-5.291,5.145-5.473,10.107-6.057,1.9-.219,2.956-.474,2.956-2.554,0-3.1-2.226-3.868-4.926-3.868-2.846,0-4.963,1.313-5.036,4.379Zm12.26,2.773h-.073c-.292.547-1.313.73-1.934.839-3.9.693-8.757.657-8.757,4.342a3.921,3.921,0,0,0,4.2,3.722c3.5,0,6.6-2.226,6.568-5.911Z"/><path class="a" d="M136.86,28.684h3.831v1.934H136.86v12.7c0,1.5.219,2.372,1.861,2.482a17.817,17.817,0,0,0,1.97-.11v1.971c-.693,0-1.35.073-2.043.073-3.065,0-4.123-1.022-4.087-4.233V30.618h-3.285V28.684h3.285V23.028h2.3Z"/><path class="a" d="M160.87,38.1c0,5.4-3.138,9.962-8.9,9.962s-8.9-4.561-8.9-9.962,3.137-9.961,8.9-9.961S160.87,32.7,160.87,38.1Zm-15.508,0c0,4.014,2.19,8.028,6.6,8.028s6.605-4.014,6.605-8.028-2.19-8.027-6.605-8.027S145.362,34.085,145.362,38.1Z"/><path class="a" d="M175.577,34.194c-.109-2.846-2.3-4.123-4.926-4.123-2.044,0-4.452.8-4.452,3.247,0,2.044,2.336,2.773,3.9,3.175l3.065.693c2.627.4,5.364,1.934,5.364,5.218,0,4.087-4.05,5.656-7.553,5.656-4.379,0-7.371-2.043-7.736-6.641h2.3c.182,3.1,2.481,4.707,5.546,4.707,2.153,0,5.146-.949,5.146-3.576,0-2.189-2.044-2.919-4.124-3.43l-2.956-.657c-2.992-.8-5.255-1.824-5.255-5.035,0-3.832,3.759-5.291,7.08-5.291,3.758,0,6.751,1.97,6.9,6.057Z"/><path class="a" d="M42.137,46.685h5.875l9.743,26.053H51.807l-1.971-5.8H40.093l-2.043,5.8h-5.8ZM41.59,62.667h6.75l-3.284-9.56h-.072Z"/><path class="a" d="M59.472,46.685h5.181v9.487h.073a6.965,6.965,0,0,1,5.948-2.81c3.758,0,7.809,3.029,7.809,9.925,0,6.933-4.051,9.962-7.809,9.962-2.774,0-5.073-.84-6.2-2.919H64.4v2.408H59.472Zm9.414,10.581c-3.066,0-4.415,2.883-4.415,6.058,0,3.138,1.349,6.021,4.415,6.021S73.3,66.462,73.3,63.324C73.3,60.149,71.951,57.266,68.886,57.266Z"/><path class="a" d="M87.1,50.954H81.914V46.685H87.1Zm-5.182,2.919H87.1V72.738H81.914Z"/><path class="a" d="M95.452,64.565c.146,3.283,1.752,4.78,4.635,4.78,2.08,0,3.758-1.278,4.086-2.446h4.561c-1.459,4.452-4.561,6.35-8.83,6.35-5.948,0-9.633-4.087-9.633-9.925,0-5.656,3.9-9.962,9.633-9.962,6.422,0,9.524,5.4,9.159,11.2Zm8.43-3.285c-.475-2.627-1.606-4.014-4.124-4.014a4.084,4.084,0,0,0-4.306,4.014Z"/><path class="a" d="M112.129,53.873h4.926v3.5h.073a6.671,6.671,0,0,1,6.021-4.014,3.887,3.887,0,0,1,1.132.182v4.817a9.505,9.505,0,0,0-1.862-.182c-3.795,0-5.108,2.736-5.108,6.057v8.5h-5.182Z"/><path class="a" d="M132.892,53.873h3.795v3.466h-3.795V66.68c0,1.752.438,2.19,2.19,2.19a7.924,7.924,0,0,0,1.6-.146v4.05a19.72,19.72,0,0,1-3.028.183c-3.175,0-5.948-.73-5.948-4.488V57.339h-3.138V53.873h3.138V48.217h5.181Z"/><path class="a" d="M148.328,53.362c5.948,0,9.779,3.941,9.779,9.962,0,5.984-3.831,9.925-9.779,9.925-5.911,0-9.742-3.941-9.742-9.925C138.586,57.3,142.417,53.362,148.328,53.362Zm0,15.983c3.539,0,4.6-3.029,4.6-6.021,0-3.029-1.059-6.058-4.6-6.058-3.5,0-4.561,3.029-4.561,6.058C143.767,66.316,144.825,69.345,148.328,69.345Z"/><path class="a" d="M165.479,66.608c.037,2.262,1.934,3.174,3.978,3.174,1.5,0,3.393-.584,3.393-2.408,0-1.569-2.152-2.116-5.875-2.919-2.992-.657-5.984-1.715-5.984-5.036,0-4.816,4.16-6.057,8.211-6.057,4.123,0,7.918,1.387,8.319,6.021H172.6c-.146-2.007-1.678-2.554-3.54-2.554-1.167,0-2.883.218-2.883,1.751,0,1.861,2.92,2.116,5.875,2.81,3.029.693,5.985,1.788,5.985,5.29,0,4.963-4.306,6.569-8.612,6.569-4.379,0-8.648-1.642-8.867-6.641Z"/><path class="b" d="M87.321,39.545q-.172-1.585-.342-3.17c-.113-1.052-.232-2.1-.335-3.155-.018-.176-.072-.187-.222-.155q-3.912.848-7.826,1.687l-8.313,1.785L62.6,38.187q-1.739.374-3.476.743a.25.25,0,0,0-.064.022,3.566,3.566,0,0,1,.088.765.319.319,0,0,0,.169.029q6.953-.006,13.9,0H87.139C87.347,39.743,87.343,39.743,87.321,39.545Z"/><path class="b" d="M59.056,38.576q2.312-.759,4.627-1.5,5.626-1.821,11.252-3.639l9.074-2.939c.548-.178,1.1-.354,1.644-.533.043-.014.115-.005.111-.09l-.052-.114q-1.311-2.911-2.618-5.825c-.066-.149-.114-.157-.248-.079Q71.8,30.288,60.74,36.718c-.673.392-1.345.786-2.022,1.174a.322.322,0,0,0-.063.046,3.534,3.534,0,0,1,.3.661A.4.4,0,0,0,59.056,38.576Z"/><path class="b" d="M57.759,36.772q3.734-5.142,7.475-10.28l5.356-7.361c.029-.039.056-.078.086-.12-.014-.069-.081-.077-.128-.1q-2.209-1.25-4.419-2.5c-.127-.072-.167-.055-.224.076q-3.361,7.633-6.729,15.263-1.038,2.35-2.075,4.7a.474.474,0,0,0-.025.066,3.558,3.558,0,0,1,.6.347A.255.255,0,0,0,57.759,36.772Z"/><path class="b" d="M58.471,37.657l.1-.069q8.694-6.315,17.389-12.627c.107-.077.1-.12.025-.214q-1.6-1.979-3.18-3.964c-.1-.123-.14-.1-.23,0q-2.407,2.7-4.82,5.386l-7.27,8.118q-1.229,1.373-2.46,2.745a.254.254,0,0,0-.049.069A3.611,3.611,0,0,1,58.471,37.657Z"/><path class="b" d="M55.634,36.19a.326.326,0,0,0,.025-.148q-.008-4.168,0-8.339V21.241c0-.647,0-1.294,0-1.941,0-.112-.03-.146-.144-.139-.389.026-.779.043-1.168.062q-1.464.073-2.928.145c-.109,0-.142.021-.116.145q.659,3.069,1.305,6.14.827,3.891,1.654,7.783c.2.924.4,1.847.585,2.773a.458.458,0,0,0,.017.058,3.51,3.51,0,0,1,.737-.077Z"/><path class="b" d="M56.761,36.271c.263-.823.531-1.644.8-2.466L60.6,24.43q.693-2.139,1.39-4.276c.044-.134.025-.175-.122-.2-1.327-.252-2.651-.514-3.976-.775-.1-.02-.128,0-.138.1-.073.754-.153,1.509-.232,2.263q-.169,1.634-.34,3.267-.153,1.473-.305,2.948-.168,1.625-.337,3.251-.154,1.49-.309,2.98c-.077.738-.152,1.476-.227,2.207l0,.018a3.459,3.459,0,0,1,.708.154A.191.191,0,0,0,56.761,36.271Z"/><path class="b" d="M54.5,36.273Q52.526,30.1,50.554,23.928c-.049-.152-.1-.154-.227-.1-.969.434-1.942.859-2.913,1.287-.192.084-.191.083-.084.27q2.746,4.758,5.49,9.516c.331.574.661,1.148.995,1.72a.216.216,0,0,1,.016.037,3.55,3.55,0,0,1,.7-.308Z"/><path class="b" d="M53.552,36.84l-.038-.054q-3.763-5.2-7.524-10.4c-.082-.114-.125-.113-.226-.024q-1.194,1.056-2.4,2.1c-.123.106-.112.151,0,.255q3.6,3.222,7.19,6.453,1.2,1.077,2.394,2.154l.026.022A3.551,3.551,0,0,1,53.552,36.84Z"/><path class="c" d="M52.216,38.593c-.269-.084-.537-.176-.805-.264Q47.391,37,43.373,35.68c-.114-.038-.153-.024-.184.1-.208.805-.42,1.61-.642,2.411-.043.156.012.177.14.189.383.033.765.074,1.147.113l3.283.339,3.3.338,1.66.171a3.59,3.59,0,0,1,.164-.736Z"/><path class="c" d="M52.713,37.6c-.5-.357-.993-.723-1.488-1.086L45.3,32.181l-.115-.083c-.059.015-.07.068-.095.1-.445.691-.886,1.385-1.336,2.072-.081.123-.053.156.067.209q2.076.906,4.146,1.821,2.188.963,4.376,1.93l.032.014a3.585,3.585,0,0,1,.368-.622Z"/><path class="c" d="M52.208,40.831c-.282.1-.568.185-.852.276q-3.045.984-6.09,1.965c-.121.039-.145.071-.075.189q.513.858,1.009,1.728c.06.105.1.126.213.061q1.718-.994,3.441-1.979,1.34-.77,2.679-1.54l.006,0a3.541,3.541,0,0,1-.315-.7Z"/><path class="c" d="M52.054,39.69a.414.414,0,0,0-.064,0c-1.181.005-2.361,0-3.542,0s-2.382,0-3.573,0c-.1,0-.15.005-.12.137.152.66.295,1.322.434,1.985.026.126.075.146.194.12q2.1-.45,4.194-.893l2.557-.542a3.578,3.578,0,0,1-.082-.758Z"/><path class="c" d="M52.723,41.81l-.008.006c-.408.3-.821.595-1.233.891q-1.345.969-2.691,1.938c-.057.04-.153.063-.054.173.365.4.721.816,1.08,1.226a.736.736,0,0,1,.064.113c.043-.064.058-.094.079-.118.106-.12.214-.239.321-.358q1.473-1.638,2.948-3.274l.016-.019A3.628,3.628,0,0,1,52.723,41.81Z"/><path class="c" d="M53.52,42.625q-1.412,1.917-2.83,3.827c-.06.08-.076.12.035.172.465.216.924.443,1.386.666l.075.035c.07-.005.069-.071.088-.115q.332-.736.659-1.476.611-1.374,1.222-2.748l0-.009a3.543,3.543,0,0,1-.63-.363Z"/><path class="d" d="M53.477,46.277c-.032.1-.012.13.084.148.393.072.786.146,1.177.228.125.026.155-.02.164-.134.02-.255.052-.509.08-.764.09-.824.18-1.649.272-2.49a3.565,3.565,0,0,1-.755-.157Q53.993,44.694,53.477,46.277Z"/><path class="d" d="M55.6,43.327c.006.513,0,1.026,0,1.539s0,1.048,0,1.572c0,.078,0,.13.107.128.428-.005.855,0,1.283,0,.1,0,.1-.043.085-.118-.242-1.082-.485-2.164-.722-3.247a3.6,3.6,0,0,1-.753.081A.324.324,0,0,0,55.6,43.327Z"/><path class="d" d="M56.717,43.187a.349.349,0,0,1,.014.046c.2.589.406,1.177.6,1.767.033.1.064.117.161.068.271-.138.548-.262.822-.392.036-.017.081-.024.1-.068-.01-.021-.017-.041-.028-.06-.333-.583-.668-1.167-1-1.751a3.567,3.567,0,0,1-.7.315A.306.306,0,0,0,56.717,43.187Z"/><path class="d" d="M57.705,42.588l.01.015c.352.495.7.994,1.046,1.494.042.061.071.078.133.022.246-.221.5-.438.745-.656a.563.563,0,0,0,.056-.061.6.6,0,0,0-.054-.063l-1.363-1.261-.01-.009A3.507,3.507,0,0,1,57.705,42.588Z"/><path class="d" d="M58.972,40.889c.146.051.287.114.431.171.3.122.305.122.422-.19.066-.174.131-.349.2-.528.013-.055-.035-.056-.068-.061-.273-.047-.547-.092-.821-.137h-.013a3.556,3.556,0,0,1-.166.739Z"/><path class="d" d="M59.036,42.192c.056.043.082.018.112-.026.13-.189.259-.379.392-.565.045-.064.041-.1-.033-.13-.219-.1-.437-.2-.652-.3l-.01,0a3.534,3.534,0,0,1-.351.62C58.677,41.92,58.858,42.054,59.036,42.192Z"/></g></svg>