<svg xmlns="http://www.w3.org/2000/svg" width="146.284" height="57.467" viewBox="0 0 146.284 57.467"><defs><style>.a{fill:#0f5a6b;}</style></defs><g transform="translate(-32.249 -16.364)"><path class="a" d="M57.992,73.358c-1.322,0-2.489.044-3.648-.036-.244-.017-.544-.453-.669-.758q-1.224-2.985-2.367-6a1.117,1.117,0,0,0-1.22-.858q-5.067.048-10.134,0a1.074,1.074,0,0,0-1.18.795c-.782,2.032-1.631,4.038-2.414,6.07a1.05,1.05,0,0,1-1.168.817c-.92-.047-1.844-.012-2.943-.012.349-.863.621-1.569.918-2.265Q37.952,59.9,42.73,48.681a1.164,1.164,0,0,1,1.313-.845c.821.051,1.649.034,2.473.006a.9.9,0,0,1,.957.648q5.114,12.025,10.246,24.044C57.809,72.746,57.866,72.972,57.992,73.358ZM45.215,51.205l-.252-.011L40.319,62.766h9.426Z"/><path class="a" d="M63.721,71.2c0,.516,0,.985,0,1.454.006.492-.208.734-.721.719-.612-.018-1.225-.021-1.837,0-.562.021-.764-.259-.749-.776,0-.212-.006-.425-.006-.638q0-11.367,0-22.733c0-1.379.005-1.394,1.345-1.379,2.151.025,1.966-.323,1.975,1.946.008,2.047,0,4.094.005,6.142,0,.339.031.678.049,1.054.138-.025.236-.013.273-.054,2.153-2.435,4.991-2.7,7.92-2.305,4.15.563,6.882,3.509,7.472,7.871a10.411,10.411,0,0,1-1.867,8.084A8.006,8.006,0,0,1,72,73.646a9.913,9.913,0,0,1-5.774-.767A22.385,22.385,0,0,1,63.721,71.2Zm12.486-7.128a26.332,26.332,0,0,0-.848-3.362,5.218,5.218,0,0,0-4.427-3.437c-2.344-.3-4.467.131-5.949,2.194a8.874,8.874,0,0,0-.3,8.93c2,3.416,8.147,3.863,10.315.087A11.943,11.943,0,0,0,76.207,64.073Z"/><path class="a" d="M88.243,35.508q0-6.058,0-12.116c0-1.059.031-1.09,1.06-1.092,2.633,0,5.27-.092,7.9.033a22.487,22.487,0,0,1,4.936.767,9.26,9.26,0,0,1,6.673,6.879,20.792,20.792,0,0,1,.14,10.564c-1.107,4.629-4.132,7.228-8.79,7.943a29.243,29.243,0,0,1-3.892.284c-2.34.044-4.681-.01-7.021.024-.757.01-1.022-.248-1.017-1.012C88.257,43.691,88.243,39.6,88.243,35.508Zm2.442,0c0,3.374.014,6.747-.011,10.121-.005.72.241.992.972.974,1.541-.039,3.088.055,4.625-.03a24.771,24.771,0,0,0,4.418-.518,7.307,7.307,0,0,0,5.537-5,18.219,18.219,0,0,0,.588-8.583c-.762-5.147-3.638-7.71-8.866-7.918-2.072-.082-4.148-.025-6.221-.081-.8-.021-1.063.281-1.056,1.071C90.7,28.868,90.684,32.189,90.685,35.509Z"/><path class="a" d="M109.333,67.6c-.553,2.463-1.742,4.272-3.888,5.157-3.843,1.583-7.641,1.547-11.112-1.044a8.492,8.492,0,0,1-3.115-6.16c-.4-3.308.309-6.32,2.879-8.64a9.513,9.513,0,0,1,9.7-1.927c3.3,1.013,4.93,3.613,5.667,6.837a15.949,15.949,0,0,1,.286,2.129c.09,1.021-.009,1.12-1.011,1.121q-6.465,0-12.93,0c-1.19,0-1.317.159-1.106,1.361a5.22,5.22,0,0,0,4,4.384,7.465,7.465,0,0,0,4.479-.044,4.311,4.311,0,0,0,2.734-2.5c.112-.26.369-.628.584-.646C107.388,67.561,108.286,67.6,109.333,67.6Zm-8.956-5.216c1.6,0,3.19.006,4.786,0,1.009-.005,1.106-.143.851-1.134-.885-3.44-5.15-5.157-8.482-3.412a5.263,5.263,0,0,0-2.789,3.594c-.19.8-.068.942.768.949C97.133,62.4,98.755,62.387,100.377,62.388Z"/><path class="a" d="M146.729,73.746a9.105,9.105,0,0,1-7.182-3.225c-3.334-4.052-2.668-11.014,1.378-14.1,2.688-2.046,5.8-2.268,8.988-1.654,4.729.909,7.559,5.1,7.12,10.4a8.7,8.7,0,0,1-5.067,7.658A11.6,11.6,0,0,1,146.729,73.746Zm-5.807-9.622c.079.685.116,1.378.245,2.053a6.2,6.2,0,0,0,11.861.98,8.459,8.459,0,0,0-.283-6.667,6.256,6.256,0,0,0-9.711-1.717A7.369,7.369,0,0,0,140.922,64.124Z"/><path class="a" d="M168.025,73.758a10.586,10.586,0,0,1-5.985-1.6,5.368,5.368,0,0,1-2.276-4.026.707.707,0,0,1,.441-.537,12.775,12.775,0,0,1,2.23.012.912.912,0,0,1,.641.537,3.669,3.669,0,0,0,3.038,2.714,10.228,10.228,0,0,0,5.055-.056,3.878,3.878,0,0,0,1.011-.461,2.106,2.106,0,0,0-.125-3.862,53.886,53.886,0,0,0-5.327-1.575,32.675,32.675,0,0,1-4.012-1.261,3.98,3.98,0,0,1-2.579-3.627,4.254,4.254,0,0,1,2.348-4.206A12.107,12.107,0,0,1,172.6,55.3a4.94,4.94,0,0,1,3.233,4.024c.15.72-.076,1-.8.946a5.274,5.274,0,0,0-.957,0c-.874.093-1.452-.069-1.77-1.079a2.928,2.928,0,0,0-2.246-1.743,8.858,8.858,0,0,0-4.652.063,2.8,2.8,0,0,0-.589.241c-1.507.808-1.645,2.584-.118,3.325a26.455,26.455,0,0,0,4.451,1.424c1.2.336,2.456.5,3.635.891a9.71,9.71,0,0,1,2.534,1.3c2.141,1.533,2.213,5.855-.9,7.662A12.142,12.142,0,0,1,168.025,73.758Z"/><path class="a" d="M125.529,45.566c-.439.526-.755.913-1.08,1.293-1.8,2.106-4.185,2.587-6.792,2.351a8.491,8.491,0,0,1-2.177-.449,4.812,4.812,0,0,1-3.277-4.633c-.061-2.82.725-4.148,3.074-5.194,2.109-.939,4.395-.977,6.625-1.3.315-.046.633-.07.948-.119,1.1-.169,2.228-.31,2.464-1.7.327-1.924-.232-3.523-1.64-4.127a7.092,7.092,0,0,0-6.8.367,3.606,3.606,0,0,0-1.487,2.543c-.062.294-.286.752-.485.78a5.893,5.893,0,0,1-1.713-.1c-.079-.012-.164-.432-.129-.644A5.758,5.758,0,0,1,117,29.679a11.358,11.358,0,0,1,6.986-.137,5.159,5.159,0,0,1,3.74,5.243c.031,3.189.007,6.378.013,9.567,0,.4.027.8.065,1.191a1.174,1.174,0,0,0,1.3,1.206c.518-.012.745.211.7.711s.224,1.113-.61,1.233c-2.118.3-3.474-.351-3.568-2.481C125.622,46.059,125.583,45.907,125.529,45.566Zm-.287-6.861c-.8.177-1.588.379-2.39.526-.836.153-1.7.185-2.521.391a23.532,23.532,0,0,0-4.171,1.247,3.031,3.031,0,0,0-1.191,4.485,3.9,3.9,0,0,0,3.456,1.967C124.224,47.332,126.074,43.627,125.242,38.705Z"/><path class="a" d="M160.572,39.313a11.935,11.935,0,0,1-2.1,6.654c-3.1,4.5-11.94,4.831-14.893-1.572a11.586,11.586,0,0,1,.364-11.028,8.8,8.8,0,0,1,15.789,1.439,32.612,32.612,0,0,1,1.037,4.464Zm-15.808.469a20.75,20.75,0,0,0,.752,3.18,6.167,6.167,0,0,0,4.991,4.306,5.88,5.88,0,0,0,5.807-2.229,9.958,9.958,0,0,0,.07-11.6A6.163,6.163,0,0,0,147.006,33C145.407,34.734,144.867,36.861,144.764,39.782Z"/><path class="a" d="M171.1,49.268a9.791,9.791,0,0,1-5.482-1.423,6.217,6.217,0,0,1-2.566-4.663c-.017-.125.015-.366.054-.373a9.514,9.514,0,0,1,1.682-.19.775.775,0,0,1,.561.5c.478,4.537,6.928,5.286,9.738,2.9a2.837,2.837,0,0,0-.212-4.625,13.89,13.89,0,0,0-3.18-1.205c-1.5-.452-3.054-.734-4.54-1.224-2.276-.75-3.415-2.181-3.493-4.157a4.68,4.68,0,0,1,3.108-4.895,9.206,9.206,0,0,1,8.1.13,5.7,5.7,0,0,1,2.908,4.6.772.772,0,0,1-.031.372,10.8,10.8,0,0,1-1.759.185c-.176,0-.456-.326-.5-.542a4.053,4.053,0,0,0-3.2-3.38,6.53,6.53,0,0,0-4.592.4,2.8,2.8,0,0,0-1.7,2.582,2.371,2.371,0,0,0,1.631,2.416c1.818.648,3.722,1.049,5.567,1.628a12.593,12.593,0,0,1,3.227,1.291,4.942,4.942,0,0,1-.041,8.135A9.424,9.424,0,0,1,171.1,49.268Z"/><path class="a" d="M72.381,40.006H59.459a3.38,3.38,0,0,1-.794-.025,2.064,2.064,0,0,1-.55-.338c.153-.181.276-.478.462-.525,1.158-.293,2.33-.535,3.5-.786q11.379-2.436,22.76-4.869c1.045-.223,1.1-.189,1.208.822.173,1.583.3,3.173.53,4.749.112.772-.135.984-.871.981C81.262,40,76.822,40.006,72.381,40.006Z"/><path class="a" d="M82.306,23.91,85.059,30c-.361.153-.634.293-.922.387Q71.428,34.5,58.716,38.613a.84.84,0,0,1-.3.091,5.773,5.773,0,0,1-.632-.133c.094-.213.129-.513.292-.622.617-.414,1.275-.767,1.919-1.141Q70.647,30.613,81.3,24.421C81.6,24.251,81.906,24.113,82.306,23.91Z"/><path class="a" d="M127.489,64.287c0-1.833.008-3.667,0-5.5-.007-1.132-.062-1.175-1.161-1.184-.4,0-.8,0-1.2,0-1.022-.011-1.054-.044-1.063-1.1,0-.239.014-.479,0-.718-.03-.569.226-.831.8-.818s1.171-.025,1.756-.011c.6.014.867-.257.861-.861-.011-1.222.038-2.445,0-3.666-.027-.807.3-1.071,1.083-1.058,2.581.044,2.167-.221,2.206,2.135.014.876.022,1.754,0,2.63-.014.581.245.82.809.816.8-.006,1.6.029,2.393.009.63-.015.9.216.917.88.039,1.762.062,1.762-1.687,1.762-.506,0-1.013.028-1.516,0-.7-.045-.925.279-.921.95.019,3.4,0,6.8.015,10.2.009,1.54.363,1.876,1.874,1.928.16,0,.319,0,.479.006,1.774.013,2.106.416,1.707,2.18a.788.788,0,0,1-.572.479,33.59,33.59,0,0,1-3.978-.127c-1.817-.214-2.611-1.108-2.723-2.954-.084-1.377-.058-2.761-.075-4.142-.008-.611,0-1.223,0-1.834Z"/><path class="a" d="M116.421,58.464c.145-.209.291-.417.434-.628a7.094,7.094,0,0,1,5.945-3.331c.621-.017.971.131.926.829s.207,1.561-.129,2.015c-.3.407-1.22.381-1.874.5-3.534.637-5.271,2.85-5.337,6.912q-.062,3.788,0,7.578c.013.792-.217,1.064-1.035,1.055-2.312-.027-2.313.007-2.313-2.335q0-7.459,0-14.918c0-1.122.049-1.176,1.166-1.174,2.36.006,1.964-.179,2,2,.009.476,0,.951,0,1.427Z"/><path class="a" d="M133.806,38.906c0-2.127-.019-4.254.01-6.381.009-.685-.231-.977-.926-.935-.557.034-1.118-.019-1.676.006-.691.03-.777-.387-.762-.926.015-.514-.054-1.059.732-1.032.532.018,1.068-.041,1.6.007.823.073,1.071-.284,1.04-1.068-.049-1.248.014-2.5-.021-3.748-.019-.69.234-.994.93-.918a3.317,3.317,0,0,0,.638,0c.6-.05.8.239.795.805-.016,1.329.023,2.659-.01,3.987-.017.684.227.973.924.938.717-.036,1.438.025,2.155-.011.746-.037.8.4.789.968-.01.535.017,1.03-.757,1-.744-.031-1.491.017-2.235-.005-.591-.017-.875.183-.872.823.017,4.147-.01,8.295.023,12.442.014,1.721.76,2.276,2.686,2.156,1.172-.073,1.189-.034,1.157,1.146-.014.507-.215.756-.7.738a23.762,23.762,0,0,1-3.1-.175,2.424,2.424,0,0,1-2.272-2.487c-.14-1.985-.1-3.982-.141-5.974C133.8,39.81,133.807,39.358,133.806,38.906Z"/><path class="a" d="M65.1,16.364l4.7,2.664c-.59.82-1.109,1.549-1.635,2.273L57.282,36.253a1.947,1.947,0,0,1-.34.439,2.89,2.89,0,0,1-.578.262c-.037-.23-.173-.5-.1-.682.493-1.2,1.03-2.39,1.557-3.581q3.381-7.653,6.767-15.305C64.728,17.077,64.892,16.78,65.1,16.364Z"/><path class="a" d="M71.766,20.621c1.2,1.5,2.238,2.766,3.225,4.077.076.1-.156.567-.355.717-1.466,1.1-2.961,2.167-4.446,3.245L58.568,37.1a2.293,2.293,0,0,1-.591.4,3.594,3.594,0,0,1-.823.07,2.081,2.081,0,0,1,.245-.736c2.257-2.548,4.534-5.078,6.806-7.612q3.516-3.92,7.031-7.839A9.207,9.207,0,0,0,71.766,20.621Z"/><path class="a" d="M87.009,64.212c0,2.738-.018,5.475.011,8.213.007.722-.236.982-.968.961-2.677-.077-2.307.4-2.318-2.328-.02-4.944-.007-9.888,0-14.831,0-1.213.049-1.264,1.257-1.261,2.321.006,2-.186,2.019,1.99C87.023,59.374,87.01,61.793,87.009,64.212Z"/><path class="a" d="M55.009,35.891c.372-3.6.723-7.01,1.075-10.415.184-1.769.4-3.535.545-5.306.063-.74.339-.98,1.074-.8.848.213,1.713.366,2.577.514.532.091.734.3.549.864-1.657,5.069-3.292,10.145-4.955,15.212-.071.216-.36.36-.548.538Z"/><path class="a" d="M54.584,27.983q0,3.629,0,7.257a2.48,2.48,0,0,1-.03.713,1.958,1.958,0,0,1-.38.519c-.153-.147-.4-.27-.445-.445-.25-1.005-.454-2.021-.67-3.034-.9-4.209-1.773-8.422-2.7-12.625-.161-.73.051-.98.747-1,.85-.019,1.7-.042,2.55-.114.7-.06.941.221.934.91C54.568,22.773,54.583,25.378,54.584,27.983Z"/><path class="a" d="M46.125,25.3l3.192-1.4c.155.378.292.659.386.954q1.77,5.5,3.528,11a.574.574,0,0,1,.06.229c-.034.23-.09.456-.138.684-.223-.115-.545-.171-.655-.354-.972-1.616-1.906-3.254-2.85-4.887q-1.554-2.69-3.1-5.383C46.414,25.906,46.309,25.665,46.125,25.3Z"/><path class="a" d="M42.078,28.7l2.579-2.262c.208.231.394.4.541.606,2.293,3.155,4.588,6.309,6.855,9.482.153.213.094.579.134.873a2.315,2.315,0,0,1-.784-.281q-4.38-3.88-8.728-7.8C42.5,29.165,42.347,28.983,42.078,28.7Z"/><path class="a" d="M42.048,35.938c.313.07.546.1.767.175q3.791,1.242,7.576,2.5a1.069,1.069,0,0,1,.369.143,3.187,3.187,0,0,1,.357.446c-.181.115-.369.339-.542.328-1.008-.064-2.012-.183-3.017-.283-1.773-.176-3.545-.364-5.32-.521-.676-.059-.974-.3-.716-1.01C41.726,37.147,41.866,36.558,42.048,35.938Z"/><path class="a" d="M42.515,34.6c.456-.717.809-1.337,1.239-1.9a.715.715,0,0,1,.695-.078q3.43,2.452,6.813,4.971c.151.112.195.368.288.557-.251.038-.547.182-.746.1-2.222-.942-4.43-1.918-6.64-2.89C43.659,35.142,43.162,34.9,42.515,34.6Z"/><path class="a" d="M87,49.788c-.01,2.07.246,1.854-1.878,1.865-1.406.007-1.406,0-1.421-1.4v-.08c-.019-2.468.3-2.744,2.786-2.287a.818.818,0,0,1,.491.556A7.985,7.985,0,0,1,87,49.788Z"/><path class="a" d="M47.318,39.935c.983,0,1.968-.031,2.949.021.273.014.533.278.8.427-.222.173-.42.446-.668.5-1.863.427-3.74.8-5.6,1.216-.583.131-.857-.067-.924-.63a.722.722,0,0,0-.013-.079c-.335-1.459-.335-1.459,1.149-1.461h2.312Z"/><path class="a" d="M43.963,43.44c.885-.293,1.632-.545,2.382-.788,1.412-.459,2.82-.928,4.242-1.354.223-.067.508.072.764.116-.119.222-.18.541-.365.651-1.756,1.041-3.536,2.041-5.3,3.066-.4.232-.669.213-.889-.236S44.3,44.028,43.963,43.44Z"/><path class="a" d="M48.762,46.456l-1.2-1.418c1.344-.96,2.607-1.874,3.89-2.757a.588.588,0,0,1,.526.1.486.486,0,0,1-.01.47C50.941,44.03,49.9,45.188,48.762,46.456Z"/><path class="a" d="M49.528,46.858c.978-1.306,1.871-2.512,2.788-3.7.08-.1.4-.169.46-.107a.6.6,0,0,1,.167.508c-.525,1.243-1.07,2.477-1.656,3.692a.7.7,0,0,1-.631.187A6.772,6.772,0,0,1,49.528,46.858Z"/><path class="a" d="M54.112,44.329c-.069.657-.155,1.313-.2,1.972-.043.6-.385.661-.876.579-.543-.092-.623-.369-.45-.846.225-.621.371-1.272.623-1.88a3.413,3.413,0,0,1,.621-.76l.422.864Z"/><path class="a" d="M54.569,45.191a6.444,6.444,0,0,1,.018-1.1c.036-.209.245-.389.376-.582.144.152.371.282.42.46a21.04,21.04,0,0,1,.512,2.311.686.686,0,0,1-.368.569c-.343.054-.86.219-.933-.39a10.651,10.651,0,0,1-.01-1.264Z"/><path class="a" d="M57.379,44.839a2.285,2.285,0,0,1-.611.39c-.156.037-.459-.044-.511-.157a9.541,9.541,0,0,1-.494-1.42.456.456,0,0,1,.16-.389c.1-.072.377-.1.422-.032C56.692,43.722,57,44.241,57.379,44.839Z"/><path class="a" d="M57.769,44.4a14.325,14.325,0,0,1-.872-1.246c-.084-.149.024-.407.045-.614a1.116,1.116,0,0,1,1.074.528C58.695,43.727,58.69,43.775,57.769,44.4Z"/><path class="a" d="M59.1,40.778c-.287.265-.443.524-.6.522-.175,0-.347-.236-.52-.369.157-.143.294-.349.477-.406C58.59,40.484,58.783,40.644,59.1,40.778Z"/><path class="a" d="M58.487,42.046l-.692.246-.185-.525.744-.155Z"/></g></svg>